G04*
G04 #@! TF.GenerationSoftware,Altium Limited,Altium Designer,20.1.12 (249)*
G04*
G04 Layer_Color=16711935*
%FSLAX25Y25*%
%MOIN*%
G70*
G04*
G04 #@! TF.SameCoordinates,B43397F4-0A5E-4D4A-B50E-CAD48B1EF134*
G04*
G04*
G04 #@! TF.FilePolarity,Positive*
G04*
G01*
G75*
%ADD39C,0.01968*%
D39*
X386358Y77654D02*
G03*
X386358Y93402I0J7874D01*
G01*
X6917Y111026D02*
G03*
X1415Y105525I0J-5502D01*
G01*
X1618Y65532D02*
G03*
X7119Y60030I5502J0D01*
G01*
X41840Y49637D02*
G03*
X41840Y7737I-15495J-20950D01*
G01*
X280806Y3276D02*
G03*
X281154Y3136I348J361D01*
G01*
X388753Y3136D02*
G03*
X394254Y8637I0J5502D01*
G01*
X394254Y48630D02*
G03*
X388753Y54131I-5502J0D01*
G01*
X183500Y65000D02*
X312500Y64500D01*
X120081Y65184D02*
X159000Y65000D01*
X183500Y49500D02*
X275429Y48824D01*
X64000Y50000D02*
X159000Y49500D01*
X183500D02*
Y65000D01*
X159000Y49500D02*
Y65000D01*
X280399Y53978D02*
X312500Y54000D01*
X331500D02*
X388753Y54131D01*
X331500Y64500D02*
X352210Y64376D01*
X312500Y54000D02*
Y64500D01*
X331500Y54000D02*
Y64500D01*
X41840Y49637D02*
X45500Y49637D01*
X64000Y60000D02*
X115111Y60030D01*
X7119Y60030D02*
X45500Y60000D01*
X115111Y60030D02*
X120081Y65184D01*
X64000Y50000D02*
Y60000D01*
X45500Y49637D02*
Y60000D01*
X352210Y64376D02*
X353864Y66018D01*
X365500Y77654D01*
X353864Y105038D02*
X365500Y93402D01*
X386358D01*
X365500Y77668D02*
X386358D01*
X120275Y105852D02*
X353864Y105038D01*
X114909Y111026D02*
X120275Y105852D01*
X6917Y111026D02*
X114909D01*
X1415Y105525D02*
X1617Y65532D01*
X41840Y7737D02*
X275440Y8451D01*
X280806Y3276D01*
X281154Y3136D02*
X388753D01*
X394254Y8637D02*
Y48630D01*
X275429Y48824D02*
X280399Y53978D01*
M02*
