G04*
G04 #@! TF.GenerationSoftware,Altium Limited,Altium Designer,20.1.12 (249)*
G04*
G04 Layer_Physical_Order=2*
G04 Layer_Color=36540*
%FSLAX25Y25*%
%MOIN*%
G70*
G04*
G04 #@! TF.SameCoordinates,B43397F4-0A5E-4D4A-B50E-CAD48B1EF134*
G04*
G04*
G04 #@! TF.FilePolarity,Positive*
G04*
G01*
G75*
%ADD29R,0.17638X0.15079*%
%ADD30R,0.02165X0.11299*%
%ADD32C,0.07087*%
%ADD34C,0.02756*%
%ADD35C,0.01968*%
%ADD36C,0.05000*%
G36*
X6917Y109513D02*
X114298D01*
X119224Y104762D01*
X119459Y104612D01*
X119691Y104456D01*
X119707Y104452D01*
X119721Y104443D01*
X119996Y104394D01*
X120270Y104338D01*
X344143Y103559D01*
X344495Y103204D01*
X344319Y66290D01*
X343964Y65939D01*
X331509Y66013D01*
X331505Y66012D01*
X331500Y66013D01*
X331215Y65957D01*
X330929Y65902D01*
X330925Y65899D01*
X330921Y65898D01*
X330679Y65737D01*
X330436Y65576D01*
X330434Y65573D01*
X330430Y65570D01*
X330268Y65328D01*
X330171Y65184D01*
X313828D01*
X313736Y65322D01*
X313574Y65566D01*
X313572Y65568D01*
X313570Y65570D01*
X313327Y65733D01*
X313085Y65896D01*
X313082Y65896D01*
X313079Y65898D01*
X312792Y65955D01*
X312506Y66013D01*
X183506Y66513D01*
X183503Y66513D01*
X183500Y66513D01*
X183213Y66456D01*
X182926Y66400D01*
X182924Y66399D01*
X182921Y66398D01*
X182677Y66236D01*
X182434Y66074D01*
X182432Y66072D01*
X182430Y66070D01*
X182267Y65826D01*
X182104Y65584D01*
X182104Y65582D01*
X182102Y65579D01*
X182045Y65292D01*
X182023Y65184D01*
X160477D01*
X160457Y65285D01*
X160401Y65573D01*
X160399Y65576D01*
X160398Y65579D01*
X160237Y65821D01*
X160075Y66065D01*
X160072Y66067D01*
X160070Y66070D01*
X159827Y66232D01*
X159586Y66395D01*
X159582Y66396D01*
X159579Y66398D01*
X159292Y66455D01*
X159007Y66513D01*
X120088Y66698D01*
X120071Y66694D01*
X120053Y66697D01*
X119781Y66638D01*
X119508Y66585D01*
X119494Y66575D01*
X119476Y66571D01*
X119248Y66413D01*
X119016Y66259D01*
X119006Y66245D01*
X118991Y66235D01*
X114468Y61543D01*
X63999Y61513D01*
X63706Y61455D01*
X63421Y61398D01*
X63420Y61398D01*
X63420Y61398D01*
X63177Y61235D01*
X62930Y61070D01*
X62930Y61070D01*
X62929Y61069D01*
X62770Y60831D01*
X62602Y60579D01*
X62602Y60579D01*
X62602Y60578D01*
X62592Y60528D01*
X46908D01*
X46899Y60578D01*
X46898Y60579D01*
X46898Y60579D01*
X46732Y60828D01*
X46571Y61069D01*
X46570Y61070D01*
X46570Y61070D01*
X46320Y61238D01*
X46080Y61398D01*
X46080Y61398D01*
X46079Y61398D01*
X45788Y61456D01*
X45501Y61513D01*
X7619Y61543D01*
X7119Y61544D01*
X6640Y61594D01*
X6083Y61667D01*
X5118Y62066D01*
X4290Y62702D01*
X3654Y63531D01*
X3254Y64496D01*
X3181Y65052D01*
X3131Y65532D01*
X3131Y65539D01*
X3128Y66031D01*
X2929Y105532D01*
X2921Y105569D01*
X3052Y106560D01*
X3451Y107525D01*
X4087Y108354D01*
X4916Y108990D01*
X5881Y109390D01*
X6876Y109521D01*
X6917Y109513D01*
D02*
G37*
G36*
X62487Y54559D02*
Y50000D01*
X62543Y49714D01*
X62599Y49428D01*
X62601Y49425D01*
X62602Y49421D01*
X62764Y49179D01*
X62924Y48936D01*
X62928Y48933D01*
X62930Y48930D01*
X63172Y48768D01*
X63414Y48605D01*
X63418Y48604D01*
X63421Y48602D01*
X63707Y48545D01*
X63992Y48487D01*
X158992Y47987D01*
X158996Y47987D01*
X159000Y47987D01*
X159285Y48043D01*
X159572Y48099D01*
X159575Y48101D01*
X159579Y48102D01*
X159820Y48263D01*
X160064Y48424D01*
X160067Y48428D01*
X160070Y48430D01*
X160231Y48671D01*
X160395Y48913D01*
X160396Y48917D01*
X160398Y48921D01*
X160455Y49206D01*
X160513Y49492D01*
X160512Y49496D01*
X160513Y49500D01*
Y54081D01*
X160867Y54434D01*
X181987Y54407D01*
Y49500D01*
X182043Y49216D01*
X182098Y48931D01*
X182101Y48926D01*
X182102Y48921D01*
X182263Y48680D01*
X182422Y48438D01*
X182427Y48435D01*
X182430Y48430D01*
X182671Y48269D01*
X182911Y48106D01*
X182916Y48105D01*
X182921Y48102D01*
X183205Y48045D01*
X183489Y47987D01*
X275418Y47310D01*
X275437Y47314D01*
X275457Y47311D01*
X275727Y47370D01*
X275998Y47421D01*
X276014Y47432D01*
X276034Y47436D01*
X276261Y47594D01*
X276491Y47746D01*
X276502Y47762D01*
X276519Y47773D01*
X281042Y52465D01*
X312501Y52487D01*
X312788Y52544D01*
X313079Y52602D01*
X313080Y52602D01*
X313080Y52602D01*
X313323Y52765D01*
X313570Y52930D01*
X313570Y52930D01*
X313571Y52931D01*
X313736Y53178D01*
X313898Y53421D01*
X313898Y53421D01*
X313898Y53422D01*
X313956Y53714D01*
X314013Y54000D01*
X314253Y54239D01*
X329579Y54220D01*
X329987Y53996D01*
X330045Y53707D01*
X330102Y53421D01*
X330103Y53419D01*
X330103Y53418D01*
X330267Y53174D01*
X330430Y52930D01*
X330431Y52929D01*
X330432Y52928D01*
X330677Y52765D01*
X330921Y52602D01*
X330923Y52601D01*
X330924Y52601D01*
X331214Y52544D01*
X331500Y52487D01*
X331502Y52487D01*
X331504Y52487D01*
X388756Y52618D01*
X388795Y52626D01*
X389788Y52495D01*
X390753Y52095D01*
X391582Y51459D01*
X392218Y50631D01*
X392618Y49666D01*
X392691Y49109D01*
X392741Y48630D01*
X392741Y48630D01*
X392741Y48136D01*
Y9133D01*
X392741Y9132D01*
X392741Y8637D01*
X392691Y8158D01*
X392618Y7601D01*
X392218Y6636D01*
X391582Y5808D01*
X390753Y5172D01*
X389788Y4772D01*
X389232Y4699D01*
X388753Y4649D01*
X388753Y4649D01*
X281562D01*
X276490Y9540D01*
X276252Y9693D01*
X276015Y9850D01*
X276003Y9853D01*
X275993Y9859D01*
X275713Y9909D01*
X275435Y9964D01*
X41835Y9250D01*
X41547Y9192D01*
X41261Y9135D01*
X41259Y9134D01*
X41257Y9133D01*
X41012Y8969D01*
X40956Y8932D01*
X40931Y8967D01*
X39413Y7890D01*
X37002Y6558D01*
X34458Y5504D01*
X31811Y4741D01*
X29095Y4280D01*
X26345Y4125D01*
X23595Y4280D01*
X20880Y4741D01*
X18233Y5504D01*
X15688Y6558D01*
X13278Y7890D01*
X11031Y9484D01*
X8978Y11319D01*
X7142Y13373D01*
X5548Y15619D01*
X4216Y18030D01*
X3162Y20575D01*
X2514Y22822D01*
X2891Y23322D01*
X15732Y23322D01*
X14904Y33952D01*
X2830Y33952D01*
X2486Y34452D01*
X3162Y36799D01*
X4216Y39344D01*
X5548Y41755D01*
X7142Y44001D01*
X8978Y46055D01*
X11031Y47890D01*
X13278Y49484D01*
X15688Y50816D01*
X18233Y51871D01*
X20880Y52633D01*
X23595Y53094D01*
X26345Y53249D01*
X29095Y53094D01*
X31811Y52633D01*
X34458Y51871D01*
X37002Y50816D01*
X39413Y49484D01*
X40931Y48407D01*
X40956Y48442D01*
X41261Y48239D01*
X41840Y48124D01*
X45500Y48124D01*
X46079Y48239D01*
X46570Y48567D01*
X46898Y49058D01*
X47013Y49637D01*
Y54225D01*
X47367Y54578D01*
X62487Y54559D01*
D02*
G37*
%LPC*%
G36*
X83188Y88784D02*
X80022D01*
Y82272D01*
X83188D01*
Y88784D01*
D02*
G37*
G36*
X71377D02*
X68211D01*
Y82272D01*
X71377D01*
Y88784D01*
D02*
G37*
G36*
X43158Y74071D02*
X37843D01*
X37302Y73963D01*
X36843Y73657D01*
X36537Y73198D01*
X36430Y72658D01*
Y67343D01*
X36537Y66802D01*
X36843Y66343D01*
X37302Y66037D01*
X37843Y65930D01*
X43158D01*
X43698Y66037D01*
X44157Y66343D01*
X44463Y66802D01*
X44570Y67343D01*
Y72658D01*
X44463Y73198D01*
X44157Y73657D01*
X43698Y73963D01*
X43158Y74071D01*
D02*
G37*
G36*
X356909Y46407D02*
X351594D01*
X351054Y46300D01*
X350595Y45994D01*
X350289Y45535D01*
X350181Y44995D01*
Y39680D01*
X350289Y39139D01*
X350595Y38680D01*
X351054Y38374D01*
X351594Y38267D01*
X356909D01*
X357450Y38374D01*
X357908Y38680D01*
X358215Y39139D01*
X358322Y39680D01*
Y44995D01*
X358215Y45535D01*
X357908Y45994D01*
X357450Y46300D01*
X356909Y46407D01*
D02*
G37*
G36*
X327458Y31893D02*
X324293D01*
Y25381D01*
X327458D01*
Y31893D01*
D02*
G37*
G36*
X315647D02*
X312482D01*
Y25381D01*
X315647D01*
Y31893D01*
D02*
G37*
%LPD*%
D29*
X75699Y72339D02*
D03*
X319970Y41826D02*
D03*
D30*
X75699Y85528D02*
D03*
X319970Y28637D02*
D03*
D32*
X364252Y42337D02*
D03*
X30500Y70000D02*
D03*
D34*
X69985Y107728D02*
D03*
X88385D02*
D03*
X85318D02*
D03*
X73052D02*
D03*
X79185D02*
D03*
X76118D02*
D03*
X82251D02*
D03*
X66918D02*
D03*
X69985Y63328D02*
D03*
X88385D02*
D03*
X85318D02*
D03*
X73052D02*
D03*
X79185D02*
D03*
X76118D02*
D03*
X82251D02*
D03*
X66918D02*
D03*
X57718D02*
D03*
X60785D02*
D03*
X66918D02*
D03*
X63851D02*
D03*
X39318D02*
D03*
X36252D02*
D03*
X45452D02*
D03*
X23985D02*
D03*
X30118D02*
D03*
X54651D02*
D03*
X48518D02*
D03*
X27052D02*
D03*
X33185D02*
D03*
X42385D02*
D03*
X51585D02*
D03*
X20918D02*
D03*
X17852D02*
D03*
X57718Y107728D02*
D03*
X60785D02*
D03*
X66918D02*
D03*
X63851D02*
D03*
X39318D02*
D03*
X36252D02*
D03*
X45452D02*
D03*
X23985D02*
D03*
X30118D02*
D03*
X54651D02*
D03*
X48518D02*
D03*
X27052D02*
D03*
X33185D02*
D03*
X42385D02*
D03*
X51585D02*
D03*
X20918D02*
D03*
X17852D02*
D03*
X11718D02*
D03*
X8652D02*
D03*
X14785D02*
D03*
Y63328D02*
D03*
X8652D02*
D03*
X5500Y63500D02*
D03*
X11718Y63328D02*
D03*
X4518Y98562D02*
D03*
Y104695D02*
D03*
X5500Y107500D02*
D03*
X4518Y101628D02*
D03*
Y92428D02*
D03*
Y89362D02*
D03*
Y81695D02*
D03*
Y78628D02*
D03*
Y69428D02*
D03*
Y66362D02*
D03*
Y72495D02*
D03*
X126018Y103028D02*
D03*
X122951D02*
D03*
X129085D02*
D03*
X119885D02*
D03*
X132151D02*
D03*
X162818D02*
D03*
X153618D02*
D03*
X144418D02*
D03*
X138285D02*
D03*
X159751D02*
D03*
X165885D02*
D03*
X141351D02*
D03*
X135218D02*
D03*
X156685D02*
D03*
X147485D02*
D03*
X150551D02*
D03*
X199618D02*
D03*
X190418D02*
D03*
X181218D02*
D03*
X175084D02*
D03*
X196551D02*
D03*
X202684D02*
D03*
X178151D02*
D03*
X172018D02*
D03*
X193484D02*
D03*
X184284D02*
D03*
X187351D02*
D03*
X168951D02*
D03*
X205751D02*
D03*
X236418D02*
D03*
X227218D02*
D03*
X218018D02*
D03*
X211884D02*
D03*
X233351D02*
D03*
X239484D02*
D03*
X214951D02*
D03*
X208818D02*
D03*
X230284D02*
D03*
X221084D02*
D03*
X224151D02*
D03*
X273218D02*
D03*
X264018D02*
D03*
X254818D02*
D03*
X248684D02*
D03*
X270151D02*
D03*
X276284D02*
D03*
X251751D02*
D03*
X245618D02*
D03*
X267084D02*
D03*
X257884D02*
D03*
X260951D02*
D03*
X242551D02*
D03*
X310018D02*
D03*
X300818D02*
D03*
X291618D02*
D03*
X285484D02*
D03*
X306951D02*
D03*
X313084D02*
D03*
X288551D02*
D03*
X282418D02*
D03*
X303884D02*
D03*
X294684D02*
D03*
X297751D02*
D03*
X279351D02*
D03*
X316151D02*
D03*
X334551D02*
D03*
X331484D02*
D03*
X340684D02*
D03*
X319218D02*
D03*
X325351D02*
D03*
X343751D02*
D03*
X322284D02*
D03*
X328417D02*
D03*
X337617D02*
D03*
X88385Y107728D02*
D03*
X112918D02*
D03*
X103718D02*
D03*
X97585D02*
D03*
X100651D02*
D03*
X94518D02*
D03*
X106785D02*
D03*
X109851D02*
D03*
X91451D02*
D03*
X117218Y104428D02*
D03*
X115317Y106528D02*
D03*
X119885Y68028D02*
D03*
X122951D02*
D03*
X126018D02*
D03*
X129085D02*
D03*
X132151D02*
D03*
X162818D02*
D03*
X153618D02*
D03*
X144418D02*
D03*
X138285D02*
D03*
X159751D02*
D03*
X165885D02*
D03*
X141351D02*
D03*
X135218D02*
D03*
X156685D02*
D03*
X147485D02*
D03*
X150551D02*
D03*
X199618D02*
D03*
X190418D02*
D03*
X181218D02*
D03*
X175084D02*
D03*
X196551D02*
D03*
X202684D02*
D03*
X178151D02*
D03*
X172018D02*
D03*
X193484D02*
D03*
X184284D02*
D03*
X187351D02*
D03*
X168951D02*
D03*
X205751D02*
D03*
X236418D02*
D03*
X227218D02*
D03*
X218018D02*
D03*
X211884D02*
D03*
X233351D02*
D03*
X239484D02*
D03*
X214951D02*
D03*
X208818D02*
D03*
X230284D02*
D03*
X221084D02*
D03*
X224151D02*
D03*
X273218D02*
D03*
X264018D02*
D03*
X254818D02*
D03*
X248684D02*
D03*
X270151D02*
D03*
X276284D02*
D03*
X251751D02*
D03*
X245618D02*
D03*
X267084D02*
D03*
X257884D02*
D03*
X260951D02*
D03*
X242551D02*
D03*
X310018D02*
D03*
X300818D02*
D03*
X291618D02*
D03*
X285484D02*
D03*
X306951D02*
D03*
X313084D02*
D03*
X288551D02*
D03*
X282418D02*
D03*
X303884D02*
D03*
X294684D02*
D03*
X297751D02*
D03*
X279351D02*
D03*
X316151D02*
D03*
X334551D02*
D03*
X331484D02*
D03*
X340684D02*
D03*
X319218D02*
D03*
X325351D02*
D03*
X343751D02*
D03*
X322284D02*
D03*
X328417D02*
D03*
X337617D02*
D03*
X88385Y63328D02*
D03*
X112918D02*
D03*
X103718D02*
D03*
X97585D02*
D03*
X100651D02*
D03*
X94518D02*
D03*
X106785D02*
D03*
X109851D02*
D03*
X91451D02*
D03*
X117218Y66628D02*
D03*
X115317Y64528D02*
D03*
X339884Y88728D02*
D03*
X330684D02*
D03*
X321484D02*
D03*
X315351D02*
D03*
X336818D02*
D03*
X342951D02*
D03*
X318418D02*
D03*
X312284D02*
D03*
X333751D02*
D03*
X324551D02*
D03*
X327618D02*
D03*
X309218D02*
D03*
X272418D02*
D03*
X290818D02*
D03*
X287751D02*
D03*
X296951D02*
D03*
X275484D02*
D03*
X281618D02*
D03*
X306151D02*
D03*
X300018D02*
D03*
X278551D02*
D03*
X284684D02*
D03*
X293884D02*
D03*
X303084D02*
D03*
X235618D02*
D03*
X254018D02*
D03*
X250951D02*
D03*
X260151D02*
D03*
X238684D02*
D03*
X244818D02*
D03*
X269351D02*
D03*
X263218D02*
D03*
X241751D02*
D03*
X247884D02*
D03*
X257084D02*
D03*
X266284D02*
D03*
X217218D02*
D03*
X214151D02*
D03*
X223351D02*
D03*
X201885D02*
D03*
X208018D02*
D03*
X232551D02*
D03*
X226418D02*
D03*
X204951D02*
D03*
X211085D02*
D03*
X220284D02*
D03*
X229484D02*
D03*
X198818D02*
D03*
X180418D02*
D03*
X177351D02*
D03*
X186551D02*
D03*
X165085D02*
D03*
X171218D02*
D03*
X195751D02*
D03*
X189618D02*
D03*
X168151D02*
D03*
X174285D02*
D03*
X183484D02*
D03*
X192684D02*
D03*
X162018D02*
D03*
X125218D02*
D03*
X143618D02*
D03*
X140551D02*
D03*
X149751D02*
D03*
X128285D02*
D03*
X134418D02*
D03*
X158951D02*
D03*
X152818D02*
D03*
X131351D02*
D03*
X137485D02*
D03*
X146685D02*
D03*
X155885D02*
D03*
X106818D02*
D03*
X103751D02*
D03*
X112951D02*
D03*
X122151D02*
D03*
X116018D02*
D03*
X100685D02*
D03*
X109885D02*
D03*
X119085D02*
D03*
X339884Y82328D02*
D03*
X330684D02*
D03*
X321484D02*
D03*
X315351D02*
D03*
X336818D02*
D03*
X342951D02*
D03*
X318418D02*
D03*
X312284D02*
D03*
X333751D02*
D03*
X324551D02*
D03*
X327618D02*
D03*
X309218D02*
D03*
X272418D02*
D03*
X290818D02*
D03*
X287751D02*
D03*
X296951D02*
D03*
X275484D02*
D03*
X281618D02*
D03*
X306151D02*
D03*
X300018D02*
D03*
X278551D02*
D03*
X284684D02*
D03*
X293884D02*
D03*
X303084D02*
D03*
X235618D02*
D03*
X254018D02*
D03*
X250951D02*
D03*
X260151D02*
D03*
X238684D02*
D03*
X244818D02*
D03*
X269351D02*
D03*
X263218D02*
D03*
X241751D02*
D03*
X247884D02*
D03*
X257084D02*
D03*
X266284D02*
D03*
X217218D02*
D03*
X214151D02*
D03*
X223351D02*
D03*
X201885D02*
D03*
X208018D02*
D03*
X232551D02*
D03*
X226418D02*
D03*
X204951D02*
D03*
X211085D02*
D03*
X220284D02*
D03*
X229484D02*
D03*
X198818D02*
D03*
X180418D02*
D03*
X177351D02*
D03*
X186551D02*
D03*
X165085D02*
D03*
X171218D02*
D03*
X195751D02*
D03*
X189618D02*
D03*
X168151D02*
D03*
X174285D02*
D03*
X183484D02*
D03*
X192684D02*
D03*
X162018D02*
D03*
X125218D02*
D03*
X143618D02*
D03*
X140551D02*
D03*
X149751D02*
D03*
X128285D02*
D03*
X134418D02*
D03*
X158951D02*
D03*
X152818D02*
D03*
X131351D02*
D03*
X137485D02*
D03*
X146685D02*
D03*
X155885D02*
D03*
X106818D02*
D03*
X103751D02*
D03*
X112951D02*
D03*
X122151D02*
D03*
X116018D02*
D03*
X100685D02*
D03*
X109885D02*
D03*
X119085D02*
D03*
X391152Y41670D02*
D03*
Y47804D02*
D03*
Y44737D02*
D03*
Y35537D02*
D03*
Y32471D02*
D03*
Y24804D02*
D03*
Y21737D02*
D03*
Y12537D02*
D03*
X390084Y6437D02*
D03*
X391152Y9470D02*
D03*
Y15604D02*
D03*
X280352Y7837D02*
D03*
X278352Y9737D02*
D03*
X280352Y49637D02*
D03*
X278452Y47537D02*
D03*
X304218Y50837D02*
D03*
X285818D02*
D03*
X288885D02*
D03*
X301151D02*
D03*
X295018D02*
D03*
X298084D02*
D03*
X291951D02*
D03*
X282751D02*
D03*
X307284D02*
D03*
X310351D02*
D03*
X341018D02*
D03*
X337951D02*
D03*
X313418D02*
D03*
X322618D02*
D03*
X328751D02*
D03*
X325684D02*
D03*
X331818D02*
D03*
X319551D02*
D03*
X316484D02*
D03*
X334885D02*
D03*
X371684D02*
D03*
X368618D02*
D03*
X344085D02*
D03*
X353284D02*
D03*
X359418D02*
D03*
X356351D02*
D03*
X362484D02*
D03*
X350218D02*
D03*
X347151D02*
D03*
X365551D02*
D03*
X374751D02*
D03*
X383951D02*
D03*
X390084D02*
D03*
X387018D02*
D03*
X380884D02*
D03*
X377818D02*
D03*
Y6437D02*
D03*
X380884D02*
D03*
X387018D02*
D03*
X383951D02*
D03*
X365551D02*
D03*
X347151D02*
D03*
X350218D02*
D03*
X362484D02*
D03*
X356351D02*
D03*
X359418D02*
D03*
X353284D02*
D03*
X344085D02*
D03*
X374751D02*
D03*
X368618D02*
D03*
X371684D02*
D03*
X334885D02*
D03*
X316484D02*
D03*
X319551D02*
D03*
X331818D02*
D03*
X325684D02*
D03*
X328751D02*
D03*
X322618D02*
D03*
X337951D02*
D03*
X341018D02*
D03*
X310351D02*
D03*
X307284D02*
D03*
X313418D02*
D03*
X269651Y11137D02*
D03*
X282751Y6437D02*
D03*
X291951D02*
D03*
X298084D02*
D03*
X272718Y11137D02*
D03*
X266585D02*
D03*
X295018Y6437D02*
D03*
X301151D02*
D03*
X275785Y11137D02*
D03*
X288885Y6437D02*
D03*
X285818D02*
D03*
X304218D02*
D03*
X232851Y11137D02*
D03*
X242051D02*
D03*
X251251D02*
D03*
X257385D02*
D03*
X235918D02*
D03*
X229785D02*
D03*
X254318D02*
D03*
X260451D02*
D03*
X238985D02*
D03*
X248185D02*
D03*
X245118D02*
D03*
X263518D02*
D03*
X196051D02*
D03*
X205251D02*
D03*
X214451D02*
D03*
X220585D02*
D03*
X199118D02*
D03*
X192985D02*
D03*
X217518D02*
D03*
X223651D02*
D03*
X202185D02*
D03*
X211385D02*
D03*
X208318D02*
D03*
X226718D02*
D03*
X159251D02*
D03*
X168451D02*
D03*
X177652D02*
D03*
X183785D02*
D03*
X162318D02*
D03*
X156185D02*
D03*
X180718D02*
D03*
X186851D02*
D03*
X165385D02*
D03*
X174585D02*
D03*
X171518D02*
D03*
X189918D02*
D03*
X122452D02*
D03*
X131652D02*
D03*
X140851D02*
D03*
X146985D02*
D03*
X125518D02*
D03*
X119385D02*
D03*
X143918D02*
D03*
X150051D02*
D03*
X128585D02*
D03*
X137785D02*
D03*
X134718D02*
D03*
X153118D02*
D03*
X85652D02*
D03*
X94852D02*
D03*
X104052D02*
D03*
X110185D02*
D03*
X88718D02*
D03*
X82585D02*
D03*
X107118D02*
D03*
X113252D02*
D03*
X91785D02*
D03*
X100985D02*
D03*
X97918D02*
D03*
X116318D02*
D03*
X79518D02*
D03*
X61118D02*
D03*
X64185D02*
D03*
X54985D02*
D03*
X76452D02*
D03*
X70318D02*
D03*
X45785D02*
D03*
X51918D02*
D03*
X73385D02*
D03*
X67252D02*
D03*
X58052D02*
D03*
X48852D02*
D03*
Y46137D02*
D03*
X58052D02*
D03*
X67252D02*
D03*
X73385D02*
D03*
X51918D02*
D03*
X45785D02*
D03*
X70318D02*
D03*
X76452D02*
D03*
X54985D02*
D03*
X64185D02*
D03*
X61118D02*
D03*
X79518D02*
D03*
X116318D02*
D03*
X97918D02*
D03*
X100985D02*
D03*
X91785D02*
D03*
X113252D02*
D03*
X107118D02*
D03*
X82585D02*
D03*
X88718D02*
D03*
X110185D02*
D03*
X104052D02*
D03*
X94852D02*
D03*
X85652D02*
D03*
X153118D02*
D03*
X134718D02*
D03*
X137785D02*
D03*
X128585D02*
D03*
X150051D02*
D03*
X143918D02*
D03*
X119385D02*
D03*
X125518D02*
D03*
X146985D02*
D03*
X140851D02*
D03*
X131652D02*
D03*
X122452D02*
D03*
X171518D02*
D03*
X174585D02*
D03*
X165385D02*
D03*
X186851D02*
D03*
X180718D02*
D03*
X156185D02*
D03*
X162318D02*
D03*
X183785D02*
D03*
X177652D02*
D03*
X168451D02*
D03*
X159251D02*
D03*
X189918D02*
D03*
X226718D02*
D03*
X208318D02*
D03*
X211385D02*
D03*
X202185D02*
D03*
X223651D02*
D03*
X217518D02*
D03*
X192985D02*
D03*
X199118D02*
D03*
X220585D02*
D03*
X214451D02*
D03*
X205251D02*
D03*
X196051D02*
D03*
X245118D02*
D03*
X248185D02*
D03*
X238985D02*
D03*
X260451D02*
D03*
X254318D02*
D03*
X229785D02*
D03*
X235918D02*
D03*
X257385D02*
D03*
X251251D02*
D03*
X242051D02*
D03*
X232851D02*
D03*
X263518D02*
D03*
X275785D02*
D03*
X266585D02*
D03*
X272718D02*
D03*
X269651D02*
D03*
X40155Y10643D02*
D03*
X37652Y9137D02*
D03*
X34952Y8037D02*
D03*
X32169Y7203D02*
D03*
X29293Y6523D02*
D03*
X26252Y6437D02*
D03*
X23152Y6737D02*
D03*
X20252Y7437D02*
D03*
X17452Y8437D02*
D03*
X14852Y9937D02*
D03*
X12552Y11637D02*
D03*
X10452Y13737D02*
D03*
X8452Y15937D02*
D03*
X6952Y18637D02*
D03*
X5852Y21437D02*
D03*
X40155Y46632D02*
D03*
X37652Y48137D02*
D03*
X34952Y49237D02*
D03*
X32169Y50071D02*
D03*
X29293Y50751D02*
D03*
X26252Y50837D02*
D03*
X23152Y50537D02*
D03*
X20252Y49837D02*
D03*
X17452Y48837D02*
D03*
X14852Y47337D02*
D03*
X12552Y45637D02*
D03*
X10452Y43537D02*
D03*
X8452Y41337D02*
D03*
X6952Y38637D02*
D03*
X5852Y35837D02*
D03*
X42852Y44937D02*
D03*
Y12337D02*
D03*
X48952Y22537D02*
D03*
X47952Y19837D02*
D03*
X46552Y17137D02*
D03*
X44852Y14637D02*
D03*
X42852Y12337D02*
D03*
X44852Y42637D02*
D03*
X46552Y40137D02*
D03*
X47952Y37437D02*
D03*
X48952Y34737D02*
D03*
X55785Y25437D02*
D03*
X64985D02*
D03*
X74185D02*
D03*
X80318D02*
D03*
X58852D02*
D03*
X52718D02*
D03*
X77252D02*
D03*
X83385D02*
D03*
X61918D02*
D03*
X71118D02*
D03*
X68052D02*
D03*
X49652D02*
D03*
X86452D02*
D03*
X123252D02*
D03*
X104852D02*
D03*
X107918D02*
D03*
X98718D02*
D03*
X120185D02*
D03*
X114052D02*
D03*
X89518D02*
D03*
X95652D02*
D03*
X117118D02*
D03*
X110985D02*
D03*
X101785D02*
D03*
X92585D02*
D03*
X141651D02*
D03*
X144718D02*
D03*
X135518D02*
D03*
X156985D02*
D03*
X150852D02*
D03*
X126318D02*
D03*
X132452D02*
D03*
X153918D02*
D03*
X147785D02*
D03*
X138585D02*
D03*
X129385D02*
D03*
X160052D02*
D03*
X196851D02*
D03*
X178452D02*
D03*
X181518D02*
D03*
X172318D02*
D03*
X193785D02*
D03*
X187651D02*
D03*
X163118D02*
D03*
X169252D02*
D03*
X190718D02*
D03*
X184585D02*
D03*
X175385D02*
D03*
X166185D02*
D03*
X215251D02*
D03*
X218318D02*
D03*
X209118D02*
D03*
X230585D02*
D03*
X224451D02*
D03*
X199918D02*
D03*
X206051D02*
D03*
X227518D02*
D03*
X221385D02*
D03*
X212185D02*
D03*
X202985D02*
D03*
X233651D02*
D03*
X252051D02*
D03*
X255118D02*
D03*
X245918D02*
D03*
X267385D02*
D03*
X261251D02*
D03*
X236718D02*
D03*
X242851D02*
D03*
X264318D02*
D03*
X258185D02*
D03*
X248985D02*
D03*
X239785D02*
D03*
X270451D02*
D03*
X288851D02*
D03*
X291918D02*
D03*
X282718D02*
D03*
X273518D02*
D03*
X279651D02*
D03*
X294985D02*
D03*
X285785D02*
D03*
X276585D02*
D03*
Y31837D02*
D03*
X285785D02*
D03*
X294985D02*
D03*
X279651D02*
D03*
X273518D02*
D03*
X282718D02*
D03*
X291918D02*
D03*
X288851D02*
D03*
X239785D02*
D03*
X248985D02*
D03*
X258185D02*
D03*
X264318D02*
D03*
X242851D02*
D03*
X236718D02*
D03*
X261251D02*
D03*
X267385D02*
D03*
X245918D02*
D03*
X255118D02*
D03*
X252051D02*
D03*
X270451D02*
D03*
X233651D02*
D03*
X202985D02*
D03*
X212185D02*
D03*
X221385D02*
D03*
X227518D02*
D03*
X206051D02*
D03*
X199918D02*
D03*
X224451D02*
D03*
X230585D02*
D03*
X209118D02*
D03*
X218318D02*
D03*
X215251D02*
D03*
X196851D02*
D03*
X166185D02*
D03*
X175385D02*
D03*
X184585D02*
D03*
X190718D02*
D03*
X169252D02*
D03*
X163118D02*
D03*
X187651D02*
D03*
X193785D02*
D03*
X172318D02*
D03*
X181518D02*
D03*
X178452D02*
D03*
X129385D02*
D03*
X138585D02*
D03*
X147785D02*
D03*
X153918D02*
D03*
X132452D02*
D03*
X126318D02*
D03*
X150852D02*
D03*
X156985D02*
D03*
X135518D02*
D03*
X144718D02*
D03*
X141651D02*
D03*
X160052D02*
D03*
X92585D02*
D03*
X101785D02*
D03*
X110985D02*
D03*
X117118D02*
D03*
X95652D02*
D03*
X89518D02*
D03*
X114052D02*
D03*
X120185D02*
D03*
X98718D02*
D03*
X107918D02*
D03*
X104852D02*
D03*
X123252D02*
D03*
X49652D02*
D03*
X86452D02*
D03*
X68052D02*
D03*
X71118D02*
D03*
X61918D02*
D03*
X83385D02*
D03*
X77252D02*
D03*
X52718D02*
D03*
X58852D02*
D03*
X80318D02*
D03*
X74185D02*
D03*
X64985D02*
D03*
X55785D02*
D03*
X12752Y35737D02*
D03*
X14352Y38137D02*
D03*
X16352Y40337D02*
D03*
X37571Y16226D02*
D03*
X35216Y14427D02*
D03*
X41252Y20837D02*
D03*
X39682Y18337D02*
D03*
X32552Y13237D02*
D03*
X29652Y12537D02*
D03*
X26652Y12337D02*
D03*
X23752Y12737D02*
D03*
X20952Y13737D02*
D03*
X18352Y15137D02*
D03*
X15952Y16937D02*
D03*
X14052Y19137D02*
D03*
X12552Y21637D02*
D03*
X18652Y42137D02*
D03*
X21352Y43437D02*
D03*
X24352Y44137D02*
D03*
X27352Y44437D02*
D03*
X30352Y44237D02*
D03*
X33152Y43337D02*
D03*
X35752Y41837D02*
D03*
X38052Y40037D02*
D03*
X39952Y37737D02*
D03*
X41352Y35237D02*
D03*
X42252Y32437D02*
D03*
X42652Y29537D02*
D03*
Y26637D02*
D03*
X46296Y25219D02*
D03*
X42252Y23637D02*
D03*
D35*
X68534Y66749D02*
D03*
X82707D02*
D03*
X68534Y76749D02*
D03*
X73140D02*
D03*
X77928D02*
D03*
X82707D02*
D03*
X68534Y71749D02*
D03*
X73140D02*
D03*
X77928D02*
D03*
X82707D02*
D03*
X327135Y47417D02*
D03*
X312962D02*
D03*
X327135Y37417D02*
D03*
X322529D02*
D03*
X317741D02*
D03*
X312962D02*
D03*
X327135Y42417D02*
D03*
X322529D02*
D03*
X317741D02*
D03*
X312962D02*
D03*
D36*
X75699Y80016D02*
D03*
X319970Y34149D02*
D03*
M02*
