G04*
G04 #@! TF.GenerationSoftware,Altium Limited,Altium Designer,20.1.12 (249)*
G04*
G04 Layer_Physical_Order=3*
G04 Layer_Color=16440176*
%FSLAX25Y25*%
%MOIN*%
G70*
G04*
G04 #@! TF.SameCoordinates,F0868872-FF7F-4824-B1C7-3C191F3A6EFF*
G04*
G04*
G04 #@! TF.FilePolarity,Positive*
G04*
G01*
G75*
%ADD28R,0.17638X0.15079*%
%ADD29R,0.02165X0.11299*%
%ADD31C,0.07087*%
%ADD33C,0.02756*%
%ADD34C,0.01968*%
%ADD35C,0.05000*%
G36*
X6917Y109513D02*
X114298D01*
X119224Y104762D01*
X119459Y104612D01*
X119691Y104456D01*
X119707Y104452D01*
X119721Y104443D01*
X119996Y104394D01*
X120270Y104338D01*
X344125Y103559D01*
X344477Y103204D01*
X344301Y66290D01*
X343945Y65939D01*
X314052Y66118D01*
X314007Y66127D01*
X185006Y66627D01*
X184833Y66593D01*
X184799Y66600D01*
X120289Y66905D01*
X120271Y66902D01*
X120254Y66905D01*
X119982Y66846D01*
X119709Y66793D01*
X119694Y66783D01*
X119677Y66780D01*
X119448Y66621D01*
X119216Y66467D01*
X119207Y66453D01*
X119192Y66443D01*
X114468Y61543D01*
X45556Y61502D01*
X45501Y61513D01*
X7619Y61543D01*
X7119Y61544D01*
X6640Y61594D01*
X6083Y61667D01*
X5118Y62066D01*
X4290Y62702D01*
X3654Y63531D01*
X3254Y64496D01*
X3181Y65052D01*
X3131Y65532D01*
X3131Y65539D01*
X3128Y66031D01*
X2929Y105532D01*
X2921Y105569D01*
X3052Y106560D01*
X3451Y107525D01*
X4087Y108354D01*
X4916Y108990D01*
X5881Y109390D01*
X6876Y109521D01*
X6917Y109513D01*
D02*
G37*
%LPC*%
G36*
X83188Y88784D02*
X80022D01*
Y82272D01*
X83188D01*
Y88784D01*
D02*
G37*
G36*
X71377D02*
X68211D01*
Y82272D01*
X71377D01*
Y88784D01*
D02*
G37*
G36*
X43158Y74071D02*
X37843D01*
X37302Y73963D01*
X36843Y73657D01*
X36537Y73198D01*
X36430Y72658D01*
Y67343D01*
X36537Y66802D01*
X36843Y66343D01*
X37302Y66037D01*
X37843Y65930D01*
X43158D01*
X43698Y66037D01*
X44157Y66343D01*
X44463Y66802D01*
X44570Y67343D01*
Y72658D01*
X44463Y73198D01*
X44157Y73657D01*
X43698Y73963D01*
X43158Y74071D01*
D02*
G37*
%LPD*%
D28*
X75699Y72339D02*
D03*
D29*
Y85528D02*
D03*
D31*
X30500Y70000D02*
D03*
D33*
X69985Y107728D02*
D03*
X88385D02*
D03*
X85318D02*
D03*
X73052D02*
D03*
X79185D02*
D03*
X76118D02*
D03*
X82251D02*
D03*
X66918D02*
D03*
X69985Y63328D02*
D03*
X88385D02*
D03*
X85318D02*
D03*
X73052D02*
D03*
X79185D02*
D03*
X76118D02*
D03*
X82251D02*
D03*
X66918D02*
D03*
X57718D02*
D03*
X60785D02*
D03*
X66918D02*
D03*
X63851D02*
D03*
X39318D02*
D03*
X36252D02*
D03*
X45452D02*
D03*
X23985D02*
D03*
X30118D02*
D03*
X54651D02*
D03*
X48518D02*
D03*
X27052D02*
D03*
X33185D02*
D03*
X42385D02*
D03*
X51585D02*
D03*
X20918D02*
D03*
X17852D02*
D03*
X57718Y107728D02*
D03*
X60785D02*
D03*
X66918D02*
D03*
X63851D02*
D03*
X39318D02*
D03*
X36252D02*
D03*
X45452D02*
D03*
X23985D02*
D03*
X30118D02*
D03*
X54651D02*
D03*
X48518D02*
D03*
X27052D02*
D03*
X33185D02*
D03*
X42385D02*
D03*
X51585D02*
D03*
X20918D02*
D03*
X17852D02*
D03*
X11718D02*
D03*
X8652D02*
D03*
X14785D02*
D03*
Y63328D02*
D03*
X8652D02*
D03*
X5500Y63500D02*
D03*
X11718Y63328D02*
D03*
X4518Y98562D02*
D03*
Y104695D02*
D03*
X5500Y107500D02*
D03*
X4518Y101628D02*
D03*
Y92428D02*
D03*
Y89362D02*
D03*
Y81695D02*
D03*
Y78628D02*
D03*
Y69428D02*
D03*
Y66362D02*
D03*
Y72495D02*
D03*
X126018Y102800D02*
D03*
X122951D02*
D03*
X129085D02*
D03*
X119900D02*
D03*
X132151D02*
D03*
X162818D02*
D03*
X153618D02*
D03*
X144418D02*
D03*
X138285D02*
D03*
X159751D02*
D03*
X165885D02*
D03*
X141351D02*
D03*
X135218D02*
D03*
X156685D02*
D03*
X147485D02*
D03*
X150551D02*
D03*
X199618Y102700D02*
D03*
X190418D02*
D03*
X181218D02*
D03*
X175100D02*
D03*
X196551D02*
D03*
X202684D02*
D03*
X178151D02*
D03*
X172018Y102800D02*
D03*
X193484Y102700D02*
D03*
X184284D02*
D03*
X187351D02*
D03*
X168951Y102800D02*
D03*
X205700Y102400D02*
D03*
X236367Y102200D02*
D03*
X227167D02*
D03*
X217967D02*
D03*
X211834D02*
D03*
X233300D02*
D03*
X239434D02*
D03*
X214900D02*
D03*
X208767D02*
D03*
X230234D02*
D03*
X221034D02*
D03*
X224100D02*
D03*
X273167D02*
D03*
X263967D02*
D03*
X254767D02*
D03*
X248634D02*
D03*
X270100D02*
D03*
X276234D02*
D03*
X251700D02*
D03*
X245567D02*
D03*
X267034D02*
D03*
X257834D02*
D03*
X260900D02*
D03*
X242500D02*
D03*
X309967D02*
D03*
X300767D02*
D03*
X291567D02*
D03*
X285434D02*
D03*
X306900D02*
D03*
X313033D02*
D03*
X288500D02*
D03*
X282367D02*
D03*
X303833D02*
D03*
X294633D02*
D03*
X297700D02*
D03*
X279300D02*
D03*
X316100D02*
D03*
X334500D02*
D03*
X331433D02*
D03*
X340633D02*
D03*
X319167D02*
D03*
X325300D02*
D03*
X343700D02*
D03*
X322233D02*
D03*
X328367D02*
D03*
X337567D02*
D03*
X88385Y107728D02*
D03*
X112918D02*
D03*
X103718D02*
D03*
X97585D02*
D03*
X100651D02*
D03*
X94518D02*
D03*
X106785D02*
D03*
X109851D02*
D03*
X91451D02*
D03*
X117218Y104428D02*
D03*
X115317Y106528D02*
D03*
X119800Y68500D02*
D03*
X122900D02*
D03*
X126018D02*
D03*
X129085D02*
D03*
X132151D02*
D03*
X162818D02*
D03*
X153618D02*
D03*
X144418D02*
D03*
X138285D02*
D03*
X159751D02*
D03*
X165885D02*
D03*
X141351D02*
D03*
X135218D02*
D03*
X156685D02*
D03*
X147485D02*
D03*
X150551D02*
D03*
X199618D02*
D03*
X190418D02*
D03*
X181218D02*
D03*
X175084D02*
D03*
X196551D02*
D03*
X202684D02*
D03*
X178151D02*
D03*
X172018D02*
D03*
X193484D02*
D03*
X184284D02*
D03*
X187351D02*
D03*
X168951D02*
D03*
X205751D02*
D03*
X236418D02*
D03*
X227218D02*
D03*
X218018D02*
D03*
X211884D02*
D03*
X233351D02*
D03*
X239484D02*
D03*
X214951D02*
D03*
X208818D02*
D03*
X230284D02*
D03*
X221084D02*
D03*
X224151D02*
D03*
X273218D02*
D03*
X264018D02*
D03*
X254818D02*
D03*
X248684D02*
D03*
X270151D02*
D03*
X276284D02*
D03*
X251751D02*
D03*
X245618D02*
D03*
X267084D02*
D03*
X257884D02*
D03*
X260951D02*
D03*
X242551D02*
D03*
X310018D02*
D03*
X300818D02*
D03*
X291618D02*
D03*
X285484D02*
D03*
X306951D02*
D03*
X313084D02*
D03*
X288551D02*
D03*
X282418D02*
D03*
X303884D02*
D03*
X294684D02*
D03*
X297751D02*
D03*
X279351D02*
D03*
X316151D02*
D03*
X334551D02*
D03*
X331484D02*
D03*
X340684D02*
D03*
X319218D02*
D03*
X325351D02*
D03*
X343751D02*
D03*
X322284D02*
D03*
X328417D02*
D03*
X337617D02*
D03*
X88385Y63328D02*
D03*
X112918D02*
D03*
X103718D02*
D03*
X97585D02*
D03*
X100651D02*
D03*
X94518D02*
D03*
X106785D02*
D03*
X109851D02*
D03*
X91451D02*
D03*
X117218Y66628D02*
D03*
X115317Y64528D02*
D03*
X339884Y88728D02*
D03*
X330684D02*
D03*
X321484D02*
D03*
X315351D02*
D03*
X336818D02*
D03*
X342951D02*
D03*
X318418D02*
D03*
X312284D02*
D03*
X333751D02*
D03*
X324551D02*
D03*
X327618D02*
D03*
X309218D02*
D03*
X272418D02*
D03*
X290818D02*
D03*
X287751D02*
D03*
X296951D02*
D03*
X275484D02*
D03*
X281618D02*
D03*
X306151D02*
D03*
X300018D02*
D03*
X278551D02*
D03*
X284684D02*
D03*
X293884D02*
D03*
X303084D02*
D03*
X235618D02*
D03*
X254018D02*
D03*
X250951D02*
D03*
X260151D02*
D03*
X238684D02*
D03*
X244818D02*
D03*
X269351D02*
D03*
X263218D02*
D03*
X241751D02*
D03*
X247884D02*
D03*
X257084D02*
D03*
X266284D02*
D03*
X217218D02*
D03*
X214151D02*
D03*
X223351D02*
D03*
X201885D02*
D03*
X208018D02*
D03*
X232551D02*
D03*
X226418D02*
D03*
X204951D02*
D03*
X211085D02*
D03*
X220284D02*
D03*
X229484D02*
D03*
X198818D02*
D03*
X180418D02*
D03*
X177351D02*
D03*
X186551D02*
D03*
X165085D02*
D03*
X171218D02*
D03*
X195751D02*
D03*
X189618D02*
D03*
X168151D02*
D03*
X174285D02*
D03*
X183484D02*
D03*
X192684D02*
D03*
X162018D02*
D03*
X125218D02*
D03*
X143618D02*
D03*
X140551D02*
D03*
X149751D02*
D03*
X128285D02*
D03*
X134418D02*
D03*
X158951D02*
D03*
X152818D02*
D03*
X131351D02*
D03*
X137485D02*
D03*
X146685D02*
D03*
X155885D02*
D03*
X106818D02*
D03*
X103751D02*
D03*
X112951D02*
D03*
X122151D02*
D03*
X116018D02*
D03*
X100685D02*
D03*
X109885D02*
D03*
X119085D02*
D03*
X339884Y82328D02*
D03*
X330684D02*
D03*
X321484D02*
D03*
X315351D02*
D03*
X336818D02*
D03*
X342951D02*
D03*
X318418D02*
D03*
X312284D02*
D03*
X333751D02*
D03*
X324551D02*
D03*
X327618D02*
D03*
X309218D02*
D03*
X272418D02*
D03*
X290818D02*
D03*
X287751D02*
D03*
X296951D02*
D03*
X275484D02*
D03*
X281618D02*
D03*
X306151D02*
D03*
X300018D02*
D03*
X278551D02*
D03*
X284684D02*
D03*
X293884D02*
D03*
X303084D02*
D03*
X235618D02*
D03*
X254018D02*
D03*
X250951D02*
D03*
X260151D02*
D03*
X238684D02*
D03*
X244818D02*
D03*
X269351D02*
D03*
X263218D02*
D03*
X241751D02*
D03*
X247884D02*
D03*
X257084D02*
D03*
X266284D02*
D03*
X217218D02*
D03*
X214151D02*
D03*
X223351D02*
D03*
X201885D02*
D03*
X208018D02*
D03*
X232551D02*
D03*
X226418D02*
D03*
X204951D02*
D03*
X211085D02*
D03*
X220284D02*
D03*
X229484D02*
D03*
X198818D02*
D03*
X180418D02*
D03*
X177351D02*
D03*
X186551D02*
D03*
X165085D02*
D03*
X171218D02*
D03*
X195751D02*
D03*
X189618D02*
D03*
X168151D02*
D03*
X174285D02*
D03*
X183484D02*
D03*
X192684D02*
D03*
X162018D02*
D03*
X125218D02*
D03*
X143618D02*
D03*
X140551D02*
D03*
X149751D02*
D03*
X128285D02*
D03*
X134418D02*
D03*
X158951D02*
D03*
X152818D02*
D03*
X131351D02*
D03*
X137485D02*
D03*
X146685D02*
D03*
X155885D02*
D03*
X106818D02*
D03*
X103751D02*
D03*
X112951D02*
D03*
X122151D02*
D03*
X116018D02*
D03*
X100685D02*
D03*
X109885D02*
D03*
X119085D02*
D03*
D34*
X68534Y66749D02*
D03*
X82707D02*
D03*
X68534Y76749D02*
D03*
X73140D02*
D03*
X77928D02*
D03*
X82707D02*
D03*
X68534Y71749D02*
D03*
X73140D02*
D03*
X77928D02*
D03*
X82707D02*
D03*
D35*
X75699Y80016D02*
D03*
M02*
