G04*
G04 #@! TF.GenerationSoftware,Altium Limited,Altium Designer,20.1.12 (249)*
G04*
G04 Layer_Color=65535*
%FSLAX25Y25*%
%MOIN*%
G70*
G04*
G04 #@! TF.SameCoordinates,F0868872-FF7F-4824-B1C7-3C191F3A6EFF*
G04*
G04*
G04 #@! TF.FilePolarity,Positive*
G04*
G01*
G75*
%ADD10C,0.00984*%
%ADD11C,0.00787*%
%ADD12C,0.00394*%
%ADD13C,0.01000*%
G36*
X299001Y74625D02*
X295920D01*
Y75458D01*
X299001D01*
Y74625D01*
D02*
G37*
G36*
X319637Y78048D02*
X319767Y78038D01*
X319915Y78010D01*
X320081Y77983D01*
X320248Y77937D01*
X320414Y77872D01*
X320424D01*
X320433Y77863D01*
X320488Y77835D01*
X320571Y77798D01*
X320673Y77742D01*
X320784Y77668D01*
X320914Y77576D01*
X321034Y77474D01*
X321154Y77354D01*
X321173Y77335D01*
X321210Y77298D01*
X321265Y77224D01*
X321330Y77132D01*
X321413Y77021D01*
X321487Y76891D01*
X321570Y76743D01*
X321635Y76577D01*
Y76568D01*
X321644Y76558D01*
X321654Y76530D01*
X321663Y76494D01*
X321691Y76401D01*
X321719Y76281D01*
X321746Y76133D01*
X321774Y75966D01*
X321793Y75781D01*
X321802Y75578D01*
Y75134D01*
Y75125D01*
Y75106D01*
Y75078D01*
Y75041D01*
X321793Y74940D01*
X321783Y74801D01*
X321765Y74653D01*
X321728Y74486D01*
X321691Y74310D01*
X321635Y74135D01*
Y74125D01*
X321626Y74116D01*
X321607Y74061D01*
X321570Y73978D01*
X321515Y73866D01*
X321450Y73746D01*
X321367Y73617D01*
X321274Y73487D01*
X321164Y73358D01*
X321154Y73339D01*
X321108Y73302D01*
X321043Y73247D01*
X320960Y73173D01*
X320849Y73089D01*
X320729Y73006D01*
X320590Y72923D01*
X320433Y72849D01*
X320414Y72840D01*
X320359Y72821D01*
X320275Y72794D01*
X320155Y72766D01*
X320017Y72729D01*
X319859Y72701D01*
X319684Y72682D01*
X319498Y72673D01*
X318046D01*
Y78057D01*
X319535D01*
X319637Y78048D01*
D02*
G37*
G36*
X314642Y73506D02*
X317167Y73506D01*
Y72673D01*
X313597Y72673D01*
Y78057D01*
X314642D01*
Y73506D01*
D02*
G37*
G36*
X312663Y77206D02*
X310091D01*
Y75846D01*
X312302D01*
Y75032D01*
X310091D01*
Y73506D01*
X312681D01*
Y72673D01*
X309046D01*
Y78057D01*
X312663D01*
Y77206D01*
D02*
G37*
G36*
X307788Y77215D02*
X306743D01*
Y73506D01*
X307788D01*
Y72673D01*
X304680D01*
Y73506D01*
X305697D01*
Y77215D01*
X304680D01*
Y78057D01*
X307788D01*
Y77215D01*
D02*
G37*
G36*
X303616Y77206D02*
X301017D01*
Y75744D01*
X303320D01*
Y74902D01*
X301017D01*
Y72673D01*
X299972D01*
Y78057D01*
X303616D01*
Y77206D01*
D02*
G37*
G36*
X294496D02*
X291924D01*
Y75846D01*
X294135D01*
Y75032D01*
X291924D01*
Y73506D01*
X294514D01*
Y72673D01*
X290879D01*
Y78057D01*
X294496D01*
Y77206D01*
D02*
G37*
G36*
X42274Y83312D02*
X39944Y82707D01*
X42274Y82096D01*
Y81408D01*
X39044Y82390D01*
Y83023D01*
X42274Y84000D01*
Y83312D01*
D02*
G37*
G36*
X40987Y81164D02*
X41065Y81158D01*
X41153Y81147D01*
X41253Y81136D01*
X41359Y81114D01*
X41459Y81086D01*
X41464D01*
X41470Y81081D01*
X41503Y81070D01*
X41553Y81053D01*
X41614Y81025D01*
X41686Y80992D01*
X41764Y80948D01*
X41842Y80903D01*
X41914Y80848D01*
X41925Y80842D01*
X41947Y80820D01*
X41980Y80787D01*
X42025Y80742D01*
X42075Y80687D01*
X42125Y80620D01*
X42169Y80548D01*
X42213Y80470D01*
X42219Y80459D01*
X42230Y80431D01*
X42247Y80387D01*
X42269Y80326D01*
X42286Y80248D01*
X42302Y80165D01*
X42313Y80071D01*
X42319Y79971D01*
Y79926D01*
X42313Y79876D01*
X42308Y79810D01*
X42302Y79738D01*
X42286Y79660D01*
X42269Y79577D01*
X42241Y79499D01*
X42236Y79488D01*
X42230Y79466D01*
X42213Y79427D01*
X42186Y79377D01*
X42158Y79321D01*
X42125Y79266D01*
X42080Y79205D01*
X42030Y79149D01*
X42025Y79144D01*
X42008Y79127D01*
X41975Y79099D01*
X41936Y79066D01*
X41886Y79027D01*
X41825Y78988D01*
X41758Y78949D01*
X41686Y78916D01*
X41675Y78911D01*
X41653Y78900D01*
X41609Y78888D01*
X41553Y78866D01*
X41486Y78850D01*
X41409Y78833D01*
X41326Y78816D01*
X41231Y78805D01*
Y79427D01*
X41237D01*
X41253D01*
X41281Y79432D01*
X41314Y79438D01*
X41398Y79449D01*
X41481Y79471D01*
X41486D01*
X41497Y79477D01*
X41520Y79482D01*
X41547Y79493D01*
X41603Y79527D01*
X41664Y79571D01*
X41669Y79577D01*
X41675Y79582D01*
X41703Y79615D01*
X41742Y79671D01*
X41775Y79738D01*
Y79743D01*
X41780Y79754D01*
X41786Y79776D01*
X41797Y79804D01*
X41803Y79838D01*
X41808Y79876D01*
X41814Y79971D01*
Y79993D01*
X41808Y80021D01*
Y80054D01*
X41786Y80137D01*
X41769Y80182D01*
X41747Y80226D01*
Y80232D01*
X41736Y80243D01*
X41719Y80265D01*
X41703Y80287D01*
X41675Y80315D01*
X41642Y80343D01*
X41609Y80376D01*
X41564Y80404D01*
X41559D01*
X41542Y80415D01*
X41520Y80426D01*
X41486Y80442D01*
X41442Y80459D01*
X41392Y80476D01*
X41331Y80487D01*
X41270Y80503D01*
X41264D01*
X41242Y80509D01*
X41203Y80515D01*
X41159Y80520D01*
X41098Y80526D01*
X41031Y80531D01*
X40959Y80537D01*
X40876D01*
X40437D01*
X40432D01*
X40415D01*
X40393D01*
X40360D01*
X40321Y80531D01*
X40277D01*
X40171Y80520D01*
X40055Y80503D01*
X39938Y80481D01*
X39827Y80448D01*
X39777Y80426D01*
X39733Y80404D01*
X39722Y80398D01*
X39699Y80376D01*
X39660Y80348D01*
X39622Y80298D01*
X39577Y80243D01*
X39538Y80165D01*
X39516Y80076D01*
X39505Y79976D01*
Y79937D01*
X39511Y79893D01*
X39522Y79838D01*
X39538Y79776D01*
X39561Y79710D01*
X39588Y79649D01*
X39633Y79593D01*
X39638Y79588D01*
X39655Y79571D01*
X39688Y79549D01*
X39733Y79521D01*
X39794Y79488D01*
X39866Y79466D01*
X39955Y79443D01*
X40055Y79432D01*
Y78811D01*
X40043D01*
X40016Y78816D01*
X39966Y78822D01*
X39910Y78827D01*
X39838Y78844D01*
X39766Y78861D01*
X39688Y78888D01*
X39610Y78916D01*
X39599Y78922D01*
X39577Y78933D01*
X39544Y78949D01*
X39494Y78977D01*
X39444Y79011D01*
X39388Y79055D01*
X39333Y79099D01*
X39277Y79155D01*
X39272Y79160D01*
X39255Y79183D01*
X39233Y79216D01*
X39200Y79255D01*
X39167Y79310D01*
X39133Y79371D01*
X39100Y79438D01*
X39072Y79516D01*
X39067Y79527D01*
X39061Y79554D01*
X39050Y79593D01*
X39039Y79654D01*
X39022Y79721D01*
X39011Y79799D01*
X39006Y79882D01*
X39000Y79976D01*
Y80026D01*
X39006Y80082D01*
X39011Y80148D01*
X39022Y80226D01*
X39044Y80315D01*
X39067Y80404D01*
X39100Y80487D01*
X39105Y80498D01*
X39122Y80526D01*
X39144Y80564D01*
X39178Y80615D01*
X39216Y80676D01*
X39266Y80737D01*
X39327Y80798D01*
X39394Y80859D01*
X39405Y80864D01*
X39427Y80881D01*
X39466Y80909D01*
X39522Y80942D01*
X39588Y80981D01*
X39666Y81020D01*
X39755Y81059D01*
X39849Y81092D01*
X39855D01*
X39860Y81097D01*
X39877D01*
X39893Y81103D01*
X39949Y81114D01*
X40021Y81131D01*
X40110Y81147D01*
X40210Y81158D01*
X40321Y81164D01*
X40437Y81169D01*
X40870D01*
X40876D01*
X40887D01*
X40904D01*
X40926D01*
X40987Y81164D01*
D02*
G37*
G36*
Y78439D02*
X41065Y78433D01*
X41153Y78422D01*
X41253Y78411D01*
X41359Y78389D01*
X41459Y78361D01*
X41464D01*
X41470Y78356D01*
X41503Y78345D01*
X41553Y78328D01*
X41614Y78300D01*
X41686Y78267D01*
X41764Y78223D01*
X41842Y78178D01*
X41914Y78123D01*
X41925Y78117D01*
X41947Y78095D01*
X41980Y78061D01*
X42025Y78017D01*
X42075Y77962D01*
X42125Y77895D01*
X42169Y77823D01*
X42213Y77745D01*
X42219Y77734D01*
X42230Y77706D01*
X42247Y77662D01*
X42269Y77601D01*
X42286Y77523D01*
X42302Y77440D01*
X42313Y77346D01*
X42319Y77246D01*
Y77201D01*
X42313Y77151D01*
X42308Y77085D01*
X42302Y77012D01*
X42286Y76935D01*
X42269Y76852D01*
X42241Y76774D01*
X42236Y76763D01*
X42230Y76741D01*
X42213Y76702D01*
X42186Y76652D01*
X42158Y76596D01*
X42125Y76541D01*
X42080Y76480D01*
X42030Y76424D01*
X42025Y76419D01*
X42008Y76402D01*
X41975Y76374D01*
X41936Y76341D01*
X41886Y76302D01*
X41825Y76263D01*
X41758Y76224D01*
X41686Y76191D01*
X41675Y76186D01*
X41653Y76174D01*
X41609Y76163D01*
X41553Y76141D01*
X41486Y76125D01*
X41409Y76108D01*
X41326Y76091D01*
X41231Y76080D01*
Y76702D01*
X41237D01*
X41253D01*
X41281Y76707D01*
X41314Y76713D01*
X41398Y76724D01*
X41481Y76746D01*
X41486D01*
X41497Y76752D01*
X41520Y76757D01*
X41547Y76768D01*
X41603Y76802D01*
X41664Y76846D01*
X41669Y76852D01*
X41675Y76857D01*
X41703Y76890D01*
X41742Y76946D01*
X41775Y77012D01*
Y77018D01*
X41780Y77029D01*
X41786Y77051D01*
X41797Y77079D01*
X41803Y77113D01*
X41808Y77151D01*
X41814Y77246D01*
Y77268D01*
X41808Y77296D01*
Y77329D01*
X41786Y77412D01*
X41769Y77457D01*
X41747Y77501D01*
Y77507D01*
X41736Y77518D01*
X41719Y77540D01*
X41703Y77562D01*
X41675Y77590D01*
X41642Y77618D01*
X41609Y77651D01*
X41564Y77679D01*
X41559D01*
X41542Y77690D01*
X41520Y77701D01*
X41486Y77717D01*
X41442Y77734D01*
X41392Y77751D01*
X41331Y77762D01*
X41270Y77778D01*
X41264D01*
X41242Y77784D01*
X41203Y77789D01*
X41159Y77795D01*
X41098Y77801D01*
X41031Y77806D01*
X40959Y77812D01*
X40876D01*
X40437D01*
X40432D01*
X40415D01*
X40393D01*
X40360D01*
X40321Y77806D01*
X40277D01*
X40171Y77795D01*
X40055Y77778D01*
X39938Y77756D01*
X39827Y77723D01*
X39777Y77701D01*
X39733Y77679D01*
X39722Y77673D01*
X39699Y77651D01*
X39660Y77623D01*
X39622Y77573D01*
X39577Y77518D01*
X39538Y77440D01*
X39516Y77351D01*
X39505Y77251D01*
Y77212D01*
X39511Y77168D01*
X39522Y77113D01*
X39538Y77051D01*
X39561Y76985D01*
X39588Y76924D01*
X39633Y76868D01*
X39638Y76863D01*
X39655Y76846D01*
X39688Y76824D01*
X39733Y76796D01*
X39794Y76763D01*
X39866Y76741D01*
X39955Y76718D01*
X40055Y76707D01*
Y76086D01*
X40043D01*
X40016Y76091D01*
X39966Y76097D01*
X39910Y76102D01*
X39838Y76119D01*
X39766Y76136D01*
X39688Y76163D01*
X39610Y76191D01*
X39599Y76197D01*
X39577Y76208D01*
X39544Y76224D01*
X39494Y76252D01*
X39444Y76285D01*
X39388Y76330D01*
X39333Y76374D01*
X39277Y76430D01*
X39272Y76435D01*
X39255Y76458D01*
X39233Y76491D01*
X39200Y76530D01*
X39167Y76585D01*
X39133Y76646D01*
X39100Y76713D01*
X39072Y76790D01*
X39067Y76802D01*
X39061Y76829D01*
X39050Y76868D01*
X39039Y76929D01*
X39022Y76996D01*
X39011Y77074D01*
X39006Y77157D01*
X39000Y77251D01*
Y77301D01*
X39006Y77357D01*
X39011Y77423D01*
X39022Y77501D01*
X39044Y77590D01*
X39067Y77679D01*
X39100Y77762D01*
X39105Y77773D01*
X39122Y77801D01*
X39144Y77839D01*
X39178Y77889D01*
X39216Y77951D01*
X39266Y78012D01*
X39327Y78073D01*
X39394Y78134D01*
X39405Y78139D01*
X39427Y78156D01*
X39466Y78184D01*
X39522Y78217D01*
X39588Y78256D01*
X39666Y78295D01*
X39755Y78333D01*
X39849Y78367D01*
X39855D01*
X39860Y78372D01*
X39877D01*
X39893Y78378D01*
X39949Y78389D01*
X40021Y78406D01*
X40110Y78422D01*
X40210Y78433D01*
X40321Y78439D01*
X40437Y78444D01*
X40870D01*
X40876D01*
X40887D01*
X40904D01*
X40926D01*
X40987Y78439D01*
D02*
G37*
G36*
X30498Y83994D02*
X30581Y83989D01*
X30670Y83978D01*
X30775Y83961D01*
X30881Y83939D01*
X30981Y83911D01*
X30986D01*
X30992Y83906D01*
X31025Y83894D01*
X31075Y83872D01*
X31136Y83845D01*
X31208Y83811D01*
X31286Y83767D01*
X31364Y83717D01*
X31436Y83661D01*
X31447Y83656D01*
X31469Y83634D01*
X31503Y83600D01*
X31541Y83556D01*
X31586Y83500D01*
X31636Y83434D01*
X31680Y83367D01*
X31719Y83290D01*
X31725Y83279D01*
X31736Y83251D01*
X31752Y83206D01*
X31769Y83151D01*
X31786Y83079D01*
X31802Y83001D01*
X31813Y82912D01*
X31819Y82823D01*
Y82779D01*
X31813Y82729D01*
X31808Y82662D01*
X31802Y82585D01*
X31791Y82507D01*
X31769Y82424D01*
X31747Y82346D01*
X31741Y82335D01*
X31736Y82313D01*
X31719Y82274D01*
X31697Y82224D01*
X31669Y82174D01*
X31636Y82113D01*
X31591Y82057D01*
X31547Y82002D01*
X31541Y81996D01*
X31525Y81980D01*
X31497Y81952D01*
X31458Y81924D01*
X31414Y81885D01*
X31358Y81852D01*
X31297Y81819D01*
X31231Y81786D01*
X31225Y81780D01*
X31197Y81774D01*
X31159Y81758D01*
X31108Y81741D01*
X31047Y81725D01*
X30975Y81708D01*
X30898Y81691D01*
X30814Y81680D01*
Y82291D01*
X30820D01*
X30825D01*
X30853Y82296D01*
X30898Y82307D01*
X30953Y82318D01*
X31014Y82341D01*
X31075Y82363D01*
X31136Y82396D01*
X31186Y82440D01*
X31192Y82446D01*
X31208Y82463D01*
X31225Y82490D01*
X31253Y82529D01*
X31275Y82579D01*
X31292Y82646D01*
X31308Y82718D01*
X31314Y82807D01*
Y82829D01*
X31308Y82851D01*
Y82879D01*
X31286Y82951D01*
X31275Y82990D01*
X31253Y83029D01*
Y83034D01*
X31242Y83045D01*
X31225Y83062D01*
X31208Y83090D01*
X31153Y83145D01*
X31075Y83206D01*
X31070Y83212D01*
X31053Y83217D01*
X31031Y83234D01*
X30997Y83251D01*
X30953Y83267D01*
X30903Y83290D01*
X30842Y83312D01*
X30781Y83328D01*
X30775D01*
X30753Y83334D01*
X30714Y83340D01*
X30665Y83351D01*
X30609Y83356D01*
X30542Y83367D01*
X30465Y83373D01*
X30382D01*
X29937D01*
X29932D01*
X29915D01*
X29893D01*
X29865Y83367D01*
X29827D01*
X29782Y83362D01*
X29682Y83351D01*
X29566Y83334D01*
X29449Y83306D01*
X29338Y83273D01*
X29238Y83223D01*
X29227Y83217D01*
X29199Y83195D01*
X29160Y83156D01*
X29122Y83106D01*
X29077Y83045D01*
X29038Y82968D01*
X29011Y82873D01*
X29005Y82818D01*
X29000Y82762D01*
Y82718D01*
X29005Y82674D01*
X29011Y82624D01*
Y82613D01*
X29016Y82579D01*
X29027Y82535D01*
X29038Y82490D01*
Y82485D01*
X29044Y82479D01*
X29055Y82451D01*
X29066Y82413D01*
X29083Y82379D01*
X29088Y82368D01*
X29099Y82352D01*
X29116Y82329D01*
X29138Y82307D01*
X29727Y82302D01*
Y82840D01*
X30193D01*
Y81680D01*
X28916D01*
X28911D01*
X28905Y81691D01*
X28872Y81725D01*
X28822Y81774D01*
X28766Y81847D01*
X28761Y81852D01*
X28755Y81863D01*
X28739Y81885D01*
X28722Y81913D01*
X28700Y81952D01*
X28678Y81991D01*
X28633Y82091D01*
Y82096D01*
X28622Y82118D01*
X28611Y82146D01*
X28600Y82185D01*
X28583Y82235D01*
X28567Y82285D01*
X28550Y82346D01*
X28539Y82413D01*
Y82418D01*
X28533Y82446D01*
X28528Y82479D01*
X28522Y82529D01*
X28511Y82585D01*
X28506Y82651D01*
X28500Y82718D01*
Y82840D01*
X28506Y82895D01*
X28511Y82957D01*
X28522Y83034D01*
X28539Y83118D01*
X28561Y83206D01*
X28594Y83290D01*
X28600Y83301D01*
X28611Y83328D01*
X28633Y83367D01*
X28666Y83423D01*
X28705Y83478D01*
X28755Y83545D01*
X28811Y83612D01*
X28877Y83672D01*
X28888Y83678D01*
X28911Y83700D01*
X28950Y83728D01*
X29005Y83761D01*
X29066Y83800D01*
X29144Y83839D01*
X29233Y83878D01*
X29327Y83917D01*
X29333D01*
X29338Y83922D01*
X29355D01*
X29377Y83928D01*
X29427Y83944D01*
X29505Y83956D01*
X29593Y83972D01*
X29699Y83989D01*
X29815Y83994D01*
X29937Y84000D01*
X30376D01*
X30382D01*
X30393D01*
X30409D01*
X30431D01*
X30498Y83994D01*
D02*
G37*
G36*
X31775Y80564D02*
X29699Y79671D01*
X31775D01*
Y79044D01*
X28544D01*
Y79665D01*
X30626Y80564D01*
X28544D01*
Y81192D01*
X31775D01*
Y80564D01*
D02*
G37*
G36*
Y77573D02*
X31769Y77512D01*
X31763Y77434D01*
X31747Y77346D01*
X31730Y77246D01*
X31702Y77146D01*
X31664Y77046D01*
Y77040D01*
X31658Y77035D01*
X31641Y77001D01*
X31619Y76951D01*
X31586Y76890D01*
X31541Y76824D01*
X31486Y76746D01*
X31425Y76674D01*
X31353Y76602D01*
X31342Y76591D01*
X31319Y76569D01*
X31275Y76535D01*
X31220Y76496D01*
X31153Y76446D01*
X31075Y76402D01*
X30986Y76352D01*
X30887Y76313D01*
X30881D01*
X30875Y76308D01*
X30859Y76302D01*
X30837Y76297D01*
X30781Y76280D01*
X30709Y76263D01*
X30620Y76247D01*
X30520Y76230D01*
X30409Y76219D01*
X30287Y76213D01*
X30021D01*
X30015D01*
X30004D01*
X29987D01*
X29965D01*
X29904Y76219D01*
X29821Y76224D01*
X29732Y76236D01*
X29632Y76258D01*
X29527Y76280D01*
X29421Y76313D01*
X29416D01*
X29410Y76319D01*
X29377Y76330D01*
X29327Y76352D01*
X29260Y76385D01*
X29188Y76424D01*
X29111Y76474D01*
X29033Y76530D01*
X28955Y76596D01*
X28944Y76602D01*
X28922Y76630D01*
X28888Y76668D01*
X28844Y76718D01*
X28794Y76785D01*
X28744Y76857D01*
X28694Y76940D01*
X28650Y77035D01*
X28644Y77046D01*
X28633Y77079D01*
X28617Y77129D01*
X28600Y77201D01*
X28578Y77284D01*
X28561Y77379D01*
X28550Y77484D01*
X28544Y77595D01*
Y78467D01*
X31775D01*
Y77573D01*
D02*
G37*
G36*
X77233Y98338D02*
X75090D01*
X75085D01*
X75079D01*
X75063D01*
X75040D01*
X74979Y98332D01*
X74913Y98321D01*
X74835Y98310D01*
X74757Y98293D01*
X74680Y98265D01*
X74613Y98226D01*
X74607Y98221D01*
X74591Y98204D01*
X74563Y98177D01*
X74535Y98143D01*
X74507Y98093D01*
X74480Y98038D01*
X74463Y97971D01*
X74458Y97894D01*
Y97855D01*
X74469Y97816D01*
X74480Y97766D01*
X74496Y97710D01*
X74524Y97655D01*
X74563Y97599D01*
X74613Y97549D01*
X74619Y97544D01*
X74641Y97533D01*
X74680Y97511D01*
X74735Y97488D01*
X74802Y97466D01*
X74885Y97444D01*
X74979Y97427D01*
X75090Y97422D01*
X77233D01*
Y96800D01*
X75090D01*
X75085D01*
X75079D01*
X75046D01*
X74996Y96806D01*
X74929Y96811D01*
X74852Y96817D01*
X74774Y96833D01*
X74691Y96850D01*
X74607Y96878D01*
X74596Y96883D01*
X74574Y96889D01*
X74535Y96906D01*
X74485Y96933D01*
X74430Y96961D01*
X74369Y96994D01*
X74308Y97039D01*
X74252Y97089D01*
X74247Y97094D01*
X74230Y97111D01*
X74202Y97144D01*
X74169Y97183D01*
X74136Y97233D01*
X74097Y97294D01*
X74063Y97361D01*
X74030Y97433D01*
X74025Y97444D01*
X74019Y97466D01*
X74008Y97511D01*
X73997Y97566D01*
X73980Y97633D01*
X73969Y97716D01*
X73964Y97799D01*
X73958Y97894D01*
Y97932D01*
X73964Y97982D01*
X73969Y98038D01*
X73975Y98110D01*
X73991Y98182D01*
X74008Y98260D01*
X74030Y98338D01*
X74036Y98349D01*
X74047Y98371D01*
X74063Y98404D01*
X74086Y98454D01*
X74119Y98504D01*
X74158Y98560D01*
X74202Y98621D01*
X74252Y98676D01*
X74258Y98682D01*
X74280Y98698D01*
X74308Y98726D01*
X74352Y98754D01*
X74402Y98787D01*
X74463Y98826D01*
X74530Y98859D01*
X74607Y98893D01*
X74619Y98898D01*
X74646Y98904D01*
X74691Y98915D01*
X74746Y98926D01*
X74818Y98943D01*
X74902Y98954D01*
X74990Y98959D01*
X75090Y98965D01*
X77233D01*
Y98338D01*
D02*
G37*
G36*
X76300Y96356D02*
X76356Y96351D01*
X76417Y96345D01*
X76483Y96328D01*
X76556Y96312D01*
X76628Y96284D01*
X76639Y96279D01*
X76661Y96267D01*
X76694Y96251D01*
X76744Y96223D01*
X76794Y96190D01*
X76855Y96151D01*
X76911Y96106D01*
X76966Y96051D01*
X76972Y96045D01*
X76988Y96023D01*
X77016Y95990D01*
X77049Y95951D01*
X77083Y95896D01*
X77122Y95834D01*
X77160Y95768D01*
X77194Y95690D01*
X77199Y95679D01*
X77205Y95651D01*
X77222Y95607D01*
X77238Y95551D01*
X77249Y95485D01*
X77266Y95402D01*
X77271Y95313D01*
X77277Y95218D01*
Y95180D01*
X77271Y95130D01*
X77266Y95074D01*
X77260Y95008D01*
X77249Y94930D01*
X77227Y94858D01*
X77205Y94786D01*
X77199Y94775D01*
X77194Y94752D01*
X77177Y94719D01*
X77155Y94674D01*
X77127Y94619D01*
X77094Y94569D01*
X77055Y94514D01*
X77011Y94464D01*
X77005Y94458D01*
X76988Y94441D01*
X76961Y94419D01*
X76927Y94392D01*
X76883Y94358D01*
X76833Y94325D01*
X76777Y94297D01*
X76711Y94269D01*
X76705Y94264D01*
X76683Y94258D01*
X76644Y94247D01*
X76600Y94236D01*
X76544Y94225D01*
X76478Y94214D01*
X76406Y94203D01*
X76328D01*
X76322D01*
X76300D01*
X76272D01*
X76234Y94208D01*
X76184Y94214D01*
X76134Y94225D01*
X76023Y94253D01*
X76017D01*
X76000Y94264D01*
X75967Y94275D01*
X75934Y94292D01*
X75889Y94308D01*
X75840Y94336D01*
X75734Y94397D01*
X75728Y94403D01*
X75712Y94414D01*
X75684Y94436D01*
X75645Y94458D01*
X75601Y94491D01*
X75556Y94530D01*
X75445Y94619D01*
X75440Y94625D01*
X75423Y94641D01*
X75390Y94669D01*
X75351Y94702D01*
X75307Y94747D01*
X75257Y94791D01*
X75140Y94902D01*
X74496Y95513D01*
Y94092D01*
X74002D01*
Y96301D01*
X74419D01*
X75545Y95252D01*
X75551Y95246D01*
X75568Y95230D01*
X75595Y95207D01*
X75623Y95180D01*
X75701Y95113D01*
X75784Y95046D01*
X75790Y95041D01*
X75801Y95030D01*
X75823Y95019D01*
X75851Y94997D01*
X75917Y94958D01*
X75984Y94913D01*
X75989D01*
X76000Y94902D01*
X76017Y94897D01*
X76039Y94880D01*
X76089Y94858D01*
X76150Y94836D01*
X76156D01*
X76161Y94830D01*
X76200Y94824D01*
X76250Y94819D01*
X76306Y94813D01*
X76311D01*
X76322D01*
X76345D01*
X76367Y94819D01*
X76428Y94824D01*
X76494Y94847D01*
X76500D01*
X76511Y94852D01*
X76544Y94869D01*
X76594Y94891D01*
X76639Y94930D01*
X76644D01*
X76650Y94941D01*
X76672Y94969D01*
X76700Y95013D01*
X76727Y95069D01*
Y95074D01*
X76733Y95080D01*
X76739Y95096D01*
X76744Y95119D01*
X76755Y95174D01*
X76761Y95241D01*
Y95285D01*
X76755Y95329D01*
X76744Y95385D01*
X76727Y95446D01*
X76700Y95507D01*
X76666Y95568D01*
X76617Y95624D01*
X76611Y95629D01*
X76589Y95640D01*
X76561Y95662D01*
X76517Y95685D01*
X76461Y95707D01*
X76394Y95729D01*
X76311Y95740D01*
X76222Y95746D01*
Y96362D01*
X76234D01*
X76261D01*
X76300Y96356D01*
D02*
G37*
G36*
X62210Y98313D02*
X59480D01*
Y96797D01*
X58980D01*
Y98940D01*
X62210D01*
Y98313D01*
D02*
G37*
G36*
X61278Y96381D02*
X61334Y96376D01*
X61395Y96370D01*
X61461Y96353D01*
X61533Y96337D01*
X61605Y96309D01*
X61616Y96303D01*
X61639Y96292D01*
X61672Y96276D01*
X61722Y96248D01*
X61772Y96215D01*
X61833Y96176D01*
X61888Y96131D01*
X61944Y96076D01*
X61949Y96070D01*
X61966Y96048D01*
X61994Y96015D01*
X62027Y95976D01*
X62061Y95920D01*
X62099Y95859D01*
X62138Y95793D01*
X62172Y95715D01*
X62177Y95704D01*
X62183Y95676D01*
X62199Y95632D01*
X62216Y95576D01*
X62227Y95510D01*
X62244Y95427D01*
X62249Y95338D01*
X62255Y95243D01*
Y95205D01*
X62249Y95155D01*
X62244Y95099D01*
X62238Y95033D01*
X62227Y94955D01*
X62205Y94883D01*
X62183Y94810D01*
X62177Y94799D01*
X62172Y94777D01*
X62155Y94744D01*
X62133Y94700D01*
X62105Y94644D01*
X62072Y94594D01*
X62033Y94539D01*
X61988Y94489D01*
X61983Y94483D01*
X61966Y94466D01*
X61939Y94444D01*
X61905Y94416D01*
X61861Y94383D01*
X61811Y94350D01*
X61755Y94322D01*
X61689Y94294D01*
X61683Y94289D01*
X61661Y94283D01*
X61622Y94272D01*
X61578Y94261D01*
X61522Y94250D01*
X61456Y94239D01*
X61383Y94228D01*
X61306D01*
X61300D01*
X61278D01*
X61250D01*
X61211Y94233D01*
X61162Y94239D01*
X61111Y94250D01*
X61001Y94278D01*
X60995D01*
X60978Y94289D01*
X60945Y94300D01*
X60912Y94317D01*
X60867Y94333D01*
X60817Y94361D01*
X60712Y94422D01*
X60706Y94428D01*
X60690Y94439D01*
X60662Y94461D01*
X60623Y94483D01*
X60579Y94516D01*
X60534Y94555D01*
X60423Y94644D01*
X60418Y94650D01*
X60401Y94666D01*
X60368Y94694D01*
X60329Y94727D01*
X60285Y94772D01*
X60235Y94816D01*
X60118Y94927D01*
X59474Y95538D01*
Y94117D01*
X58980D01*
Y96326D01*
X59397D01*
X60523Y95277D01*
X60529Y95271D01*
X60545Y95254D01*
X60573Y95232D01*
X60601Y95205D01*
X60679Y95138D01*
X60762Y95071D01*
X60767Y95066D01*
X60778Y95055D01*
X60801Y95044D01*
X60828Y95021D01*
X60895Y94983D01*
X60962Y94938D01*
X60967D01*
X60978Y94927D01*
X60995Y94921D01*
X61017Y94905D01*
X61067Y94883D01*
X61128Y94861D01*
X61134D01*
X61139Y94855D01*
X61178Y94849D01*
X61228Y94844D01*
X61284Y94838D01*
X61289D01*
X61300D01*
X61322D01*
X61345Y94844D01*
X61406Y94849D01*
X61472Y94872D01*
X61478D01*
X61489Y94877D01*
X61522Y94894D01*
X61572Y94916D01*
X61616Y94955D01*
X61622D01*
X61628Y94966D01*
X61650Y94994D01*
X61678Y95038D01*
X61705Y95094D01*
Y95099D01*
X61711Y95105D01*
X61716Y95121D01*
X61722Y95144D01*
X61733Y95199D01*
X61739Y95266D01*
Y95310D01*
X61733Y95354D01*
X61722Y95410D01*
X61705Y95471D01*
X61678Y95532D01*
X61644Y95593D01*
X61594Y95649D01*
X61589Y95654D01*
X61567Y95665D01*
X61539Y95687D01*
X61494Y95710D01*
X61439Y95732D01*
X61372Y95754D01*
X61289Y95765D01*
X61200Y95771D01*
Y96387D01*
X61211D01*
X61239D01*
X61278Y96381D01*
D02*
G37*
G36*
X11952Y104354D02*
X11946D01*
X11940D01*
X11907D01*
X11863Y104349D01*
X11807Y104338D01*
X11746Y104326D01*
X11685Y104310D01*
X11624Y104282D01*
X11574Y104243D01*
X11569Y104238D01*
X11558Y104221D01*
X11535Y104193D01*
X11519Y104154D01*
X11496Y104104D01*
X11474Y104043D01*
X11463Y103971D01*
X11458Y103888D01*
Y103849D01*
X11463Y103821D01*
X11474Y103760D01*
X11496Y103694D01*
Y103688D01*
X11502Y103677D01*
X11513Y103660D01*
X11530Y103644D01*
X11563Y103594D01*
X11607Y103544D01*
X11613Y103538D01*
X11619Y103533D01*
X11635Y103522D01*
X11657Y103511D01*
X11713Y103477D01*
X11779Y103449D01*
X11785D01*
X11796Y103444D01*
X11818Y103438D01*
X11846Y103427D01*
X11913Y103416D01*
X11990Y103411D01*
X14233D01*
Y102789D01*
X11990D01*
X11979D01*
X11952D01*
X11907Y102795D01*
X11852Y102800D01*
X11785Y102811D01*
X11718Y102828D01*
X11641Y102850D01*
X11569Y102878D01*
X11563Y102883D01*
X11535Y102894D01*
X11502Y102911D01*
X11458Y102939D01*
X11408Y102972D01*
X11352Y103011D01*
X11297Y103056D01*
X11241Y103111D01*
X11236Y103117D01*
X11219Y103139D01*
X11197Y103166D01*
X11163Y103211D01*
X11130Y103261D01*
X11097Y103322D01*
X11063Y103389D01*
X11030Y103461D01*
X11025Y103472D01*
X11019Y103494D01*
X11008Y103538D01*
X10997Y103588D01*
X10980Y103655D01*
X10969Y103727D01*
X10964Y103805D01*
X10958Y103888D01*
Y103927D01*
X10964Y103977D01*
Y104032D01*
X10975Y104104D01*
X10986Y104177D01*
X10997Y104254D01*
X11019Y104332D01*
X11025Y104343D01*
X11030Y104365D01*
X11047Y104404D01*
X11063Y104448D01*
X11091Y104504D01*
X11125Y104560D01*
X11158Y104621D01*
X11202Y104676D01*
X11208Y104682D01*
X11225Y104698D01*
X11252Y104726D01*
X11286Y104759D01*
X11330Y104793D01*
X11385Y104832D01*
X11441Y104870D01*
X11507Y104904D01*
X11519Y104909D01*
X11541Y104915D01*
X11580Y104926D01*
X11635Y104943D01*
X11702Y104959D01*
X11774Y104970D01*
X11857Y104976D01*
X11952Y104981D01*
Y104354D01*
D02*
G37*
G36*
X13300Y102339D02*
X13356Y102334D01*
X13417Y102328D01*
X13483Y102312D01*
X13555Y102295D01*
X13628Y102267D01*
X13639Y102262D01*
X13661Y102251D01*
X13694Y102234D01*
X13744Y102206D01*
X13794Y102173D01*
X13855Y102134D01*
X13911Y102090D01*
X13966Y102034D01*
X13972Y102029D01*
X13988Y102006D01*
X14016Y101973D01*
X14049Y101934D01*
X14083Y101879D01*
X14122Y101818D01*
X14160Y101751D01*
X14194Y101673D01*
X14199Y101662D01*
X14205Y101635D01*
X14221Y101590D01*
X14238Y101535D01*
X14249Y101468D01*
X14266Y101385D01*
X14271Y101296D01*
X14277Y101202D01*
Y101163D01*
X14271Y101113D01*
X14266Y101058D01*
X14260Y100991D01*
X14249Y100913D01*
X14227Y100841D01*
X14205Y100769D01*
X14199Y100758D01*
X14194Y100736D01*
X14177Y100702D01*
X14155Y100658D01*
X14127Y100602D01*
X14094Y100552D01*
X14055Y100497D01*
X14011Y100447D01*
X14005Y100441D01*
X13988Y100425D01*
X13961Y100403D01*
X13927Y100375D01*
X13883Y100341D01*
X13833Y100308D01*
X13778Y100280D01*
X13711Y100253D01*
X13705Y100247D01*
X13683Y100242D01*
X13644Y100231D01*
X13600Y100219D01*
X13544Y100208D01*
X13478Y100197D01*
X13406Y100186D01*
X13328D01*
X13322D01*
X13300D01*
X13272D01*
X13234Y100192D01*
X13184Y100197D01*
X13134Y100208D01*
X13023Y100236D01*
X13017D01*
X13001Y100247D01*
X12967Y100258D01*
X12934Y100275D01*
X12889Y100292D01*
X12840Y100319D01*
X12734Y100380D01*
X12729Y100386D01*
X12712Y100397D01*
X12684Y100419D01*
X12645Y100441D01*
X12601Y100475D01*
X12557Y100514D01*
X12445Y100602D01*
X12440Y100608D01*
X12423Y100625D01*
X12390Y100652D01*
X12351Y100686D01*
X12307Y100730D01*
X12257Y100774D01*
X12140Y100885D01*
X11496Y101496D01*
Y100075D01*
X11003D01*
Y102284D01*
X11419D01*
X12545Y101235D01*
X12551Y101230D01*
X12568Y101213D01*
X12595Y101191D01*
X12623Y101163D01*
X12701Y101096D01*
X12784Y101030D01*
X12790Y101024D01*
X12801Y101013D01*
X12823Y101002D01*
X12851Y100980D01*
X12917Y100941D01*
X12984Y100897D01*
X12989D01*
X13001Y100885D01*
X13017Y100880D01*
X13039Y100863D01*
X13089Y100841D01*
X13150Y100819D01*
X13156D01*
X13161Y100813D01*
X13200Y100808D01*
X13250Y100802D01*
X13306Y100797D01*
X13311D01*
X13322D01*
X13345D01*
X13367Y100802D01*
X13428Y100808D01*
X13494Y100830D01*
X13500D01*
X13511Y100836D01*
X13544Y100852D01*
X13594Y100874D01*
X13639Y100913D01*
X13644D01*
X13650Y100924D01*
X13672Y100952D01*
X13700Y100996D01*
X13727Y101052D01*
Y101058D01*
X13733Y101063D01*
X13739Y101080D01*
X13744Y101102D01*
X13755Y101157D01*
X13761Y101224D01*
Y101268D01*
X13755Y101313D01*
X13744Y101368D01*
X13727Y101429D01*
X13700Y101490D01*
X13667Y101551D01*
X13616Y101607D01*
X13611Y101612D01*
X13589Y101624D01*
X13561Y101646D01*
X13517Y101668D01*
X13461Y101690D01*
X13395Y101712D01*
X13311Y101724D01*
X13223Y101729D01*
Y102345D01*
X13234D01*
X13261D01*
X13300Y102339D01*
D02*
G37*
G36*
X50945Y99003D02*
X51023Y98998D01*
X51112Y98987D01*
X51211Y98976D01*
X51317Y98954D01*
X51417Y98926D01*
X51422D01*
X51428Y98920D01*
X51461Y98909D01*
X51511Y98892D01*
X51572Y98865D01*
X51644Y98831D01*
X51722Y98787D01*
X51800Y98743D01*
X51872Y98687D01*
X51883Y98682D01*
X51905Y98659D01*
X51938Y98626D01*
X51983Y98582D01*
X52033Y98526D01*
X52083Y98460D01*
X52127Y98387D01*
X52171Y98310D01*
X52177Y98299D01*
X52188Y98271D01*
X52205Y98226D01*
X52227Y98166D01*
X52244Y98088D01*
X52260Y98005D01*
X52271Y97910D01*
X52277Y97810D01*
Y97766D01*
X52271Y97716D01*
X52266Y97649D01*
X52260Y97577D01*
X52244Y97500D01*
X52227Y97416D01*
X52199Y97338D01*
X52194Y97327D01*
X52188Y97305D01*
X52171Y97266D01*
X52144Y97216D01*
X52116Y97161D01*
X52083Y97105D01*
X52038Y97044D01*
X51988Y96989D01*
X51983Y96983D01*
X51966Y96967D01*
X51933Y96939D01*
X51894Y96906D01*
X51844Y96867D01*
X51783Y96828D01*
X51716Y96789D01*
X51644Y96756D01*
X51633Y96750D01*
X51611Y96739D01*
X51567Y96728D01*
X51511Y96706D01*
X51445Y96689D01*
X51367Y96672D01*
X51284Y96656D01*
X51189Y96645D01*
Y97266D01*
X51195D01*
X51211D01*
X51239Y97272D01*
X51272Y97277D01*
X51356Y97289D01*
X51439Y97311D01*
X51445D01*
X51456Y97316D01*
X51478Y97322D01*
X51506Y97333D01*
X51561Y97366D01*
X51622Y97411D01*
X51628Y97416D01*
X51633Y97422D01*
X51661Y97455D01*
X51700Y97511D01*
X51733Y97577D01*
Y97583D01*
X51739Y97594D01*
X51744Y97616D01*
X51755Y97644D01*
X51761Y97677D01*
X51766Y97716D01*
X51772Y97810D01*
Y97833D01*
X51766Y97860D01*
Y97894D01*
X51744Y97977D01*
X51727Y98021D01*
X51705Y98066D01*
Y98071D01*
X51694Y98082D01*
X51678Y98104D01*
X51661Y98127D01*
X51633Y98154D01*
X51600Y98182D01*
X51567Y98215D01*
X51522Y98243D01*
X51517D01*
X51500Y98254D01*
X51478Y98265D01*
X51445Y98282D01*
X51400Y98299D01*
X51350Y98315D01*
X51289Y98326D01*
X51228Y98343D01*
X51222D01*
X51200Y98349D01*
X51161Y98354D01*
X51117Y98360D01*
X51056Y98365D01*
X50989Y98371D01*
X50917Y98376D01*
X50834D01*
X50396D01*
X50390D01*
X50373D01*
X50351D01*
X50318D01*
X50279Y98371D01*
X50235D01*
X50129Y98360D01*
X50013Y98343D01*
X49896Y98321D01*
X49785Y98288D01*
X49735Y98265D01*
X49691Y98243D01*
X49680Y98238D01*
X49657Y98215D01*
X49619Y98188D01*
X49580Y98138D01*
X49535Y98082D01*
X49496Y98005D01*
X49474Y97916D01*
X49463Y97816D01*
Y97777D01*
X49469Y97733D01*
X49480Y97677D01*
X49496Y97616D01*
X49519Y97549D01*
X49546Y97488D01*
X49591Y97433D01*
X49596Y97427D01*
X49613Y97411D01*
X49646Y97388D01*
X49691Y97361D01*
X49752Y97327D01*
X49824Y97305D01*
X49913Y97283D01*
X50013Y97272D01*
Y96650D01*
X50002D01*
X49974Y96656D01*
X49924Y96661D01*
X49868Y96667D01*
X49796Y96684D01*
X49724Y96700D01*
X49646Y96728D01*
X49569Y96756D01*
X49558Y96761D01*
X49535Y96772D01*
X49502Y96789D01*
X49452Y96817D01*
X49402Y96850D01*
X49347Y96895D01*
X49291Y96939D01*
X49236Y96994D01*
X49230Y97000D01*
X49213Y97022D01*
X49191Y97056D01*
X49158Y97094D01*
X49125Y97150D01*
X49091Y97211D01*
X49058Y97277D01*
X49030Y97355D01*
X49025Y97366D01*
X49019Y97394D01*
X49008Y97433D01*
X48997Y97494D01*
X48980Y97561D01*
X48969Y97638D01*
X48964Y97721D01*
X48958Y97816D01*
Y97866D01*
X48964Y97921D01*
X48969Y97988D01*
X48980Y98066D01*
X49003Y98154D01*
X49025Y98243D01*
X49058Y98326D01*
X49064Y98338D01*
X49080Y98365D01*
X49102Y98404D01*
X49136Y98454D01*
X49174Y98515D01*
X49224Y98576D01*
X49286Y98637D01*
X49352Y98698D01*
X49363Y98704D01*
X49385Y98721D01*
X49424Y98748D01*
X49480Y98782D01*
X49546Y98820D01*
X49624Y98859D01*
X49713Y98898D01*
X49807Y98931D01*
X49813D01*
X49818Y98937D01*
X49835D01*
X49852Y98943D01*
X49907Y98954D01*
X49979Y98970D01*
X50068Y98987D01*
X50168Y98998D01*
X50279Y99003D01*
X50396Y99009D01*
X50828D01*
X50834D01*
X50845D01*
X50862D01*
X50884D01*
X50945Y99003D01*
D02*
G37*
G36*
X49968Y96212D02*
X50046Y96201D01*
X50135Y96184D01*
X50140D01*
X50157Y96179D01*
X50179Y96167D01*
X50207Y96156D01*
X50273Y96123D01*
X50351Y96079D01*
X50357Y96073D01*
X50368Y96068D01*
X50384Y96051D01*
X50412Y96034D01*
X50468Y95984D01*
X50529Y95918D01*
X50534Y95912D01*
X50540Y95901D01*
X50556Y95879D01*
X50573Y95857D01*
X50617Y95790D01*
X50662Y95707D01*
X50668Y95718D01*
X50684Y95740D01*
X50706Y95779D01*
X50740Y95823D01*
X50784Y95873D01*
X50834Y95929D01*
X50889Y95979D01*
X50956Y96029D01*
X50967Y96034D01*
X50989Y96045D01*
X51028Y96068D01*
X51078Y96084D01*
X51139Y96106D01*
X51211Y96129D01*
X51289Y96140D01*
X51372Y96145D01*
X51383D01*
X51411D01*
X51450Y96140D01*
X51506Y96134D01*
X51567Y96129D01*
X51628Y96112D01*
X51694Y96095D01*
X51761Y96073D01*
X51766Y96068D01*
X51789Y96056D01*
X51822Y96040D01*
X51861Y96018D01*
X51905Y95990D01*
X51950Y95951D01*
X51999Y95907D01*
X52044Y95862D01*
X52049Y95857D01*
X52061Y95840D01*
X52083Y95812D01*
X52110Y95773D01*
X52138Y95729D01*
X52166Y95674D01*
X52194Y95613D01*
X52216Y95546D01*
X52222Y95535D01*
X52227Y95513D01*
X52238Y95474D01*
X52249Y95424D01*
X52260Y95363D01*
X52266Y95291D01*
X52277Y95218D01*
Y95096D01*
X52271Y95057D01*
Y95002D01*
X52260Y94941D01*
X52249Y94874D01*
X52238Y94802D01*
X52216Y94730D01*
Y94719D01*
X52205Y94697D01*
X52194Y94663D01*
X52171Y94619D01*
X52149Y94569D01*
X52122Y94514D01*
X52083Y94458D01*
X52044Y94408D01*
X52038Y94403D01*
X52022Y94386D01*
X51999Y94358D01*
X51966Y94330D01*
X51922Y94297D01*
X51877Y94258D01*
X51822Y94225D01*
X51761Y94197D01*
X51755Y94192D01*
X51733Y94186D01*
X51694Y94175D01*
X51650Y94158D01*
X51594Y94142D01*
X51528Y94131D01*
X51456Y94125D01*
X51372Y94120D01*
X51361D01*
X51333D01*
X51289Y94125D01*
X51234Y94136D01*
X51167Y94147D01*
X51100Y94169D01*
X51028Y94197D01*
X50956Y94236D01*
X50950Y94242D01*
X50928Y94258D01*
X50895Y94286D01*
X50851Y94319D01*
X50806Y94369D01*
X50756Y94425D01*
X50706Y94491D01*
X50662Y94564D01*
Y94558D01*
X50656Y94552D01*
X50640Y94525D01*
X50617Y94480D01*
X50584Y94425D01*
X50540Y94364D01*
X50484Y94303D01*
X50423Y94242D01*
X50351Y94186D01*
X50340Y94181D01*
X50318Y94164D01*
X50273Y94142D01*
X50218Y94114D01*
X50151Y94092D01*
X50068Y94070D01*
X49979Y94053D01*
X49885Y94047D01*
X49874D01*
X49846D01*
X49802Y94053D01*
X49746Y94059D01*
X49685Y94070D01*
X49619Y94081D01*
X49546Y94103D01*
X49480Y94131D01*
X49474Y94136D01*
X49452Y94147D01*
X49419Y94164D01*
X49380Y94192D01*
X49336Y94225D01*
X49286Y94264D01*
X49236Y94308D01*
X49191Y94364D01*
X49186Y94369D01*
X49174Y94392D01*
X49152Y94419D01*
X49125Y94458D01*
X49097Y94514D01*
X49069Y94569D01*
X49041Y94636D01*
X49014Y94708D01*
Y94719D01*
X49003Y94741D01*
X48997Y94780D01*
X48986Y94836D01*
X48975Y94897D01*
X48969Y94969D01*
X48958Y95046D01*
Y95169D01*
X48964Y95213D01*
Y95268D01*
X48969Y95335D01*
X48980Y95413D01*
X49014Y95562D01*
X49019Y95574D01*
X49025Y95596D01*
X49041Y95629D01*
X49058Y95679D01*
X49086Y95729D01*
X49114Y95790D01*
X49191Y95907D01*
X49197Y95912D01*
X49213Y95929D01*
X49236Y95957D01*
X49269Y95990D01*
X49313Y96023D01*
X49363Y96062D01*
X49419Y96101D01*
X49480Y96134D01*
X49485Y96140D01*
X49513Y96145D01*
X49546Y96162D01*
X49596Y96173D01*
X49652Y96190D01*
X49724Y96206D01*
X49802Y96212D01*
X49885Y96217D01*
X49891D01*
X49907D01*
X49935D01*
X49968Y96212D01*
D02*
G37*
G36*
X94945Y99009D02*
X95023Y99003D01*
X95112Y98992D01*
X95211Y98981D01*
X95317Y98959D01*
X95417Y98931D01*
X95422D01*
X95428Y98926D01*
X95461Y98915D01*
X95511Y98898D01*
X95572Y98870D01*
X95644Y98837D01*
X95722Y98793D01*
X95800Y98748D01*
X95872Y98693D01*
X95883Y98687D01*
X95905Y98665D01*
X95938Y98632D01*
X95983Y98587D01*
X96033Y98532D01*
X96083Y98465D01*
X96127Y98393D01*
X96172Y98315D01*
X96177Y98304D01*
X96188Y98277D01*
X96205Y98232D01*
X96227Y98171D01*
X96244Y98093D01*
X96260Y98010D01*
X96272Y97916D01*
X96277Y97816D01*
Y97771D01*
X96272Y97721D01*
X96266Y97655D01*
X96260Y97583D01*
X96244Y97505D01*
X96227Y97422D01*
X96199Y97344D01*
X96194Y97333D01*
X96188Y97311D01*
X96172Y97272D01*
X96144Y97222D01*
X96116Y97167D01*
X96083Y97111D01*
X96038Y97050D01*
X95988Y96994D01*
X95983Y96989D01*
X95966Y96972D01*
X95933Y96944D01*
X95894Y96911D01*
X95844Y96872D01*
X95783Y96833D01*
X95716Y96795D01*
X95644Y96761D01*
X95633Y96756D01*
X95611Y96745D01*
X95567Y96734D01*
X95511Y96711D01*
X95445Y96695D01*
X95367Y96678D01*
X95284Y96661D01*
X95189Y96650D01*
Y97272D01*
X95195D01*
X95211D01*
X95239Y97277D01*
X95272Y97283D01*
X95356Y97294D01*
X95439Y97316D01*
X95445D01*
X95456Y97322D01*
X95478Y97327D01*
X95506Y97338D01*
X95561Y97372D01*
X95622Y97416D01*
X95628Y97422D01*
X95633Y97427D01*
X95661Y97461D01*
X95700Y97516D01*
X95733Y97583D01*
Y97588D01*
X95739Y97599D01*
X95744Y97622D01*
X95755Y97649D01*
X95761Y97683D01*
X95766Y97721D01*
X95772Y97816D01*
Y97838D01*
X95766Y97866D01*
Y97899D01*
X95744Y97982D01*
X95727Y98027D01*
X95705Y98071D01*
Y98077D01*
X95694Y98088D01*
X95678Y98110D01*
X95661Y98132D01*
X95633Y98160D01*
X95600Y98188D01*
X95567Y98221D01*
X95522Y98249D01*
X95517D01*
X95500Y98260D01*
X95478Y98271D01*
X95445Y98288D01*
X95400Y98304D01*
X95350Y98321D01*
X95289Y98332D01*
X95228Y98349D01*
X95223D01*
X95200Y98354D01*
X95161Y98360D01*
X95117Y98365D01*
X95056Y98371D01*
X94989Y98376D01*
X94917Y98382D01*
X94834D01*
X94396D01*
X94390D01*
X94373D01*
X94351D01*
X94318D01*
X94279Y98376D01*
X94235D01*
X94129Y98365D01*
X94013Y98349D01*
X93896Y98326D01*
X93785Y98293D01*
X93735Y98271D01*
X93691Y98249D01*
X93680Y98243D01*
X93657Y98221D01*
X93619Y98193D01*
X93580Y98143D01*
X93535Y98088D01*
X93497Y98010D01*
X93474Y97921D01*
X93463Y97821D01*
Y97782D01*
X93469Y97738D01*
X93480Y97683D01*
X93497Y97622D01*
X93519Y97555D01*
X93546Y97494D01*
X93591Y97438D01*
X93596Y97433D01*
X93613Y97416D01*
X93646Y97394D01*
X93691Y97366D01*
X93752Y97333D01*
X93824Y97311D01*
X93913Y97289D01*
X94013Y97277D01*
Y96656D01*
X94002D01*
X93974Y96661D01*
X93924Y96667D01*
X93868Y96672D01*
X93796Y96689D01*
X93724Y96706D01*
X93646Y96734D01*
X93569Y96761D01*
X93558Y96767D01*
X93535Y96778D01*
X93502Y96795D01*
X93452Y96822D01*
X93402Y96856D01*
X93347Y96900D01*
X93291Y96944D01*
X93236Y97000D01*
X93230Y97005D01*
X93213Y97028D01*
X93191Y97061D01*
X93158Y97100D01*
X93125Y97155D01*
X93091Y97216D01*
X93058Y97283D01*
X93030Y97361D01*
X93025Y97372D01*
X93019Y97400D01*
X93008Y97438D01*
X92997Y97500D01*
X92980Y97566D01*
X92969Y97644D01*
X92964Y97727D01*
X92958Y97821D01*
Y97871D01*
X92964Y97927D01*
X92969Y97993D01*
X92980Y98071D01*
X93002Y98160D01*
X93025Y98249D01*
X93058Y98332D01*
X93063Y98343D01*
X93080Y98371D01*
X93102Y98410D01*
X93136Y98460D01*
X93174Y98521D01*
X93225Y98582D01*
X93286Y98643D01*
X93352Y98704D01*
X93363Y98709D01*
X93385Y98726D01*
X93424Y98754D01*
X93480Y98787D01*
X93546Y98826D01*
X93624Y98865D01*
X93713Y98904D01*
X93807Y98937D01*
X93813D01*
X93818Y98943D01*
X93835D01*
X93852Y98948D01*
X93907Y98959D01*
X93979Y98976D01*
X94068Y98992D01*
X94168Y99003D01*
X94279Y99009D01*
X94396Y99015D01*
X94828D01*
X94834D01*
X94845D01*
X94862D01*
X94884D01*
X94945Y99009D01*
D02*
G37*
G36*
X96233Y94042D02*
X95889D01*
X93002Y95302D01*
Y95951D01*
X95727Y94691D01*
Y96312D01*
X96233D01*
Y94042D01*
D02*
G37*
G36*
X49945Y73017D02*
X50023Y73012D01*
X50112Y73001D01*
X50211Y72990D01*
X50317Y72967D01*
X50417Y72940D01*
X50422D01*
X50428Y72934D01*
X50461Y72923D01*
X50511Y72906D01*
X50572Y72879D01*
X50644Y72845D01*
X50722Y72801D01*
X50800Y72757D01*
X50872Y72701D01*
X50883Y72695D01*
X50905Y72673D01*
X50938Y72640D01*
X50983Y72596D01*
X51033Y72540D01*
X51083Y72474D01*
X51127Y72401D01*
X51172Y72324D01*
X51177Y72313D01*
X51188Y72285D01*
X51205Y72240D01*
X51227Y72179D01*
X51244Y72102D01*
X51260Y72018D01*
X51271Y71924D01*
X51277Y71824D01*
Y71780D01*
X51271Y71730D01*
X51266Y71663D01*
X51260Y71591D01*
X51244Y71513D01*
X51227Y71430D01*
X51199Y71352D01*
X51194Y71341D01*
X51188Y71319D01*
X51172Y71280D01*
X51144Y71230D01*
X51116Y71175D01*
X51083Y71119D01*
X51038Y71058D01*
X50988Y71003D01*
X50983Y70997D01*
X50966Y70981D01*
X50933Y70953D01*
X50894Y70920D01*
X50844Y70881D01*
X50783Y70842D01*
X50716Y70803D01*
X50644Y70770D01*
X50633Y70764D01*
X50611Y70753D01*
X50567Y70742D01*
X50511Y70720D01*
X50445Y70703D01*
X50367Y70686D01*
X50284Y70670D01*
X50189Y70659D01*
Y71280D01*
X50195D01*
X50211D01*
X50239Y71286D01*
X50272Y71291D01*
X50356Y71302D01*
X50439Y71325D01*
X50445D01*
X50456Y71330D01*
X50478Y71336D01*
X50506Y71347D01*
X50561Y71380D01*
X50622Y71425D01*
X50628Y71430D01*
X50633Y71436D01*
X50661Y71469D01*
X50700Y71525D01*
X50733Y71591D01*
Y71597D01*
X50739Y71608D01*
X50744Y71630D01*
X50755Y71658D01*
X50761Y71691D01*
X50766Y71730D01*
X50772Y71824D01*
Y71846D01*
X50766Y71874D01*
Y71907D01*
X50744Y71991D01*
X50728Y72035D01*
X50705Y72079D01*
Y72085D01*
X50694Y72096D01*
X50678Y72118D01*
X50661Y72141D01*
X50633Y72168D01*
X50600Y72196D01*
X50567Y72229D01*
X50522Y72257D01*
X50517D01*
X50500Y72268D01*
X50478Y72279D01*
X50445Y72296D01*
X50400Y72313D01*
X50350Y72329D01*
X50289Y72340D01*
X50228Y72357D01*
X50222D01*
X50200Y72363D01*
X50161Y72368D01*
X50117Y72374D01*
X50056Y72379D01*
X49989Y72385D01*
X49917Y72390D01*
X49834D01*
X49395D01*
X49390D01*
X49373D01*
X49351D01*
X49318D01*
X49279Y72385D01*
X49235D01*
X49129Y72374D01*
X49013Y72357D01*
X48896Y72335D01*
X48785Y72302D01*
X48735Y72279D01*
X48691Y72257D01*
X48680Y72251D01*
X48657Y72229D01*
X48619Y72202D01*
X48580Y72152D01*
X48535Y72096D01*
X48496Y72018D01*
X48474Y71930D01*
X48463Y71830D01*
Y71791D01*
X48469Y71746D01*
X48480Y71691D01*
X48496Y71630D01*
X48519Y71563D01*
X48546Y71502D01*
X48591Y71447D01*
X48596Y71441D01*
X48613Y71425D01*
X48646Y71402D01*
X48691Y71375D01*
X48752Y71341D01*
X48824Y71319D01*
X48913Y71297D01*
X49013Y71286D01*
Y70664D01*
X49002D01*
X48974Y70670D01*
X48924Y70675D01*
X48868Y70681D01*
X48796Y70697D01*
X48724Y70714D01*
X48646Y70742D01*
X48569Y70770D01*
X48557Y70775D01*
X48535Y70786D01*
X48502Y70803D01*
X48452Y70831D01*
X48402Y70864D01*
X48347Y70908D01*
X48291Y70953D01*
X48236Y71008D01*
X48230Y71014D01*
X48213Y71036D01*
X48191Y71069D01*
X48158Y71108D01*
X48125Y71164D01*
X48091Y71225D01*
X48058Y71291D01*
X48030Y71369D01*
X48025Y71380D01*
X48019Y71408D01*
X48008Y71447D01*
X47997Y71508D01*
X47980Y71574D01*
X47969Y71652D01*
X47964Y71735D01*
X47958Y71830D01*
Y71880D01*
X47964Y71935D01*
X47969Y72002D01*
X47980Y72079D01*
X48002Y72168D01*
X48025Y72257D01*
X48058Y72340D01*
X48063Y72351D01*
X48080Y72379D01*
X48102Y72418D01*
X48136Y72468D01*
X48175Y72529D01*
X48224Y72590D01*
X48286Y72651D01*
X48352Y72712D01*
X48363Y72718D01*
X48385Y72734D01*
X48424Y72762D01*
X48480Y72795D01*
X48546Y72834D01*
X48624Y72873D01*
X48713Y72912D01*
X48807Y72945D01*
X48813D01*
X48818Y72951D01*
X48835D01*
X48852Y72956D01*
X48907Y72967D01*
X48979Y72984D01*
X49068Y73001D01*
X49168Y73012D01*
X49279Y73017D01*
X49395Y73023D01*
X49828D01*
X49834D01*
X49845D01*
X49862D01*
X49884D01*
X49945Y73017D01*
D02*
G37*
G36*
X49573Y70237D02*
X49612D01*
X49706Y70231D01*
X49817Y70215D01*
X49934Y70198D01*
X50062Y70170D01*
X50184Y70137D01*
X50189D01*
X50200Y70131D01*
X50217Y70126D01*
X50239Y70115D01*
X50300Y70093D01*
X50378Y70059D01*
X50467Y70015D01*
X50561Y69959D01*
X50655Y69898D01*
X50750Y69826D01*
X50755D01*
X50761Y69815D01*
X50789Y69787D01*
X50833Y69743D01*
X50889Y69687D01*
X50944Y69610D01*
X51005Y69526D01*
X51066Y69427D01*
X51122Y69316D01*
Y69310D01*
X51127Y69299D01*
X51133Y69282D01*
X51144Y69260D01*
X51155Y69232D01*
X51166Y69194D01*
X51194Y69110D01*
X51216Y69005D01*
X51238Y68883D01*
X51255Y68749D01*
X51260Y68605D01*
Y68522D01*
X50744D01*
Y68594D01*
X50739Y68644D01*
Y68700D01*
X50728Y68766D01*
X50716Y68838D01*
X50700Y68916D01*
X50678Y68988D01*
Y68994D01*
X50666Y69021D01*
X50650Y69055D01*
X50633Y69099D01*
X50605Y69149D01*
X50578Y69205D01*
X50500Y69310D01*
X50494Y69316D01*
X50478Y69332D01*
X50456Y69354D01*
X50422Y69388D01*
X50378Y69421D01*
X50333Y69454D01*
X50278Y69488D01*
X50217Y69521D01*
X50211Y69526D01*
X50189Y69532D01*
X50156Y69543D01*
X50112Y69560D01*
X50056Y69576D01*
X49995Y69593D01*
X49923Y69604D01*
X49851Y69615D01*
X49862Y69604D01*
X49884Y69582D01*
X49923Y69543D01*
X49962Y69499D01*
Y69493D01*
X49973Y69488D01*
X49995Y69454D01*
X50023Y69410D01*
X50056Y69349D01*
Y69343D01*
X50062Y69332D01*
X50073Y69316D01*
X50084Y69293D01*
X50106Y69238D01*
X50128Y69166D01*
Y69160D01*
X50134Y69149D01*
X50139Y69127D01*
X50145Y69099D01*
X50150Y69033D01*
X50156Y68955D01*
Y68916D01*
X50150Y68872D01*
X50145Y68816D01*
X50134Y68755D01*
X50117Y68683D01*
X50095Y68616D01*
X50067Y68550D01*
X50062Y68544D01*
X50050Y68522D01*
X50034Y68489D01*
X50006Y68450D01*
X49973Y68405D01*
X49928Y68355D01*
X49884Y68311D01*
X49828Y68267D01*
X49823Y68261D01*
X49801Y68250D01*
X49773Y68228D01*
X49729Y68200D01*
X49679Y68172D01*
X49617Y68145D01*
X49551Y68117D01*
X49479Y68095D01*
X49468Y68089D01*
X49446Y68084D01*
X49407Y68072D01*
X49357Y68061D01*
X49290Y68050D01*
X49224Y68045D01*
X49146Y68033D01*
X49062D01*
X49051D01*
X49024D01*
X48979Y68039D01*
X48918Y68045D01*
X48852Y68050D01*
X48779Y68067D01*
X48702Y68084D01*
X48624Y68111D01*
X48613Y68117D01*
X48591Y68128D01*
X48552Y68145D01*
X48507Y68167D01*
X48452Y68200D01*
X48391Y68233D01*
X48330Y68278D01*
X48274Y68328D01*
X48269Y68333D01*
X48252Y68350D01*
X48224Y68383D01*
X48191Y68422D01*
X48152Y68472D01*
X48114Y68528D01*
X48075Y68594D01*
X48041Y68666D01*
X48036Y68677D01*
X48030Y68700D01*
X48014Y68744D01*
X48002Y68799D01*
X47986Y68866D01*
X47969Y68938D01*
X47964Y69027D01*
X47958Y69116D01*
Y69160D01*
X47964Y69210D01*
X47969Y69271D01*
X47980Y69343D01*
X47997Y69427D01*
X48019Y69504D01*
X48052Y69587D01*
X48058Y69599D01*
X48069Y69621D01*
X48091Y69660D01*
X48119Y69710D01*
X48158Y69765D01*
X48202Y69821D01*
X48258Y69882D01*
X48319Y69937D01*
X48324Y69943D01*
X48352Y69959D01*
X48385Y69987D01*
X48435Y70020D01*
X48491Y70054D01*
X48563Y70093D01*
X48641Y70131D01*
X48724Y70165D01*
X48735Y70170D01*
X48763Y70176D01*
X48813Y70187D01*
X48874Y70204D01*
X48952Y70220D01*
X49040Y70231D01*
X49135Y70237D01*
X49235Y70242D01*
X49473D01*
X49479D01*
X49490D01*
X49512D01*
X49540D01*
X49573Y70237D01*
D02*
G37*
G36*
X49945Y80012D02*
X50023Y80006D01*
X50112Y79995D01*
X50211Y79984D01*
X50317Y79962D01*
X50417Y79934D01*
X50422D01*
X50428Y79929D01*
X50461Y79918D01*
X50511Y79901D01*
X50572Y79873D01*
X50644Y79840D01*
X50722Y79795D01*
X50800Y79751D01*
X50872Y79695D01*
X50883Y79690D01*
X50905Y79668D01*
X50938Y79634D01*
X50983Y79590D01*
X51033Y79535D01*
X51083Y79468D01*
X51127Y79396D01*
X51172Y79318D01*
X51177Y79307D01*
X51188Y79279D01*
X51205Y79235D01*
X51227Y79174D01*
X51244Y79096D01*
X51260Y79013D01*
X51271Y78918D01*
X51277Y78819D01*
Y78774D01*
X51271Y78724D01*
X51266Y78658D01*
X51260Y78585D01*
X51244Y78508D01*
X51227Y78425D01*
X51199Y78347D01*
X51194Y78336D01*
X51188Y78314D01*
X51172Y78275D01*
X51144Y78225D01*
X51116Y78169D01*
X51083Y78114D01*
X51038Y78053D01*
X50988Y77997D01*
X50983Y77992D01*
X50966Y77975D01*
X50933Y77947D01*
X50894Y77914D01*
X50844Y77875D01*
X50783Y77836D01*
X50716Y77797D01*
X50644Y77764D01*
X50633Y77759D01*
X50611Y77747D01*
X50567Y77736D01*
X50511Y77714D01*
X50445Y77697D01*
X50367Y77681D01*
X50284Y77664D01*
X50189Y77653D01*
Y78275D01*
X50195D01*
X50211D01*
X50239Y78280D01*
X50272Y78286D01*
X50356Y78297D01*
X50439Y78319D01*
X50445D01*
X50456Y78325D01*
X50478Y78330D01*
X50506Y78341D01*
X50561Y78375D01*
X50622Y78419D01*
X50628Y78425D01*
X50633Y78430D01*
X50661Y78463D01*
X50700Y78519D01*
X50733Y78585D01*
Y78591D01*
X50739Y78602D01*
X50744Y78624D01*
X50755Y78652D01*
X50761Y78685D01*
X50766Y78724D01*
X50772Y78819D01*
Y78841D01*
X50766Y78869D01*
Y78902D01*
X50744Y78985D01*
X50728Y79030D01*
X50705Y79074D01*
Y79080D01*
X50694Y79091D01*
X50678Y79113D01*
X50661Y79135D01*
X50633Y79163D01*
X50600Y79190D01*
X50567Y79224D01*
X50522Y79251D01*
X50517D01*
X50500Y79263D01*
X50478Y79274D01*
X50445Y79290D01*
X50400Y79307D01*
X50350Y79324D01*
X50289Y79335D01*
X50228Y79351D01*
X50222D01*
X50200Y79357D01*
X50161Y79362D01*
X50117Y79368D01*
X50056Y79374D01*
X49989Y79379D01*
X49917Y79385D01*
X49834D01*
X49395D01*
X49390D01*
X49373D01*
X49351D01*
X49318D01*
X49279Y79379D01*
X49235D01*
X49129Y79368D01*
X49013Y79351D01*
X48896Y79329D01*
X48785Y79296D01*
X48735Y79274D01*
X48691Y79251D01*
X48680Y79246D01*
X48657Y79224D01*
X48619Y79196D01*
X48580Y79146D01*
X48535Y79091D01*
X48496Y79013D01*
X48474Y78924D01*
X48463Y78824D01*
Y78785D01*
X48469Y78741D01*
X48480Y78685D01*
X48496Y78624D01*
X48519Y78558D01*
X48546Y78497D01*
X48591Y78441D01*
X48596Y78436D01*
X48613Y78419D01*
X48646Y78397D01*
X48691Y78369D01*
X48752Y78336D01*
X48824Y78314D01*
X48913Y78291D01*
X49013Y78280D01*
Y77659D01*
X49002D01*
X48974Y77664D01*
X48924Y77670D01*
X48868Y77675D01*
X48796Y77692D01*
X48724Y77709D01*
X48646Y77736D01*
X48569Y77764D01*
X48557Y77770D01*
X48535Y77781D01*
X48502Y77797D01*
X48452Y77825D01*
X48402Y77859D01*
X48347Y77903D01*
X48291Y77947D01*
X48236Y78003D01*
X48230Y78008D01*
X48213Y78031D01*
X48191Y78064D01*
X48158Y78103D01*
X48125Y78158D01*
X48091Y78219D01*
X48058Y78286D01*
X48030Y78364D01*
X48025Y78375D01*
X48019Y78402D01*
X48008Y78441D01*
X47997Y78502D01*
X47980Y78569D01*
X47969Y78647D01*
X47964Y78730D01*
X47958Y78824D01*
Y78874D01*
X47964Y78930D01*
X47969Y78996D01*
X47980Y79074D01*
X48002Y79163D01*
X48025Y79251D01*
X48058Y79335D01*
X48063Y79346D01*
X48080Y79374D01*
X48102Y79413D01*
X48136Y79462D01*
X48175Y79523D01*
X48224Y79584D01*
X48286Y79646D01*
X48352Y79707D01*
X48363Y79712D01*
X48385Y79729D01*
X48424Y79757D01*
X48480Y79790D01*
X48546Y79829D01*
X48624Y79868D01*
X48713Y79906D01*
X48807Y79940D01*
X48813D01*
X48818Y79945D01*
X48835D01*
X48852Y79951D01*
X48907Y79962D01*
X48979Y79979D01*
X49068Y79995D01*
X49168Y80006D01*
X49279Y80012D01*
X49395Y80017D01*
X49828D01*
X49834D01*
X49845D01*
X49862D01*
X49884D01*
X49945Y80012D01*
D02*
G37*
G36*
X48891Y76599D02*
X48879D01*
X48857Y76593D01*
X48818Y76582D01*
X48768Y76571D01*
X48719Y76554D01*
X48663Y76526D01*
X48613Y76493D01*
X48563Y76449D01*
X48557Y76443D01*
X48546Y76427D01*
X48530Y76393D01*
X48507Y76354D01*
X48485Y76310D01*
X48469Y76254D01*
X48458Y76188D01*
X48452Y76116D01*
Y76071D01*
X48458Y76044D01*
X48469Y75977D01*
X48496Y75905D01*
Y75899D01*
X48507Y75888D01*
X48530Y75855D01*
X48569Y75805D01*
X48624Y75761D01*
X48630D01*
X48641Y75749D01*
X48657Y75744D01*
X48680Y75727D01*
X48741Y75705D01*
X48818Y75683D01*
X48824D01*
X48841Y75677D01*
X48863Y75672D01*
X48891Y75666D01*
X48929D01*
X48968Y75661D01*
X49062Y75655D01*
X49068D01*
X49085D01*
X49112D01*
X49140Y75661D01*
X49218Y75666D01*
X49301Y75688D01*
X49307D01*
X49318Y75694D01*
X49340Y75700D01*
X49362Y75711D01*
X49423Y75744D01*
X49484Y75788D01*
X49490Y75794D01*
X49495Y75799D01*
X49529Y75833D01*
X49568Y75888D01*
X49606Y75955D01*
Y75960D01*
X49612Y75972D01*
X49623Y75994D01*
X49629Y76021D01*
X49640Y76055D01*
X49645Y76094D01*
X49651Y76188D01*
Y76243D01*
X49645Y76293D01*
X49634Y76349D01*
Y76354D01*
X49629Y76360D01*
X49623Y76388D01*
X49606Y76427D01*
X49590Y76465D01*
X49584Y76471D01*
X49573Y76493D01*
X49556Y76526D01*
X49534Y76554D01*
X49529Y76560D01*
X49518Y76576D01*
X49495Y76604D01*
X49468Y76632D01*
X49590Y77126D01*
X51233Y76937D01*
Y75144D01*
X50705D01*
Y76432D01*
X49995Y76510D01*
Y76504D01*
X50001Y76499D01*
X50012Y76482D01*
X50023Y76460D01*
X50034Y76432D01*
X50050Y76399D01*
X50078Y76316D01*
Y76310D01*
X50084Y76293D01*
X50095Y76266D01*
X50100Y76232D01*
X50112Y76188D01*
X50117Y76138D01*
X50123Y76082D01*
Y75983D01*
X50117Y75938D01*
X50112Y75883D01*
X50106Y75816D01*
X50089Y75749D01*
X50073Y75677D01*
X50045Y75605D01*
X50039Y75600D01*
X50034Y75572D01*
X50017Y75539D01*
X49989Y75500D01*
X49962Y75450D01*
X49928Y75400D01*
X49884Y75350D01*
X49834Y75300D01*
X49828Y75294D01*
X49812Y75278D01*
X49779Y75256D01*
X49740Y75228D01*
X49690Y75195D01*
X49629Y75161D01*
X49562Y75133D01*
X49490Y75106D01*
X49479Y75100D01*
X49457Y75095D01*
X49412Y75084D01*
X49357Y75072D01*
X49290Y75061D01*
X49212Y75050D01*
X49129Y75039D01*
X49035D01*
X49024D01*
X48996D01*
X48957Y75045D01*
X48902D01*
X48841Y75056D01*
X48768Y75067D01*
X48696Y75084D01*
X48619Y75106D01*
X48608D01*
X48585Y75117D01*
X48552Y75133D01*
X48502Y75150D01*
X48452Y75178D01*
X48391Y75211D01*
X48330Y75256D01*
X48274Y75300D01*
X48269Y75305D01*
X48252Y75322D01*
X48224Y75355D01*
X48191Y75394D01*
X48152Y75439D01*
X48114Y75500D01*
X48075Y75566D01*
X48041Y75639D01*
X48036Y75650D01*
X48030Y75672D01*
X48014Y75716D01*
X48002Y75772D01*
X47986Y75844D01*
X47969Y75921D01*
X47964Y76016D01*
X47958Y76116D01*
Y76149D01*
X47964Y76193D01*
Y76243D01*
X47975Y76305D01*
X47986Y76371D01*
X47997Y76443D01*
X48019Y76515D01*
X48025Y76526D01*
X48030Y76549D01*
X48047Y76587D01*
X48063Y76632D01*
X48091Y76687D01*
X48119Y76743D01*
X48197Y76865D01*
X48202Y76871D01*
X48219Y76887D01*
X48247Y76915D01*
X48280Y76954D01*
X48324Y76993D01*
X48374Y77031D01*
X48430Y77070D01*
X48491Y77109D01*
X48496Y77115D01*
X48524Y77126D01*
X48557Y77137D01*
X48608Y77159D01*
X48669Y77176D01*
X48735Y77192D01*
X48807Y77204D01*
X48891Y77209D01*
Y76599D01*
D02*
G37*
%LPC*%
G36*
X319443Y77215D02*
X319101D01*
Y73506D01*
X319545D01*
X319600Y73515D01*
X319674Y73524D01*
X319748Y73533D01*
X319841Y73552D01*
X319924Y73580D01*
X320017Y73617D01*
X320026Y73626D01*
X320054Y73635D01*
X320100Y73663D01*
X320155Y73700D01*
X320211Y73746D01*
X320275Y73792D01*
X320405Y73931D01*
X320414Y73940D01*
X320433Y73968D01*
X320461Y74015D01*
X320497Y74079D01*
X320544Y74153D01*
X320581Y74237D01*
X320618Y74338D01*
X320655Y74449D01*
Y74468D01*
X320673Y74505D01*
X320683Y74569D01*
X320701Y74653D01*
X320720Y74755D01*
X320729Y74866D01*
X320747Y74995D01*
Y75134D01*
Y75587D01*
Y75605D01*
Y75652D01*
Y75717D01*
X320738Y75809D01*
X320729Y75911D01*
X320710Y76012D01*
X320664Y76244D01*
Y76253D01*
X320645Y76299D01*
X320627Y76355D01*
X320599Y76420D01*
X320562Y76503D01*
X320525Y76595D01*
X320414Y76762D01*
X320405Y76771D01*
X320387Y76799D01*
X320350Y76836D01*
X320303Y76882D01*
X320238Y76938D01*
X320174Y76993D01*
X320007Y77095D01*
X319998Y77104D01*
X319961Y77113D01*
X319915Y77132D01*
X319850Y77160D01*
X319767Y77178D01*
X319665Y77197D01*
X319563Y77206D01*
X319443Y77215D01*
D02*
G37*
G36*
X31269Y77834D02*
X29044D01*
Y77567D01*
X29050Y77534D01*
X29055Y77490D01*
X29061Y77445D01*
X29072Y77390D01*
X29088Y77340D01*
X29111Y77284D01*
X29116Y77279D01*
X29122Y77262D01*
X29138Y77235D01*
X29160Y77201D01*
X29188Y77168D01*
X29216Y77129D01*
X29299Y77051D01*
X29305Y77046D01*
X29321Y77035D01*
X29349Y77018D01*
X29388Y76996D01*
X29432Y76968D01*
X29482Y76946D01*
X29543Y76924D01*
X29610Y76902D01*
X29621D01*
X29643Y76890D01*
X29682Y76885D01*
X29732Y76874D01*
X29793Y76863D01*
X29860Y76857D01*
X29937Y76846D01*
X30021D01*
X30293D01*
X30304D01*
X30332D01*
X30370D01*
X30426Y76852D01*
X30487Y76857D01*
X30548Y76868D01*
X30687Y76896D01*
X30692D01*
X30720Y76907D01*
X30753Y76918D01*
X30792Y76935D01*
X30842Y76957D01*
X30898Y76979D01*
X30997Y77046D01*
X31003Y77051D01*
X31020Y77062D01*
X31042Y77085D01*
X31070Y77112D01*
X31103Y77151D01*
X31136Y77190D01*
X31197Y77290D01*
X31203Y77296D01*
X31208Y77318D01*
X31220Y77346D01*
X31236Y77384D01*
X31247Y77434D01*
X31258Y77495D01*
X31264Y77556D01*
X31269Y77629D01*
Y77834D01*
D02*
G37*
G36*
X51345Y95529D02*
X51339D01*
X51328D01*
X51311D01*
X51284Y95524D01*
X51228Y95518D01*
X51161Y95502D01*
X51156D01*
X51150Y95496D01*
X51117Y95479D01*
X51073Y95457D01*
X51023Y95424D01*
X51012Y95413D01*
X50989Y95390D01*
X50962Y95352D01*
X50934Y95302D01*
Y95296D01*
X50928Y95291D01*
X50923Y95274D01*
Y95252D01*
X50912Y95196D01*
X50906Y95130D01*
Y95096D01*
X50912Y95074D01*
X50917Y95019D01*
X50934Y94963D01*
Y94958D01*
X50939Y94952D01*
X50956Y94919D01*
X50984Y94880D01*
X51023Y94841D01*
X51028D01*
X51034Y94830D01*
X51061Y94808D01*
X51106Y94780D01*
X51161Y94758D01*
X51167D01*
X51178Y94752D01*
X51195Y94747D01*
X51217Y94741D01*
X51272Y94736D01*
X51345Y94730D01*
X51350D01*
X51361D01*
X51378D01*
X51400Y94736D01*
X51456Y94741D01*
X51517Y94763D01*
X51522D01*
X51533Y94769D01*
X51567Y94785D01*
X51611Y94808D01*
X51655Y94847D01*
X51661D01*
X51666Y94858D01*
X51689Y94880D01*
X51716Y94919D01*
X51744Y94969D01*
Y94974D01*
X51750Y94980D01*
X51755Y94996D01*
X51761Y95019D01*
X51772Y95069D01*
X51777Y95135D01*
Y95169D01*
X51772Y95202D01*
X51761Y95241D01*
X51750Y95291D01*
X51727Y95341D01*
X51700Y95385D01*
X51661Y95429D01*
X51655Y95435D01*
X51639Y95446D01*
X51611Y95463D01*
X51578Y95479D01*
X51533Y95496D01*
X51478Y95513D01*
X51417Y95524D01*
X51345Y95529D01*
D02*
G37*
G36*
X49924Y95596D02*
X49913D01*
X49885D01*
X49846Y95590D01*
X49796Y95579D01*
X49741Y95568D01*
X49685Y95546D01*
X49624Y95513D01*
X49574Y95474D01*
X49569Y95468D01*
X49558Y95451D01*
X49535Y95424D01*
X49513Y95385D01*
X49491Y95335D01*
X49469Y95274D01*
X49458Y95207D01*
X49452Y95130D01*
Y95091D01*
X49458Y95069D01*
X49463Y95007D01*
X49480Y94946D01*
Y94941D01*
X49485Y94930D01*
X49496Y94913D01*
X49502Y94897D01*
X49535Y94847D01*
X49574Y94797D01*
X49580Y94791D01*
X49585Y94785D01*
X49619Y94763D01*
X49663Y94730D01*
X49724Y94702D01*
X49729D01*
X49741Y94697D01*
X49757Y94691D01*
X49785Y94686D01*
X49846Y94674D01*
X49924Y94669D01*
X49929D01*
X49940D01*
X49963D01*
X49990Y94674D01*
X50057Y94680D01*
X50124Y94702D01*
X50129D01*
X50140Y94708D01*
X50157Y94713D01*
X50173Y94725D01*
X50223Y94758D01*
X50273Y94797D01*
X50279D01*
X50284Y94808D01*
X50312Y94836D01*
X50346Y94885D01*
X50373Y94946D01*
Y94952D01*
X50379Y94963D01*
X50384Y94980D01*
X50390Y95002D01*
X50401Y95063D01*
X50407Y95135D01*
Y95174D01*
X50401Y95196D01*
X50396Y95263D01*
X50373Y95329D01*
Y95335D01*
X50368Y95341D01*
X50351Y95379D01*
X50318Y95424D01*
X50273Y95474D01*
X50262Y95485D01*
X50235Y95507D01*
X50185Y95535D01*
X50124Y95562D01*
X50118D01*
X50107Y95568D01*
X50090Y95574D01*
X50068Y95579D01*
X50002Y95590D01*
X49924Y95596D01*
D02*
G37*
G36*
X49340Y69621D02*
X49163D01*
X49157D01*
X49135D01*
X49101D01*
X49057Y69615D01*
X49007D01*
X48957Y69604D01*
X48852Y69587D01*
X48846D01*
X48829Y69582D01*
X48807Y69571D01*
X48774Y69560D01*
X48702Y69526D01*
X48630Y69482D01*
X48624Y69476D01*
X48613Y69471D01*
X48580Y69438D01*
X48535Y69388D01*
X48496Y69327D01*
Y69321D01*
X48491Y69310D01*
X48485Y69293D01*
X48474Y69266D01*
X48458Y69205D01*
X48452Y69127D01*
Y69088D01*
X48458Y69060D01*
X48469Y68994D01*
X48496Y68927D01*
Y68922D01*
X48507Y68910D01*
X48513Y68894D01*
X48530Y68877D01*
X48569Y68827D01*
X48619Y68777D01*
X48624Y68772D01*
X48635Y68766D01*
X48652Y68755D01*
X48674Y68744D01*
X48735Y68711D01*
X48813Y68683D01*
X48818D01*
X48835Y68677D01*
X48857Y68672D01*
X48885Y68666D01*
X48918Y68661D01*
X48963Y68655D01*
X49051Y68650D01*
X49057D01*
X49074D01*
X49101D01*
X49135Y68655D01*
X49212Y68661D01*
X49296Y68683D01*
X49301D01*
X49312Y68688D01*
X49334Y68694D01*
X49362Y68705D01*
X49423Y68738D01*
X49484Y68777D01*
X49490D01*
X49501Y68788D01*
X49534Y68822D01*
X49573Y68866D01*
X49612Y68933D01*
Y68938D01*
X49617Y68949D01*
X49629Y68966D01*
X49640Y68988D01*
X49656Y69055D01*
X49662Y69132D01*
Y69160D01*
X49656Y69194D01*
X49651Y69232D01*
X49640Y69277D01*
X49623Y69327D01*
X49601Y69377D01*
X49573Y69427D01*
X49568Y69432D01*
X49556Y69449D01*
X49540Y69471D01*
X49512Y69499D01*
X49479Y69532D01*
X49440Y69560D01*
X49390Y69593D01*
X49340Y69621D01*
D02*
G37*
%LPD*%
D10*
X25027Y85725D02*
G03*
X25027Y85725I-492J0D01*
G01*
D11*
X3688Y88678D02*
Y92398D01*
Y78658D02*
Y82379D01*
D12*
X57353Y72694D02*
X58928D01*
X57353Y68363D02*
X58928D01*
X57353Y78694D02*
X58928D01*
X57353Y74363D02*
X58928D01*
X93471Y83363D02*
X95046D01*
X93471Y87694D02*
X95046D01*
X49912Y83363D02*
X51487D01*
X49912Y87694D02*
X51487D01*
D13*
X35500Y65000D02*
X45500D01*
Y75000D01*
X25500Y65000D02*
X45500D01*
X25500Y75000D02*
X45500D01*
X25500Y65000D02*
Y75000D01*
M02*
