M48
;Layer_Color=9474304
;FILE_FORMAT=2:5
INCH,LZ
;TYPE=PLATED
T1F00S00C0.01575
T2F00S00C0.01968
T3F00S00C0.03937
%
T01
X0214951Y00685
X0218018
X0221084
X0224151
X0227218
X0230284
X0233351
X0236418
X0239484
X0242551
X0245618
X0248684
X0251751
X0254818
X0257884
X0260951
X0264018
X0267084
X0270151
X0273218
X0276284
X0279351
X0282418
X0285484
X0288551
X0291618
X0294684
X0297751
X0300818
X0303884
X0306951
X0310018
X0313084
X0316151
X0319218
X0322284
X0325351
X0328417
X0331484
X0334551
X0337617
X0340684
X0343751
X0342951Y0082328
X0339884
X0336818
X0333751
X0330684
X0327618
X0324551
X0321484
X0318418
X0315351
X0312284
X0309218
X0306151
X0303084
X0300018
X0296951
X0293884
X0290818
X0287751
X0284684
X0281618
X0278551
X0275484
X0272418
X0269351
X0266284
X0263218
X0260151
X0257084
X0254018
X0250951
X0247884
X0244818
X0241751
X0238684
X0235618
X0232551
X0229484
X0226418
X0223351
X0220284
X0217218
X0214151
Y0088728
X0217218
X0220284
X0223351
X0226418
X0229484
X0232551
X0235618
X0238684
X0241751
X0244818
X0247884
X0250951
X0254018
X0257084
X0260151
X0263218
X0266284
X0269351
X0272418
X0275484
X0278551
X0281618
X0284684
X0287751
X0290818
X0293884
X0296951
X0300018
X0303084
X0306151
X0309218
X0312284
X0315351
X0318418
X0321484
X0324551
X0327618
X0330684
X0333751
X0336818
X0339884
X0342951
X03437Y01022
X0340633
X0337567
X03345
X0331433
X0328367
X03253
X0322233
X0319167
X03161
X0313033
X0309967
X03069
X0303833
X0300767
X02977
X0294633
X0291567
X02885
X0285434
X0282367
X02793
X0276234
X0273167
X02701
X0267034
X0263967
X02609
X0257834
X0254767
X02517
X0248634
X0245567
X02425
X0239434
X0236367
X02333
X0230234
X0227167
X02241
X0221034
X0217967
X02149
X0211834
X0208767
X02057Y01024
X0202684Y01027
X0199618
X0196551
X0193484
X0190418
X0187351
X0184284
X0181218
X0178151
X01751
X0172018Y01028
X0168951
X0165885
X0162818
X0159751
X0156685
X0153618
X0150551
X0147485
X0144418
X0141351
X0138285
X0135218
X0132151
X0129085
X0126018
X0122951
X01199
X0117218Y0104428
X0115317Y0106528
X0112918Y0107728
X0109851
X0106785
X0103718
X0100651
X0097585
X0094518
X0091451
X0088385Y0107728
X0088385Y0107728
X0085318Y0107728
X0082251
X0079185
X0076118
X0073052
X0069985
X0066918
X0063851
X0060785
X0057718
Y0063328
X0060785
X0063851
X0066918
X0069985
X0073052
X0076118
X0079185
X0082251
X0085318
X0088385Y0063328
X0088385Y0063328
X0091451Y0063328
X0094518
X0097585
X0100651
X0103718
X0106785
X0109851
X0112918
X0115317Y0064528
X0117218Y0066628
X01198Y00685
X01229
X0126018
X0129085
X0132151
X0135218
X0138285
X0141351
X0144418
X0147485
X0150551
X0153618
X0156685
X0159751
X0162818
X0165885
X0168951
X0172018
X0175084
X0178151
X0181218
X0184284
X0187351
X0190418
X0193484
X0196551
X0199618
X0202684
X0205751
X0208818
X0211884
X0211085Y0082328
X0208018
X0204951
X0201885
X0198818
X0195751
X0192684
X0189618
X0186551
X0183484
X0180418
X0177351
X0174285
X0171218
X0168151
X0165085
X0162018
X0158951
X0155885
X0152818
X0149751
X0146685
X0143618
X0140551
X0137485
X0134418
X0131351
X0128285
X0125218
X0122151
X0119085
X0116018
X0112951
X0109885
X0106818
X0103751
X0100685
Y0088728
X0103751
X0106818
X0109885
X0112951
X0116018
X0119085
X0122151
X0125218
X0128285
X0131351
X0134418
X0137485
X0140551
X0143618
X0146685
X0149751
X0152818
X0155885
X0158951
X0162018
X0165085
X0168151
X0171218
X0174285
X0177351
X0180418
X0183484
X0186551
X0189618
X0192684
X0195751
X0198818
X0201885
X0204951
X0208018
X0211085
X0054651Y0107728
X0051585
X0048518
X0045452
X0042385
X0039318
X0036252
X0033185
X0030118
X0027052
X0023985
X0020918
X0017852
X0014785
X0011718
X0008652
X00055Y01075
X0004518Y0104695
Y0101628
Y0098562
Y0092428
Y0089362
Y0081695
Y0078628
Y0072495
Y0069428
Y0066362
X00055Y00635
X0008652Y0063328
X0011718
X0014785
X0017852
X0020918
X0023985
X0027052
X0030118
X0033185
X0036252
X0039318
X0042385
X0045452
X0048518
X0051585
X0054651
T02
X0068534Y0066749
Y0071749
X007314
X0077928
X0082707
Y0066749
Y0076749
X0077928
X007314
X0068534
X0075699Y0080016
T03
X00305Y007
X00405
M30
