G04*
G04 #@! TF.GenerationSoftware,Altium Limited,Altium Designer,20.1.12 (249)*
G04*
G04 Layer_Color=32768*
%FSLAX25Y25*%
%MOIN*%
G70*
G04*
G04 #@! TF.SameCoordinates,F0868872-FF7F-4824-B1C7-3C191F3A6EFF*
G04*
G04*
G04 #@! TF.FilePolarity,Positive*
G04*
G01*
G75*
%ADD11C,0.00787*%
%ADD12C,0.00394*%
D11*
X-36075Y72438D02*
X22035D01*
Y98619D01*
X-36075D02*
X22035D01*
X-36075Y72438D02*
Y98619D01*
D12*
X53022Y68363D02*
Y72694D01*
Y68363D02*
X63258D01*
Y72694D01*
X53022D02*
X63258D01*
X58140Y70036D02*
Y71020D01*
X57648Y70528D02*
X58632D01*
X53022Y74363D02*
Y78694D01*
Y74363D02*
X63258D01*
Y78694D01*
X53022D02*
X63258D01*
X58140Y76036D02*
Y77020D01*
X57648Y76528D02*
X58632D01*
X99376Y83363D02*
Y87694D01*
X89140D02*
X99376D01*
X89140Y83363D02*
Y87694D01*
Y83363D02*
X99376D01*
X94258Y85036D02*
Y86020D01*
X93766Y85528D02*
X94751D01*
X55818Y83363D02*
Y87694D01*
X45581D02*
X55818D01*
X45581Y83363D02*
Y87694D01*
Y83363D02*
X55818D01*
X50699Y85036D02*
Y86020D01*
X50207Y85528D02*
X51192D01*
M02*
