G04*
G04 #@! TF.GenerationSoftware,Altium Limited,Altium Designer,20.1.12 (249)*
G04*
G04 Layer_Color=16711935*
%FSLAX25Y25*%
%MOIN*%
G70*
G04*
G04 #@! TF.SameCoordinates,F0868872-FF7F-4824-B1C7-3C191F3A6EFF*
G04*
G04*
G04 #@! TF.FilePolarity,Negative*
G04*
G01*
G75*
%ADD14R,0.17953X0.03937*%
%ADD20R,0.18438X0.15879*%
%ADD21R,0.02965X0.12099*%
%ADD22R,0.02965X0.06312*%
%ADD23C,0.07887*%
G04:AMPARAMS|DCode=24|XSize=78.87mil|YSize=78.87mil|CornerRadius=12.86mil|HoleSize=0mil|Usage=FLASHONLY|Rotation=180.000|XOffset=0mil|YOffset=0mil|HoleType=Round|Shape=RoundedRectangle|*
%AMROUNDEDRECTD24*
21,1,0.07887,0.05315,0,0,180.0*
21,1,0.05315,0.07887,0,0,180.0*
1,1,0.02572,-0.02657,0.02657*
1,1,0.02572,0.02657,0.02657*
1,1,0.02572,0.02657,-0.02657*
1,1,0.02572,-0.02657,-0.02657*
%
%ADD24ROUNDEDRECTD24*%
%ADD25C,0.02769*%
%ADD26C,0.05800*%
G36*
X45198Y100029D02*
X45913D01*
Y99969D01*
X46211D01*
Y99909D01*
X46569D01*
Y99850D01*
X46748D01*
Y99790D01*
X47046D01*
Y99731D01*
X47225D01*
Y99671D01*
X47463D01*
Y99611D01*
X47642D01*
Y99552D01*
X47821D01*
Y99492D01*
X48000D01*
Y99432D01*
X48119D01*
Y99373D01*
X48298D01*
Y99313D01*
X48477D01*
Y99254D01*
X48596D01*
Y99194D01*
X48715D01*
Y99134D01*
X48834D01*
Y99075D01*
X48954D01*
Y99015D01*
X49073D01*
Y98956D01*
X49192D01*
Y98896D01*
X49311D01*
Y98836D01*
X49431D01*
Y98777D01*
X49550D01*
Y98717D01*
X49609D01*
Y98658D01*
X49729D01*
Y98598D01*
X49848D01*
Y98538D01*
X49907D01*
Y98479D01*
X50027D01*
Y98419D01*
X50086D01*
Y98359D01*
X50205D01*
Y98300D01*
X50265D01*
Y98240D01*
X50325D01*
Y98181D01*
X50444D01*
Y98121D01*
X50504D01*
Y98061D01*
X50563D01*
Y98002D01*
X50623D01*
Y97942D01*
X50682D01*
Y97882D01*
X50742D01*
Y97823D01*
X50802D01*
Y97763D01*
X50861D01*
Y97704D01*
X50921D01*
Y97644D01*
X50981D01*
Y97584D01*
X51040D01*
Y97525D01*
Y97465D01*
X51100D01*
Y97405D01*
X51159D01*
Y97346D01*
Y97286D01*
X51219D01*
Y97227D01*
Y97167D01*
X51279D01*
Y97107D01*
Y97048D01*
Y96988D01*
X51338D01*
Y96929D01*
Y96869D01*
Y96809D01*
Y96750D01*
Y96690D01*
Y96631D01*
Y96571D01*
Y96511D01*
Y96452D01*
Y96392D01*
Y96332D01*
Y96273D01*
X51279D01*
Y96213D01*
Y96153D01*
Y96094D01*
X51219D01*
Y96034D01*
Y95975D01*
Y95915D01*
Y95855D01*
X51159D01*
Y95796D01*
Y95736D01*
Y95677D01*
X51100D01*
Y95617D01*
Y95557D01*
X51040D01*
Y95498D01*
Y95438D01*
Y95379D01*
X50981D01*
Y95319D01*
Y95259D01*
X50921D01*
Y95200D01*
Y95140D01*
Y95080D01*
X50861D01*
Y95021D01*
Y94961D01*
X50802D01*
Y94902D01*
Y94842D01*
Y94782D01*
X50742D01*
Y94723D01*
Y94663D01*
Y94604D01*
X50682D01*
Y94544D01*
Y94484D01*
X50623D01*
Y94425D01*
Y94365D01*
Y94305D01*
X50563D01*
Y94246D01*
Y94186D01*
X50504D01*
Y94126D01*
Y94067D01*
X50444D01*
Y94007D01*
Y93948D01*
Y93888D01*
X50384D01*
Y93828D01*
Y93769D01*
X50325D01*
Y93709D01*
Y93650D01*
Y93590D01*
X50265D01*
Y93530D01*
Y93471D01*
X50205D01*
Y93411D01*
Y93352D01*
Y93292D01*
X50146D01*
Y93232D01*
Y93173D01*
X50086D01*
Y93113D01*
Y93053D01*
Y92994D01*
X50027D01*
Y92934D01*
Y92875D01*
X49967D01*
Y92815D01*
Y92755D01*
Y92696D01*
X49907D01*
Y92636D01*
Y92576D01*
X49848D01*
Y92517D01*
Y92457D01*
X49788D01*
Y92398D01*
Y92338D01*
Y92278D01*
X49729D01*
Y92219D01*
Y92159D01*
Y92099D01*
X49669D01*
Y92040D01*
Y91980D01*
X49609D01*
Y91921D01*
Y91861D01*
Y91802D01*
X49550D01*
Y91742D01*
Y91682D01*
X49490D01*
Y91623D01*
Y91563D01*
Y91503D01*
X49431D01*
Y91444D01*
Y91384D01*
X49371D01*
Y91325D01*
Y91265D01*
Y91205D01*
X49311D01*
Y91146D01*
Y91086D01*
X49252D01*
Y91026D01*
Y90967D01*
Y90907D01*
X49192D01*
Y90848D01*
Y90788D01*
X49132D01*
Y90728D01*
Y90669D01*
X49073D01*
Y90609D01*
Y90549D01*
Y90490D01*
X49013D01*
Y90430D01*
Y90371D01*
Y90311D01*
X48954D01*
Y90251D01*
Y90192D01*
X48894D01*
Y90132D01*
Y90073D01*
Y90013D01*
X48834D01*
Y89953D01*
Y89894D01*
X48775D01*
Y89834D01*
Y89775D01*
X48715D01*
Y89715D01*
Y89655D01*
X48655D01*
Y89596D01*
Y89536D01*
Y89476D01*
X48596D01*
Y89417D01*
Y89357D01*
X48536D01*
Y89297D01*
Y89238D01*
X48477D01*
Y89178D01*
Y89119D01*
X48417D01*
Y89059D01*
Y88999D01*
X48357D01*
Y88940D01*
X48298D01*
Y88880D01*
Y88821D01*
X48238D01*
Y88761D01*
Y88701D01*
X48178D01*
Y88642D01*
X48119D01*
Y88582D01*
Y88522D01*
X48059D01*
Y88463D01*
X48000D01*
Y88403D01*
X47940D01*
Y88344D01*
X47880D01*
Y88284D01*
X47821D01*
Y88224D01*
X47761D01*
Y88165D01*
X47701D01*
Y88105D01*
X47642D01*
Y88046D01*
X47582D01*
Y87986D01*
X47523D01*
Y87926D01*
X47463D01*
Y87867D01*
X47344D01*
Y87807D01*
X47225D01*
Y87748D01*
X47165D01*
Y87688D01*
X47046D01*
Y87628D01*
X46927D01*
Y87569D01*
X46807D01*
Y87509D01*
X46628D01*
Y87449D01*
X46450D01*
Y87390D01*
X46330D01*
Y87330D01*
X46092D01*
Y87270D01*
X45853D01*
Y87211D01*
X45496D01*
Y87151D01*
X44721D01*
Y87092D01*
X44542D01*
Y87151D01*
X43707D01*
Y87211D01*
X43290D01*
Y87270D01*
X43111D01*
Y87330D01*
X42813D01*
Y87390D01*
X42634D01*
Y87449D01*
X42455D01*
Y87509D01*
X42276D01*
Y87569D01*
X42097D01*
Y87628D01*
X41978D01*
Y87688D01*
X41859D01*
Y87748D01*
X41740D01*
Y87807D01*
X41621D01*
Y87867D01*
X41501D01*
Y87926D01*
X41382D01*
Y87986D01*
X41322D01*
Y88046D01*
X41263D01*
Y88105D01*
X41144D01*
Y88165D01*
X41084D01*
Y88224D01*
X41024D01*
Y88284D01*
X40965D01*
Y88344D01*
X40905D01*
Y88403D01*
Y88463D01*
X40846D01*
Y88522D01*
X40786D01*
Y88582D01*
X40726D01*
Y88642D01*
Y88701D01*
X40667D01*
Y88761D01*
Y88821D01*
X40607D01*
Y88880D01*
Y88940D01*
X40547D01*
Y88999D01*
Y89059D01*
X40488D01*
Y89119D01*
Y89178D01*
X40428D01*
Y89238D01*
Y89297D01*
Y89357D01*
X40369D01*
Y89417D01*
Y89476D01*
X40309D01*
Y89536D01*
Y89596D01*
Y89655D01*
X40249D01*
Y89715D01*
Y89775D01*
Y89834D01*
Y89894D01*
X40190D01*
Y89953D01*
Y90013D01*
Y90073D01*
X40130D01*
Y90132D01*
Y90192D01*
Y90251D01*
X40071D01*
Y90311D01*
Y90371D01*
Y90430D01*
X40011D01*
Y90490D01*
Y90549D01*
Y90609D01*
X39951D01*
Y90669D01*
Y90728D01*
Y90788D01*
X39892D01*
Y90848D01*
Y90907D01*
Y90967D01*
Y91026D01*
X39832D01*
Y91086D01*
Y91146D01*
Y91205D01*
X39772D01*
Y91265D01*
Y91325D01*
Y91384D01*
X39713D01*
Y91444D01*
Y91503D01*
Y91563D01*
Y91623D01*
X39653D01*
Y91682D01*
Y91742D01*
Y91802D01*
X39594D01*
Y91861D01*
Y91921D01*
Y91980D01*
X39534D01*
Y92040D01*
Y92099D01*
Y92159D01*
X39474D01*
Y92219D01*
Y92278D01*
Y92338D01*
X39415D01*
Y92398D01*
Y92457D01*
Y92517D01*
X39355D01*
Y92576D01*
Y92636D01*
Y92696D01*
Y92755D01*
X39296D01*
Y92815D01*
Y92875D01*
Y92934D01*
X39236D01*
Y92994D01*
Y93053D01*
Y93113D01*
X39176D01*
Y93173D01*
Y93232D01*
Y93292D01*
X39117D01*
Y93352D01*
Y93411D01*
Y93471D01*
X39057D01*
Y93530D01*
Y93590D01*
Y93650D01*
X38997D01*
Y93709D01*
Y93769D01*
Y93828D01*
Y93888D01*
X38938D01*
Y93948D01*
Y94007D01*
Y94067D01*
X38878D01*
Y94126D01*
Y94186D01*
Y94246D01*
X38818D01*
Y94305D01*
Y94365D01*
Y94425D01*
X38759D01*
Y94484D01*
Y94544D01*
Y94604D01*
X38699D01*
Y94663D01*
Y94723D01*
Y94782D01*
X38640D01*
Y94842D01*
Y94902D01*
Y94961D01*
Y95021D01*
X38580D01*
Y95080D01*
Y95140D01*
Y95200D01*
X38521D01*
Y95259D01*
Y95319D01*
Y95379D01*
X38461D01*
Y95438D01*
Y95498D01*
Y95557D01*
X38401D01*
Y95617D01*
Y95677D01*
X38342D01*
Y95736D01*
Y95796D01*
Y95855D01*
Y95915D01*
X38282D01*
Y95975D01*
Y96034D01*
Y96094D01*
Y96153D01*
X38222D01*
Y96213D01*
Y96273D01*
Y96332D01*
Y96392D01*
Y96452D01*
Y96511D01*
Y96571D01*
Y96631D01*
Y96690D01*
X38282D01*
Y96750D01*
Y96809D01*
Y96869D01*
Y96929D01*
X38342D01*
Y96988D01*
Y97048D01*
X38401D01*
Y97107D01*
Y97167D01*
X38461D01*
Y97227D01*
X38521D01*
Y97286D01*
Y97346D01*
X38580D01*
Y97405D01*
X38640D01*
Y97465D01*
X38699D01*
Y97525D01*
Y97584D01*
X38759D01*
Y97644D01*
X38818D01*
Y97704D01*
X38878D01*
Y97763D01*
X38938D01*
Y97823D01*
X38997D01*
Y97882D01*
X39117D01*
Y97942D01*
X39176D01*
Y98002D01*
X39236D01*
Y98061D01*
X39296D01*
Y98121D01*
X39355D01*
Y98181D01*
X39474D01*
Y98240D01*
X39534D01*
Y98300D01*
X39594D01*
Y98359D01*
X39713D01*
Y98419D01*
X39772D01*
Y98479D01*
X39892D01*
Y98538D01*
X39951D01*
Y98598D01*
X40071D01*
Y98658D01*
X40130D01*
Y98717D01*
X40249D01*
Y98777D01*
X40369D01*
Y98836D01*
X40428D01*
Y98896D01*
X40547D01*
Y98956D01*
X40667D01*
Y99015D01*
X40786D01*
Y99075D01*
X40905D01*
Y99134D01*
X41024D01*
Y99194D01*
X41144D01*
Y99254D01*
X41263D01*
Y99313D01*
X41442D01*
Y99373D01*
X41561D01*
Y99432D01*
X41680D01*
Y99492D01*
X41859D01*
Y99552D01*
X42038D01*
Y99611D01*
X42217D01*
Y99671D01*
X42396D01*
Y99731D01*
X42575D01*
Y99790D01*
X42873D01*
Y99850D01*
X43051D01*
Y99909D01*
X43409D01*
Y99969D01*
X43648D01*
Y100029D01*
X44363D01*
Y100088D01*
X45198D01*
Y100029D01*
D02*
G37*
G36*
X36970Y96094D02*
Y96034D01*
Y95975D01*
X37030D01*
Y95915D01*
Y95855D01*
Y95796D01*
Y95736D01*
X37090D01*
Y95677D01*
Y95617D01*
Y95557D01*
Y95498D01*
X37149D01*
Y95438D01*
Y95379D01*
Y95319D01*
X37209D01*
Y95259D01*
Y95200D01*
Y95140D01*
X37268D01*
Y95080D01*
Y95021D01*
Y94961D01*
X37328D01*
Y94902D01*
Y94842D01*
Y94782D01*
X37388D01*
Y94723D01*
Y94663D01*
Y94604D01*
X37447D01*
Y94544D01*
Y94484D01*
Y94425D01*
X37507D01*
Y94365D01*
Y94305D01*
Y94246D01*
Y94186D01*
X37567D01*
Y94126D01*
Y94067D01*
Y94007D01*
X37626D01*
Y93948D01*
Y93888D01*
Y93828D01*
X37686D01*
Y93769D01*
Y93709D01*
Y93650D01*
X37745D01*
Y93590D01*
Y93530D01*
Y93471D01*
X37805D01*
Y93411D01*
Y93352D01*
Y93292D01*
Y93232D01*
X37865D01*
Y93173D01*
Y93113D01*
X37924D01*
Y93053D01*
Y92994D01*
Y92934D01*
Y92875D01*
X37984D01*
Y92815D01*
Y92755D01*
Y92696D01*
X38043D01*
Y92636D01*
Y92576D01*
Y92517D01*
X38103D01*
Y92457D01*
Y92398D01*
Y92338D01*
Y92278D01*
X38163D01*
Y92219D01*
Y92159D01*
X38222D01*
Y92099D01*
Y92040D01*
Y91980D01*
Y91921D01*
X38282D01*
Y91861D01*
Y91802D01*
Y91742D01*
X38342D01*
Y91682D01*
Y91623D01*
Y91563D01*
X38401D01*
Y91503D01*
Y91444D01*
Y91384D01*
Y91325D01*
X38461D01*
Y91265D01*
Y91205D01*
X38521D01*
Y91146D01*
Y91086D01*
Y91026D01*
Y90967D01*
X38580D01*
Y90907D01*
Y90848D01*
X38640D01*
Y90788D01*
Y90728D01*
Y90669D01*
Y90609D01*
X38699D01*
Y90549D01*
Y90490D01*
Y90430D01*
X38759D01*
Y90371D01*
Y90311D01*
Y90251D01*
X38818D01*
Y90192D01*
Y90132D01*
Y90073D01*
Y90013D01*
X38878D01*
Y89953D01*
Y89894D01*
X38938D01*
Y89834D01*
Y89775D01*
Y89715D01*
Y89655D01*
X38997D01*
Y89596D01*
Y89536D01*
Y89476D01*
X39057D01*
Y89417D01*
Y89357D01*
Y89297D01*
X39117D01*
Y89238D01*
Y89178D01*
Y89119D01*
X39176D01*
Y89059D01*
Y88999D01*
Y88940D01*
X39236D01*
Y88880D01*
Y88821D01*
Y88761D01*
X39296D01*
Y88701D01*
Y88642D01*
X39355D01*
Y88582D01*
Y88522D01*
X39415D01*
Y88463D01*
Y88403D01*
X39474D01*
Y88344D01*
Y88284D01*
X39534D01*
Y88224D01*
Y88165D01*
X39594D01*
Y88105D01*
Y88046D01*
X39653D01*
Y87986D01*
Y87926D01*
X39713D01*
Y87867D01*
X39772D01*
Y87807D01*
X39832D01*
Y87748D01*
Y87688D01*
X39892D01*
Y87628D01*
X39951D01*
Y87569D01*
X40011D01*
Y87509D01*
X40071D01*
Y87449D01*
X39951D01*
Y87390D01*
X39832D01*
Y87330D01*
X39653D01*
Y87270D01*
X39534D01*
Y87211D01*
X39415D01*
Y87151D01*
X39236D01*
Y87092D01*
X39117D01*
Y87032D01*
X38938D01*
Y86972D01*
X38818D01*
Y86913D01*
X38640D01*
Y86853D01*
X38461D01*
Y86794D01*
X38222D01*
Y86734D01*
X37447D01*
Y86794D01*
X37328D01*
Y86853D01*
X37209D01*
Y86913D01*
X37149D01*
Y86972D01*
X37090D01*
Y87032D01*
X36970D01*
Y87092D01*
X36911D01*
Y87151D01*
X36851D01*
Y87211D01*
X36792D01*
Y87270D01*
X36732D01*
Y87330D01*
Y87390D01*
X36672D01*
Y87449D01*
X36613D01*
Y87509D01*
X36553D01*
Y87569D01*
X36494D01*
Y87628D01*
Y87688D01*
X36434D01*
Y87748D01*
X36374D01*
Y87807D01*
X36315D01*
Y87867D01*
Y87926D01*
X36255D01*
Y87986D01*
X36195D01*
Y88046D01*
Y88105D01*
X36136D01*
Y88165D01*
X36076D01*
Y88224D01*
Y88284D01*
X36016D01*
Y88344D01*
X35957D01*
Y88403D01*
Y88463D01*
X35897D01*
Y88522D01*
X35838D01*
Y88582D01*
Y88642D01*
X35778D01*
Y88701D01*
X35718D01*
Y88761D01*
Y88821D01*
X35659D01*
Y88880D01*
X35599D01*
Y88940D01*
Y88999D01*
X35540D01*
Y89059D01*
X35480D01*
Y89119D01*
Y89178D01*
X35420D01*
Y89238D01*
Y89297D01*
X35361D01*
Y89357D01*
X35301D01*
Y89417D01*
Y89476D01*
X35241D01*
Y89536D01*
X35182D01*
Y89596D01*
Y89655D01*
X35122D01*
Y89715D01*
Y89775D01*
X35063D01*
Y89834D01*
X35003D01*
Y89894D01*
Y89953D01*
X34943D01*
Y90013D01*
Y90073D01*
X34884D01*
Y90132D01*
X34824D01*
Y90192D01*
Y90251D01*
X34765D01*
Y90311D01*
X34705D01*
Y90371D01*
Y90430D01*
X34645D01*
Y90490D01*
Y90549D01*
X34586D01*
Y90609D01*
X34526D01*
Y90669D01*
Y90728D01*
X34466D01*
Y90788D01*
Y90848D01*
X34407D01*
Y90907D01*
X34347D01*
Y90967D01*
Y91026D01*
X34288D01*
Y91086D01*
Y91146D01*
X34228D01*
Y91205D01*
X34168D01*
Y91265D01*
Y91325D01*
X34109D01*
Y91384D01*
X34049D01*
Y91444D01*
Y91503D01*
X33990D01*
Y91563D01*
Y91623D01*
X33930D01*
Y91682D01*
Y91742D01*
X33870D01*
Y91802D01*
Y91861D01*
X33811D01*
Y91921D01*
Y91980D01*
X33751D01*
Y92040D01*
Y92099D01*
Y92159D01*
X33691D01*
Y92219D01*
Y92278D01*
X33632D01*
Y92338D01*
Y92398D01*
X33572D01*
Y92457D01*
Y92517D01*
Y92576D01*
X33513D01*
Y92636D01*
Y92696D01*
Y92755D01*
X33453D01*
Y92815D01*
Y92875D01*
X33393D01*
Y92934D01*
Y92994D01*
Y93053D01*
Y93113D01*
X33334D01*
Y93173D01*
Y93232D01*
Y93292D01*
Y93352D01*
Y93411D01*
Y93471D01*
Y93530D01*
Y93590D01*
Y93650D01*
Y93709D01*
Y93769D01*
Y93828D01*
Y93888D01*
Y93948D01*
X33393D01*
Y94007D01*
Y94067D01*
X33453D01*
Y94126D01*
Y94186D01*
X33513D01*
Y94246D01*
Y94305D01*
X33572D01*
Y94365D01*
X33632D01*
Y94425D01*
X33691D01*
Y94484D01*
X33751D01*
Y94544D01*
X33811D01*
Y94604D01*
X33870D01*
Y94663D01*
X33930D01*
Y94723D01*
X34049D01*
Y94782D01*
X34109D01*
Y94842D01*
X34168D01*
Y94902D01*
X34288D01*
Y94961D01*
X34407D01*
Y95021D01*
X34466D01*
Y95080D01*
X34586D01*
Y95140D01*
X34705D01*
Y95200D01*
X34824D01*
Y95259D01*
X34943D01*
Y95319D01*
X35003D01*
Y95379D01*
X35182D01*
Y95438D01*
X35301D01*
Y95498D01*
X35420D01*
Y95557D01*
X35540D01*
Y95617D01*
X35659D01*
Y95677D01*
X35838D01*
Y95736D01*
X35957D01*
Y95796D01*
X36136D01*
Y95855D01*
X36255D01*
Y95915D01*
X36434D01*
Y95975D01*
X36553D01*
Y96034D01*
X36732D01*
Y96094D01*
X36911D01*
Y96153D01*
X36970D01*
Y96094D01*
D02*
G37*
G36*
X52709Y95855D02*
X52829D01*
Y95796D01*
X53008D01*
Y95736D01*
X53127D01*
Y95677D01*
X53246D01*
Y95617D01*
X53425D01*
Y95557D01*
X53544D01*
Y95498D01*
X53723D01*
Y95438D01*
X53782D01*
Y95379D01*
X53961D01*
Y95319D01*
X54081D01*
Y95259D01*
X54200D01*
Y95200D01*
X54319D01*
Y95140D01*
X54438D01*
Y95080D01*
X54617D01*
Y95021D01*
X54677D01*
Y94961D01*
X54796D01*
Y94902D01*
X54915D01*
Y94842D01*
X55035D01*
Y94782D01*
X55154D01*
Y94723D01*
X55213D01*
Y94663D01*
X55333D01*
Y94604D01*
X55452D01*
Y94544D01*
X55511D01*
Y94484D01*
X55631D01*
Y94425D01*
X55690D01*
Y94365D01*
X55809D01*
Y94305D01*
X55869D01*
Y94246D01*
X55929D01*
Y94186D01*
X55988D01*
Y94126D01*
X56048D01*
Y94067D01*
X56108D01*
Y94007D01*
X56167D01*
Y93948D01*
Y93888D01*
X56227D01*
Y93828D01*
Y93769D01*
X56287D01*
Y93709D01*
Y93650D01*
Y93590D01*
Y93530D01*
Y93471D01*
Y93411D01*
Y93352D01*
Y93292D01*
X56227D01*
Y93232D01*
Y93173D01*
X56167D01*
Y93113D01*
Y93053D01*
Y92994D01*
X56108D01*
Y92934D01*
Y92875D01*
X56048D01*
Y92815D01*
Y92755D01*
X55988D01*
Y92696D01*
Y92636D01*
X55929D01*
Y92576D01*
Y92517D01*
X55869D01*
Y92457D01*
Y92398D01*
X55809D01*
Y92338D01*
X55750D01*
Y92278D01*
Y92219D01*
X55690D01*
Y92159D01*
Y92099D01*
X55631D01*
Y92040D01*
Y91980D01*
X55571D01*
Y91921D01*
Y91861D01*
X55511D01*
Y91802D01*
X55452D01*
Y91742D01*
Y91682D01*
X55392D01*
Y91623D01*
Y91563D01*
X55333D01*
Y91503D01*
Y91444D01*
X55273D01*
Y91384D01*
Y91325D01*
X55213D01*
Y91265D01*
Y91205D01*
X55154D01*
Y91146D01*
Y91086D01*
X55094D01*
Y91026D01*
X55035D01*
Y90967D01*
Y90907D01*
X54975D01*
Y90848D01*
Y90788D01*
X54915D01*
Y90728D01*
Y90669D01*
X54856D01*
Y90609D01*
Y90549D01*
X54796D01*
Y90490D01*
X54736D01*
Y90430D01*
Y90371D01*
X54677D01*
Y90311D01*
Y90251D01*
X54617D01*
Y90192D01*
Y90132D01*
X54558D01*
Y90073D01*
Y90013D01*
X54498D01*
Y89953D01*
X54438D01*
Y89894D01*
Y89834D01*
X54379D01*
Y89775D01*
Y89715D01*
X54319D01*
Y89655D01*
Y89596D01*
X54260D01*
Y89536D01*
Y89476D01*
X54200D01*
Y89417D01*
Y89357D01*
X54140D01*
Y89297D01*
Y89238D01*
X54081D01*
Y89178D01*
X54021D01*
Y89119D01*
Y89059D01*
X53961D01*
Y88999D01*
Y88940D01*
X53902D01*
Y88880D01*
Y88821D01*
X53842D01*
Y88761D01*
Y88701D01*
X53782D01*
Y88642D01*
X53723D01*
Y88582D01*
Y88522D01*
X53663D01*
Y88463D01*
Y88403D01*
X53604D01*
Y88344D01*
Y88284D01*
X53544D01*
Y88224D01*
Y88165D01*
X53484D01*
Y88105D01*
X53425D01*
Y88046D01*
X53365D01*
Y87986D01*
Y87926D01*
X53306D01*
Y87867D01*
X53246D01*
Y87807D01*
X53186D01*
Y87748D01*
X53127D01*
Y87688D01*
Y87628D01*
X53067D01*
Y87569D01*
X53008D01*
Y87509D01*
X52948D01*
Y87449D01*
X52888D01*
Y87390D01*
X52829D01*
Y87330D01*
X52769D01*
Y87270D01*
X52709D01*
Y87211D01*
X52650D01*
Y87151D01*
X52590D01*
Y87092D01*
X52531D01*
Y87032D01*
X52471D01*
Y86972D01*
X52352D01*
Y86913D01*
X52292D01*
Y86853D01*
X52173D01*
Y86794D01*
X52054D01*
Y86734D01*
X51875D01*
Y86674D01*
X51040D01*
Y86734D01*
X50742D01*
Y86794D01*
X50504D01*
Y86853D01*
X50325D01*
Y86913D01*
X50086D01*
Y86972D01*
X49967D01*
Y87032D01*
X49788D01*
Y87092D01*
X49609D01*
Y87151D01*
X49490D01*
Y87211D01*
X49311D01*
Y87270D01*
X49192D01*
Y87330D01*
X49013D01*
Y87390D01*
X48894D01*
Y87449D01*
X48834D01*
Y87509D01*
X48894D01*
Y87569D01*
X48954D01*
Y87628D01*
Y87688D01*
X49013D01*
Y87748D01*
X49073D01*
Y87807D01*
X49132D01*
Y87867D01*
X49192D01*
Y87926D01*
Y87986D01*
X49252D01*
Y88046D01*
X49311D01*
Y88105D01*
Y88165D01*
X49371D01*
Y88224D01*
X49431D01*
Y88284D01*
Y88344D01*
X49490D01*
Y88403D01*
Y88463D01*
X49550D01*
Y88522D01*
Y88582D01*
X49609D01*
Y88642D01*
Y88701D01*
X49669D01*
Y88761D01*
Y88821D01*
X49729D01*
Y88880D01*
Y88940D01*
X49788D01*
Y88999D01*
Y89059D01*
X49848D01*
Y89119D01*
Y89178D01*
X49907D01*
Y89238D01*
Y89297D01*
Y89357D01*
X49967D01*
Y89417D01*
Y89476D01*
X50027D01*
Y89536D01*
Y89596D01*
X50086D01*
Y89655D01*
Y89715D01*
Y89775D01*
X50146D01*
Y89834D01*
Y89894D01*
X50205D01*
Y89953D01*
Y90013D01*
Y90073D01*
X50265D01*
Y90132D01*
Y90192D01*
X50325D01*
Y90251D01*
Y90311D01*
Y90371D01*
X50384D01*
Y90430D01*
Y90490D01*
X50444D01*
Y90549D01*
Y90609D01*
Y90669D01*
X50504D01*
Y90728D01*
Y90788D01*
X50563D01*
Y90848D01*
Y90907D01*
Y90967D01*
X50623D01*
Y91026D01*
Y91086D01*
X50682D01*
Y91146D01*
Y91205D01*
Y91265D01*
X50742D01*
Y91325D01*
Y91384D01*
X50802D01*
Y91444D01*
Y91503D01*
Y91563D01*
X50861D01*
Y91623D01*
Y91682D01*
X50921D01*
Y91742D01*
Y91802D01*
Y91861D01*
X50981D01*
Y91921D01*
Y91980D01*
X51040D01*
Y92040D01*
Y92099D01*
Y92159D01*
X51100D01*
Y92219D01*
Y92278D01*
X51159D01*
Y92338D01*
Y92398D01*
Y92457D01*
X51219D01*
Y92517D01*
Y92576D01*
X51279D01*
Y92636D01*
Y92696D01*
X51338D01*
Y92755D01*
Y92815D01*
Y92875D01*
X51398D01*
Y92934D01*
Y92994D01*
Y93053D01*
X51457D01*
Y93113D01*
Y93173D01*
X51517D01*
Y93232D01*
Y93292D01*
X51577D01*
Y93352D01*
Y93411D01*
Y93471D01*
X51636D01*
Y93530D01*
Y93590D01*
X51696D01*
Y93650D01*
Y93709D01*
Y93769D01*
X51755D01*
Y93828D01*
Y93888D01*
X51815D01*
Y93948D01*
Y94007D01*
Y94067D01*
X51875D01*
Y94126D01*
Y94186D01*
X51934D01*
Y94246D01*
Y94305D01*
Y94365D01*
X51994D01*
Y94425D01*
Y94484D01*
X52054D01*
Y94544D01*
Y94604D01*
Y94663D01*
X52113D01*
Y94723D01*
Y94782D01*
X52173D01*
Y94842D01*
Y94902D01*
Y94961D01*
X52232D01*
Y95021D01*
Y95080D01*
X52292D01*
Y95140D01*
Y95200D01*
Y95259D01*
X52352D01*
Y95319D01*
Y95379D01*
Y95438D01*
X52411D01*
Y95498D01*
Y95557D01*
Y95617D01*
X52471D01*
Y95677D01*
Y95736D01*
Y95796D01*
X52531D01*
Y95855D01*
Y95915D01*
X52709D01*
Y95855D01*
D02*
G37*
G36*
X32738Y91265D02*
Y91205D01*
X32797D01*
Y91146D01*
Y91086D01*
X32857D01*
Y91026D01*
Y90967D01*
X32916D01*
Y90907D01*
Y90848D01*
X32976D01*
Y90788D01*
Y90728D01*
X33036D01*
Y90669D01*
X33095D01*
Y90609D01*
Y90549D01*
X33155D01*
Y90490D01*
X33215D01*
Y90430D01*
Y90371D01*
X33274D01*
Y90311D01*
Y90251D01*
X33334D01*
Y90192D01*
X33393D01*
Y90132D01*
Y90073D01*
X33453D01*
Y90013D01*
Y89953D01*
X33513D01*
Y89894D01*
X33572D01*
Y89834D01*
Y89775D01*
X33632D01*
Y89715D01*
Y89655D01*
X33691D01*
Y89596D01*
X33751D01*
Y89536D01*
Y89476D01*
X33811D01*
Y89417D01*
Y89357D01*
X33870D01*
Y89297D01*
X33930D01*
Y89238D01*
Y89178D01*
X33990D01*
Y89119D01*
X34049D01*
Y89059D01*
Y88999D01*
X34109D01*
Y88940D01*
Y88880D01*
X34168D01*
Y88821D01*
X34228D01*
Y88761D01*
Y88701D01*
X34288D01*
Y88642D01*
X34347D01*
Y88582D01*
Y88522D01*
X34407D01*
Y88463D01*
Y88403D01*
X34466D01*
Y88344D01*
X34526D01*
Y88284D01*
Y88224D01*
X34586D01*
Y88165D01*
X34645D01*
Y88105D01*
Y88046D01*
X34705D01*
Y87986D01*
X34765D01*
Y87926D01*
Y87867D01*
X34824D01*
Y87807D01*
X34884D01*
Y87748D01*
Y87688D01*
X34824D01*
Y87628D01*
X34645D01*
Y87569D01*
X34526D01*
Y87509D01*
X34347D01*
Y87449D01*
X34228D01*
Y87390D01*
X34109D01*
Y87330D01*
X33930D01*
Y87270D01*
X33811D01*
Y87211D01*
X33632D01*
Y87151D01*
X33513D01*
Y87092D01*
X33334D01*
Y87032D01*
X33215D01*
Y86972D01*
X33095D01*
Y86913D01*
X32916D01*
Y86853D01*
X32797D01*
Y86794D01*
X32678D01*
Y86734D01*
X32499D01*
Y86674D01*
X32380D01*
Y86615D01*
X32201D01*
Y86555D01*
X32082D01*
Y86496D01*
X31903D01*
Y86436D01*
X31784D01*
Y86376D01*
X31605D01*
Y86317D01*
X31426D01*
Y86257D01*
X31247D01*
Y86197D01*
X30830D01*
Y86257D01*
Y86317D01*
Y86376D01*
X30770D01*
Y86436D01*
Y86496D01*
Y86555D01*
Y86615D01*
Y86674D01*
Y86734D01*
Y86794D01*
Y86853D01*
X30711D01*
Y86913D01*
Y86972D01*
Y87032D01*
Y87092D01*
Y87151D01*
Y87211D01*
Y87270D01*
Y87330D01*
Y87390D01*
Y87449D01*
X30770D01*
Y87509D01*
Y87569D01*
Y87628D01*
Y87688D01*
Y87748D01*
Y87807D01*
Y87867D01*
Y87926D01*
Y87986D01*
X30830D01*
Y88046D01*
Y88105D01*
Y88165D01*
Y88224D01*
Y88284D01*
X30889D01*
Y88344D01*
Y88403D01*
Y88463D01*
Y88522D01*
X30949D01*
Y88582D01*
Y88642D01*
Y88701D01*
Y88761D01*
X31009D01*
Y88821D01*
Y88880D01*
Y88940D01*
X31068D01*
Y88999D01*
Y89059D01*
Y89119D01*
X31128D01*
Y89178D01*
Y89238D01*
X31187D01*
Y89297D01*
Y89357D01*
Y89417D01*
X31247D01*
Y89476D01*
Y89536D01*
X31307D01*
Y89596D01*
Y89655D01*
X31366D01*
Y89715D01*
Y89775D01*
X31426D01*
Y89834D01*
X31486D01*
Y89894D01*
Y89953D01*
X31545D01*
Y90013D01*
Y90073D01*
X31605D01*
Y90132D01*
X31664D01*
Y90192D01*
Y90251D01*
X31724D01*
Y90311D01*
X31784D01*
Y90371D01*
Y90430D01*
X31843D01*
Y90490D01*
X31903D01*
Y90549D01*
X31962D01*
Y90609D01*
X32022D01*
Y90669D01*
Y90728D01*
X32082D01*
Y90788D01*
X32141D01*
Y90848D01*
X32201D01*
Y90907D01*
X32261D01*
Y90967D01*
X32320D01*
Y91026D01*
X32380D01*
Y91086D01*
X32440D01*
Y91146D01*
X32499D01*
Y91205D01*
X32618D01*
Y91265D01*
X32678D01*
Y91325D01*
X32738D01*
Y91265D01*
D02*
G37*
G36*
X56644Y91146D02*
X56704D01*
Y91086D01*
X56823D01*
Y91026D01*
Y90967D01*
X56942D01*
Y90907D01*
X57002D01*
Y90848D01*
X57061D01*
Y90788D01*
X57121D01*
Y90728D01*
Y90669D01*
X57181D01*
Y90609D01*
X57240D01*
Y90549D01*
X57300D01*
Y90490D01*
X57360D01*
Y90430D01*
X57419D01*
Y90371D01*
Y90311D01*
X57479D01*
Y90251D01*
X57538D01*
Y90192D01*
X57598D01*
Y90132D01*
Y90073D01*
X57658D01*
Y90013D01*
X57717D01*
Y89953D01*
Y89894D01*
X57777D01*
Y89834D01*
Y89775D01*
X57837D01*
Y89715D01*
Y89655D01*
X57896D01*
Y89596D01*
Y89536D01*
X57956D01*
Y89476D01*
Y89417D01*
X58015D01*
Y89357D01*
Y89297D01*
X58075D01*
Y89238D01*
Y89178D01*
X58135D01*
Y89119D01*
Y89059D01*
Y88999D01*
X58194D01*
Y88940D01*
Y88880D01*
Y88821D01*
X58254D01*
Y88761D01*
Y88701D01*
Y88642D01*
X58314D01*
Y88582D01*
Y88522D01*
Y88463D01*
Y88403D01*
Y88344D01*
X58373D01*
Y88284D01*
Y88224D01*
Y88165D01*
Y88105D01*
X58433D01*
Y88046D01*
Y87986D01*
Y87926D01*
Y87867D01*
Y87807D01*
Y87748D01*
Y87688D01*
Y87628D01*
Y87569D01*
X58492D01*
Y87509D01*
Y87449D01*
Y87390D01*
Y87330D01*
Y87270D01*
Y87211D01*
Y87151D01*
Y87092D01*
Y87032D01*
Y86972D01*
Y86913D01*
Y86853D01*
Y86794D01*
Y86734D01*
X58433D01*
Y86674D01*
Y86615D01*
Y86555D01*
Y86496D01*
Y86436D01*
Y86376D01*
Y86317D01*
X58373D01*
Y86257D01*
Y86197D01*
Y86138D01*
X58314D01*
Y86078D01*
Y86019D01*
X58135D01*
Y86078D01*
X57896D01*
Y86138D01*
X57717D01*
Y86197D01*
X57538D01*
Y86257D01*
X57360D01*
Y86317D01*
X57240D01*
Y86376D01*
X57061D01*
Y86436D01*
X56942D01*
Y86496D01*
X56763D01*
Y86555D01*
X56644D01*
Y86615D01*
X56525D01*
Y86674D01*
X56346D01*
Y86734D01*
X56227D01*
Y86794D01*
X56108D01*
Y86853D01*
X55929D01*
Y86913D01*
X55809D01*
Y86972D01*
X55690D01*
Y87032D01*
X55511D01*
Y87092D01*
X55392D01*
Y87151D01*
X55213D01*
Y87211D01*
X55094D01*
Y87270D01*
X54975D01*
Y87330D01*
X54796D01*
Y87390D01*
X54677D01*
Y87449D01*
X54558D01*
Y87509D01*
X54617D01*
Y87569D01*
Y87628D01*
X54677D01*
Y87688D01*
Y87748D01*
X54736D01*
Y87807D01*
Y87867D01*
X54796D01*
Y87926D01*
X54856D01*
Y87986D01*
Y88046D01*
X54915D01*
Y88105D01*
Y88165D01*
X54975D01*
Y88224D01*
Y88284D01*
X55035D01*
Y88344D01*
Y88403D01*
X55094D01*
Y88463D01*
X55154D01*
Y88522D01*
Y88582D01*
X55213D01*
Y88642D01*
Y88701D01*
X55273D01*
Y88761D01*
Y88821D01*
X55333D01*
Y88880D01*
Y88940D01*
X55392D01*
Y88999D01*
Y89059D01*
X55452D01*
Y89119D01*
X55511D01*
Y89178D01*
Y89238D01*
X55571D01*
Y89297D01*
Y89357D01*
X55631D01*
Y89417D01*
Y89476D01*
X55690D01*
Y89536D01*
Y89596D01*
X55750D01*
Y89655D01*
Y89715D01*
X55809D01*
Y89775D01*
X55869D01*
Y89834D01*
Y89894D01*
X55929D01*
Y89953D01*
Y90013D01*
X55988D01*
Y90073D01*
Y90132D01*
X56048D01*
Y90192D01*
Y90251D01*
X56108D01*
Y90311D01*
X56167D01*
Y90371D01*
Y90430D01*
X56227D01*
Y90490D01*
Y90549D01*
X56287D01*
Y90609D01*
Y90669D01*
X56346D01*
Y90728D01*
Y90788D01*
X56406D01*
Y90848D01*
Y90907D01*
X56465D01*
Y90967D01*
X56525D01*
Y91026D01*
Y91086D01*
X56585D01*
Y91146D01*
Y91205D01*
X56644D01*
Y91146D01*
D02*
G37*
D14*
X12665Y95843D02*
D03*
Y75213D02*
D03*
D20*
X75699Y72339D02*
D03*
D21*
Y85528D02*
D03*
D22*
X69794D02*
D03*
X81605D02*
D03*
D23*
X30500Y70000D02*
D03*
D24*
X40500D02*
D03*
D25*
X68534Y66749D02*
D03*
X82707D02*
D03*
X68534Y76749D02*
D03*
X73140D02*
D03*
X77928D02*
D03*
X82707D02*
D03*
X68534Y71749D02*
D03*
X73140D02*
D03*
X77928D02*
D03*
X82707D02*
D03*
D26*
X75699Y80016D02*
D03*
M02*
