G04*
G04 #@! TF.GenerationSoftware,Altium Limited,Altium Designer,20.1.12 (249)*
G04*
G04 Layer_Color=8388736*
%FSLAX25Y25*%
%MOIN*%
G70*
G04*
G04 #@! TF.SameCoordinates,F0868872-FF7F-4824-B1C7-3C191F3A6EFF*
G04*
G04*
G04 #@! TF.FilePolarity,Negative*
G04*
G01*
G75*
%ADD14R,0.17953X0.03937*%
%ADD15R,0.17953X0.03347*%
%ADD18R,0.04343X0.03556*%
%ADD19R,0.02926X0.02690*%
%ADD20R,0.18438X0.15879*%
%ADD21R,0.02965X0.12099*%
%ADD22R,0.02965X0.06312*%
%ADD23C,0.07887*%
G04:AMPARAMS|DCode=24|XSize=78.87mil|YSize=78.87mil|CornerRadius=12.86mil|HoleSize=0mil|Usage=FLASHONLY|Rotation=180.000|XOffset=0mil|YOffset=0mil|HoleType=Round|Shape=RoundedRectangle|*
%AMROUNDEDRECTD24*
21,1,0.07887,0.05315,0,0,180.0*
21,1,0.05315,0.07887,0,0,180.0*
1,1,0.02572,-0.02657,0.02657*
1,1,0.02572,0.02657,0.02657*
1,1,0.02572,0.02657,-0.02657*
1,1,0.02572,-0.02657,-0.02657*
%
%ADD24ROUNDEDRECTD24*%
%ADD25C,0.02769*%
%ADD26C,0.05800*%
D14*
X12665Y95843D02*
D03*
Y75213D02*
D03*
D15*
Y85528D02*
D03*
D18*
X55581Y70528D02*
D03*
X60699D02*
D03*
X55581Y76528D02*
D03*
X60699D02*
D03*
X96817Y85528D02*
D03*
X91699D02*
D03*
X53259D02*
D03*
X48140D02*
D03*
D19*
X60699D02*
D03*
Y82064D02*
D03*
D20*
X75699Y72339D02*
D03*
D21*
Y85528D02*
D03*
D22*
X69794D02*
D03*
X81605D02*
D03*
D23*
X30500Y70000D02*
D03*
D24*
X40500D02*
D03*
D25*
X68534Y66749D02*
D03*
X82707D02*
D03*
X68534Y76749D02*
D03*
X73140D02*
D03*
X77928D02*
D03*
X82707D02*
D03*
X68534Y71749D02*
D03*
X73140D02*
D03*
X77928D02*
D03*
X82707D02*
D03*
D26*
X75699Y80016D02*
D03*
M02*
