G04*
G04 #@! TF.GenerationSoftware,Altium Limited,Altium Designer,20.1.12 (249)*
G04*
G04 Layer_Color=32768*
%FSLAX25Y25*%
%MOIN*%
G70*
G04*
G04 #@! TF.SameCoordinates,B43397F4-0A5E-4D4A-B50E-CAD48B1EF134*
G04*
G04*
G04 #@! TF.FilePolarity,Positive*
G04*
G01*
G75*
%ADD12C,0.00394*%
%ADD13C,0.01000*%
%ADD37C,0.00200*%
D12*
X61880Y81631D02*
Y85961D01*
X59518Y81631D02*
Y85961D01*
X61880D01*
X59518Y81631D02*
X61880D01*
X333789Y28204D02*
Y32535D01*
X336151Y28204D02*
Y32535D01*
X333789Y28204D02*
X336151D01*
X333789Y32535D02*
X336151D01*
D13*
X349252Y47337D02*
X359252D01*
X349252Y37337D02*
Y47337D01*
X369252D01*
X349252Y37337D02*
X369252D01*
Y47337D01*
X35500Y65000D02*
X45500D01*
Y75000D01*
X25500Y65000D02*
X45500D01*
X25500Y75000D02*
X45500D01*
X25500Y65000D02*
Y75000D01*
D37*
X60250Y83078D02*
X61049D01*
Y83611D01*
Y84411D02*
Y83878D01*
X60516Y84411D01*
X60383D01*
X60250Y84277D01*
Y84011D01*
X60383Y83878D01*
X335420Y30954D02*
X334620D01*
Y30421D01*
Y30154D02*
Y29888D01*
Y30021D01*
X335420D01*
X335286Y30154D01*
M02*
