M48
;Layer_Color=9474304
;FILE_FORMAT=2:5
INCH,LZ
;TYPE=PLATED
T1F00S00C0.01575
T2F00S00C0.01968
T3F00S00C0.03000
T4F00S00C0.03937
T5F00S00C0.27559
%
T01
X0012552Y0011637
X0014852Y0009937
X0017452Y0008437
X0020252Y0007437
X0023152Y0006737
X0026252Y0006437
X0029293Y0006523
X0032169Y0007203
X0034952Y0008037
X0037652Y0009137
X0040155Y0010643
X0042852Y0012337
Y0012337
X0045785Y0011137
X0048852
X0051918
X0054985
X0044852Y0014637
X0046552Y0017137
X0047952Y0019837
X0048952Y0022537
X0049652Y0025437
X0052718
X0055785
Y0031837
X0052718
X0049652
X0048952Y0034737
X0047952Y0037437
X0046552Y0040137
X0044852Y0042637
X0042852Y0044937
X0045785Y0046137
X0048852
X0051918
X0054985
X0040155Y0046632
X0037652Y0048137
X0034952Y0049237
X0032169Y0050071
X0029293Y0050751
X0026252Y0050837
X0023152Y0050537
X0020252Y0049837
X0017452Y0048837
X0014852Y0047337
X0012552Y0045637
X0010452Y0043537
X0008452Y0041337
X0006952Y0038637
X0005852Y0035837
X0012752Y0035737
X0014352Y0038137
X0016352Y0040337
X0018652Y0042137
X0021352Y0043437
X0024352Y0044137
X0027352Y0044437
X0030352Y0044237
X0033152Y0043337
X0035752Y0041837
X0038052Y0040037
X0039952Y0037737
X0041352Y0035237
X0042252Y0032437
X0042652Y0029537
Y0026637
X0042252Y0023637
X0041252Y0020837
X0039682Y0018337
X0037571Y0016226
X0035216Y0014427
X0032552Y0013237
X0029652Y0012537
X0026652Y0012337
X0023752Y0012737
X0020952Y0013737
X0018352Y0015137
X0015952Y0016937
X0014052Y0019137
X0012552Y0021637
X0005852Y0021437
X0006952Y0018637
X0008452Y0015937
X0010452Y0013737
X0046296Y0025219
X0058852Y0025437
X0061918
X0064985
X0068052
X0071118
X0074185
X0077252
X0080318
X0083385
X0086452
X0089518
X0092585
X0095652
X0098718
X0101785
X0104852
X0107918
X0110985
X0114052
X0117118
X0120185
X0123252
X0126318
X0129385
X0132452
X0135518
X0138585
X0141651
X0144718
X0147785
X0150852
X0153918
X0156985
X0160052
X0163118
X0166185
X0169252
X0172318
X0175385
X0178452
X0181518
X0184585
X0187651
X0190718
X0193785
X0196851
X0199918
X0202985
X0206051
X0209118
X0212185
Y0031837
X0209118
X0206051
X0202985
X0199918
X0196851
X0193785
X0190718
X0187651
X0184585
X0181518
X0178452
X0175385
X0172318
X0169252
X0166185
X0163118
X0160052
X0156985
X0153918
X0150852
X0147785
X0144718
X0141651
X0138585
X0135518
X0132452
X0129385
X0126318
X0123252
X0120185
X0117118
X0114052
X0110985
X0107918
X0104852
X0101785
X0098718
X0095652
X0092585
X0089518
X0086452
X0083385
X0080318
X0077252
X0074185
X0071118
X0068052
X0064985
X0061918
X0058852
X0058052Y0046137
X0061118
X0064185
X0067252
X0070318
X0073385
X0076452
X0079518
X0082585
X0085652
X0088718
X0091785
X0094852
X0097918
X0100985
X0104052
X0107118
X0110185
X0113252
X0116318
X0119385
X0122452
X0125518
X0128585
X0131652
X0134718
X0137785
X0140851
X0143918
X0146985
X0150051
X0153118
X0156185
X0159251
X0162318
X0165385
X0168451
X0171518
X0174585
X0177652
X0180718
X0183785
X0186851
X0189918
X0192985
X0196051
X0199118
X0202185
X0205251
X0208318
X0211385
Y0011137
X0208318
X0205251
X0202185
X0199118
X0196051
X0192985
X0189918
X0186851
X0183785
X0180718
X0177652
X0174585
X0171518
X0168451
X0165385
X0162318
X0159251
X0156185
X0153118
X0150051
X0146985
X0143918
X0140851
X0137785
X0134718
X0131652
X0128585
X0125518
X0122452
X0119385
X0116318
X0113252
X0110185
X0107118
X0104052
X0100985
X0097918
X0094852
X0091785
X0088718
X0085652
X0082585
X0079518
X0076452
X0073385
X0070318
X0067252
X0064185
X0061118
X0058052
X0214451
X0217518
X0220585
X0223651
X0226718
X0229785
X0232851
X0235918
X0238985
X0242051
X0245118
X0248185
X0251251
X0254318
X0257385
X0260451
X0263518
X0266585
X0269651
X0272718
X0275785
X0278352Y0009737
X0280352Y0007837
X0282751Y0006437
X0285818
X0288885
X0291951
X0295018
X0298084
X0301151
X0304218
X0307284
X0310351
X0313418
X0316484
X0319551
X0322618
X0325684
X0328751
X0331818
X0334885
X0337951
X0341018
X0344085
X0347151
X0350218
X0353284
X0356351
X0359418
X0362484
X0365551
X0368618
Y0050837
X0365551
X0362484
X0359418
X0356351
X0353284
X0350218
X0347151
X0344085
X0341018
X0337951
X0334885
X0331818
X0328751
X0325684
X0322618
X0319551
X0316484
X0313418
X0310351
X0307284
X0304218
X0301151
X0298084
X0295018
X0291951
X0288885
X0285818
X0282751
X0280352Y0049637
X0278452Y0047537
X0275785Y0046137
X0272718
X0269651
X0266585
X0263518
X0260451
X0257385
X0254318
X0251251
X0248185
X0245118
X0242051
X0238985
X0235918
X0232851
X0229785
X0226718
X0223651
X0220585
X0217518
X0214451
X0215251Y0031837
X0218318
X0221385
X0224451
X0227518
X0230585
X0233651
X0236718
X0239785
X0242851
X0245918
X0248985
X0252051
X0255118
X0258185
X0261251
X0264318
X0267385
X0270451
X0273518
X0276585
X0279651
X0282718
X0285785
X0288851
X0291918
X0294985
Y0025437
X0291918
X0288851
X0285785
X0282718
X0279651
X0276585
X0273518
X0270451
X0267385
X0264318
X0261251
X0258185
X0255118
X0252051
X0248985
X0245918
X0242851
X0239785
X0236718
X0233651
X0230585
X0227518
X0224451
X0221385
X0218318
X0215251
X0371684Y0006437
X0374751
X0377818
X0380884
X0383951
X0387018
X0390084
X0391152Y000947
Y0012537
Y0015604
Y0021737
Y0024804
Y0032471
Y0035537
Y004167
Y0044737
Y0047804
X0390084Y0050837
X0387018
X0383951
X0380884
X0377818
X0374751
X0371684
X0343751Y0068028
X0340684
X0337617
X0334551
X0331484
X0328417
X0325351
X0322284
X0319218
X0316151
X0313084
X0310018
X0306951
X0303884
X0300818
X0297751
X0294684
X0291618
X0288551
X0285484
X0282418
X0279351
X0276284
X0273218
X0270151
X0267084
X0264018
X0260951
X0257884
X0254818
X0251751
X0248684
X0245618
X0242551
X0239484
X0236418
X0233351
X0230284
X0227218
X0224151
X0221084
X0218018
X0214951
X0214151Y0082328
X0217218
X0220284
X0223351
X0226418
X0229484
X0232551
X0235618
X0238684
X0241751
X0244818
X0247884
X0250951
X0254018
X0257084
X0260151
X0263218
X0266284
X0269351
X0272418
X0275484
X0278551
X0281618
X0284684
X0287751
X0290818
X0293884
X0296951
X0300018
X0303084
X0306151
X0309218
X0312284
X0315351
X0318418
X0321484
X0324551
X0327618
X0330684
X0333751
X0336818
X0339884
X0342951
Y0088728
X0339884
X0336818
X0333751
X0330684
X0327618
X0324551
X0321484
X0318418
X0315351
X0312284
X0309218
X0306151
X0303084
X0300018
X0296951
X0293884
X0290818
X0287751
X0284684
X0281618
X0278551
X0275484
X0272418
X0269351
X0266284
X0263218
X0260151
X0257084
X0254018
X0250951
X0247884
X0244818
X0241751
X0238684
X0235618
X0232551
X0229484
X0226418
X0223351
X0220284
X0217218
X0214151
X0214951Y0103028
X0218018
X0221084
X0224151
X0227218
X0230284
X0233351
X0236418
X0239484
X0242551
X0245618
X0248684
X0251751
X0254818
X0257884
X0260951
X0264018
X0267084
X0270151
X0273218
X0276284
X0279351
X0282418
X0285484
X0288551
X0291618
X0294684
X0297751
X0300818
X0303884
X0306951
X0310018
X0313084
X0316151
X0319218
X0322284
X0325351
X0328417
X0331484
X0334551
X0337617
X0340684
X0343751
X0211884
X0208818
X0205751
X0202684
X0199618
X0196551
X0193484
X0190418
X0187351
X0184284
X0181218
X0178151
X0175084
X0172018
X0168951
X0165885
X0162818
X0159751
X0156685
X0153618
X0150551
X0147485
X0144418
X0141351
X0138285
X0135218
X0132151
X0129085
X0126018
X0122951
X0119885
X0117218Y0104428
X0115317Y0106528
X0112918Y0107728
X0109851
X0106785
X0103718
X0100651
X0097585
X0094518
X0091451
X0088385Y0107728
X0088385Y0107728
X0085318Y0107728
X0082251
X0079185
X0076118
X0073052
X0069985
X0066918
X0063851
X0060785
X0057718
Y0063328
X0060785
X0063851
X0066918
X0069985
X0073052
X0076118
X0079185
X0082251
X0085318
X0088385Y0063328
X0088385Y0063328
X0091451Y0063328
X0094518
X0097585
X0100651
X0103718
X0106785
X0109851
X0112918
X0115317Y0064528
X0117218Y0066628
X0119885Y0068028
X0122951
X0126018
X0129085
X0132151
X0135218
X0138285
X0141351
X0144418
X0147485
X0150551
X0153618
X0156685
X0159751
X0162818
X0165885
X0168951
X0172018
X0175084
X0178151
X0181218
X0184284
X0187351
X0190418
X0193484
X0196551
X0199618
X0202684
X0205751
X0208818
X0211884
X0211085Y0082328
X0208018
X0204951
X0201885
X0198818
X0195751
X0192684
X0189618
X0186551
X0183484
X0180418
X0177351
X0174285
X0171218
X0168151
X0165085
X0162018
X0158951
X0155885
X0152818
X0149751
X0146685
X0143618
X0140551
X0137485
X0134418
X0131351
X0128285
X0125218
X0122151
X0119085
X0116018
X0112951
X0109885
X0106818
X0103751
X0100685
Y0088728
X0103751
X0106818
X0109885
X0112951
X0116018
X0119085
X0122151
X0125218
X0128285
X0131351
X0134418
X0137485
X0140551
X0143618
X0146685
X0149751
X0152818
X0155885
X0158951
X0162018
X0165085
X0168151
X0171218
X0174285
X0177351
X0180418
X0183484
X0186551
X0189618
X0192684
X0195751
X0198818
X0201885
X0204951
X0208018
X0211085
X0054651Y0107728
X0051585
X0048518
X0045452
X0042385
X0039318
X0036252
X0033185
X0030118
X0027052
X0023985
X0020918
X0017852
X0014785
X0011718
X0008652
X00055Y01075
X0004518Y0104695
Y0101628
Y0098562
Y0092428
Y0089362
Y0081695
Y0078628
Y0072495
Y0069428
Y0066362
X00055Y00635
X0008652Y0063328
X0011718
X0014785
X0017852
X0020918
X0023985
X0027052
X0030118
X0033185
X0036252
X0039318
X0042385
X0045452
X0048518
X0051585
X0054651
T02
X0312962Y0037417
X0317741
X0322529
X0327135
Y0042417
X0322529
X0317741
X0312962
Y0047417
X0327135
X031997Y0034149
X0082707Y0066749
Y0071749
X0077928
X007314
X0068534
Y0066749
Y0076749
X007314
X0077928
X0082707
X0075699Y0080016
T03
X00485Y00495
X00525
X00565
X00605
X01615
X01655
X01695
X01735
X01775
X01815
X03155Y0054
X03195
X03235
X03275
Y00645
X03235
X03195
X03155
X01815Y0065
X01775
X01735
X01695
X01655
X01615
X00605Y006
X00565
X00525
X00485
T04
X0354252Y0042337
X0364252
X00405Y007
X00305
T05
X002691Y0028637
M30
