G04*
G04 #@! TF.GenerationSoftware,Altium Limited,Altium Designer,20.1.12 (249)*
G04*
G04 Layer_Color=32896*
%FSLAX25Y25*%
%MOIN*%
G70*
G04*
G04 #@! TF.SameCoordinates,B43397F4-0A5E-4D4A-B50E-CAD48B1EF134*
G04*
G04*
G04 #@! TF.FilePolarity,Positive*
G04*
G01*
G75*
G36*
X61354Y104083D02*
Y104023D01*
Y103963D01*
Y103904D01*
Y103844D01*
Y103785D01*
Y103725D01*
Y103665D01*
Y103606D01*
Y103546D01*
Y103487D01*
Y103427D01*
Y103367D01*
Y103308D01*
Y103248D01*
Y103188D01*
Y103129D01*
Y103069D01*
Y103009D01*
Y102950D01*
Y102890D01*
Y102831D01*
Y102771D01*
Y102711D01*
Y102652D01*
Y102592D01*
Y102533D01*
Y102473D01*
Y102413D01*
Y102354D01*
Y102294D01*
Y102234D01*
Y102175D01*
Y102115D01*
Y102056D01*
Y101996D01*
Y101936D01*
Y101877D01*
Y101817D01*
Y101758D01*
Y101698D01*
Y101638D01*
Y101579D01*
Y101519D01*
Y101460D01*
Y101400D01*
Y101340D01*
Y101281D01*
Y101221D01*
Y101161D01*
Y101102D01*
Y101042D01*
Y100982D01*
Y100923D01*
Y100863D01*
Y100804D01*
Y100744D01*
Y100684D01*
Y100625D01*
Y100565D01*
Y100506D01*
Y100446D01*
Y100386D01*
Y100327D01*
Y100267D01*
Y100207D01*
Y100148D01*
Y100088D01*
Y100029D01*
Y99969D01*
Y99909D01*
Y99850D01*
Y99790D01*
Y99731D01*
Y99671D01*
Y99611D01*
Y99552D01*
Y99492D01*
Y99432D01*
Y99373D01*
Y99313D01*
Y99254D01*
Y99194D01*
Y99134D01*
Y99075D01*
Y99015D01*
Y98956D01*
Y98896D01*
Y98836D01*
Y98777D01*
Y98717D01*
Y98658D01*
Y98598D01*
Y98538D01*
Y98479D01*
Y98419D01*
Y98359D01*
Y98300D01*
Y98240D01*
Y98181D01*
Y98121D01*
Y98061D01*
Y98002D01*
Y97942D01*
Y97882D01*
Y97823D01*
Y97763D01*
Y97704D01*
Y97644D01*
Y97584D01*
Y97525D01*
Y97465D01*
Y97405D01*
Y97346D01*
Y97286D01*
Y97227D01*
Y97167D01*
Y97107D01*
Y97048D01*
Y96988D01*
Y96929D01*
Y96869D01*
Y96809D01*
Y96750D01*
Y96690D01*
Y96631D01*
Y96571D01*
Y96511D01*
Y96452D01*
Y96392D01*
Y96332D01*
Y96273D01*
Y96213D01*
Y96153D01*
Y96094D01*
Y96034D01*
Y95975D01*
Y95915D01*
Y95855D01*
Y95796D01*
Y95736D01*
Y95677D01*
Y95617D01*
Y95557D01*
Y95498D01*
Y95438D01*
Y95379D01*
Y95319D01*
Y95259D01*
Y95200D01*
Y95140D01*
Y95080D01*
Y95021D01*
Y94961D01*
Y94902D01*
Y94842D01*
Y94782D01*
Y94723D01*
Y94663D01*
Y94604D01*
Y94544D01*
Y94484D01*
Y94425D01*
Y94365D01*
Y94305D01*
Y94246D01*
Y94186D01*
Y94126D01*
Y94067D01*
Y94007D01*
Y93948D01*
Y93888D01*
Y93828D01*
Y93769D01*
Y93709D01*
Y93650D01*
Y93590D01*
Y93530D01*
Y93471D01*
Y93411D01*
Y93352D01*
Y93292D01*
Y93232D01*
Y93173D01*
Y93113D01*
Y93053D01*
Y92994D01*
Y92934D01*
Y92875D01*
Y92815D01*
Y92755D01*
Y92696D01*
Y92636D01*
Y92576D01*
Y92517D01*
Y92457D01*
Y92398D01*
Y92338D01*
Y92278D01*
Y92219D01*
Y92159D01*
Y92099D01*
Y92040D01*
Y91980D01*
Y91921D01*
Y91861D01*
Y91802D01*
Y91742D01*
Y91682D01*
Y91623D01*
Y91563D01*
Y91503D01*
Y91444D01*
Y91384D01*
Y91325D01*
Y91265D01*
Y91205D01*
Y91146D01*
Y91086D01*
Y91026D01*
Y90967D01*
Y90907D01*
Y90848D01*
Y90788D01*
Y90728D01*
Y90669D01*
Y90609D01*
Y90549D01*
Y90490D01*
Y90430D01*
Y90371D01*
Y90311D01*
Y90251D01*
Y90192D01*
Y90132D01*
Y90073D01*
Y90013D01*
Y89953D01*
Y89894D01*
Y89834D01*
Y89775D01*
Y89715D01*
Y89655D01*
Y89596D01*
Y89536D01*
Y89476D01*
Y89417D01*
Y89357D01*
Y89297D01*
Y89238D01*
Y89178D01*
Y89119D01*
Y89059D01*
Y88999D01*
Y88940D01*
Y88880D01*
Y88821D01*
Y88761D01*
Y88701D01*
Y88642D01*
Y88582D01*
Y88522D01*
Y88463D01*
Y88403D01*
Y88344D01*
Y88284D01*
Y88224D01*
Y88165D01*
Y88105D01*
Y88046D01*
Y87986D01*
Y87926D01*
Y87867D01*
Y87807D01*
Y87748D01*
Y87688D01*
Y87628D01*
Y87569D01*
Y87509D01*
Y87449D01*
Y87390D01*
Y87330D01*
Y87270D01*
Y87211D01*
Y87151D01*
Y87092D01*
Y87032D01*
Y86972D01*
Y86913D01*
Y86853D01*
Y86794D01*
Y86734D01*
Y86674D01*
Y86615D01*
Y86555D01*
Y86496D01*
Y86436D01*
Y86376D01*
Y86317D01*
Y86257D01*
Y86197D01*
Y86138D01*
Y86078D01*
Y86019D01*
Y85959D01*
Y85899D01*
Y85840D01*
Y85780D01*
Y85720D01*
Y85661D01*
Y85601D01*
Y85542D01*
Y85482D01*
Y85422D01*
Y85363D01*
Y85303D01*
Y85243D01*
Y85184D01*
Y85124D01*
Y85065D01*
Y85005D01*
Y84945D01*
Y84886D01*
Y84826D01*
Y84767D01*
Y84707D01*
Y84647D01*
Y84588D01*
Y84528D01*
Y84469D01*
Y84409D01*
Y84349D01*
Y84290D01*
Y84230D01*
Y84170D01*
Y84111D01*
Y84051D01*
Y83992D01*
Y83932D01*
Y83872D01*
Y83813D01*
Y83753D01*
Y83693D01*
Y83634D01*
Y83574D01*
Y83515D01*
Y83455D01*
Y83395D01*
Y83336D01*
Y83276D01*
Y83217D01*
Y83157D01*
Y83097D01*
Y83038D01*
Y82978D01*
Y82919D01*
Y82859D01*
Y82799D01*
Y82740D01*
Y82680D01*
Y82620D01*
Y82561D01*
Y82501D01*
Y82442D01*
Y82382D01*
Y82322D01*
Y82263D01*
Y82203D01*
Y82143D01*
Y82084D01*
Y82024D01*
Y81965D01*
Y81905D01*
Y81845D01*
Y81786D01*
Y81726D01*
Y81666D01*
Y81607D01*
X27193D01*
Y81666D01*
Y81726D01*
Y81786D01*
Y81845D01*
Y81905D01*
Y81965D01*
Y82024D01*
Y82084D01*
Y82143D01*
Y82203D01*
Y82263D01*
Y82322D01*
Y82382D01*
Y82442D01*
Y82501D01*
Y82561D01*
Y82620D01*
Y82680D01*
Y82740D01*
Y82799D01*
Y82859D01*
Y82919D01*
Y82978D01*
Y83038D01*
Y83097D01*
Y83157D01*
Y83217D01*
Y83276D01*
Y83336D01*
Y83395D01*
Y83455D01*
Y83515D01*
Y83574D01*
Y83634D01*
Y83693D01*
Y83753D01*
Y83813D01*
Y83872D01*
Y83932D01*
Y83992D01*
Y84051D01*
Y84111D01*
Y84170D01*
Y84230D01*
Y84290D01*
Y84349D01*
Y84409D01*
Y84469D01*
Y84528D01*
Y84588D01*
Y84647D01*
Y84707D01*
Y84767D01*
Y84826D01*
Y84886D01*
Y84945D01*
Y85005D01*
Y85065D01*
Y85124D01*
Y85184D01*
Y85243D01*
Y85303D01*
Y85363D01*
Y85422D01*
Y85482D01*
Y85542D01*
Y85601D01*
Y85661D01*
Y85720D01*
Y85780D01*
Y85840D01*
Y85899D01*
Y85959D01*
Y86019D01*
Y86078D01*
Y86138D01*
Y86197D01*
Y86257D01*
Y86317D01*
Y86376D01*
Y86436D01*
Y86496D01*
Y86555D01*
Y86615D01*
Y86674D01*
Y86734D01*
Y86794D01*
Y86853D01*
Y86913D01*
Y86972D01*
Y87032D01*
Y87092D01*
Y87151D01*
Y87211D01*
Y87270D01*
Y87330D01*
Y87390D01*
Y87449D01*
Y87509D01*
Y87569D01*
Y87628D01*
Y87688D01*
Y87748D01*
Y87807D01*
Y87867D01*
Y87926D01*
Y87986D01*
Y88046D01*
Y88105D01*
Y88165D01*
Y88224D01*
Y88284D01*
Y88344D01*
Y88403D01*
Y88463D01*
Y88522D01*
Y88582D01*
Y88642D01*
Y88701D01*
Y88761D01*
Y88821D01*
Y88880D01*
Y88940D01*
Y88999D01*
Y89059D01*
Y89119D01*
Y89178D01*
Y89238D01*
Y89297D01*
Y89357D01*
Y89417D01*
Y89476D01*
Y89536D01*
Y89596D01*
Y89655D01*
Y89715D01*
Y89775D01*
Y89834D01*
Y89894D01*
Y89953D01*
Y90013D01*
Y90073D01*
Y90132D01*
Y90192D01*
Y90251D01*
Y90311D01*
Y90371D01*
Y90430D01*
Y90490D01*
Y90549D01*
Y90609D01*
Y90669D01*
Y90728D01*
Y90788D01*
Y90848D01*
Y90907D01*
Y90967D01*
Y91026D01*
Y91086D01*
Y91146D01*
Y91205D01*
Y91265D01*
Y91325D01*
Y91384D01*
Y91444D01*
Y91503D01*
Y91563D01*
Y91623D01*
Y91682D01*
Y91742D01*
Y91802D01*
Y91861D01*
Y91921D01*
Y91980D01*
Y92040D01*
Y92099D01*
Y92159D01*
Y92219D01*
Y92278D01*
Y92338D01*
Y92398D01*
Y92457D01*
Y92517D01*
Y92576D01*
Y92636D01*
Y92696D01*
Y92755D01*
Y92815D01*
Y92875D01*
Y92934D01*
Y92994D01*
Y93053D01*
Y93113D01*
Y93173D01*
Y93232D01*
Y93292D01*
Y93352D01*
Y93411D01*
Y93471D01*
Y93530D01*
Y93590D01*
Y93650D01*
Y93709D01*
Y93769D01*
Y93828D01*
Y93888D01*
Y93948D01*
Y94007D01*
Y94067D01*
Y94126D01*
Y94186D01*
Y94246D01*
Y94305D01*
Y94365D01*
Y94425D01*
Y94484D01*
Y94544D01*
Y94604D01*
Y94663D01*
Y94723D01*
Y94782D01*
Y94842D01*
Y94902D01*
Y94961D01*
Y95021D01*
Y95080D01*
Y95140D01*
Y95200D01*
Y95259D01*
Y95319D01*
Y95379D01*
Y95438D01*
Y95498D01*
Y95557D01*
Y95617D01*
Y95677D01*
Y95736D01*
Y95796D01*
Y95855D01*
Y95915D01*
Y95975D01*
Y96034D01*
Y96094D01*
Y96153D01*
Y96213D01*
Y96273D01*
Y96332D01*
Y96392D01*
Y96452D01*
Y96511D01*
Y96571D01*
Y96631D01*
Y96690D01*
Y96750D01*
Y96809D01*
Y96869D01*
Y96929D01*
Y96988D01*
Y97048D01*
Y97107D01*
Y97167D01*
Y97227D01*
Y97286D01*
Y97346D01*
Y97405D01*
Y97465D01*
Y97525D01*
Y97584D01*
Y97644D01*
Y97704D01*
Y97763D01*
Y97823D01*
Y97882D01*
Y97942D01*
Y98002D01*
Y98061D01*
Y98121D01*
Y98181D01*
Y98240D01*
Y98300D01*
Y98359D01*
Y98419D01*
Y98479D01*
Y98538D01*
Y98598D01*
Y98658D01*
Y98717D01*
Y98777D01*
Y98836D01*
Y98896D01*
Y98956D01*
Y99015D01*
Y99075D01*
Y99134D01*
Y99194D01*
Y99254D01*
Y99313D01*
Y99373D01*
Y99432D01*
Y99492D01*
Y99552D01*
Y99611D01*
Y99671D01*
Y99731D01*
Y99790D01*
Y99850D01*
Y99909D01*
Y99969D01*
Y100029D01*
Y100088D01*
Y100148D01*
Y100207D01*
Y100267D01*
Y100327D01*
Y100386D01*
Y100446D01*
Y100506D01*
Y100565D01*
Y100625D01*
Y100684D01*
Y100744D01*
Y100804D01*
Y100863D01*
Y100923D01*
Y100982D01*
Y101042D01*
Y101102D01*
Y101161D01*
Y101221D01*
Y101281D01*
Y101340D01*
Y101400D01*
Y101460D01*
Y101519D01*
Y101579D01*
Y101638D01*
Y101698D01*
Y101758D01*
Y101817D01*
Y101877D01*
Y101936D01*
Y101996D01*
Y102056D01*
Y102115D01*
Y102175D01*
Y102234D01*
Y102294D01*
Y102354D01*
Y102413D01*
Y102473D01*
Y102533D01*
Y102592D01*
Y102652D01*
Y102711D01*
Y102771D01*
Y102831D01*
Y102890D01*
Y102950D01*
Y103009D01*
Y103069D01*
Y103129D01*
Y103188D01*
Y103248D01*
Y103308D01*
Y103367D01*
Y103427D01*
Y103487D01*
Y103546D01*
Y103606D01*
Y103665D01*
Y103725D01*
Y103785D01*
Y103844D01*
Y103904D01*
Y103963D01*
Y104023D01*
Y104083D01*
Y104142D01*
X61354D01*
Y104083D01*
D02*
G37*
G36*
X365854Y32083D02*
Y32023D01*
Y31963D01*
Y31904D01*
Y31844D01*
Y31785D01*
Y31725D01*
Y31665D01*
Y31606D01*
Y31546D01*
Y31486D01*
Y31427D01*
Y31367D01*
Y31308D01*
Y31248D01*
Y31188D01*
Y31129D01*
Y31069D01*
Y31010D01*
Y30950D01*
Y30890D01*
Y30831D01*
Y30771D01*
Y30711D01*
Y30652D01*
Y30592D01*
Y30533D01*
Y30473D01*
Y30413D01*
Y30354D01*
Y30294D01*
Y30235D01*
Y30175D01*
Y30115D01*
Y30056D01*
Y29996D01*
Y29936D01*
Y29877D01*
Y29817D01*
Y29758D01*
Y29698D01*
Y29638D01*
Y29579D01*
Y29519D01*
Y29460D01*
Y29400D01*
Y29340D01*
Y29281D01*
Y29221D01*
Y29161D01*
Y29102D01*
Y29042D01*
Y28982D01*
Y28923D01*
Y28863D01*
Y28804D01*
Y28744D01*
Y28684D01*
Y28625D01*
Y28565D01*
Y28506D01*
Y28446D01*
Y28386D01*
Y28327D01*
Y28267D01*
Y28207D01*
Y28148D01*
Y28088D01*
Y28029D01*
Y27969D01*
Y27909D01*
Y27850D01*
Y27790D01*
Y27731D01*
Y27671D01*
Y27611D01*
Y27552D01*
Y27492D01*
Y27433D01*
Y27373D01*
Y27313D01*
Y27254D01*
Y27194D01*
Y27134D01*
Y27075D01*
Y27015D01*
Y26956D01*
Y26896D01*
Y26836D01*
Y26777D01*
Y26717D01*
Y26658D01*
Y26598D01*
Y26538D01*
Y26479D01*
Y26419D01*
Y26359D01*
Y26300D01*
Y26240D01*
Y26180D01*
Y26121D01*
Y26061D01*
Y26002D01*
Y25942D01*
Y25882D01*
Y25823D01*
Y25763D01*
Y25704D01*
Y25644D01*
Y25584D01*
Y25525D01*
Y25465D01*
Y25405D01*
Y25346D01*
Y25286D01*
Y25227D01*
Y25167D01*
Y25107D01*
Y25048D01*
Y24988D01*
Y24929D01*
Y24869D01*
Y24809D01*
Y24750D01*
Y24690D01*
Y24631D01*
Y24571D01*
Y24511D01*
Y24452D01*
Y24392D01*
Y24332D01*
Y24273D01*
Y24213D01*
Y24153D01*
Y24094D01*
Y24034D01*
Y23975D01*
Y23915D01*
Y23855D01*
Y23796D01*
Y23736D01*
Y23677D01*
Y23617D01*
Y23557D01*
Y23498D01*
Y23438D01*
Y23379D01*
Y23319D01*
Y23259D01*
Y23200D01*
Y23140D01*
Y23080D01*
Y23021D01*
Y22961D01*
Y22902D01*
Y22842D01*
Y22782D01*
Y22723D01*
Y22663D01*
Y22603D01*
Y22544D01*
Y22484D01*
Y22425D01*
Y22365D01*
Y22305D01*
Y22246D01*
Y22186D01*
Y22127D01*
Y22067D01*
Y22007D01*
Y21948D01*
Y21888D01*
Y21828D01*
Y21769D01*
Y21709D01*
Y21650D01*
Y21590D01*
Y21530D01*
Y21471D01*
Y21411D01*
Y21351D01*
Y21292D01*
Y21232D01*
Y21173D01*
Y21113D01*
Y21053D01*
Y20994D01*
Y20934D01*
Y20875D01*
Y20815D01*
Y20755D01*
Y20696D01*
Y20636D01*
Y20576D01*
Y20517D01*
Y20457D01*
Y20398D01*
Y20338D01*
Y20278D01*
Y20219D01*
Y20159D01*
Y20099D01*
Y20040D01*
Y19980D01*
Y19921D01*
Y19861D01*
Y19802D01*
Y19742D01*
Y19682D01*
Y19623D01*
Y19563D01*
Y19503D01*
Y19444D01*
Y19384D01*
Y19324D01*
Y19265D01*
Y19205D01*
Y19146D01*
Y19086D01*
Y19026D01*
Y18967D01*
Y18907D01*
Y18848D01*
Y18788D01*
Y18728D01*
Y18669D01*
Y18609D01*
Y18550D01*
Y18490D01*
Y18430D01*
Y18371D01*
Y18311D01*
Y18251D01*
Y18192D01*
Y18132D01*
Y18073D01*
Y18013D01*
Y17953D01*
Y17894D01*
Y17834D01*
Y17774D01*
Y17715D01*
Y17655D01*
Y17596D01*
Y17536D01*
Y17476D01*
Y17417D01*
Y17357D01*
Y17298D01*
Y17238D01*
Y17178D01*
Y17119D01*
Y17059D01*
Y16999D01*
Y16940D01*
Y16880D01*
Y16821D01*
Y16761D01*
Y16701D01*
Y16642D01*
Y16582D01*
Y16522D01*
Y16463D01*
Y16403D01*
Y16344D01*
Y16284D01*
Y16224D01*
Y16165D01*
Y16105D01*
Y16046D01*
Y15986D01*
Y15926D01*
Y15867D01*
Y15807D01*
Y15747D01*
Y15688D01*
Y15628D01*
Y15569D01*
Y15509D01*
Y15449D01*
Y15390D01*
Y15330D01*
Y15270D01*
Y15211D01*
Y15151D01*
Y15092D01*
Y15032D01*
Y14973D01*
Y14913D01*
Y14853D01*
Y14794D01*
Y14734D01*
Y14674D01*
Y14615D01*
Y14555D01*
Y14495D01*
Y14436D01*
Y14376D01*
Y14317D01*
Y14257D01*
Y14197D01*
Y14138D01*
Y14078D01*
Y14019D01*
Y13959D01*
Y13899D01*
Y13840D01*
Y13780D01*
Y13721D01*
Y13661D01*
Y13601D01*
Y13542D01*
Y13482D01*
Y13422D01*
Y13363D01*
Y13303D01*
Y13243D01*
Y13184D01*
Y13124D01*
Y13065D01*
Y13005D01*
Y12946D01*
Y12886D01*
Y12826D01*
Y12767D01*
Y12707D01*
Y12647D01*
Y12588D01*
Y12528D01*
Y12468D01*
Y12409D01*
Y12349D01*
Y12290D01*
Y12230D01*
Y12170D01*
Y12111D01*
Y12051D01*
Y11992D01*
Y11932D01*
Y11872D01*
Y11813D01*
Y11753D01*
Y11693D01*
Y11634D01*
Y11574D01*
Y11515D01*
Y11455D01*
Y11395D01*
Y11336D01*
Y11276D01*
Y11216D01*
Y11157D01*
Y11097D01*
Y11038D01*
Y10978D01*
Y10919D01*
Y10859D01*
Y10799D01*
Y10740D01*
Y10680D01*
Y10620D01*
Y10561D01*
Y10501D01*
Y10441D01*
Y10382D01*
Y10322D01*
Y10263D01*
Y10203D01*
Y10143D01*
Y10084D01*
Y10024D01*
Y9965D01*
Y9905D01*
Y9845D01*
Y9786D01*
Y9726D01*
Y9667D01*
Y9607D01*
X331693D01*
Y9667D01*
Y9726D01*
Y9786D01*
Y9845D01*
Y9905D01*
Y9965D01*
Y10024D01*
Y10084D01*
Y10143D01*
Y10203D01*
Y10263D01*
Y10322D01*
Y10382D01*
Y10441D01*
Y10501D01*
Y10561D01*
Y10620D01*
Y10680D01*
Y10740D01*
Y10799D01*
Y10859D01*
Y10919D01*
Y10978D01*
Y11038D01*
Y11097D01*
Y11157D01*
Y11216D01*
Y11276D01*
Y11336D01*
Y11395D01*
Y11455D01*
Y11515D01*
Y11574D01*
Y11634D01*
Y11693D01*
Y11753D01*
Y11813D01*
Y11872D01*
Y11932D01*
Y11992D01*
Y12051D01*
Y12111D01*
Y12170D01*
Y12230D01*
Y12290D01*
Y12349D01*
Y12409D01*
Y12468D01*
Y12528D01*
Y12588D01*
Y12647D01*
Y12707D01*
Y12767D01*
Y12826D01*
Y12886D01*
Y12946D01*
Y13005D01*
Y13065D01*
Y13124D01*
Y13184D01*
Y13243D01*
Y13303D01*
Y13363D01*
Y13422D01*
Y13482D01*
Y13542D01*
Y13601D01*
Y13661D01*
Y13721D01*
Y13780D01*
Y13840D01*
Y13899D01*
Y13959D01*
Y14019D01*
Y14078D01*
Y14138D01*
Y14197D01*
Y14257D01*
Y14317D01*
Y14376D01*
Y14436D01*
Y14495D01*
Y14555D01*
Y14615D01*
Y14674D01*
Y14734D01*
Y14794D01*
Y14853D01*
Y14913D01*
Y14973D01*
Y15032D01*
Y15092D01*
Y15151D01*
Y15211D01*
Y15270D01*
Y15330D01*
Y15390D01*
Y15449D01*
Y15509D01*
Y15569D01*
Y15628D01*
Y15688D01*
Y15747D01*
Y15807D01*
Y15867D01*
Y15926D01*
Y15986D01*
Y16046D01*
Y16105D01*
Y16165D01*
Y16224D01*
Y16284D01*
Y16344D01*
Y16403D01*
Y16463D01*
Y16522D01*
Y16582D01*
Y16642D01*
Y16701D01*
Y16761D01*
Y16821D01*
Y16880D01*
Y16940D01*
Y16999D01*
Y17059D01*
Y17119D01*
Y17178D01*
Y17238D01*
Y17298D01*
Y17357D01*
Y17417D01*
Y17476D01*
Y17536D01*
Y17596D01*
Y17655D01*
Y17715D01*
Y17774D01*
Y17834D01*
Y17894D01*
Y17953D01*
Y18013D01*
Y18073D01*
Y18132D01*
Y18192D01*
Y18251D01*
Y18311D01*
Y18371D01*
Y18430D01*
Y18490D01*
Y18550D01*
Y18609D01*
Y18669D01*
Y18728D01*
Y18788D01*
Y18848D01*
Y18907D01*
Y18967D01*
Y19026D01*
Y19086D01*
Y19146D01*
Y19205D01*
Y19265D01*
Y19324D01*
Y19384D01*
Y19444D01*
Y19503D01*
Y19563D01*
Y19623D01*
Y19682D01*
Y19742D01*
Y19802D01*
Y19861D01*
Y19921D01*
Y19980D01*
Y20040D01*
Y20099D01*
Y20159D01*
Y20219D01*
Y20278D01*
Y20338D01*
Y20398D01*
Y20457D01*
Y20517D01*
Y20576D01*
Y20636D01*
Y20696D01*
Y20755D01*
Y20815D01*
Y20875D01*
Y20934D01*
Y20994D01*
Y21053D01*
Y21113D01*
Y21173D01*
Y21232D01*
Y21292D01*
Y21351D01*
Y21411D01*
Y21471D01*
Y21530D01*
Y21590D01*
Y21650D01*
Y21709D01*
Y21769D01*
Y21828D01*
Y21888D01*
Y21948D01*
Y22007D01*
Y22067D01*
Y22127D01*
Y22186D01*
Y22246D01*
Y22305D01*
Y22365D01*
Y22425D01*
Y22484D01*
Y22544D01*
Y22603D01*
Y22663D01*
Y22723D01*
Y22782D01*
Y22842D01*
Y22902D01*
Y22961D01*
Y23021D01*
Y23080D01*
Y23140D01*
Y23200D01*
Y23259D01*
Y23319D01*
Y23379D01*
Y23438D01*
Y23498D01*
Y23557D01*
Y23617D01*
Y23677D01*
Y23736D01*
Y23796D01*
Y23855D01*
Y23915D01*
Y23975D01*
Y24034D01*
Y24094D01*
Y24153D01*
Y24213D01*
Y24273D01*
Y24332D01*
Y24392D01*
Y24452D01*
Y24511D01*
Y24571D01*
Y24631D01*
Y24690D01*
Y24750D01*
Y24809D01*
Y24869D01*
Y24929D01*
Y24988D01*
Y25048D01*
Y25107D01*
Y25167D01*
Y25227D01*
Y25286D01*
Y25346D01*
Y25405D01*
Y25465D01*
Y25525D01*
Y25584D01*
Y25644D01*
Y25704D01*
Y25763D01*
Y25823D01*
Y25882D01*
Y25942D01*
Y26002D01*
Y26061D01*
Y26121D01*
Y26180D01*
Y26240D01*
Y26300D01*
Y26359D01*
Y26419D01*
Y26479D01*
Y26538D01*
Y26598D01*
Y26658D01*
Y26717D01*
Y26777D01*
Y26836D01*
Y26896D01*
Y26956D01*
Y27015D01*
Y27075D01*
Y27134D01*
Y27194D01*
Y27254D01*
Y27313D01*
Y27373D01*
Y27433D01*
Y27492D01*
Y27552D01*
Y27611D01*
Y27671D01*
Y27731D01*
Y27790D01*
Y27850D01*
Y27909D01*
Y27969D01*
Y28029D01*
Y28088D01*
Y28148D01*
Y28207D01*
Y28267D01*
Y28327D01*
Y28386D01*
Y28446D01*
Y28506D01*
Y28565D01*
Y28625D01*
Y28684D01*
Y28744D01*
Y28804D01*
Y28863D01*
Y28923D01*
Y28982D01*
Y29042D01*
Y29102D01*
Y29161D01*
Y29221D01*
Y29281D01*
Y29340D01*
Y29400D01*
Y29460D01*
Y29519D01*
Y29579D01*
Y29638D01*
Y29698D01*
Y29758D01*
Y29817D01*
Y29877D01*
Y29936D01*
Y29996D01*
Y30056D01*
Y30115D01*
Y30175D01*
Y30235D01*
Y30294D01*
Y30354D01*
Y30413D01*
Y30473D01*
Y30533D01*
Y30592D01*
Y30652D01*
Y30711D01*
Y30771D01*
Y30831D01*
Y30890D01*
Y30950D01*
Y31010D01*
Y31069D01*
Y31129D01*
Y31188D01*
Y31248D01*
Y31308D01*
Y31367D01*
Y31427D01*
Y31486D01*
Y31546D01*
Y31606D01*
Y31665D01*
Y31725D01*
Y31785D01*
Y31844D01*
Y31904D01*
Y31963D01*
Y32023D01*
Y32083D01*
Y32142D01*
X365854D01*
Y32083D01*
D02*
G37*
G36*
X65211Y105241D02*
X65285Y105232D01*
X65341Y105214D01*
X65350Y105204D01*
X65359D01*
X65433Y105167D01*
X65489Y105140D01*
X65526Y105103D01*
X65544Y105093D01*
X65591Y105038D01*
X65627Y104982D01*
X65655Y104945D01*
X65664Y104936D01*
Y104927D01*
X65683Y104853D01*
X65692Y104779D01*
X65702Y104723D01*
Y104714D01*
Y104705D01*
X65692Y104622D01*
X65683Y104548D01*
X65674Y104501D01*
X65664Y104492D01*
Y104483D01*
X65627Y104409D01*
X65591Y104353D01*
X65553Y104316D01*
X65544Y104307D01*
X65479Y104261D01*
X65424Y104224D01*
X65378Y104205D01*
X65359Y104196D01*
X65276Y104178D01*
X65193Y104168D01*
X65128Y104159D01*
X65109D01*
X65017Y104168D01*
X64934Y104187D01*
X64860Y104205D01*
X64795Y104233D01*
X64749Y104261D01*
X64712Y104289D01*
X64693Y104298D01*
X64684Y104307D01*
X64628Y104372D01*
X64591Y104437D01*
X64555Y104501D01*
X64536Y104566D01*
X64527Y104622D01*
X64517Y104668D01*
Y104696D01*
Y104705D01*
X64527Y104788D01*
X64545Y104871D01*
X64573Y104936D01*
X64601Y104992D01*
X64628Y105038D01*
X64656Y105066D01*
X64675Y105084D01*
X64684Y105093D01*
X64749Y105149D01*
X64814Y105186D01*
X64887Y105214D01*
X64952Y105232D01*
X65017Y105241D01*
X65063Y105251D01*
X65109D01*
X65211Y105241D01*
D02*
G37*
G36*
X112506Y99682D02*
X111461D01*
Y101264D01*
X110897Y101893D01*
X109565Y99682D01*
X108326D01*
X110203Y102679D01*
X108390Y105066D01*
X109667D01*
X110971Y103253D01*
X111461Y102596D01*
Y105066D01*
X112506D01*
Y99682D01*
D02*
G37*
G36*
X97438Y103734D02*
X97558Y103725D01*
X97670Y103706D01*
X97753Y103687D01*
X97817Y103669D01*
X97855Y103660D01*
X97873Y103650D01*
X97984Y103613D01*
X98086Y103567D01*
X98178Y103521D01*
X98261Y103475D01*
X98326Y103438D01*
X98373Y103401D01*
X98400Y103382D01*
X98409Y103373D01*
X98484Y103308D01*
X98548Y103244D01*
X98604Y103179D01*
X98650Y103114D01*
X98687Y103058D01*
X98715Y103012D01*
X98724Y102984D01*
X98733Y102975D01*
X98770Y102892D01*
X98798Y102799D01*
X98817Y102716D01*
X98826Y102642D01*
X98835Y102577D01*
X98844Y102531D01*
Y102494D01*
Y102485D01*
X97817D01*
X97808Y102568D01*
X97799Y102642D01*
X97771Y102698D01*
X97743Y102753D01*
X97725Y102790D01*
X97697Y102818D01*
X97688Y102836D01*
X97679Y102846D01*
X97614Y102892D01*
X97540Y102929D01*
X97466Y102947D01*
X97392Y102966D01*
X97327Y102975D01*
X97272Y102984D01*
X97216D01*
X97087Y102975D01*
X96976Y102957D01*
X96883Y102929D01*
X96809Y102901D01*
X96745Y102873D01*
X96707Y102846D01*
X96680Y102827D01*
X96671Y102818D01*
X96606Y102753D01*
X96560Y102679D01*
X96522Y102596D01*
X96504Y102522D01*
X96486Y102457D01*
X96476Y102402D01*
Y102365D01*
Y102355D01*
Y102124D01*
X97216Y102124D01*
X97383Y102106D01*
X97531Y102096D01*
X97670Y102069D01*
X97799Y102041D01*
X97910Y102013D01*
X98021Y101986D01*
X98114Y101948D01*
X98197Y101911D01*
X98261Y101884D01*
X98326Y101856D01*
X98373Y101828D01*
X98419Y101810D01*
X98447Y101791D01*
X98456Y101773D01*
X98465D01*
X98548Y101708D01*
X98622Y101634D01*
X98687Y101560D01*
X98733Y101477D01*
X98826Y101319D01*
X98881Y101162D01*
X98909Y101014D01*
X98918Y100959D01*
X98927Y100903D01*
X98937Y100866D01*
Y100829D01*
Y100811D01*
Y100801D01*
X98927Y100709D01*
X98918Y100616D01*
X98900Y100533D01*
X98881Y100468D01*
X98863Y100404D01*
X98853Y100357D01*
X98835Y100330D01*
Y100320D01*
X98743Y100172D01*
X98696Y100108D01*
X98641Y100052D01*
X98604Y100006D01*
X98567Y99969D01*
X98548Y99950D01*
X98539Y99941D01*
X98391Y99839D01*
X98252Y99756D01*
X98197Y99728D01*
X98141Y99710D01*
X98114Y99691D01*
X98104D01*
X97901Y99645D01*
X97808Y99627D01*
X97716Y99617D01*
X97642D01*
X97586Y99608D01*
X97531D01*
X97401Y99617D01*
X97290Y99627D01*
X97244Y99636D01*
X97216D01*
X97198Y99645D01*
X97189D01*
X97068Y99673D01*
X96976Y99710D01*
X96939Y99719D01*
X96911Y99728D01*
X96902Y99738D01*
X96892D01*
X96791Y99784D01*
X96717Y99830D01*
X96661Y99867D01*
X96652Y99876D01*
X96643D01*
X96560Y99941D01*
X96495Y99997D01*
X96458Y100034D01*
X96439Y100052D01*
X96421Y99978D01*
X96412Y99913D01*
X96402Y99867D01*
Y99849D01*
X96384Y99784D01*
X96356Y99728D01*
X96347Y99691D01*
X96337Y99682D01*
X95292D01*
Y99738D01*
X95338Y99858D01*
X95376Y99978D01*
X95394Y100024D01*
X95403Y100061D01*
X95412Y100089D01*
Y100098D01*
X95422Y100182D01*
X95431Y100274D01*
X95440Y100357D01*
Y100450D01*
X95450Y100524D01*
Y100579D01*
Y100616D01*
Y100635D01*
Y102355D01*
X95459Y102476D01*
X95468Y102596D01*
X95486Y102698D01*
X95514Y102781D01*
X95542Y102855D01*
X95560Y102910D01*
X95570Y102947D01*
X95579Y102957D01*
X95635Y103049D01*
X95690Y103142D01*
X95745Y103216D01*
X95810Y103280D01*
X95856Y103327D01*
X95903Y103373D01*
X95930Y103391D01*
X95940Y103401D01*
X96125Y103512D01*
X96217Y103558D01*
X96301Y103595D01*
X96374Y103623D01*
X96430Y103641D01*
X96467Y103660D01*
X96486D01*
X96717Y103715D01*
X96837Y103734D01*
X96939Y103743D01*
X97031Y103752D01*
X97309D01*
X97438Y103734D01*
D02*
G37*
G36*
X70188Y103734D02*
X70308Y103724D01*
X70419Y103706D01*
X70502Y103687D01*
X70567Y103669D01*
X70604Y103660D01*
X70622Y103650D01*
X70733Y103613D01*
X70835Y103567D01*
X70928Y103521D01*
X71011Y103475D01*
X71076Y103438D01*
X71122Y103401D01*
X71150Y103382D01*
X71159Y103373D01*
X71233Y103308D01*
X71298Y103243D01*
X71353Y103179D01*
X71399Y103114D01*
X71437Y103058D01*
X71464Y103012D01*
X71473Y102984D01*
X71483Y102975D01*
X71520Y102892D01*
X71548Y102799D01*
X71566Y102716D01*
X71575Y102642D01*
X71584Y102577D01*
X71594Y102531D01*
Y102494D01*
Y102485D01*
X70567D01*
X70558Y102568D01*
X70548Y102642D01*
X70521Y102698D01*
X70493Y102753D01*
X70474Y102790D01*
X70447Y102818D01*
X70438Y102836D01*
X70428Y102846D01*
X70363Y102892D01*
X70289Y102929D01*
X70215Y102947D01*
X70142Y102966D01*
X70077Y102975D01*
X70021Y102984D01*
X69966D01*
X69836Y102975D01*
X69725Y102957D01*
X69633Y102929D01*
X69559Y102901D01*
X69494Y102873D01*
X69457Y102846D01*
X69429Y102827D01*
X69420Y102818D01*
X69355Y102753D01*
X69309Y102679D01*
X69272Y102596D01*
X69253Y102522D01*
X69235Y102457D01*
X69226Y102402D01*
Y102365D01*
Y102355D01*
Y102124D01*
X69966D01*
X70132Y102106D01*
X70280Y102096D01*
X70419Y102069D01*
X70548Y102041D01*
X70660Y102013D01*
X70771Y101985D01*
X70863Y101948D01*
X70946Y101911D01*
X71011Y101884D01*
X71076Y101856D01*
X71122Y101828D01*
X71168Y101810D01*
X71196Y101791D01*
X71205Y101773D01*
X71214D01*
X71298Y101708D01*
X71372Y101634D01*
X71437Y101560D01*
X71483Y101477D01*
X71575Y101319D01*
X71631Y101162D01*
X71658Y101014D01*
X71668Y100959D01*
X71677Y100903D01*
X71686Y100866D01*
Y100829D01*
Y100811D01*
Y100801D01*
X71677Y100709D01*
X71668Y100616D01*
X71649Y100533D01*
X71631Y100468D01*
X71612Y100404D01*
X71603Y100357D01*
X71584Y100330D01*
Y100320D01*
X71492Y100172D01*
X71446Y100108D01*
X71390Y100052D01*
X71353Y100006D01*
X71316Y99969D01*
X71298Y99950D01*
X71289Y99941D01*
X71140Y99839D01*
X71002Y99756D01*
X70946Y99728D01*
X70891Y99710D01*
X70863Y99691D01*
X70854D01*
X70650Y99645D01*
X70558Y99627D01*
X70465Y99617D01*
X70391D01*
X70336Y99608D01*
X70280D01*
X70151Y99617D01*
X70040Y99627D01*
X69994Y99636D01*
X69966D01*
X69947Y99645D01*
X69938D01*
X69818Y99673D01*
X69725Y99710D01*
X69688Y99719D01*
X69661Y99728D01*
X69651Y99738D01*
X69642D01*
X69540Y99784D01*
X69466Y99830D01*
X69411Y99867D01*
X69402Y99876D01*
X69392D01*
X69309Y99941D01*
X69244Y99997D01*
X69207Y100034D01*
X69189Y100052D01*
X69170Y99978D01*
X69161Y99913D01*
X69152Y99867D01*
Y99849D01*
X69133Y99784D01*
X69105Y99728D01*
X69096Y99691D01*
X69087Y99682D01*
X68042D01*
Y99738D01*
X68088Y99858D01*
X68125Y99978D01*
X68143Y100024D01*
X68153Y100061D01*
X68162Y100089D01*
Y100098D01*
X68171Y100182D01*
X68181Y100274D01*
X68190Y100357D01*
Y100450D01*
X68199Y100524D01*
Y100579D01*
Y100616D01*
Y100635D01*
Y102355D01*
X68208Y102476D01*
X68217Y102596D01*
X68236Y102698D01*
X68264Y102781D01*
X68291Y102855D01*
X68310Y102910D01*
X68319Y102947D01*
X68328Y102957D01*
X68384Y103049D01*
X68440Y103142D01*
X68495Y103216D01*
X68560Y103280D01*
X68606Y103327D01*
X68652Y103373D01*
X68680Y103391D01*
X68689Y103401D01*
X68874Y103512D01*
X68967Y103558D01*
X69050Y103595D01*
X69124Y103623D01*
X69179Y103641D01*
X69217Y103660D01*
X69235D01*
X69466Y103715D01*
X69586Y103734D01*
X69688Y103743D01*
X69781Y103752D01*
X70058D01*
X70188Y103734D01*
D02*
G37*
G36*
X102516Y103678D02*
X103432D01*
Y102920D01*
X102516D01*
Y101098D01*
X102507Y100959D01*
X102498Y100829D01*
X102480Y100709D01*
X102461Y100616D01*
X102443Y100533D01*
X102433Y100478D01*
X102415Y100431D01*
Y100422D01*
X102368Y100320D01*
X102322Y100228D01*
X102276Y100145D01*
X102230Y100080D01*
X102193Y100024D01*
X102156Y99988D01*
X102137Y99960D01*
X102128Y99950D01*
X101971Y99839D01*
X101823Y99756D01*
X101758Y99728D01*
X101712Y99710D01*
X101675Y99691D01*
X101665D01*
X101462Y99645D01*
X101360Y99627D01*
X101268Y99617D01*
X101184D01*
X101120Y99608D01*
X100944D01*
X100833Y99617D01*
X100787D01*
X100750Y99627D01*
X100722D01*
X100593Y99645D01*
X100491Y99654D01*
X100444Y99664D01*
X100417Y99673D01*
X100389D01*
X100269Y99691D01*
X100167Y99710D01*
X100130Y99719D01*
X100102Y99728D01*
X100084Y99738D01*
X100075D01*
X99973Y99775D01*
X99889Y99812D01*
X99843Y99839D01*
X99825Y99849D01*
X99927Y100552D01*
X99982Y100542D01*
X100038Y100524D01*
X100075Y100515D01*
X100093D01*
X100167Y100505D01*
X100232Y100487D01*
X100287Y100478D01*
X100306D01*
X100389Y100468D01*
X100463Y100459D01*
X100528Y100450D01*
X100546D01*
X100629Y100441D01*
X100777D01*
X100898Y100450D01*
X100990Y100459D01*
X101027Y100468D01*
X101046D01*
X101064Y100478D01*
X101074D01*
X101166Y100515D01*
X101231Y100552D01*
X101277Y100589D01*
X101295Y100598D01*
X101360Y100672D01*
X101407Y100755D01*
X101434Y100811D01*
X101444Y100829D01*
Y100838D01*
X101471Y100959D01*
X101480Y101079D01*
X101490Y101125D01*
Y101162D01*
Y101190D01*
Y101199D01*
Y102920D01*
X100001D01*
Y103678D01*
X101490D01*
Y104659D01*
X102516D01*
Y103678D01*
D02*
G37*
G36*
X106244Y103743D02*
X106392Y103725D01*
X106522Y103706D01*
X106642Y103678D01*
X106735Y103641D01*
X106808Y103623D01*
X106855Y103604D01*
X106873Y103595D01*
X107003Y103530D01*
X107114Y103465D01*
X107225Y103392D01*
X107308Y103327D01*
X107382Y103262D01*
X107438Y103216D01*
X107475Y103179D01*
X107484Y103170D01*
X107576Y103068D01*
X107659Y102957D01*
X107724Y102846D01*
X107780Y102744D01*
X107826Y102661D01*
X107863Y102587D01*
X107881Y102541D01*
X107891Y102522D01*
X107937Y102374D01*
X107974Y102235D01*
X107992Y102096D01*
X108011Y101967D01*
X108020Y101856D01*
X108029Y101763D01*
Y101708D01*
Y101699D01*
Y101689D01*
Y101541D01*
X108020Y101393D01*
X108002Y101255D01*
X107983Y101125D01*
X107956Y101014D01*
X107928Y100912D01*
X107900Y100848D01*
X107891Y100801D01*
X107881Y100783D01*
X107817Y100653D01*
X107752Y100542D01*
X107687Y100431D01*
X107613Y100339D01*
X107558Y100265D01*
X107511Y100209D01*
X107475Y100172D01*
X107465Y100163D01*
X107363Y100071D01*
X107253Y99988D01*
X107141Y99923D01*
X107040Y99867D01*
X106947Y99821D01*
X106883Y99784D01*
X106836Y99765D01*
X106818Y99756D01*
X106670Y99710D01*
X106522Y99673D01*
X106383Y99645D01*
X106254Y99627D01*
X106142Y99617D01*
X106050Y99608D01*
X105976D01*
X105763Y99617D01*
X105671Y99627D01*
X105587Y99645D01*
X105523Y99654D01*
X105476Y99664D01*
X105439Y99673D01*
X105430D01*
X105245Y99719D01*
X105171Y99747D01*
X105097Y99775D01*
X105042Y99793D01*
X105005Y99812D01*
X104977Y99830D01*
X104968D01*
X104820Y99914D01*
X104764Y99950D01*
X104709Y99988D01*
X104663Y100015D01*
X104635Y100043D01*
X104616Y100052D01*
X104607Y100062D01*
X104496Y100154D01*
X104422Y100247D01*
X104385Y100284D01*
X104367Y100302D01*
X104348Y100320D01*
Y100330D01*
X104866Y100885D01*
X104931Y100811D01*
X104996Y100746D01*
X105051Y100700D01*
X105060Y100681D01*
X105069D01*
X105162Y100626D01*
X105245Y100579D01*
X105282Y100561D01*
X105301Y100552D01*
X105319Y100542D01*
X105329D01*
X105430Y100505D01*
X105523Y100478D01*
X105560Y100468D01*
X105587D01*
X105606Y100459D01*
X105615D01*
X105726Y100441D01*
X105819Y100431D01*
X105911D01*
X106069Y100441D01*
X106133Y100450D01*
X106198Y100468D01*
X106244Y100478D01*
X106281Y100487D01*
X106309Y100496D01*
X106318D01*
X106439Y100552D01*
X106540Y100616D01*
X106577Y100644D01*
X106605Y100663D01*
X106623Y100672D01*
X106633Y100681D01*
X106725Y100774D01*
X106799Y100866D01*
X106827Y100912D01*
X106845Y100940D01*
X106864Y100959D01*
Y100968D01*
X106920Y101098D01*
X106957Y101227D01*
X106966Y101273D01*
X106975Y101310D01*
X106984Y101338D01*
Y101347D01*
X104265D01*
Y101782D01*
X104274Y101948D01*
X104283Y102096D01*
X104302Y102235D01*
X104330Y102355D01*
X104357Y102448D01*
X104376Y102522D01*
X104385Y102568D01*
X104394Y102587D01*
X104440Y102716D01*
X104505Y102836D01*
X104561Y102938D01*
X104616Y103031D01*
X104672Y103105D01*
X104718Y103160D01*
X104746Y103197D01*
X104755Y103206D01*
X104848Y103299D01*
X104940Y103382D01*
X105042Y103447D01*
X105125Y103502D01*
X105208Y103549D01*
X105273Y103576D01*
X105310Y103595D01*
X105329Y103604D01*
X105458Y103650D01*
X105587Y103687D01*
X105717Y103715D01*
X105837Y103734D01*
X105939Y103743D01*
X106022Y103752D01*
X106096D01*
X106244Y103743D01*
D02*
G37*
G36*
X78994Y103743D02*
X79142Y103724D01*
X79271Y103706D01*
X79391Y103678D01*
X79484Y103641D01*
X79558Y103623D01*
X79604Y103604D01*
X79623Y103595D01*
X79752Y103530D01*
X79863Y103465D01*
X79974Y103391D01*
X80058Y103327D01*
X80132Y103262D01*
X80187Y103216D01*
X80224Y103179D01*
X80233Y103169D01*
X80326Y103068D01*
X80409Y102957D01*
X80474Y102846D01*
X80529Y102744D01*
X80576Y102661D01*
X80612Y102587D01*
X80631Y102540D01*
X80640Y102522D01*
X80686Y102374D01*
X80724Y102235D01*
X80742Y102096D01*
X80761Y101967D01*
X80770Y101856D01*
X80779Y101763D01*
Y101708D01*
Y101699D01*
Y101689D01*
Y101541D01*
X80770Y101393D01*
X80751Y101255D01*
X80733Y101125D01*
X80705Y101014D01*
X80677Y100912D01*
X80650Y100848D01*
X80640Y100801D01*
X80631Y100783D01*
X80566Y100653D01*
X80502Y100542D01*
X80437Y100431D01*
X80363Y100339D01*
X80307Y100265D01*
X80261Y100209D01*
X80224Y100172D01*
X80215Y100163D01*
X80113Y100071D01*
X80002Y99987D01*
X79891Y99923D01*
X79789Y99867D01*
X79697Y99821D01*
X79632Y99784D01*
X79586Y99765D01*
X79567Y99756D01*
X79419Y99710D01*
X79271Y99673D01*
X79132Y99645D01*
X79003Y99627D01*
X78892Y99617D01*
X78799Y99608D01*
X78725D01*
X78513Y99617D01*
X78420Y99627D01*
X78337Y99645D01*
X78272Y99654D01*
X78226Y99664D01*
X78189Y99673D01*
X78180D01*
X77995Y99719D01*
X77921Y99747D01*
X77847Y99775D01*
X77791Y99793D01*
X77754Y99812D01*
X77727Y99830D01*
X77717D01*
X77569Y99913D01*
X77514Y99950D01*
X77458Y99987D01*
X77412Y100015D01*
X77384Y100043D01*
X77366Y100052D01*
X77356Y100061D01*
X77245Y100154D01*
X77171Y100246D01*
X77135Y100283D01*
X77116Y100302D01*
X77097Y100320D01*
Y100330D01*
X77615Y100885D01*
X77680Y100811D01*
X77745Y100746D01*
X77801Y100700D01*
X77810Y100681D01*
X77819D01*
X77912Y100626D01*
X77995Y100579D01*
X78032Y100561D01*
X78050Y100552D01*
X78069Y100542D01*
X78078D01*
X78180Y100505D01*
X78272Y100478D01*
X78309Y100468D01*
X78337D01*
X78355Y100459D01*
X78365D01*
X78476Y100441D01*
X78568Y100431D01*
X78661D01*
X78818Y100441D01*
X78883Y100450D01*
X78948Y100468D01*
X78994Y100478D01*
X79031Y100487D01*
X79058Y100496D01*
X79068D01*
X79188Y100552D01*
X79290Y100616D01*
X79327Y100644D01*
X79355Y100663D01*
X79373Y100672D01*
X79382Y100681D01*
X79475Y100774D01*
X79549Y100866D01*
X79576Y100912D01*
X79595Y100940D01*
X79614Y100959D01*
Y100968D01*
X79669Y101097D01*
X79706Y101227D01*
X79715Y101273D01*
X79725Y101310D01*
X79734Y101338D01*
Y101347D01*
X77014D01*
Y101782D01*
X77024Y101948D01*
X77033Y102096D01*
X77051Y102235D01*
X77079Y102355D01*
X77107Y102448D01*
X77125Y102522D01*
X77135Y102568D01*
X77144Y102587D01*
X77190Y102716D01*
X77255Y102836D01*
X77310Y102938D01*
X77366Y103031D01*
X77421Y103105D01*
X77468Y103160D01*
X77495Y103197D01*
X77504Y103206D01*
X77597Y103299D01*
X77689Y103382D01*
X77791Y103447D01*
X77874Y103502D01*
X77958Y103549D01*
X78022Y103576D01*
X78060Y103595D01*
X78078Y103604D01*
X78207Y103650D01*
X78337Y103687D01*
X78466Y103715D01*
X78587Y103734D01*
X78689Y103743D01*
X78772Y103752D01*
X78846D01*
X78994Y103743D01*
D02*
G37*
G36*
X92240D02*
X92360Y103724D01*
X92480Y103697D01*
X92573Y103669D01*
X92656Y103641D01*
X92721Y103613D01*
X92758Y103595D01*
X92776Y103586D01*
X92887Y103521D01*
X92989Y103447D01*
X93081Y103373D01*
X93155Y103299D01*
X93220Y103225D01*
X93266Y103169D01*
X93294Y103132D01*
X93304Y103123D01*
X93359Y103678D01*
X94293D01*
Y99682D01*
X93266D01*
Y102522D01*
X93165Y102642D01*
X93072Y102735D01*
X93026Y102762D01*
X92989Y102790D01*
X92971Y102809D01*
X92961D01*
X92887Y102846D01*
X92813Y102873D01*
X92665Y102910D01*
X92610D01*
X92563Y102920D01*
X92517D01*
X92397Y102910D01*
X92295Y102901D01*
X92258Y102892D01*
X92230D01*
X92212Y102883D01*
X92203D01*
X92101Y102846D01*
X92027Y102809D01*
X91981Y102772D01*
X91962Y102753D01*
X91897Y102679D01*
X91842Y102605D01*
X91824Y102568D01*
X91814Y102540D01*
X91805Y102522D01*
Y102513D01*
X91768Y102392D01*
X91759Y102263D01*
X91750Y102207D01*
Y102161D01*
Y102133D01*
Y102124D01*
Y99682D01*
X90723D01*
Y102143D01*
Y102300D01*
X90741Y102439D01*
X90750Y102568D01*
X90769Y102679D01*
X90788Y102762D01*
X90806Y102827D01*
X90815Y102873D01*
X90825Y102883D01*
X90861Y102994D01*
X90908Y103086D01*
X90963Y103179D01*
X91009Y103243D01*
X91047Y103308D01*
X91084Y103345D01*
X91102Y103373D01*
X91111Y103382D01*
X91176Y103447D01*
X91250Y103512D01*
X91324Y103558D01*
X91398Y103595D01*
X91453Y103623D01*
X91500Y103641D01*
X91537Y103660D01*
X91546D01*
X91740Y103715D01*
X91833Y103734D01*
X91916Y103743D01*
X91990Y103752D01*
X92101D01*
X92240Y103743D01*
D02*
G37*
G36*
X85274Y99682D02*
X83822D01*
X83637Y99691D01*
X83461Y99710D01*
X83304Y99738D01*
X83166Y99775D01*
X83045Y99802D01*
X82962Y99830D01*
X82907Y99849D01*
X82888Y99858D01*
X82731Y99932D01*
X82592Y100015D01*
X82472Y100098D01*
X82361Y100182D01*
X82278Y100256D01*
X82213Y100311D01*
X82166Y100348D01*
X82157Y100367D01*
X82046Y100496D01*
X81954Y100626D01*
X81871Y100755D01*
X81806Y100875D01*
X81750Y100986D01*
X81713Y101070D01*
X81695Y101125D01*
X81686Y101134D01*
Y101144D01*
X81630Y101319D01*
X81593Y101495D01*
X81556Y101662D01*
X81537Y101810D01*
X81528Y101948D01*
X81519Y102050D01*
Y102087D01*
Y102115D01*
Y102133D01*
Y102143D01*
Y102587D01*
X81528Y102790D01*
X81547Y102975D01*
X81574Y103142D01*
X81602Y103290D01*
X81630Y103410D01*
X81658Y103502D01*
X81667Y103539D01*
X81676Y103567D01*
X81686Y103576D01*
Y103586D01*
X81750Y103752D01*
X81833Y103900D01*
X81907Y104030D01*
X81991Y104141D01*
X82055Y104233D01*
X82111Y104307D01*
X82148Y104344D01*
X82166Y104363D01*
X82287Y104483D01*
X82407Y104585D01*
X82537Y104677D01*
X82648Y104751D01*
X82749Y104807D01*
X82832Y104844D01*
X82888Y104871D01*
X82897Y104881D01*
X82907D01*
X83073Y104945D01*
X83240Y104992D01*
X83406Y105019D01*
X83554Y105047D01*
X83684Y105056D01*
X83785Y105066D01*
X85274D01*
Y99682D01*
D02*
G37*
G36*
X66774Y102836D02*
X65627D01*
Y100515D01*
X66774D01*
Y99682D01*
X63509D01*
Y100515D01*
X64591D01*
Y103678D01*
X66774D01*
Y102836D01*
D02*
G37*
G36*
X74628Y103734D02*
X74757Y103724D01*
X74859Y103706D01*
X74951Y103687D01*
X75016Y103669D01*
X75053Y103660D01*
X75072Y103650D01*
X75183Y103613D01*
X75284Y103567D01*
X75377Y103521D01*
X75460Y103484D01*
X75525Y103447D01*
X75571Y103410D01*
X75599Y103391D01*
X75608Y103382D01*
X75682Y103317D01*
X75756Y103253D01*
X75812Y103188D01*
X75858Y103123D01*
X75904Y103068D01*
X75932Y103021D01*
X75941Y102994D01*
X75950Y102984D01*
X75987Y102901D01*
X76015Y102818D01*
X76043Y102735D01*
X76052Y102670D01*
X76061Y102605D01*
X76071Y102559D01*
Y102522D01*
Y102513D01*
X76061Y102420D01*
X76052Y102337D01*
X76034Y102263D01*
X76015Y102189D01*
X75997Y102133D01*
X75978Y102096D01*
X75960Y102069D01*
Y102059D01*
X75858Y101921D01*
X75756Y101819D01*
X75710Y101773D01*
X75673Y101745D01*
X75645Y101726D01*
X75636Y101717D01*
X75469Y101615D01*
X75386Y101569D01*
X75303Y101532D01*
X75238Y101504D01*
X75183Y101477D01*
X75146Y101467D01*
X75137Y101458D01*
X74914Y101384D01*
X74804Y101356D01*
X74702Y101329D01*
X74619Y101310D01*
X74545Y101292D01*
X74507Y101282D01*
X74489D01*
X74387Y101264D01*
X74304Y101245D01*
X74221Y101227D01*
X74156Y101218D01*
X74110Y101199D01*
X74063Y101190D01*
X74045Y101181D01*
X74036D01*
X73915Y101144D01*
X73814Y101107D01*
X73786Y101097D01*
X73758Y101079D01*
X73749Y101070D01*
X73740D01*
X73666Y101023D01*
X73620Y100977D01*
X73601Y100940D01*
X73592Y100931D01*
X73564Y100875D01*
X73555Y100829D01*
X73545Y100792D01*
Y100774D01*
X73555Y100709D01*
X73573Y100644D01*
X73610Y100589D01*
X73647Y100542D01*
X73684Y100505D01*
X73721Y100478D01*
X73740Y100468D01*
X73749Y100459D01*
X73832Y100422D01*
X73925Y100394D01*
X74110Y100357D01*
X74193Y100348D01*
X74258Y100339D01*
X74322D01*
X74443Y100348D01*
X74545Y100357D01*
X74591D01*
X74619Y100367D01*
X74646D01*
X74757Y100404D01*
X74850Y100441D01*
X74887Y100450D01*
X74914Y100468D01*
X74924Y100478D01*
X74933D01*
X75016Y100542D01*
X75081Y100598D01*
X75118Y100644D01*
X75137Y100663D01*
X75183Y100755D01*
X75201Y100848D01*
X75210Y100894D01*
X75220Y100922D01*
Y100940D01*
Y100949D01*
X76200D01*
X76191Y100857D01*
X76182Y100764D01*
X76163Y100681D01*
X76135Y100607D01*
X76117Y100552D01*
X76099Y100505D01*
X76089Y100468D01*
X76080Y100459D01*
X76034Y100376D01*
X75978Y100293D01*
X75914Y100219D01*
X75858Y100154D01*
X75812Y100098D01*
X75766Y100061D01*
X75738Y100034D01*
X75728Y100024D01*
X75636Y99960D01*
X75534Y99895D01*
X75442Y99849D01*
X75349Y99802D01*
X75266Y99765D01*
X75201Y99738D01*
X75164Y99728D01*
X75146Y99719D01*
X75016Y99682D01*
X74878Y99654D01*
X74739Y99636D01*
X74619Y99627D01*
X74507Y99617D01*
X74424Y99608D01*
X74202D01*
X74054Y99617D01*
X73934Y99636D01*
X73823Y99654D01*
X73730Y99664D01*
X73656Y99682D01*
X73620Y99691D01*
X73601D01*
X73481Y99728D01*
X73370Y99765D01*
X73277Y99812D01*
X73194Y99849D01*
X73129Y99886D01*
X73074Y99913D01*
X73046Y99932D01*
X73037Y99941D01*
X72953Y100006D01*
X72879Y100071D01*
X72824Y100135D01*
X72768Y100200D01*
X72732Y100246D01*
X72704Y100293D01*
X72685Y100320D01*
X72676Y100330D01*
X72630Y100413D01*
X72602Y100496D01*
X72574Y100579D01*
X72565Y100663D01*
X72556Y100727D01*
X72546Y100774D01*
Y100811D01*
Y100820D01*
X72556Y100922D01*
X72565Y101014D01*
X72584Y101097D01*
X72611Y101171D01*
X72639Y101227D01*
X72658Y101273D01*
X72667Y101301D01*
X72676Y101310D01*
X72787Y101458D01*
X72843Y101514D01*
X72898Y101569D01*
X72953Y101615D01*
X72991Y101643D01*
X73018Y101662D01*
X73027Y101671D01*
X73203Y101773D01*
X73296Y101810D01*
X73379Y101847D01*
X73453Y101874D01*
X73509Y101893D01*
X73545Y101911D01*
X73564D01*
X73804Y101976D01*
X73915Y101995D01*
X74017Y102022D01*
X74110Y102041D01*
X74174Y102050D01*
X74221Y102059D01*
X74239D01*
X74332Y102078D01*
X74406Y102087D01*
X74480Y102106D01*
X74545Y102115D01*
X74591Y102124D01*
X74628Y102133D01*
X74646Y102143D01*
X74655D01*
X74766Y102180D01*
X74840Y102217D01*
X74896Y102244D01*
X74905Y102254D01*
X74914D01*
X74970Y102300D01*
X75016Y102346D01*
X75035Y102383D01*
X75044Y102392D01*
X75063Y102457D01*
X75072Y102503D01*
X75081Y102540D01*
Y102559D01*
X75072Y102633D01*
X75053Y102688D01*
X74989Y102790D01*
X74951Y102827D01*
X74924Y102864D01*
X74905Y102873D01*
X74896Y102883D01*
X74822Y102929D01*
X74730Y102957D01*
X74554Y102994D01*
X74471Y103003D01*
X74406Y103012D01*
X74350D01*
X74221Y103003D01*
X74101Y102984D01*
X74008Y102966D01*
X73925Y102938D01*
X73860Y102901D01*
X73823Y102883D01*
X73795Y102864D01*
X73786Y102855D01*
X73721Y102790D01*
X73675Y102725D01*
X73638Y102661D01*
X73620Y102605D01*
X73601Y102550D01*
X73592Y102503D01*
Y102476D01*
Y102466D01*
X72565D01*
X72574Y102568D01*
X72584Y102661D01*
X72602Y102753D01*
X72620Y102827D01*
X72648Y102892D01*
X72667Y102938D01*
X72676Y102966D01*
X72685Y102975D01*
X72732Y103058D01*
X72787Y103142D01*
X72852Y103206D01*
X72907Y103271D01*
X72953Y103317D01*
X73000Y103354D01*
X73027Y103373D01*
X73037Y103382D01*
X73129Y103447D01*
X73222Y103502D01*
X73314Y103549D01*
X73407Y103586D01*
X73481Y103613D01*
X73545Y103632D01*
X73583Y103650D01*
X73601D01*
X73730Y103687D01*
X73860Y103706D01*
X73980Y103724D01*
X74101Y103743D01*
X74202D01*
X74276Y103752D01*
X74498D01*
X74628Y103734D01*
D02*
G37*
G36*
X79142Y98522D02*
X79290Y98513D01*
X79428Y98485D01*
X79540Y98467D01*
X79632Y98439D01*
X79706Y98411D01*
X79752Y98402D01*
X79771Y98393D01*
X79900Y98337D01*
X80011Y98273D01*
X80113Y98208D01*
X80206Y98152D01*
X80270Y98097D01*
X80326Y98050D01*
X80363Y98023D01*
X80372Y98014D01*
X80465Y97921D01*
X80538Y97829D01*
X80603Y97727D01*
X80659Y97644D01*
X80705Y97560D01*
X80733Y97505D01*
X80751Y97468D01*
X80761Y97449D01*
X80807Y97329D01*
X80835Y97209D01*
X80862Y97098D01*
X80871Y96996D01*
X80881Y96904D01*
X80890Y96839D01*
Y96793D01*
Y96774D01*
X79863D01*
X79854Y96922D01*
X79835Y97061D01*
X79799Y97172D01*
X79761Y97264D01*
X79725Y97338D01*
X79688Y97385D01*
X79669Y97421D01*
X79660Y97431D01*
X79567Y97514D01*
X79466Y97570D01*
X79364Y97616D01*
X79262Y97644D01*
X79169Y97662D01*
X79096Y97671D01*
X79022D01*
X78910Y97662D01*
X78818Y97644D01*
X78781Y97634D01*
X78753Y97625D01*
X78744Y97616D01*
X78735D01*
X78642Y97570D01*
X78568Y97523D01*
X78522Y97486D01*
X78504Y97477D01*
Y97468D01*
X78439Y97394D01*
X78402Y97311D01*
X78374Y97255D01*
X78365Y97237D01*
Y97227D01*
X78328Y97116D01*
X78319Y97014D01*
X78309Y96978D01*
Y96940D01*
Y96922D01*
Y96913D01*
X78319Y96820D01*
X78328Y96737D01*
X78337Y96672D01*
X78346Y96663D01*
Y96654D01*
X78383Y96552D01*
X78420Y96469D01*
X78448Y96432D01*
X78457Y96404D01*
X78476Y96386D01*
Y96376D01*
X78550Y96265D01*
X78614Y96154D01*
X78651Y96108D01*
X78670Y96071D01*
X78689Y96052D01*
X78698Y96043D01*
X78809Y95904D01*
X78920Y95775D01*
X78966Y95729D01*
X79003Y95683D01*
X79031Y95655D01*
X79040Y95645D01*
X80788Y93768D01*
Y93074D01*
X77107D01*
Y93897D01*
X79475D01*
X78457Y94970D01*
X78272Y95165D01*
X78198Y95248D01*
X78124Y95322D01*
X78069Y95386D01*
X78022Y95442D01*
X77995Y95470D01*
X77986Y95479D01*
X77838Y95664D01*
X77773Y95738D01*
X77717Y95812D01*
X77680Y95877D01*
X77643Y95923D01*
X77625Y95951D01*
X77615Y95960D01*
X77514Y96136D01*
X77468Y96219D01*
X77440Y96293D01*
X77412Y96349D01*
X77394Y96404D01*
X77375Y96432D01*
Y96441D01*
X77329Y96626D01*
X77310Y96709D01*
X77301Y96793D01*
X77292Y96857D01*
Y96904D01*
Y96940D01*
Y96950D01*
Y97079D01*
X77310Y97199D01*
X77329Y97311D01*
X77347Y97403D01*
X77366Y97477D01*
X77384Y97542D01*
X77394Y97579D01*
X77403Y97588D01*
X77449Y97699D01*
X77495Y97791D01*
X77551Y97875D01*
X77606Y97949D01*
X77653Y98004D01*
X77689Y98050D01*
X77717Y98078D01*
X77727Y98088D01*
X77810Y98162D01*
X77902Y98226D01*
X77986Y98282D01*
X78078Y98328D01*
X78152Y98365D01*
X78207Y98393D01*
X78245Y98402D01*
X78263Y98411D01*
X78383Y98448D01*
X78504Y98485D01*
X78633Y98504D01*
X78744Y98513D01*
X78837Y98522D01*
X78920Y98532D01*
X78984D01*
X79142Y98522D01*
D02*
G37*
G36*
X70058D02*
X70206Y98513D01*
X70345Y98485D01*
X70456Y98467D01*
X70548Y98439D01*
X70622Y98411D01*
X70669Y98402D01*
X70687Y98393D01*
X70817Y98337D01*
X70928Y98273D01*
X71030Y98208D01*
X71122Y98152D01*
X71187Y98097D01*
X71242Y98050D01*
X71279Y98023D01*
X71289Y98014D01*
X71381Y97921D01*
X71455Y97829D01*
X71520Y97727D01*
X71575Y97644D01*
X71622Y97560D01*
X71649Y97505D01*
X71668Y97468D01*
X71677Y97449D01*
X71723Y97329D01*
X71751Y97209D01*
X71779Y97098D01*
X71788Y96996D01*
X71797Y96904D01*
X71807Y96839D01*
Y96793D01*
Y96774D01*
X70780D01*
X70771Y96922D01*
X70752Y97061D01*
X70715Y97172D01*
X70678Y97264D01*
X70641Y97338D01*
X70604Y97385D01*
X70586Y97421D01*
X70576Y97431D01*
X70484Y97514D01*
X70382Y97570D01*
X70280Y97616D01*
X70179Y97644D01*
X70086Y97662D01*
X70012Y97671D01*
X69938D01*
X69827Y97662D01*
X69735Y97644D01*
X69697Y97634D01*
X69670Y97625D01*
X69661Y97616D01*
X69651D01*
X69559Y97570D01*
X69485Y97523D01*
X69438Y97486D01*
X69420Y97477D01*
Y97468D01*
X69355Y97394D01*
X69318Y97311D01*
X69291Y97255D01*
X69281Y97237D01*
Y97227D01*
X69244Y97116D01*
X69235Y97014D01*
X69226Y96978D01*
Y96940D01*
Y96922D01*
Y96913D01*
X69235Y96820D01*
X69244Y96737D01*
X69253Y96672D01*
X69263Y96663D01*
Y96654D01*
X69300Y96552D01*
X69337Y96469D01*
X69365Y96432D01*
X69374Y96404D01*
X69392Y96386D01*
Y96376D01*
X69466Y96265D01*
X69531Y96154D01*
X69568Y96108D01*
X69586Y96071D01*
X69605Y96052D01*
X69614Y96043D01*
X69725Y95904D01*
X69836Y95775D01*
X69883Y95729D01*
X69920Y95683D01*
X69947Y95655D01*
X69956Y95645D01*
X71705Y93768D01*
Y93074D01*
X68023D01*
Y93897D01*
X70391D01*
X69374Y94970D01*
X69189Y95165D01*
X69115Y95248D01*
X69041Y95322D01*
X68985Y95386D01*
X68939Y95442D01*
X68911Y95470D01*
X68902Y95479D01*
X68754Y95664D01*
X68689Y95738D01*
X68634Y95812D01*
X68597Y95877D01*
X68560Y95923D01*
X68541Y95951D01*
X68532Y95960D01*
X68430Y96136D01*
X68384Y96219D01*
X68356Y96293D01*
X68328Y96349D01*
X68310Y96404D01*
X68291Y96432D01*
Y96441D01*
X68245Y96626D01*
X68227Y96709D01*
X68217Y96793D01*
X68208Y96857D01*
Y96904D01*
Y96940D01*
Y96950D01*
Y97079D01*
X68227Y97199D01*
X68245Y97311D01*
X68264Y97403D01*
X68282Y97477D01*
X68301Y97542D01*
X68310Y97579D01*
X68319Y97588D01*
X68366Y97699D01*
X68412Y97791D01*
X68467Y97875D01*
X68523Y97949D01*
X68569Y98004D01*
X68606Y98050D01*
X68634Y98078D01*
X68643Y98088D01*
X68726Y98162D01*
X68819Y98226D01*
X68902Y98282D01*
X68994Y98328D01*
X69068Y98365D01*
X69124Y98393D01*
X69161Y98402D01*
X69179Y98411D01*
X69300Y98448D01*
X69420Y98485D01*
X69550Y98504D01*
X69661Y98513D01*
X69753Y98522D01*
X69836Y98532D01*
X69901D01*
X70058Y98522D01*
D02*
G37*
G36*
X74489D02*
X74628Y98513D01*
X74748Y98485D01*
X74859Y98467D01*
X74951Y98439D01*
X75016Y98411D01*
X75053Y98402D01*
X75072Y98393D01*
X75192Y98337D01*
X75294Y98273D01*
X75386Y98208D01*
X75469Y98143D01*
X75534Y98088D01*
X75590Y98041D01*
X75617Y98004D01*
X75627Y97995D01*
X75701Y97893D01*
X75775Y97782D01*
X75830Y97671D01*
X75876Y97560D01*
X75923Y97468D01*
X75950Y97394D01*
X75960Y97347D01*
X75969Y97338D01*
Y97329D01*
X76006Y97172D01*
X76034Y97014D01*
X76061Y96857D01*
X76071Y96719D01*
X76080Y96589D01*
X76089Y96496D01*
Y96460D01*
Y96432D01*
Y96413D01*
Y96404D01*
Y95118D01*
X76080Y94933D01*
X76071Y94757D01*
X76052Y94600D01*
X76025Y94471D01*
X76006Y94360D01*
X75987Y94276D01*
X75978Y94221D01*
X75969Y94212D01*
Y94203D01*
X75914Y94064D01*
X75858Y93934D01*
X75802Y93814D01*
X75747Y93721D01*
X75691Y93638D01*
X75655Y93583D01*
X75627Y93546D01*
X75617Y93537D01*
X75525Y93444D01*
X75432Y93361D01*
X75340Y93287D01*
X75257Y93231D01*
X75173Y93185D01*
X75118Y93157D01*
X75081Y93139D01*
X75063Y93129D01*
X74942Y93083D01*
X74813Y93055D01*
X74692Y93028D01*
X74572Y93019D01*
X74480Y93009D01*
X74397Y93000D01*
X74332D01*
X74184Y93009D01*
X74045Y93019D01*
X73925Y93037D01*
X73814Y93065D01*
X73721Y93093D01*
X73656Y93111D01*
X73620Y93120D01*
X73601Y93129D01*
X73481Y93185D01*
X73379Y93250D01*
X73286Y93324D01*
X73203Y93388D01*
X73138Y93444D01*
X73092Y93490D01*
X73065Y93527D01*
X73055Y93537D01*
X72972Y93638D01*
X72898Y93758D01*
X72843Y93870D01*
X72796Y93971D01*
X72750Y94064D01*
X72722Y94138D01*
X72713Y94184D01*
X72704Y94203D01*
X72667Y94360D01*
X72630Y94517D01*
X72611Y94665D01*
X72602Y94813D01*
X72593Y94933D01*
X72584Y95035D01*
Y95072D01*
Y95100D01*
Y95109D01*
Y95118D01*
Y96404D01*
X72593Y96598D01*
X72602Y96774D01*
X72620Y96931D01*
X72639Y97061D01*
X72667Y97172D01*
X72685Y97255D01*
X72694Y97311D01*
X72704Y97329D01*
X72750Y97468D01*
X72806Y97597D01*
X72870Y97717D01*
X72926Y97810D01*
X72972Y97893D01*
X73018Y97949D01*
X73046Y97986D01*
X73055Y97995D01*
X73148Y98088D01*
X73240Y98171D01*
X73333Y98235D01*
X73416Y98291D01*
X73499Y98337D01*
X73555Y98365D01*
X73592Y98383D01*
X73610Y98393D01*
X73730Y98439D01*
X73860Y98476D01*
X73980Y98494D01*
X74101Y98513D01*
X74193Y98522D01*
X74276Y98532D01*
X74341D01*
X74489Y98522D01*
D02*
G37*
G36*
X65405D02*
X65544Y98513D01*
X65664Y98485D01*
X65776Y98467D01*
X65868Y98439D01*
X65933Y98411D01*
X65970Y98402D01*
X65988Y98393D01*
X66109Y98337D01*
X66210Y98273D01*
X66303Y98208D01*
X66386Y98143D01*
X66451Y98088D01*
X66506Y98041D01*
X66534Y98004D01*
X66543Y97995D01*
X66617Y97893D01*
X66691Y97782D01*
X66747Y97671D01*
X66793Y97560D01*
X66839Y97468D01*
X66867Y97394D01*
X66876Y97347D01*
X66886Y97338D01*
Y97329D01*
X66922Y97172D01*
X66950Y97014D01*
X66978Y96857D01*
X66987Y96719D01*
X66997Y96589D01*
X67006Y96496D01*
Y96460D01*
Y96432D01*
Y96413D01*
Y96404D01*
Y95118D01*
X66997Y94933D01*
X66987Y94757D01*
X66969Y94600D01*
X66941Y94471D01*
X66922Y94360D01*
X66904Y94276D01*
X66895Y94221D01*
X66886Y94212D01*
Y94203D01*
X66830Y94064D01*
X66774Y93934D01*
X66719Y93814D01*
X66663Y93721D01*
X66608Y93638D01*
X66571Y93583D01*
X66543Y93546D01*
X66534Y93537D01*
X66442Y93444D01*
X66349Y93361D01*
X66256Y93287D01*
X66173Y93231D01*
X66090Y93185D01*
X66035Y93157D01*
X65997Y93139D01*
X65979Y93129D01*
X65859Y93083D01*
X65729Y93055D01*
X65609Y93028D01*
X65489Y93019D01*
X65396Y93009D01*
X65313Y93000D01*
X65248D01*
X65100Y93009D01*
X64961Y93019D01*
X64841Y93037D01*
X64730Y93065D01*
X64638Y93093D01*
X64573Y93111D01*
X64536Y93120D01*
X64517Y93129D01*
X64397Y93185D01*
X64296Y93250D01*
X64203Y93324D01*
X64120Y93388D01*
X64055Y93444D01*
X64009Y93490D01*
X63981Y93527D01*
X63972Y93537D01*
X63889Y93638D01*
X63815Y93758D01*
X63759Y93870D01*
X63713Y93971D01*
X63666Y94064D01*
X63639Y94138D01*
X63630Y94184D01*
X63620Y94203D01*
X63583Y94360D01*
X63546Y94517D01*
X63528Y94665D01*
X63519Y94813D01*
X63509Y94933D01*
X63500Y95035D01*
Y95072D01*
Y95100D01*
Y95109D01*
Y95118D01*
Y96404D01*
X63509Y96598D01*
X63519Y96774D01*
X63537Y96931D01*
X63556Y97061D01*
X63583Y97172D01*
X63602Y97255D01*
X63611Y97311D01*
X63620Y97329D01*
X63666Y97468D01*
X63722Y97597D01*
X63787Y97717D01*
X63842Y97810D01*
X63889Y97893D01*
X63935Y97949D01*
X63963Y97986D01*
X63972Y97995D01*
X64064Y98088D01*
X64157Y98171D01*
X64249Y98235D01*
X64332Y98291D01*
X64416Y98337D01*
X64471Y98365D01*
X64508Y98383D01*
X64527Y98393D01*
X64647Y98439D01*
X64776Y98476D01*
X64897Y98494D01*
X65017Y98513D01*
X65109Y98522D01*
X65193Y98532D01*
X65258D01*
X65405Y98522D01*
D02*
G37*
G36*
X280979Y23352D02*
X281053Y23342D01*
X281108Y23324D01*
X281118Y23315D01*
X281127D01*
X281201Y23278D01*
X281256Y23250D01*
X281293Y23213D01*
X281312Y23204D01*
X281358Y23148D01*
X281395Y23093D01*
X281423Y23056D01*
X281432Y23046D01*
Y23037D01*
X281451Y22963D01*
X281460Y22889D01*
X281469Y22834D01*
Y22824D01*
Y22815D01*
X281460Y22732D01*
X281451Y22658D01*
X281441Y22612D01*
X281432Y22602D01*
Y22593D01*
X281395Y22519D01*
X281358Y22464D01*
X281321Y22427D01*
X281312Y22417D01*
X281247Y22371D01*
X281192Y22334D01*
X281145Y22316D01*
X281127Y22306D01*
X281044Y22288D01*
X280960Y22279D01*
X280896Y22269D01*
X280877D01*
X280785Y22279D01*
X280701Y22297D01*
X280627Y22316D01*
X280563Y22343D01*
X280516Y22371D01*
X280479Y22399D01*
X280461Y22408D01*
X280452Y22417D01*
X280396Y22482D01*
X280359Y22547D01*
X280322Y22612D01*
X280304Y22676D01*
X280294Y22732D01*
X280285Y22778D01*
Y22806D01*
Y22815D01*
X280294Y22898D01*
X280313Y22982D01*
X280341Y23046D01*
X280368Y23102D01*
X280396Y23148D01*
X280424Y23176D01*
X280443Y23194D01*
X280452Y23204D01*
X280516Y23259D01*
X280581Y23296D01*
X280655Y23324D01*
X280720Y23342D01*
X280785Y23352D01*
X280831Y23361D01*
X280877D01*
X280979Y23352D01*
D02*
G37*
G36*
X328274Y17792D02*
X327229D01*
Y19374D01*
X326665Y20003D01*
X325333Y17792D01*
X324093D01*
X325971Y20789D01*
X324158Y23176D01*
X325434D01*
X326739Y21363D01*
X327229Y20706D01*
Y23176D01*
X328274D01*
Y17792D01*
D02*
G37*
G36*
X313206Y21844D02*
X313326Y21835D01*
X313437Y21816D01*
X313520Y21798D01*
X313585Y21779D01*
X313622Y21770D01*
X313641Y21761D01*
X313752Y21724D01*
X313854Y21677D01*
X313946Y21631D01*
X314029Y21585D01*
X314094Y21548D01*
X314140Y21511D01*
X314168Y21492D01*
X314177Y21483D01*
X314251Y21418D01*
X314316Y21354D01*
X314371Y21289D01*
X314418Y21224D01*
X314455Y21169D01*
X314482Y21122D01*
X314492Y21095D01*
X314501Y21085D01*
X314538Y21002D01*
X314566Y20910D01*
X314584Y20826D01*
X314593Y20752D01*
X314603Y20688D01*
X314612Y20641D01*
Y20604D01*
Y20595D01*
X313585D01*
X313576Y20678D01*
X313567Y20752D01*
X313539Y20808D01*
X313511Y20863D01*
X313493Y20900D01*
X313465Y20928D01*
X313456Y20947D01*
X313446Y20956D01*
X313382Y21002D01*
X313308Y21039D01*
X313234Y21058D01*
X313160Y21076D01*
X313095Y21085D01*
X313039Y21095D01*
X312984D01*
X312854Y21085D01*
X312743Y21067D01*
X312651Y21039D01*
X312577Y21011D01*
X312512Y20984D01*
X312475Y20956D01*
X312447Y20937D01*
X312438Y20928D01*
X312373Y20863D01*
X312327Y20789D01*
X312290Y20706D01*
X312272Y20632D01*
X312253Y20567D01*
X312244Y20512D01*
Y20475D01*
Y20466D01*
Y20234D01*
X312984Y20234D01*
X313151Y20216D01*
X313299Y20207D01*
X313437Y20179D01*
X313567Y20151D01*
X313678Y20123D01*
X313789Y20096D01*
X313881Y20059D01*
X313964Y20022D01*
X314029Y19994D01*
X314094Y19966D01*
X314140Y19938D01*
X314187Y19920D01*
X314214Y19901D01*
X314224Y19883D01*
X314233D01*
X314316Y19818D01*
X314390Y19744D01*
X314455Y19670D01*
X314501Y19587D01*
X314593Y19430D01*
X314649Y19272D01*
X314677Y19124D01*
X314686Y19069D01*
X314695Y19013D01*
X314704Y18976D01*
Y18939D01*
Y18921D01*
Y18912D01*
X314695Y18819D01*
X314686Y18727D01*
X314668Y18643D01*
X314649Y18579D01*
X314631Y18514D01*
X314621Y18468D01*
X314603Y18440D01*
Y18431D01*
X314510Y18283D01*
X314464Y18218D01*
X314408Y18162D01*
X314371Y18116D01*
X314335Y18079D01*
X314316Y18061D01*
X314307Y18051D01*
X314159Y17950D01*
X314020Y17866D01*
X313964Y17839D01*
X313909Y17820D01*
X313881Y17802D01*
X313872D01*
X313668Y17755D01*
X313576Y17737D01*
X313483Y17728D01*
X313409D01*
X313354Y17718D01*
X313299D01*
X313169Y17728D01*
X313058Y17737D01*
X313012Y17746D01*
X312984D01*
X312965Y17755D01*
X312956D01*
X312836Y17783D01*
X312743Y17820D01*
X312706Y17829D01*
X312679Y17839D01*
X312669Y17848D01*
X312660D01*
X312558Y17894D01*
X312485Y17940D01*
X312429Y17977D01*
X312420Y17987D01*
X312410D01*
X312327Y18051D01*
X312262Y18107D01*
X312226Y18144D01*
X312207Y18162D01*
X312189Y18088D01*
X312179Y18024D01*
X312170Y17977D01*
Y17959D01*
X312152Y17894D01*
X312124Y17839D01*
X312114Y17802D01*
X312105Y17792D01*
X311060D01*
Y17848D01*
X311106Y17968D01*
X311143Y18088D01*
X311162Y18135D01*
X311171Y18172D01*
X311180Y18199D01*
Y18209D01*
X311189Y18292D01*
X311199Y18384D01*
X311208Y18468D01*
Y18560D01*
X311217Y18634D01*
Y18690D01*
Y18727D01*
Y18745D01*
Y20466D01*
X311227Y20586D01*
X311236Y20706D01*
X311254Y20808D01*
X311282Y20891D01*
X311310Y20965D01*
X311328Y21021D01*
X311337Y21058D01*
X311347Y21067D01*
X311402Y21159D01*
X311458Y21252D01*
X311513Y21326D01*
X311578Y21391D01*
X311624Y21437D01*
X311670Y21483D01*
X311698Y21502D01*
X311707Y21511D01*
X311893Y21622D01*
X311985Y21668D01*
X312068Y21705D01*
X312142Y21733D01*
X312198Y21751D01*
X312235Y21770D01*
X312253D01*
X312485Y21825D01*
X312605Y21844D01*
X312706Y21853D01*
X312799Y21862D01*
X313076D01*
X313206Y21844D01*
D02*
G37*
G36*
X285956Y21844D02*
X286076Y21835D01*
X286187Y21816D01*
X286270Y21798D01*
X286335Y21779D01*
X286372Y21770D01*
X286390Y21761D01*
X286501Y21724D01*
X286603Y21677D01*
X286695Y21631D01*
X286779Y21585D01*
X286843Y21548D01*
X286890Y21511D01*
X286917Y21492D01*
X286927Y21483D01*
X287001Y21418D01*
X287066Y21354D01*
X287121Y21289D01*
X287167Y21224D01*
X287204Y21169D01*
X287232Y21122D01*
X287241Y21095D01*
X287250Y21085D01*
X287287Y21002D01*
X287315Y20910D01*
X287334Y20826D01*
X287343Y20752D01*
X287352Y20688D01*
X287362Y20641D01*
Y20604D01*
Y20595D01*
X286335D01*
X286326Y20678D01*
X286316Y20752D01*
X286288Y20808D01*
X286261Y20863D01*
X286242Y20900D01*
X286214Y20928D01*
X286205Y20947D01*
X286196Y20956D01*
X286131Y21002D01*
X286057Y21039D01*
X285983Y21058D01*
X285909Y21076D01*
X285844Y21085D01*
X285789Y21095D01*
X285733D01*
X285604Y21085D01*
X285493Y21067D01*
X285401Y21039D01*
X285327Y21011D01*
X285262Y20984D01*
X285225Y20956D01*
X285197Y20937D01*
X285188Y20928D01*
X285123Y20863D01*
X285077Y20789D01*
X285040Y20706D01*
X285021Y20632D01*
X285003Y20567D01*
X284993Y20512D01*
Y20475D01*
Y20466D01*
Y20234D01*
X285733D01*
X285900Y20216D01*
X286048Y20207D01*
X286187Y20179D01*
X286316Y20151D01*
X286427Y20123D01*
X286538Y20096D01*
X286631Y20059D01*
X286714Y20022D01*
X286779Y19994D01*
X286843Y19966D01*
X286890Y19938D01*
X286936Y19920D01*
X286964Y19901D01*
X286973Y19883D01*
X286982D01*
X287066Y19818D01*
X287139Y19744D01*
X287204Y19670D01*
X287250Y19587D01*
X287343Y19430D01*
X287399Y19272D01*
X287426Y19124D01*
X287435Y19069D01*
X287445Y19013D01*
X287454Y18976D01*
Y18939D01*
Y18921D01*
Y18912D01*
X287445Y18819D01*
X287435Y18727D01*
X287417Y18643D01*
X287399Y18579D01*
X287380Y18514D01*
X287371Y18468D01*
X287352Y18440D01*
Y18431D01*
X287260Y18283D01*
X287213Y18218D01*
X287158Y18162D01*
X287121Y18116D01*
X287084Y18079D01*
X287066Y18061D01*
X287056Y18051D01*
X286908Y17950D01*
X286770Y17866D01*
X286714Y17839D01*
X286658Y17820D01*
X286631Y17802D01*
X286621D01*
X286418Y17755D01*
X286326Y17737D01*
X286233Y17728D01*
X286159D01*
X286104Y17718D01*
X286048D01*
X285918Y17728D01*
X285807Y17737D01*
X285761Y17746D01*
X285733D01*
X285715Y17755D01*
X285706D01*
X285585Y17783D01*
X285493Y17820D01*
X285456Y17829D01*
X285428Y17839D01*
X285419Y17848D01*
X285410D01*
X285308Y17894D01*
X285234Y17940D01*
X285178Y17977D01*
X285169Y17987D01*
X285160D01*
X285077Y18051D01*
X285012Y18107D01*
X284975Y18144D01*
X284956Y18162D01*
X284938Y18088D01*
X284929Y18024D01*
X284920Y17977D01*
Y17959D01*
X284901Y17894D01*
X284873Y17839D01*
X284864Y17802D01*
X284855Y17792D01*
X283809D01*
Y17848D01*
X283856Y17968D01*
X283893Y18088D01*
X283911Y18135D01*
X283920Y18172D01*
X283930Y18199D01*
Y18209D01*
X283939Y18292D01*
X283948Y18384D01*
X283958Y18468D01*
Y18560D01*
X283967Y18634D01*
Y18690D01*
Y18727D01*
Y18745D01*
Y20466D01*
X283976Y20586D01*
X283985Y20706D01*
X284004Y20808D01*
X284031Y20891D01*
X284059Y20965D01*
X284078Y21021D01*
X284087Y21058D01*
X284096Y21067D01*
X284152Y21159D01*
X284207Y21252D01*
X284263Y21326D01*
X284327Y21391D01*
X284374Y21437D01*
X284420Y21483D01*
X284448Y21502D01*
X284457Y21511D01*
X284642Y21622D01*
X284735Y21668D01*
X284818Y21705D01*
X284892Y21733D01*
X284947Y21751D01*
X284984Y21770D01*
X285003D01*
X285234Y21825D01*
X285354Y21844D01*
X285456Y21853D01*
X285548Y21862D01*
X285826D01*
X285956Y21844D01*
D02*
G37*
G36*
X318284Y21788D02*
X319200D01*
Y21030D01*
X318284D01*
Y19208D01*
X318275Y19069D01*
X318266Y18939D01*
X318247Y18819D01*
X318229Y18727D01*
X318210Y18643D01*
X318201Y18588D01*
X318182Y18542D01*
Y18532D01*
X318136Y18431D01*
X318090Y18338D01*
X318044Y18255D01*
X317997Y18190D01*
X317960Y18135D01*
X317923Y18098D01*
X317905Y18070D01*
X317896Y18061D01*
X317739Y17950D01*
X317590Y17866D01*
X317526Y17839D01*
X317479Y17820D01*
X317442Y17802D01*
X317433D01*
X317230Y17755D01*
X317128Y17737D01*
X317035Y17728D01*
X316952D01*
X316887Y17718D01*
X316712D01*
X316601Y17728D01*
X316554D01*
X316517Y17737D01*
X316490D01*
X316360Y17755D01*
X316258Y17765D01*
X316212Y17774D01*
X316184Y17783D01*
X316157D01*
X316037Y17802D01*
X315935Y17820D01*
X315898Y17829D01*
X315870Y17839D01*
X315851Y17848D01*
X315842D01*
X315740Y17885D01*
X315657Y17922D01*
X315611Y17950D01*
X315593Y17959D01*
X315694Y18662D01*
X315750Y18653D01*
X315805Y18634D01*
X315842Y18625D01*
X315861D01*
X315935Y18616D01*
X315999Y18597D01*
X316055Y18588D01*
X316073D01*
X316157Y18579D01*
X316231Y18569D01*
X316295Y18560D01*
X316314D01*
X316397Y18551D01*
X316545D01*
X316666Y18560D01*
X316758Y18569D01*
X316795Y18579D01*
X316813D01*
X316832Y18588D01*
X316841D01*
X316934Y18625D01*
X316999Y18662D01*
X317045Y18699D01*
X317063Y18708D01*
X317128Y18782D01*
X317174Y18865D01*
X317202Y18921D01*
X317211Y18939D01*
Y18949D01*
X317239Y19069D01*
X317248Y19189D01*
X317257Y19235D01*
Y19272D01*
Y19300D01*
Y19309D01*
Y21030D01*
X315768D01*
Y21788D01*
X317257D01*
Y22769D01*
X318284D01*
Y21788D01*
D02*
G37*
G36*
X322012Y21853D02*
X322160Y21835D01*
X322289Y21816D01*
X322410Y21788D01*
X322502Y21751D01*
X322576Y21733D01*
X322622Y21714D01*
X322641Y21705D01*
X322770Y21640D01*
X322881Y21576D01*
X322992Y21502D01*
X323076Y21437D01*
X323150Y21372D01*
X323205Y21326D01*
X323242Y21289D01*
X323252Y21280D01*
X323344Y21178D01*
X323427Y21067D01*
X323492Y20956D01*
X323547Y20854D01*
X323594Y20771D01*
X323631Y20697D01*
X323649Y20651D01*
X323658Y20632D01*
X323705Y20484D01*
X323742Y20345D01*
X323760Y20207D01*
X323779Y20077D01*
X323788Y19966D01*
X323797Y19874D01*
Y19818D01*
Y19809D01*
Y19800D01*
Y19652D01*
X323788Y19504D01*
X323769Y19365D01*
X323751Y19235D01*
X323723Y19124D01*
X323695Y19023D01*
X323668Y18958D01*
X323658Y18912D01*
X323649Y18893D01*
X323585Y18764D01*
X323520Y18653D01*
X323455Y18542D01*
X323381Y18449D01*
X323325Y18375D01*
X323279Y18320D01*
X323242Y18283D01*
X323233Y18273D01*
X323131Y18181D01*
X323020Y18098D01*
X322909Y18033D01*
X322808Y17977D01*
X322715Y17931D01*
X322650Y17894D01*
X322604Y17876D01*
X322585Y17866D01*
X322437Y17820D01*
X322289Y17783D01*
X322151Y17755D01*
X322021Y17737D01*
X321910Y17728D01*
X321818Y17718D01*
X321744D01*
X321531Y17728D01*
X321439Y17737D01*
X321355Y17755D01*
X321290Y17765D01*
X321244Y17774D01*
X321207Y17783D01*
X321198D01*
X321013Y17829D01*
X320939Y17857D01*
X320865Y17885D01*
X320810Y17903D01*
X320772Y17922D01*
X320745Y17940D01*
X320735D01*
X320587Y18024D01*
X320532Y18061D01*
X320477Y18098D01*
X320430Y18125D01*
X320402Y18153D01*
X320384Y18162D01*
X320375Y18172D01*
X320264Y18264D01*
X320190Y18357D01*
X320153Y18394D01*
X320134Y18412D01*
X320116Y18431D01*
Y18440D01*
X320634Y18995D01*
X320698Y18921D01*
X320763Y18856D01*
X320819Y18810D01*
X320828Y18791D01*
X320837D01*
X320930Y18736D01*
X321013Y18690D01*
X321050Y18671D01*
X321068Y18662D01*
X321087Y18653D01*
X321096D01*
X321198Y18616D01*
X321290Y18588D01*
X321327Y18579D01*
X321355D01*
X321374Y18569D01*
X321383D01*
X321494Y18551D01*
X321586Y18542D01*
X321679D01*
X321836Y18551D01*
X321901Y18560D01*
X321966Y18579D01*
X322012Y18588D01*
X322049Y18597D01*
X322077Y18606D01*
X322086D01*
X322206Y18662D01*
X322308Y18727D01*
X322345Y18754D01*
X322373Y18773D01*
X322391Y18782D01*
X322400Y18791D01*
X322493Y18884D01*
X322567Y18976D01*
X322595Y19023D01*
X322613Y19050D01*
X322632Y19069D01*
Y19078D01*
X322687Y19208D01*
X322724Y19337D01*
X322733Y19383D01*
X322743Y19420D01*
X322752Y19448D01*
Y19457D01*
X320033D01*
Y19892D01*
X320042Y20059D01*
X320051Y20207D01*
X320070Y20345D01*
X320097Y20466D01*
X320125Y20558D01*
X320143Y20632D01*
X320153Y20678D01*
X320162Y20697D01*
X320208Y20826D01*
X320273Y20947D01*
X320328Y21048D01*
X320384Y21141D01*
X320439Y21215D01*
X320486Y21270D01*
X320514Y21307D01*
X320523Y21317D01*
X320615Y21409D01*
X320708Y21492D01*
X320810Y21557D01*
X320893Y21613D01*
X320976Y21659D01*
X321041Y21687D01*
X321078Y21705D01*
X321096Y21714D01*
X321226Y21761D01*
X321355Y21798D01*
X321485Y21825D01*
X321605Y21844D01*
X321707Y21853D01*
X321790Y21862D01*
X321864D01*
X322012Y21853D01*
D02*
G37*
G36*
X294761Y21853D02*
X294910Y21835D01*
X295039Y21816D01*
X295159Y21788D01*
X295252Y21751D01*
X295326Y21733D01*
X295372Y21714D01*
X295391Y21705D01*
X295520Y21640D01*
X295631Y21576D01*
X295742Y21502D01*
X295825Y21437D01*
X295899Y21372D01*
X295955Y21326D01*
X295992Y21289D01*
X296001Y21280D01*
X296093Y21178D01*
X296177Y21067D01*
X296241Y20956D01*
X296297Y20854D01*
X296343Y20771D01*
X296380Y20697D01*
X296399Y20651D01*
X296408Y20632D01*
X296454Y20484D01*
X296491Y20345D01*
X296510Y20207D01*
X296528Y20077D01*
X296537Y19966D01*
X296547Y19874D01*
Y19818D01*
Y19809D01*
Y19800D01*
Y19652D01*
X296537Y19504D01*
X296519Y19365D01*
X296500Y19235D01*
X296473Y19124D01*
X296445Y19023D01*
X296417Y18958D01*
X296408Y18912D01*
X296399Y18893D01*
X296334Y18764D01*
X296269Y18653D01*
X296204Y18542D01*
X296130Y18449D01*
X296075Y18375D01*
X296029Y18320D01*
X295992Y18283D01*
X295983Y18273D01*
X295881Y18181D01*
X295770Y18098D01*
X295659Y18033D01*
X295557Y17977D01*
X295464Y17931D01*
X295400Y17894D01*
X295354Y17876D01*
X295335Y17866D01*
X295187Y17820D01*
X295039Y17783D01*
X294900Y17755D01*
X294771Y17737D01*
X294660Y17728D01*
X294567Y17718D01*
X294493D01*
X294281Y17728D01*
X294188Y17737D01*
X294105Y17755D01*
X294040Y17765D01*
X293994Y17774D01*
X293957Y17783D01*
X293947D01*
X293762Y17829D01*
X293689Y17857D01*
X293614Y17885D01*
X293559Y17903D01*
X293522Y17922D01*
X293494Y17940D01*
X293485D01*
X293337Y18024D01*
X293281Y18061D01*
X293226Y18098D01*
X293180Y18125D01*
X293152Y18153D01*
X293133Y18162D01*
X293124Y18172D01*
X293013Y18264D01*
X292939Y18357D01*
X292902Y18394D01*
X292884Y18412D01*
X292865Y18431D01*
Y18440D01*
X293383Y18995D01*
X293448Y18921D01*
X293513Y18856D01*
X293568Y18810D01*
X293577Y18791D01*
X293587D01*
X293679Y18736D01*
X293762Y18690D01*
X293799Y18671D01*
X293818Y18662D01*
X293836Y18653D01*
X293846D01*
X293947Y18616D01*
X294040Y18588D01*
X294077Y18579D01*
X294105D01*
X294123Y18569D01*
X294132D01*
X294243Y18551D01*
X294336Y18542D01*
X294428D01*
X294586Y18551D01*
X294651Y18560D01*
X294715Y18579D01*
X294761Y18588D01*
X294798Y18597D01*
X294826Y18606D01*
X294835D01*
X294956Y18662D01*
X295058Y18727D01*
X295094Y18754D01*
X295122Y18773D01*
X295141Y18782D01*
X295150Y18791D01*
X295243Y18884D01*
X295316Y18976D01*
X295344Y19023D01*
X295363Y19050D01*
X295381Y19069D01*
Y19078D01*
X295437Y19208D01*
X295474Y19337D01*
X295483Y19383D01*
X295492Y19420D01*
X295501Y19448D01*
Y19457D01*
X292782D01*
Y19892D01*
X292791Y20059D01*
X292800Y20207D01*
X292819Y20345D01*
X292847Y20466D01*
X292874Y20558D01*
X292893Y20632D01*
X292902Y20678D01*
X292912Y20697D01*
X292958Y20826D01*
X293022Y20947D01*
X293078Y21048D01*
X293133Y21141D01*
X293189Y21215D01*
X293235Y21270D01*
X293263Y21307D01*
X293272Y21317D01*
X293365Y21409D01*
X293457Y21492D01*
X293559Y21557D01*
X293642Y21613D01*
X293725Y21659D01*
X293790Y21687D01*
X293827Y21705D01*
X293846Y21714D01*
X293975Y21761D01*
X294105Y21798D01*
X294234Y21825D01*
X294354Y21844D01*
X294456Y21853D01*
X294539Y21862D01*
X294614D01*
X294761Y21853D01*
D02*
G37*
G36*
X308008D02*
X308128Y21835D01*
X308248Y21807D01*
X308341Y21779D01*
X308424Y21751D01*
X308488Y21724D01*
X308525Y21705D01*
X308544Y21696D01*
X308655Y21631D01*
X308757Y21557D01*
X308849Y21483D01*
X308923Y21409D01*
X308988Y21335D01*
X309034Y21280D01*
X309062Y21243D01*
X309071Y21233D01*
X309127Y21788D01*
X310061D01*
Y17792D01*
X309034D01*
Y20632D01*
X308932Y20752D01*
X308840Y20845D01*
X308794Y20873D01*
X308757Y20900D01*
X308738Y20919D01*
X308729D01*
X308655Y20956D01*
X308581Y20984D01*
X308433Y21021D01*
X308377D01*
X308331Y21030D01*
X308285D01*
X308165Y21021D01*
X308063Y21011D01*
X308026Y21002D01*
X307998D01*
X307980Y20993D01*
X307970D01*
X307869Y20956D01*
X307795Y20919D01*
X307749Y20882D01*
X307730Y20863D01*
X307665Y20789D01*
X307610Y20715D01*
X307591Y20678D01*
X307582Y20651D01*
X307573Y20632D01*
Y20623D01*
X307536Y20503D01*
X307526Y20373D01*
X307517Y20318D01*
Y20271D01*
Y20244D01*
Y20234D01*
Y17792D01*
X306490D01*
Y20253D01*
Y20410D01*
X306509Y20549D01*
X306518Y20678D01*
X306537Y20789D01*
X306555Y20873D01*
X306574Y20937D01*
X306583Y20984D01*
X306592Y20993D01*
X306629Y21104D01*
X306676Y21196D01*
X306731Y21289D01*
X306777Y21354D01*
X306814Y21418D01*
X306851Y21455D01*
X306870Y21483D01*
X306879Y21492D01*
X306944Y21557D01*
X307018Y21622D01*
X307092Y21668D01*
X307166Y21705D01*
X307221Y21733D01*
X307267Y21751D01*
X307304Y21770D01*
X307314D01*
X307508Y21825D01*
X307600Y21844D01*
X307684Y21853D01*
X307758Y21862D01*
X307869D01*
X308008Y21853D01*
D02*
G37*
G36*
X301042Y17792D02*
X299590D01*
X299405Y17802D01*
X299229Y17820D01*
X299072Y17848D01*
X298933Y17885D01*
X298813Y17913D01*
X298730Y17940D01*
X298674Y17959D01*
X298656Y17968D01*
X298499Y18042D01*
X298360Y18125D01*
X298239Y18209D01*
X298129Y18292D01*
X298045Y18366D01*
X297980Y18421D01*
X297934Y18458D01*
X297925Y18477D01*
X297814Y18606D01*
X297722Y18736D01*
X297638Y18865D01*
X297573Y18986D01*
X297518Y19097D01*
X297481Y19180D01*
X297462Y19235D01*
X297453Y19245D01*
Y19254D01*
X297398Y19430D01*
X297361Y19605D01*
X297324Y19772D01*
X297305Y19920D01*
X297296Y20059D01*
X297287Y20160D01*
Y20197D01*
Y20225D01*
Y20244D01*
Y20253D01*
Y20697D01*
X297296Y20900D01*
X297314Y21085D01*
X297342Y21252D01*
X297370Y21400D01*
X297398Y21520D01*
X297426Y21613D01*
X297435Y21650D01*
X297444Y21677D01*
X297453Y21687D01*
Y21696D01*
X297518Y21862D01*
X297601Y22010D01*
X297675Y22140D01*
X297758Y22251D01*
X297823Y22343D01*
X297879Y22417D01*
X297916Y22454D01*
X297934Y22473D01*
X298054Y22593D01*
X298175Y22695D01*
X298304Y22787D01*
X298415Y22861D01*
X298517Y22917D01*
X298600Y22954D01*
X298656Y22982D01*
X298665Y22991D01*
X298674D01*
X298841Y23056D01*
X299007Y23102D01*
X299174Y23130D01*
X299322Y23157D01*
X299451Y23167D01*
X299553Y23176D01*
X301042D01*
Y17792D01*
D02*
G37*
G36*
X282542Y20947D02*
X281395D01*
Y18625D01*
X282542D01*
Y17792D01*
X279277D01*
Y18625D01*
X280359D01*
Y21788D01*
X282542D01*
Y20947D01*
D02*
G37*
G36*
X290395Y21844D02*
X290525Y21835D01*
X290627Y21816D01*
X290719Y21798D01*
X290784Y21779D01*
X290821Y21770D01*
X290839Y21761D01*
X290950Y21724D01*
X291052Y21677D01*
X291145Y21631D01*
X291228Y21594D01*
X291293Y21557D01*
X291339Y21520D01*
X291367Y21502D01*
X291376Y21492D01*
X291450Y21428D01*
X291524Y21363D01*
X291579Y21298D01*
X291626Y21233D01*
X291672Y21178D01*
X291700Y21132D01*
X291709Y21104D01*
X291718Y21095D01*
X291755Y21011D01*
X291783Y20928D01*
X291811Y20845D01*
X291820Y20780D01*
X291829Y20715D01*
X291839Y20669D01*
Y20632D01*
Y20623D01*
X291829Y20530D01*
X291820Y20447D01*
X291802Y20373D01*
X291783Y20299D01*
X291764Y20244D01*
X291746Y20207D01*
X291727Y20179D01*
Y20170D01*
X291626Y20031D01*
X291524Y19929D01*
X291478Y19883D01*
X291441Y19855D01*
X291413Y19837D01*
X291404Y19827D01*
X291237Y19726D01*
X291154Y19679D01*
X291071Y19642D01*
X291006Y19615D01*
X290950Y19587D01*
X290914Y19578D01*
X290904Y19568D01*
X290682Y19494D01*
X290571Y19467D01*
X290470Y19439D01*
X290386Y19420D01*
X290312Y19402D01*
X290275Y19393D01*
X290257D01*
X290155Y19374D01*
X290072Y19356D01*
X289988Y19337D01*
X289924Y19328D01*
X289877Y19309D01*
X289831Y19300D01*
X289813Y19291D01*
X289804D01*
X289683Y19254D01*
X289581Y19217D01*
X289554Y19208D01*
X289526Y19189D01*
X289517Y19180D01*
X289508D01*
X289433Y19134D01*
X289387Y19087D01*
X289369Y19050D01*
X289359Y19041D01*
X289332Y18986D01*
X289322Y18939D01*
X289313Y18902D01*
Y18884D01*
X289322Y18819D01*
X289341Y18754D01*
X289378Y18699D01*
X289415Y18653D01*
X289452Y18616D01*
X289489Y18588D01*
X289508Y18579D01*
X289517Y18569D01*
X289600Y18532D01*
X289692Y18505D01*
X289877Y18468D01*
X289961Y18458D01*
X290025Y18449D01*
X290090D01*
X290210Y18458D01*
X290312Y18468D01*
X290358D01*
X290386Y18477D01*
X290414D01*
X290525Y18514D01*
X290617Y18551D01*
X290654Y18560D01*
X290682Y18579D01*
X290691Y18588D01*
X290701D01*
X290784Y18653D01*
X290849Y18708D01*
X290886Y18754D01*
X290904Y18773D01*
X290950Y18865D01*
X290969Y18958D01*
X290978Y19004D01*
X290987Y19032D01*
Y19050D01*
Y19060D01*
X291968D01*
X291959Y18967D01*
X291949Y18875D01*
X291931Y18791D01*
X291903Y18717D01*
X291885Y18662D01*
X291866Y18616D01*
X291857Y18579D01*
X291848Y18569D01*
X291802Y18486D01*
X291746Y18403D01*
X291681Y18329D01*
X291626Y18264D01*
X291579Y18209D01*
X291533Y18172D01*
X291506Y18144D01*
X291496Y18135D01*
X291404Y18070D01*
X291302Y18005D01*
X291210Y17959D01*
X291117Y17913D01*
X291034Y17876D01*
X290969Y17848D01*
X290932Y17839D01*
X290914Y17829D01*
X290784Y17792D01*
X290645Y17765D01*
X290506Y17746D01*
X290386Y17737D01*
X290275Y17728D01*
X290192Y17718D01*
X289970D01*
X289822Y17728D01*
X289702Y17746D01*
X289591Y17765D01*
X289498Y17774D01*
X289424Y17792D01*
X289387Y17802D01*
X289369D01*
X289248Y17839D01*
X289137Y17876D01*
X289045Y17922D01*
X288962Y17959D01*
X288897Y17996D01*
X288841Y18024D01*
X288814Y18042D01*
X288804Y18051D01*
X288721Y18116D01*
X288647Y18181D01*
X288592Y18246D01*
X288536Y18310D01*
X288499Y18357D01*
X288472Y18403D01*
X288453Y18431D01*
X288444Y18440D01*
X288397Y18523D01*
X288370Y18606D01*
X288342Y18690D01*
X288333Y18773D01*
X288323Y18838D01*
X288314Y18884D01*
Y18921D01*
Y18930D01*
X288323Y19032D01*
X288333Y19124D01*
X288351Y19208D01*
X288379Y19282D01*
X288407Y19337D01*
X288425Y19383D01*
X288435Y19411D01*
X288444Y19420D01*
X288555Y19568D01*
X288610Y19624D01*
X288666Y19679D01*
X288721Y19726D01*
X288758Y19753D01*
X288786Y19772D01*
X288795Y19781D01*
X288971Y19883D01*
X289064Y19920D01*
X289147Y19957D01*
X289221Y19985D01*
X289276Y20003D01*
X289313Y20022D01*
X289332D01*
X289572Y20086D01*
X289683Y20105D01*
X289785Y20133D01*
X289877Y20151D01*
X289942Y20160D01*
X289988Y20170D01*
X290007D01*
X290099Y20188D01*
X290174Y20197D01*
X290247Y20216D01*
X290312Y20225D01*
X290358Y20234D01*
X290395Y20244D01*
X290414Y20253D01*
X290423D01*
X290534Y20290D01*
X290608Y20327D01*
X290664Y20355D01*
X290673Y20364D01*
X290682D01*
X290738Y20410D01*
X290784Y20456D01*
X290802Y20493D01*
X290812Y20503D01*
X290830Y20567D01*
X290839Y20614D01*
X290849Y20651D01*
Y20669D01*
X290839Y20743D01*
X290821Y20799D01*
X290756Y20900D01*
X290719Y20937D01*
X290691Y20974D01*
X290673Y20984D01*
X290664Y20993D01*
X290590Y21039D01*
X290497Y21067D01*
X290321Y21104D01*
X290238Y21113D01*
X290174Y21122D01*
X290118D01*
X289988Y21113D01*
X289868Y21095D01*
X289776Y21076D01*
X289692Y21048D01*
X289628Y21011D01*
X289591Y20993D01*
X289563Y20974D01*
X289554Y20965D01*
X289489Y20900D01*
X289443Y20836D01*
X289406Y20771D01*
X289387Y20715D01*
X289369Y20660D01*
X289359Y20614D01*
Y20586D01*
Y20577D01*
X288333D01*
X288342Y20678D01*
X288351Y20771D01*
X288370Y20863D01*
X288388Y20937D01*
X288416Y21002D01*
X288435Y21048D01*
X288444Y21076D01*
X288453Y21085D01*
X288499Y21169D01*
X288555Y21252D01*
X288619Y21317D01*
X288675Y21381D01*
X288721Y21428D01*
X288768Y21465D01*
X288795Y21483D01*
X288804Y21492D01*
X288897Y21557D01*
X288989Y21613D01*
X289082Y21659D01*
X289174Y21696D01*
X289248Y21724D01*
X289313Y21742D01*
X289350Y21761D01*
X289369D01*
X289498Y21798D01*
X289628Y21816D01*
X289748Y21835D01*
X289868Y21853D01*
X289970D01*
X290044Y21862D01*
X290266D01*
X290395Y21844D01*
D02*
G37*
G36*
X294910Y16633D02*
X295058Y16623D01*
X295196Y16596D01*
X295307Y16577D01*
X295400Y16549D01*
X295474Y16522D01*
X295520Y16512D01*
X295538Y16503D01*
X295668Y16447D01*
X295779Y16383D01*
X295881Y16318D01*
X295973Y16262D01*
X296038Y16207D01*
X296093Y16161D01*
X296130Y16133D01*
X296140Y16124D01*
X296232Y16031D01*
X296306Y15939D01*
X296371Y15837D01*
X296427Y15754D01*
X296473Y15671D01*
X296500Y15615D01*
X296519Y15578D01*
X296528Y15560D01*
X296574Y15439D01*
X296602Y15319D01*
X296630Y15208D01*
X296639Y15106D01*
X296649Y15014D01*
X296658Y14949D01*
Y14903D01*
Y14884D01*
X295631D01*
X295622Y15032D01*
X295603Y15171D01*
X295566Y15282D01*
X295529Y15374D01*
X295492Y15449D01*
X295455Y15495D01*
X295437Y15532D01*
X295427Y15541D01*
X295335Y15624D01*
X295233Y15680D01*
X295131Y15726D01*
X295030Y15754D01*
X294937Y15772D01*
X294863Y15781D01*
X294789D01*
X294678Y15772D01*
X294586Y15754D01*
X294549Y15744D01*
X294521Y15735D01*
X294512Y15726D01*
X294502D01*
X294410Y15680D01*
X294336Y15633D01*
X294290Y15597D01*
X294271Y15587D01*
Y15578D01*
X294206Y15504D01*
X294169Y15421D01*
X294142Y15365D01*
X294132Y15347D01*
Y15337D01*
X294095Y15226D01*
X294086Y15125D01*
X294077Y15088D01*
Y15051D01*
Y15032D01*
Y15023D01*
X294086Y14931D01*
X294095Y14847D01*
X294105Y14783D01*
X294114Y14773D01*
Y14764D01*
X294151Y14662D01*
X294188Y14579D01*
X294216Y14542D01*
X294225Y14514D01*
X294243Y14496D01*
Y14487D01*
X294318Y14376D01*
X294382Y14265D01*
X294419Y14218D01*
X294438Y14181D01*
X294456Y14163D01*
X294465Y14153D01*
X294577Y14015D01*
X294687Y13885D01*
X294734Y13839D01*
X294771Y13793D01*
X294798Y13765D01*
X294808Y13756D01*
X296556Y11878D01*
Y11184D01*
X292874D01*
Y12008D01*
X295243D01*
X294225Y13081D01*
X294040Y13275D01*
X293966Y13358D01*
X293892Y13432D01*
X293836Y13497D01*
X293790Y13552D01*
X293762Y13580D01*
X293753Y13589D01*
X293605Y13774D01*
X293541Y13848D01*
X293485Y13922D01*
X293448Y13987D01*
X293411Y14033D01*
X293392Y14061D01*
X293383Y14070D01*
X293281Y14246D01*
X293235Y14329D01*
X293208Y14403D01*
X293180Y14459D01*
X293161Y14514D01*
X293143Y14542D01*
Y14551D01*
X293096Y14736D01*
X293078Y14819D01*
X293069Y14903D01*
X293059Y14967D01*
Y15014D01*
Y15051D01*
Y15060D01*
Y15190D01*
X293078Y15310D01*
X293096Y15421D01*
X293115Y15513D01*
X293133Y15587D01*
X293152Y15652D01*
X293161Y15689D01*
X293170Y15698D01*
X293217Y15809D01*
X293263Y15902D01*
X293318Y15985D01*
X293374Y16059D01*
X293420Y16115D01*
X293457Y16161D01*
X293485Y16188D01*
X293494Y16198D01*
X293577Y16272D01*
X293670Y16337D01*
X293753Y16392D01*
X293846Y16438D01*
X293920Y16475D01*
X293975Y16503D01*
X294012Y16512D01*
X294031Y16522D01*
X294151Y16558D01*
X294271Y16596D01*
X294401Y16614D01*
X294512Y16623D01*
X294604Y16633D01*
X294687Y16642D01*
X294752D01*
X294910Y16633D01*
D02*
G37*
G36*
X285826D02*
X285974Y16623D01*
X286113Y16596D01*
X286224Y16577D01*
X286316Y16549D01*
X286390Y16522D01*
X286437Y16512D01*
X286455Y16503D01*
X286584Y16447D01*
X286695Y16383D01*
X286797Y16318D01*
X286890Y16262D01*
X286954Y16207D01*
X287010Y16161D01*
X287047Y16133D01*
X287056Y16124D01*
X287149Y16031D01*
X287223Y15939D01*
X287287Y15837D01*
X287343Y15754D01*
X287389Y15671D01*
X287417Y15615D01*
X287435Y15578D01*
X287445Y15560D01*
X287491Y15439D01*
X287519Y15319D01*
X287546Y15208D01*
X287556Y15106D01*
X287565Y15014D01*
X287574Y14949D01*
Y14903D01*
Y14884D01*
X286547D01*
X286538Y15032D01*
X286520Y15171D01*
X286483Y15282D01*
X286446Y15374D01*
X286409Y15449D01*
X286372Y15495D01*
X286353Y15532D01*
X286344Y15541D01*
X286251Y15624D01*
X286150Y15680D01*
X286048Y15726D01*
X285946Y15754D01*
X285854Y15772D01*
X285780Y15781D01*
X285706D01*
X285595Y15772D01*
X285502Y15754D01*
X285465Y15744D01*
X285437Y15735D01*
X285428Y15726D01*
X285419D01*
X285327Y15680D01*
X285252Y15633D01*
X285206Y15597D01*
X285188Y15587D01*
Y15578D01*
X285123Y15504D01*
X285086Y15421D01*
X285058Y15365D01*
X285049Y15347D01*
Y15337D01*
X285012Y15226D01*
X285003Y15125D01*
X284993Y15088D01*
Y15051D01*
Y15032D01*
Y15023D01*
X285003Y14931D01*
X285012Y14847D01*
X285021Y14783D01*
X285031Y14773D01*
Y14764D01*
X285068Y14662D01*
X285104Y14579D01*
X285132Y14542D01*
X285141Y14514D01*
X285160Y14496D01*
Y14487D01*
X285234Y14376D01*
X285299Y14265D01*
X285336Y14218D01*
X285354Y14181D01*
X285373Y14163D01*
X285382Y14153D01*
X285493Y14015D01*
X285604Y13885D01*
X285650Y13839D01*
X285687Y13793D01*
X285715Y13765D01*
X285724Y13756D01*
X287472Y11878D01*
Y11184D01*
X283791D01*
Y12008D01*
X286159D01*
X285141Y13081D01*
X284956Y13275D01*
X284882Y13358D01*
X284808Y13432D01*
X284753Y13497D01*
X284707Y13552D01*
X284679Y13580D01*
X284670Y13589D01*
X284522Y13774D01*
X284457Y13848D01*
X284401Y13922D01*
X284364Y13987D01*
X284327Y14033D01*
X284309Y14061D01*
X284300Y14070D01*
X284198Y14246D01*
X284152Y14329D01*
X284124Y14403D01*
X284096Y14459D01*
X284078Y14514D01*
X284059Y14542D01*
Y14551D01*
X284013Y14736D01*
X283995Y14819D01*
X283985Y14903D01*
X283976Y14967D01*
Y15014D01*
Y15051D01*
Y15060D01*
Y15190D01*
X283995Y15310D01*
X284013Y15421D01*
X284031Y15513D01*
X284050Y15587D01*
X284068Y15652D01*
X284078Y15689D01*
X284087Y15698D01*
X284133Y15809D01*
X284179Y15902D01*
X284235Y15985D01*
X284291Y16059D01*
X284337Y16115D01*
X284374Y16161D01*
X284401Y16188D01*
X284411Y16198D01*
X284494Y16272D01*
X284587Y16337D01*
X284670Y16392D01*
X284762Y16438D01*
X284836Y16475D01*
X284892Y16503D01*
X284929Y16512D01*
X284947Y16522D01*
X285068Y16558D01*
X285188Y16596D01*
X285317Y16614D01*
X285428Y16623D01*
X285521Y16633D01*
X285604Y16642D01*
X285669D01*
X285826Y16633D01*
D02*
G37*
G36*
X290257D02*
X290395Y16623D01*
X290516Y16596D01*
X290627Y16577D01*
X290719Y16549D01*
X290784Y16522D01*
X290821Y16512D01*
X290839Y16503D01*
X290960Y16447D01*
X291061Y16383D01*
X291154Y16318D01*
X291237Y16253D01*
X291302Y16198D01*
X291357Y16151D01*
X291385Y16115D01*
X291394Y16105D01*
X291468Y16003D01*
X291543Y15892D01*
X291598Y15781D01*
X291644Y15671D01*
X291690Y15578D01*
X291718Y15504D01*
X291727Y15458D01*
X291737Y15449D01*
Y15439D01*
X291774Y15282D01*
X291802Y15125D01*
X291829Y14967D01*
X291839Y14829D01*
X291848Y14699D01*
X291857Y14607D01*
Y14570D01*
Y14542D01*
Y14524D01*
Y14514D01*
Y13228D01*
X291848Y13044D01*
X291839Y12868D01*
X291820Y12710D01*
X291792Y12581D01*
X291774Y12470D01*
X291755Y12387D01*
X291746Y12331D01*
X291737Y12322D01*
Y12313D01*
X291681Y12174D01*
X291626Y12044D01*
X291570Y11924D01*
X291515Y11832D01*
X291459Y11749D01*
X291422Y11693D01*
X291394Y11656D01*
X291385Y11647D01*
X291293Y11554D01*
X291200Y11471D01*
X291108Y11397D01*
X291024Y11342D01*
X290941Y11295D01*
X290886Y11268D01*
X290849Y11249D01*
X290830Y11240D01*
X290710Y11193D01*
X290581Y11166D01*
X290460Y11138D01*
X290340Y11129D01*
X290247Y11119D01*
X290164Y11110D01*
X290099D01*
X289951Y11119D01*
X289813Y11129D01*
X289692Y11147D01*
X289581Y11175D01*
X289489Y11203D01*
X289424Y11221D01*
X289387Y11231D01*
X289369Y11240D01*
X289248Y11295D01*
X289147Y11360D01*
X289054Y11434D01*
X288971Y11499D01*
X288906Y11554D01*
X288860Y11601D01*
X288832Y11637D01*
X288823Y11647D01*
X288740Y11749D01*
X288666Y11869D01*
X288610Y11980D01*
X288564Y12082D01*
X288518Y12174D01*
X288490Y12248D01*
X288481Y12294D01*
X288472Y12313D01*
X288435Y12470D01*
X288397Y12627D01*
X288379Y12775D01*
X288370Y12923D01*
X288360Y13044D01*
X288351Y13145D01*
Y13182D01*
Y13210D01*
Y13219D01*
Y13228D01*
Y14514D01*
X288360Y14708D01*
X288370Y14884D01*
X288388Y15042D01*
X288407Y15171D01*
X288435Y15282D01*
X288453Y15365D01*
X288462Y15421D01*
X288472Y15439D01*
X288518Y15578D01*
X288573Y15708D01*
X288638Y15828D01*
X288693Y15920D01*
X288740Y16003D01*
X288786Y16059D01*
X288814Y16096D01*
X288823Y16105D01*
X288915Y16198D01*
X289008Y16281D01*
X289101Y16346D01*
X289184Y16401D01*
X289267Y16447D01*
X289322Y16475D01*
X289359Y16494D01*
X289378Y16503D01*
X289498Y16549D01*
X289628Y16586D01*
X289748Y16605D01*
X289868Y16623D01*
X289961Y16633D01*
X290044Y16642D01*
X290109D01*
X290257Y16633D01*
D02*
G37*
G36*
X281173D02*
X281312Y16623D01*
X281432Y16596D01*
X281543Y16577D01*
X281636Y16549D01*
X281700Y16522D01*
X281737Y16512D01*
X281756Y16503D01*
X281876Y16447D01*
X281978Y16383D01*
X282070Y16318D01*
X282154Y16253D01*
X282218Y16198D01*
X282274Y16151D01*
X282302Y16115D01*
X282311Y16105D01*
X282385Y16003D01*
X282459Y15892D01*
X282514Y15781D01*
X282561Y15671D01*
X282607Y15578D01*
X282635Y15504D01*
X282644Y15458D01*
X282653Y15449D01*
Y15439D01*
X282690Y15282D01*
X282718Y15125D01*
X282746Y14967D01*
X282755Y14829D01*
X282764Y14699D01*
X282773Y14607D01*
Y14570D01*
Y14542D01*
Y14524D01*
Y14514D01*
Y13228D01*
X282764Y13044D01*
X282755Y12868D01*
X282736Y12710D01*
X282709Y12581D01*
X282690Y12470D01*
X282672Y12387D01*
X282662Y12331D01*
X282653Y12322D01*
Y12313D01*
X282598Y12174D01*
X282542Y12044D01*
X282487Y11924D01*
X282431Y11832D01*
X282376Y11749D01*
X282339Y11693D01*
X282311Y11656D01*
X282302Y11647D01*
X282209Y11554D01*
X282117Y11471D01*
X282024Y11397D01*
X281941Y11342D01*
X281858Y11295D01*
X281802Y11268D01*
X281765Y11249D01*
X281747Y11240D01*
X281627Y11193D01*
X281497Y11166D01*
X281377Y11138D01*
X281256Y11129D01*
X281164Y11119D01*
X281081Y11110D01*
X281016D01*
X280868Y11119D01*
X280729Y11129D01*
X280609Y11147D01*
X280498Y11175D01*
X280405Y11203D01*
X280341Y11221D01*
X280304Y11231D01*
X280285Y11240D01*
X280165Y11295D01*
X280063Y11360D01*
X279971Y11434D01*
X279887Y11499D01*
X279823Y11554D01*
X279777Y11601D01*
X279749Y11637D01*
X279739Y11647D01*
X279656Y11749D01*
X279582Y11869D01*
X279527Y11980D01*
X279481Y12082D01*
X279434Y12174D01*
X279406Y12248D01*
X279397Y12294D01*
X279388Y12313D01*
X279351Y12470D01*
X279314Y12627D01*
X279295Y12775D01*
X279286Y12923D01*
X279277Y13044D01*
X279268Y13145D01*
Y13182D01*
Y13210D01*
Y13219D01*
Y13228D01*
Y14514D01*
X279277Y14708D01*
X279286Y14884D01*
X279305Y15042D01*
X279323Y15171D01*
X279351Y15282D01*
X279369Y15365D01*
X279379Y15421D01*
X279388Y15439D01*
X279434Y15578D01*
X279490Y15708D01*
X279554Y15828D01*
X279610Y15920D01*
X279656Y16003D01*
X279702Y16059D01*
X279730Y16096D01*
X279739Y16105D01*
X279832Y16198D01*
X279924Y16281D01*
X280017Y16346D01*
X280100Y16401D01*
X280183Y16447D01*
X280239Y16475D01*
X280276Y16494D01*
X280294Y16503D01*
X280415Y16549D01*
X280544Y16586D01*
X280664Y16605D01*
X280785Y16623D01*
X280877Y16633D01*
X280960Y16642D01*
X281025D01*
X281173Y16633D01*
D02*
G37*
%LPC*%
G36*
X45853Y101281D02*
X43767D01*
Y101221D01*
X43290D01*
Y101161D01*
X42992D01*
Y101102D01*
X42694D01*
Y101042D01*
X42515D01*
Y100982D01*
X42276D01*
Y100923D01*
X42038D01*
Y100863D01*
X41859D01*
Y100804D01*
X41680D01*
Y100744D01*
X41561D01*
Y100684D01*
X41382D01*
Y100625D01*
X41203D01*
Y100565D01*
X41084D01*
Y100506D01*
X40905D01*
Y100446D01*
X40786D01*
Y100386D01*
X40667D01*
Y100327D01*
X40547D01*
Y100267D01*
X40428D01*
Y100207D01*
X40249D01*
Y100148D01*
X40190D01*
Y100088D01*
X40071D01*
Y100029D01*
X39951D01*
Y99969D01*
X39832D01*
Y99909D01*
X39772D01*
Y99850D01*
X39653D01*
Y99790D01*
X39534D01*
Y99731D01*
X39415D01*
Y99671D01*
X39355D01*
Y99611D01*
X39236D01*
Y99552D01*
X39176D01*
Y99492D01*
X39057D01*
Y99432D01*
X38997D01*
Y99373D01*
X38878D01*
Y99313D01*
X38818D01*
Y99254D01*
X38759D01*
Y99194D01*
X38699D01*
Y99134D01*
X38580D01*
Y99075D01*
X38521D01*
Y99015D01*
X38461D01*
Y98956D01*
X38342D01*
Y98896D01*
X38282D01*
Y98836D01*
X38222D01*
Y98777D01*
X38163D01*
Y98717D01*
X38103D01*
Y98658D01*
X38043D01*
Y98598D01*
X37984D01*
Y98538D01*
X37924D01*
Y98479D01*
X37865D01*
Y98419D01*
X37805D01*
Y98359D01*
X37745D01*
Y98300D01*
X37686D01*
Y98240D01*
Y98181D01*
X37626D01*
Y98121D01*
X37567D01*
Y98061D01*
X37507D01*
Y98002D01*
Y97942D01*
X37447D01*
Y97882D01*
X37388D01*
Y97823D01*
Y97763D01*
X37328D01*
Y97704D01*
Y97644D01*
X37268D01*
Y97584D01*
X37209D01*
Y97525D01*
X37030D01*
Y97465D01*
X36911D01*
Y97405D01*
X36672D01*
Y97346D01*
X36553D01*
Y97286D01*
X36374D01*
Y97227D01*
X36195D01*
Y97167D01*
X36076D01*
Y97107D01*
X35897D01*
Y97048D01*
X35778D01*
Y96988D01*
X35599D01*
Y96929D01*
X35480D01*
Y96869D01*
X35301D01*
Y96809D01*
X35182D01*
Y96750D01*
X35063D01*
Y96690D01*
X34943D01*
Y96631D01*
X34824D01*
Y96571D01*
X34645D01*
Y96511D01*
X34526D01*
Y96452D01*
X34407D01*
Y96392D01*
X34288D01*
Y96332D01*
X34228D01*
Y96273D01*
X34109D01*
Y96213D01*
X33990D01*
Y96153D01*
X33870D01*
Y96094D01*
X33751D01*
Y96034D01*
X33691D01*
Y95975D01*
X33572D01*
Y95915D01*
X33513D01*
Y95855D01*
X33393D01*
Y95796D01*
X33334D01*
Y95736D01*
X33274D01*
Y95677D01*
X33155D01*
Y95617D01*
X33095D01*
Y95557D01*
X33036D01*
Y95498D01*
X32976D01*
Y95438D01*
X32916D01*
Y95379D01*
X32857D01*
Y95319D01*
X32797D01*
Y95259D01*
X32738D01*
Y95200D01*
X32678D01*
Y95140D01*
X32618D01*
Y95080D01*
X32559D01*
Y95021D01*
X32499D01*
Y94961D01*
Y94902D01*
X32440D01*
Y94842D01*
X32380D01*
Y94782D01*
Y94723D01*
X32320D01*
Y94663D01*
Y94604D01*
X32261D01*
Y94544D01*
Y94484D01*
X32201D01*
Y94425D01*
Y94365D01*
X32141D01*
Y94305D01*
Y94246D01*
Y94186D01*
Y94126D01*
X32082D01*
Y94067D01*
Y94007D01*
Y93948D01*
Y93888D01*
Y93828D01*
Y93769D01*
X32022D01*
Y93709D01*
Y93650D01*
Y93590D01*
Y93530D01*
Y93471D01*
Y93411D01*
Y93352D01*
X32082D01*
Y93292D01*
Y93232D01*
Y93173D01*
Y93113D01*
Y93053D01*
Y92994D01*
Y92934D01*
X32141D01*
Y92875D01*
Y92815D01*
Y92755D01*
Y92696D01*
Y92636D01*
X32201D01*
Y92576D01*
Y92517D01*
Y92457D01*
X32141D01*
Y92398D01*
X32022D01*
Y92338D01*
X31962D01*
Y92278D01*
X31903D01*
Y92219D01*
X31843D01*
Y92159D01*
X31724D01*
Y92099D01*
X31664D01*
Y92040D01*
X31605D01*
Y91980D01*
X31545D01*
Y91921D01*
X31486D01*
Y91861D01*
X31426D01*
Y91802D01*
X31366D01*
Y91742D01*
X31307D01*
Y91682D01*
X31247D01*
Y91623D01*
X31187D01*
Y91563D01*
X31128D01*
Y91503D01*
X31068D01*
Y91444D01*
Y91384D01*
X31009D01*
Y91325D01*
X30949D01*
Y91265D01*
X30889D01*
Y91205D01*
X30830D01*
Y91146D01*
Y91086D01*
X30770D01*
Y91026D01*
X30711D01*
Y90967D01*
X30651D01*
Y90907D01*
Y90848D01*
X30591D01*
Y90788D01*
X30532D01*
Y90728D01*
Y90669D01*
X30472D01*
Y90609D01*
X30413D01*
Y90549D01*
Y90490D01*
X30353D01*
Y90430D01*
Y90371D01*
X30293D01*
Y90311D01*
Y90251D01*
X30234D01*
Y90192D01*
Y90132D01*
X30174D01*
Y90073D01*
X30114D01*
Y90013D01*
Y89953D01*
Y89894D01*
X30055D01*
Y89834D01*
Y89775D01*
X29995D01*
Y89715D01*
Y89655D01*
Y89596D01*
X29936D01*
Y89536D01*
Y89476D01*
X29876D01*
Y89417D01*
Y89357D01*
Y89297D01*
X29816D01*
Y89238D01*
Y89178D01*
Y89119D01*
X29757D01*
Y89059D01*
Y88999D01*
Y88940D01*
X29697D01*
Y88880D01*
Y88821D01*
Y88761D01*
Y88701D01*
X29638D01*
Y88642D01*
Y88582D01*
Y88522D01*
Y88463D01*
X29578D01*
Y88403D01*
Y88344D01*
Y88284D01*
Y88224D01*
Y88165D01*
Y88105D01*
X29518D01*
Y88046D01*
Y87986D01*
Y87926D01*
Y87867D01*
Y87807D01*
Y87748D01*
Y87688D01*
Y87628D01*
Y87569D01*
Y87509D01*
Y87449D01*
Y87390D01*
Y87330D01*
Y87270D01*
Y87211D01*
Y87151D01*
Y87092D01*
Y87032D01*
Y86972D01*
Y86913D01*
Y86853D01*
Y86794D01*
Y86734D01*
Y86674D01*
Y86615D01*
Y86555D01*
Y86496D01*
Y86436D01*
Y86376D01*
Y86317D01*
Y86257D01*
X29578D01*
Y86197D01*
Y86138D01*
Y86078D01*
Y86019D01*
Y85959D01*
X29638D01*
Y85899D01*
Y85840D01*
Y85780D01*
X29697D01*
Y85720D01*
Y85661D01*
Y85601D01*
X29757D01*
Y85542D01*
Y85482D01*
X29816D01*
Y85422D01*
Y85363D01*
X29876D01*
Y85303D01*
X29936D01*
Y85243D01*
X29995D01*
Y85184D01*
X30055D01*
Y85124D01*
X30174D01*
Y85065D01*
X30293D01*
Y85005D01*
X30472D01*
Y84945D01*
X30770D01*
Y84886D01*
X30830D01*
Y84945D01*
X31247D01*
Y85005D01*
X31545D01*
Y85065D01*
X31724D01*
Y85124D01*
X31962D01*
Y85184D01*
X32141D01*
Y85243D01*
X32261D01*
Y85303D01*
X32440D01*
Y85363D01*
X32559D01*
Y85422D01*
X32738D01*
Y85482D01*
X32857D01*
Y85542D01*
X32976D01*
Y85601D01*
X33155D01*
Y85661D01*
X33274D01*
Y85720D01*
X33453D01*
Y85780D01*
X33572D01*
Y85840D01*
X33691D01*
Y85899D01*
X33870D01*
Y85959D01*
X33990D01*
Y86019D01*
X34168D01*
Y86078D01*
X34288D01*
Y86138D01*
X34407D01*
Y86197D01*
X34586D01*
Y86257D01*
X34705D01*
Y86317D01*
X34884D01*
Y86376D01*
X35003D01*
Y86436D01*
X35182D01*
Y86496D01*
X35301D01*
Y86555D01*
X35480D01*
Y86615D01*
X35718D01*
Y86555D01*
X35778D01*
Y86496D01*
X35838D01*
Y86436D01*
X35897D01*
Y86376D01*
X35957D01*
Y86317D01*
Y86257D01*
X36076D01*
Y86197D01*
X36136D01*
Y86138D01*
X36195D01*
Y86078D01*
X36255D01*
Y86019D01*
X36315D01*
Y85959D01*
X36374D01*
Y85899D01*
X36494D01*
Y85840D01*
X36553D01*
Y85780D01*
X36672D01*
Y85720D01*
X36792D01*
Y85661D01*
X36911D01*
Y85601D01*
X37090D01*
Y85542D01*
X37268D01*
Y85482D01*
X38342D01*
Y85542D01*
X38580D01*
Y85601D01*
X38818D01*
Y85661D01*
X38938D01*
Y85720D01*
X39176D01*
Y85780D01*
X39296D01*
Y85840D01*
X39474D01*
Y85899D01*
X39594D01*
Y85959D01*
X39772D01*
Y86019D01*
X39892D01*
Y86078D01*
X40011D01*
Y86138D01*
X40190D01*
Y86197D01*
X40309D01*
Y86257D01*
X40488D01*
Y86317D01*
X40607D01*
Y86376D01*
X40726D01*
Y86436D01*
X40905D01*
Y86496D01*
X41024D01*
Y86555D01*
X41203D01*
Y86615D01*
X41322D01*
Y86555D01*
X41442D01*
Y86496D01*
X41561D01*
Y86436D01*
X41740D01*
Y86376D01*
X41859D01*
Y86317D01*
X42038D01*
Y86257D01*
X42276D01*
Y86197D01*
X42455D01*
Y86138D01*
X42694D01*
Y86078D01*
X42932D01*
Y86019D01*
X43290D01*
Y85959D01*
X43648D01*
Y85899D01*
X44542D01*
Y85840D01*
X44661D01*
Y85899D01*
X45555D01*
Y85959D01*
X45913D01*
Y86019D01*
X46211D01*
Y86078D01*
X46450D01*
Y86138D01*
X46688D01*
Y86197D01*
X46807D01*
Y86257D01*
X46986D01*
Y86317D01*
X47165D01*
Y86376D01*
X47284D01*
Y86436D01*
X47403D01*
Y86496D01*
X47523D01*
Y86555D01*
X47821D01*
Y86496D01*
X47940D01*
Y86436D01*
X48119D01*
Y86376D01*
X48238D01*
Y86317D01*
X48357D01*
Y86257D01*
X48536D01*
Y86197D01*
X48655D01*
Y86138D01*
X48834D01*
Y86078D01*
X48954D01*
Y86019D01*
X49132D01*
Y85959D01*
X49252D01*
Y85899D01*
X49431D01*
Y85840D01*
X49609D01*
Y85780D01*
X49729D01*
Y85720D01*
X49907D01*
Y85661D01*
X50086D01*
Y85601D01*
X50325D01*
Y85542D01*
X50563D01*
Y85482D01*
X50861D01*
Y85422D01*
X51994D01*
Y85482D01*
X52232D01*
Y85542D01*
X52411D01*
Y85601D01*
X52590D01*
Y85661D01*
X52709D01*
Y85720D01*
X52829D01*
Y85780D01*
X52888D01*
Y85840D01*
X53008D01*
Y85899D01*
X53067D01*
Y85959D01*
X53186D01*
Y86019D01*
X53246D01*
Y86078D01*
X53306D01*
Y86138D01*
X53365D01*
Y86197D01*
X53484D01*
Y86257D01*
X53544D01*
Y86317D01*
X53604D01*
Y86376D01*
X53663D01*
Y86436D01*
X53782D01*
Y86376D01*
X53961D01*
Y86317D01*
X54140D01*
Y86257D01*
X54260D01*
Y86197D01*
X54438D01*
Y86138D01*
X54558D01*
Y86078D01*
X54677D01*
Y86019D01*
X54856D01*
Y85959D01*
X54975D01*
Y85899D01*
X55154D01*
Y85840D01*
X55273D01*
Y85780D01*
X55392D01*
Y85720D01*
X55571D01*
Y85661D01*
X55690D01*
Y85601D01*
X55809D01*
Y85542D01*
X55988D01*
Y85482D01*
X56108D01*
Y85422D01*
X56287D01*
Y85363D01*
X56406D01*
Y85303D01*
X56525D01*
Y85243D01*
X56644D01*
Y85184D01*
X56823D01*
Y85124D01*
X57002D01*
Y85065D01*
X57121D01*
Y85005D01*
X57360D01*
Y84945D01*
X57479D01*
Y84886D01*
X57777D01*
Y84826D01*
X58731D01*
Y84886D01*
X58910D01*
Y84945D01*
X59029D01*
Y85005D01*
X59088D01*
Y85065D01*
X59208D01*
Y85124D01*
X59267D01*
Y85184D01*
X59327D01*
Y85243D01*
Y85303D01*
X59387D01*
Y85363D01*
X59446D01*
Y85422D01*
Y85482D01*
X59506D01*
Y85542D01*
Y85601D01*
Y85661D01*
X59565D01*
Y85720D01*
Y85780D01*
Y85840D01*
X59625D01*
Y85899D01*
Y85959D01*
Y86019D01*
Y86078D01*
X59685D01*
Y86138D01*
Y86197D01*
Y86257D01*
Y86317D01*
Y86376D01*
X59744D01*
Y86436D01*
Y86496D01*
Y86555D01*
Y86615D01*
Y86674D01*
Y86734D01*
Y86794D01*
Y86853D01*
Y86913D01*
Y86972D01*
Y87032D01*
Y87092D01*
Y87151D01*
Y87211D01*
Y87270D01*
Y87330D01*
Y87390D01*
Y87449D01*
Y87509D01*
Y87569D01*
Y87628D01*
Y87688D01*
Y87748D01*
Y87807D01*
Y87867D01*
Y87926D01*
Y87986D01*
Y88046D01*
X59685D01*
Y88105D01*
Y88165D01*
Y88224D01*
Y88284D01*
Y88344D01*
Y88403D01*
X59625D01*
Y88463D01*
Y88522D01*
Y88582D01*
Y88642D01*
Y88701D01*
X59565D01*
Y88761D01*
Y88821D01*
Y88880D01*
Y88940D01*
X59506D01*
Y88999D01*
Y89059D01*
Y89119D01*
X59446D01*
Y89178D01*
Y89238D01*
Y89297D01*
X59387D01*
Y89357D01*
Y89417D01*
Y89476D01*
X59327D01*
Y89536D01*
Y89596D01*
Y89655D01*
X59267D01*
Y89715D01*
Y89775D01*
X59208D01*
Y89834D01*
Y89894D01*
X59148D01*
Y89953D01*
Y90013D01*
Y90073D01*
X59088D01*
Y90132D01*
X59029D01*
Y90192D01*
Y90251D01*
X58969D01*
Y90311D01*
Y90371D01*
X58910D01*
Y90430D01*
Y90490D01*
X58850D01*
Y90549D01*
Y90609D01*
X58790D01*
Y90669D01*
X58731D01*
Y90728D01*
Y90788D01*
X58671D01*
Y90848D01*
X58612D01*
Y90907D01*
Y90967D01*
X58552D01*
Y91026D01*
X58492D01*
Y91086D01*
X58433D01*
Y91146D01*
Y91205D01*
X58373D01*
Y91265D01*
X58314D01*
Y91325D01*
X58254D01*
Y91384D01*
X58194D01*
Y91444D01*
X58135D01*
Y91503D01*
X58075D01*
Y91563D01*
Y91623D01*
X58015D01*
Y91682D01*
X57956D01*
Y91742D01*
X57896D01*
Y91802D01*
X57837D01*
Y91861D01*
X57717D01*
Y91921D01*
X57658D01*
Y91980D01*
X57598D01*
Y92040D01*
X57538D01*
Y92099D01*
X57479D01*
Y92159D01*
X57419D01*
Y92219D01*
X57300D01*
Y92278D01*
X57240D01*
Y92338D01*
Y92398D01*
X57300D01*
Y92457D01*
Y92517D01*
X57360D01*
Y92576D01*
Y92636D01*
Y92696D01*
X57419D01*
Y92755D01*
Y92815D01*
Y92875D01*
X57479D01*
Y92934D01*
Y92994D01*
Y93053D01*
X57538D01*
Y93113D01*
Y93173D01*
Y93232D01*
Y93292D01*
Y93352D01*
Y93411D01*
X57598D01*
Y93471D01*
Y93530D01*
Y93590D01*
Y93650D01*
Y93709D01*
Y93769D01*
X57538D01*
Y93828D01*
Y93888D01*
Y93948D01*
Y94007D01*
Y94067D01*
X57479D01*
Y94126D01*
Y94186D01*
Y94246D01*
X57419D01*
Y94305D01*
Y94365D01*
X57360D01*
Y94425D01*
Y94484D01*
X57300D01*
Y94544D01*
Y94604D01*
X57240D01*
Y94663D01*
X57181D01*
Y94723D01*
Y94782D01*
X57121D01*
Y94842D01*
X57061D01*
Y94902D01*
X57002D01*
Y94961D01*
X56942D01*
Y95021D01*
X56883D01*
Y95080D01*
X56823D01*
Y95140D01*
X56763D01*
Y95200D01*
X56704D01*
Y95259D01*
X56585D01*
Y95319D01*
X56525D01*
Y95379D01*
X56465D01*
Y95438D01*
X56346D01*
Y95498D01*
X56287D01*
Y95557D01*
X56167D01*
Y95617D01*
X56108D01*
Y95677D01*
X55988D01*
Y95736D01*
X55929D01*
Y95796D01*
X55809D01*
Y95855D01*
X55690D01*
Y95915D01*
X55571D01*
Y95975D01*
X55452D01*
Y96034D01*
X55333D01*
Y96094D01*
X55213D01*
Y96153D01*
X55094D01*
Y96213D01*
X54975D01*
Y96273D01*
X54856D01*
Y96332D01*
X54736D01*
Y96392D01*
X54617D01*
Y96452D01*
X54498D01*
Y96511D01*
X54379D01*
Y96571D01*
X54200D01*
Y96631D01*
X54081D01*
Y96690D01*
X53961D01*
Y96750D01*
X53782D01*
Y96809D01*
X53663D01*
Y96869D01*
X53484D01*
Y96929D01*
X53365D01*
Y96988D01*
X53186D01*
Y97048D01*
X53067D01*
Y97107D01*
X52888D01*
Y97167D01*
X52769D01*
Y97227D01*
X52650D01*
Y97286D01*
X52531D01*
Y97346D01*
Y97405D01*
Y97465D01*
X52471D01*
Y97525D01*
Y97584D01*
Y97644D01*
X52411D01*
Y97704D01*
Y97763D01*
X52352D01*
Y97823D01*
Y97882D01*
X52292D01*
Y97942D01*
Y98002D01*
X52232D01*
Y98061D01*
X52173D01*
Y98121D01*
Y98181D01*
X52113D01*
Y98240D01*
X52054D01*
Y98300D01*
Y98359D01*
X51994D01*
Y98419D01*
X51934D01*
Y98479D01*
X51875D01*
Y98538D01*
X51815D01*
Y98598D01*
X51755D01*
Y98658D01*
X51696D01*
Y98717D01*
X51636D01*
Y98777D01*
X51577D01*
Y98836D01*
X51517D01*
Y98896D01*
X51457D01*
Y98956D01*
X51398D01*
Y99015D01*
X51338D01*
Y99075D01*
X51219D01*
Y99134D01*
X51159D01*
Y99194D01*
X51100D01*
Y99254D01*
X50981D01*
Y99313D01*
X50921D01*
Y99373D01*
X50861D01*
Y99432D01*
X50742D01*
Y99492D01*
X50682D01*
Y99552D01*
X50563D01*
Y99611D01*
X50504D01*
Y99671D01*
X50384D01*
Y99731D01*
X50265D01*
Y99790D01*
X50146D01*
Y99850D01*
X50086D01*
Y99909D01*
X49967D01*
Y99969D01*
X49848D01*
Y100029D01*
X49729D01*
Y100088D01*
X49609D01*
Y100148D01*
X49490D01*
Y100207D01*
X49371D01*
Y100267D01*
X49252D01*
Y100327D01*
X49132D01*
Y100386D01*
X48954D01*
Y100446D01*
X48834D01*
Y100506D01*
X48655D01*
Y100565D01*
X48536D01*
Y100625D01*
X48357D01*
Y100684D01*
X48178D01*
Y100744D01*
X48059D01*
Y100804D01*
X47821D01*
Y100863D01*
X47642D01*
Y100923D01*
X47403D01*
Y100982D01*
X47165D01*
Y101042D01*
X46927D01*
Y101102D01*
X46628D01*
Y101161D01*
X46330D01*
Y101221D01*
X45853D01*
Y101281D01*
D02*
G37*
G36*
X350353Y29281D02*
X348267D01*
Y29221D01*
X347790D01*
Y29161D01*
X347492D01*
Y29102D01*
X347194D01*
Y29042D01*
X347015D01*
Y28982D01*
X346776D01*
Y28923D01*
X346538D01*
Y28863D01*
X346359D01*
Y28804D01*
X346180D01*
Y28744D01*
X346061D01*
Y28684D01*
X345882D01*
Y28625D01*
X345703D01*
Y28565D01*
X345584D01*
Y28506D01*
X345405D01*
Y28446D01*
X345286D01*
Y28386D01*
X345167D01*
Y28327D01*
X345047D01*
Y28267D01*
X344928D01*
Y28207D01*
X344749D01*
Y28148D01*
X344690D01*
Y28088D01*
X344570D01*
Y28029D01*
X344451D01*
Y27969D01*
X344332D01*
Y27909D01*
X344272D01*
Y27850D01*
X344153D01*
Y27790D01*
X344034D01*
Y27731D01*
X343915D01*
Y27671D01*
X343855D01*
Y27611D01*
X343736D01*
Y27552D01*
X343676D01*
Y27492D01*
X343557D01*
Y27433D01*
X343497D01*
Y27373D01*
X343378D01*
Y27313D01*
X343319D01*
Y27254D01*
X343259D01*
Y27194D01*
X343199D01*
Y27134D01*
X343080D01*
Y27075D01*
X343021D01*
Y27015D01*
X342961D01*
Y26956D01*
X342842D01*
Y26896D01*
X342782D01*
Y26836D01*
X342722D01*
Y26777D01*
X342663D01*
Y26717D01*
X342603D01*
Y26658D01*
X342544D01*
Y26598D01*
X342484D01*
Y26538D01*
X342424D01*
Y26479D01*
X342365D01*
Y26419D01*
X342305D01*
Y26359D01*
X342245D01*
Y26300D01*
X342186D01*
Y26240D01*
Y26180D01*
X342126D01*
Y26121D01*
X342067D01*
Y26061D01*
X342007D01*
Y26002D01*
Y25942D01*
X341947D01*
Y25882D01*
X341888D01*
Y25823D01*
Y25763D01*
X341828D01*
Y25704D01*
Y25644D01*
X341769D01*
Y25584D01*
X341709D01*
Y25525D01*
X341530D01*
Y25465D01*
X341411D01*
Y25405D01*
X341172D01*
Y25346D01*
X341053D01*
Y25286D01*
X340874D01*
Y25227D01*
X340695D01*
Y25167D01*
X340576D01*
Y25107D01*
X340397D01*
Y25048D01*
X340278D01*
Y24988D01*
X340099D01*
Y24929D01*
X339980D01*
Y24869D01*
X339801D01*
Y24809D01*
X339682D01*
Y24750D01*
X339563D01*
Y24690D01*
X339443D01*
Y24631D01*
X339324D01*
Y24571D01*
X339145D01*
Y24511D01*
X339026D01*
Y24452D01*
X338907D01*
Y24392D01*
X338788D01*
Y24332D01*
X338728D01*
Y24273D01*
X338609D01*
Y24213D01*
X338490D01*
Y24153D01*
X338370D01*
Y24094D01*
X338251D01*
Y24034D01*
X338191D01*
Y23975D01*
X338072D01*
Y23915D01*
X338013D01*
Y23855D01*
X337893D01*
Y23796D01*
X337834D01*
Y23736D01*
X337774D01*
Y23677D01*
X337655D01*
Y23617D01*
X337595D01*
Y23557D01*
X337536D01*
Y23498D01*
X337476D01*
Y23438D01*
X337416D01*
Y23379D01*
X337357D01*
Y23319D01*
X337297D01*
Y23259D01*
X337238D01*
Y23200D01*
X337178D01*
Y23140D01*
X337118D01*
Y23080D01*
X337059D01*
Y23021D01*
X336999D01*
Y22961D01*
Y22902D01*
X336940D01*
Y22842D01*
X336880D01*
Y22782D01*
Y22723D01*
X336820D01*
Y22663D01*
Y22603D01*
X336761D01*
Y22544D01*
Y22484D01*
X336701D01*
Y22425D01*
Y22365D01*
X336641D01*
Y22305D01*
Y22246D01*
Y22186D01*
Y22127D01*
X336582D01*
Y22067D01*
Y22007D01*
Y21948D01*
Y21888D01*
Y21828D01*
Y21769D01*
X336522D01*
Y21709D01*
Y21650D01*
Y21590D01*
Y21530D01*
Y21471D01*
Y21411D01*
Y21351D01*
X336582D01*
Y21292D01*
Y21232D01*
Y21173D01*
Y21113D01*
Y21053D01*
Y20994D01*
Y20934D01*
X336641D01*
Y20875D01*
Y20815D01*
Y20755D01*
Y20696D01*
Y20636D01*
X336701D01*
Y20576D01*
Y20517D01*
Y20457D01*
X336641D01*
Y20398D01*
X336522D01*
Y20338D01*
X336463D01*
Y20278D01*
X336403D01*
Y20219D01*
X336343D01*
Y20159D01*
X336224D01*
Y20099D01*
X336164D01*
Y20040D01*
X336105D01*
Y19980D01*
X336045D01*
Y19921D01*
X335986D01*
Y19861D01*
X335926D01*
Y19802D01*
X335866D01*
Y19742D01*
X335807D01*
Y19682D01*
X335747D01*
Y19623D01*
X335687D01*
Y19563D01*
X335628D01*
Y19503D01*
X335568D01*
Y19444D01*
Y19384D01*
X335509D01*
Y19324D01*
X335449D01*
Y19265D01*
X335389D01*
Y19205D01*
X335330D01*
Y19146D01*
Y19086D01*
X335270D01*
Y19026D01*
X335211D01*
Y18967D01*
X335151D01*
Y18907D01*
Y18848D01*
X335091D01*
Y18788D01*
X335032D01*
Y18728D01*
Y18669D01*
X334972D01*
Y18609D01*
X334912D01*
Y18550D01*
Y18490D01*
X334853D01*
Y18430D01*
Y18371D01*
X334793D01*
Y18311D01*
Y18251D01*
X334734D01*
Y18192D01*
Y18132D01*
X334674D01*
Y18073D01*
X334614D01*
Y18013D01*
Y17953D01*
Y17894D01*
X334555D01*
Y17834D01*
Y17774D01*
X334495D01*
Y17715D01*
Y17655D01*
Y17596D01*
X334436D01*
Y17536D01*
Y17476D01*
X334376D01*
Y17417D01*
Y17357D01*
Y17298D01*
X334316D01*
Y17238D01*
Y17178D01*
Y17119D01*
X334257D01*
Y17059D01*
Y16999D01*
Y16940D01*
X334197D01*
Y16880D01*
Y16821D01*
Y16761D01*
Y16701D01*
X334138D01*
Y16642D01*
Y16582D01*
Y16522D01*
Y16463D01*
X334078D01*
Y16403D01*
Y16344D01*
Y16284D01*
Y16224D01*
Y16165D01*
Y16105D01*
X334018D01*
Y16046D01*
Y15986D01*
Y15926D01*
Y15867D01*
Y15807D01*
Y15747D01*
Y15688D01*
Y15628D01*
Y15569D01*
Y15509D01*
Y15449D01*
Y15390D01*
Y15330D01*
Y15270D01*
Y15211D01*
Y15151D01*
Y15092D01*
Y15032D01*
Y14973D01*
Y14913D01*
Y14853D01*
Y14794D01*
Y14734D01*
Y14674D01*
Y14615D01*
Y14555D01*
Y14495D01*
Y14436D01*
Y14376D01*
Y14317D01*
Y14257D01*
X334078D01*
Y14197D01*
Y14138D01*
Y14078D01*
Y14019D01*
Y13959D01*
X334138D01*
Y13899D01*
Y13840D01*
Y13780D01*
X334197D01*
Y13721D01*
Y13661D01*
Y13601D01*
X334257D01*
Y13542D01*
Y13482D01*
X334316D01*
Y13422D01*
Y13363D01*
X334376D01*
Y13303D01*
X334436D01*
Y13243D01*
X334495D01*
Y13184D01*
X334555D01*
Y13124D01*
X334674D01*
Y13065D01*
X334793D01*
Y13005D01*
X334972D01*
Y12946D01*
X335270D01*
Y12886D01*
X335330D01*
Y12946D01*
X335747D01*
Y13005D01*
X336045D01*
Y13065D01*
X336224D01*
Y13124D01*
X336463D01*
Y13184D01*
X336641D01*
Y13243D01*
X336761D01*
Y13303D01*
X336940D01*
Y13363D01*
X337059D01*
Y13422D01*
X337238D01*
Y13482D01*
X337357D01*
Y13542D01*
X337476D01*
Y13601D01*
X337655D01*
Y13661D01*
X337774D01*
Y13721D01*
X337953D01*
Y13780D01*
X338072D01*
Y13840D01*
X338191D01*
Y13899D01*
X338370D01*
Y13959D01*
X338490D01*
Y14019D01*
X338668D01*
Y14078D01*
X338788D01*
Y14138D01*
X338907D01*
Y14197D01*
X339086D01*
Y14257D01*
X339205D01*
Y14317D01*
X339384D01*
Y14376D01*
X339503D01*
Y14436D01*
X339682D01*
Y14495D01*
X339801D01*
Y14555D01*
X339980D01*
Y14615D01*
X340218D01*
Y14555D01*
X340278D01*
Y14495D01*
X340338D01*
Y14436D01*
X340397D01*
Y14376D01*
X340457D01*
Y14317D01*
Y14257D01*
X340576D01*
Y14197D01*
X340636D01*
Y14138D01*
X340695D01*
Y14078D01*
X340755D01*
Y14019D01*
X340815D01*
Y13959D01*
X340874D01*
Y13899D01*
X340993D01*
Y13840D01*
X341053D01*
Y13780D01*
X341172D01*
Y13721D01*
X341292D01*
Y13661D01*
X341411D01*
Y13601D01*
X341590D01*
Y13542D01*
X341769D01*
Y13482D01*
X342842D01*
Y13542D01*
X343080D01*
Y13601D01*
X343319D01*
Y13661D01*
X343438D01*
Y13721D01*
X343676D01*
Y13780D01*
X343795D01*
Y13840D01*
X343974D01*
Y13899D01*
X344094D01*
Y13959D01*
X344272D01*
Y14019D01*
X344392D01*
Y14078D01*
X344511D01*
Y14138D01*
X344690D01*
Y14197D01*
X344809D01*
Y14257D01*
X344988D01*
Y14317D01*
X345107D01*
Y14376D01*
X345226D01*
Y14436D01*
X345405D01*
Y14495D01*
X345524D01*
Y14555D01*
X345703D01*
Y14615D01*
X345823D01*
Y14555D01*
X345942D01*
Y14495D01*
X346061D01*
Y14436D01*
X346240D01*
Y14376D01*
X346359D01*
Y14317D01*
X346538D01*
Y14257D01*
X346776D01*
Y14197D01*
X346955D01*
Y14138D01*
X347194D01*
Y14078D01*
X347432D01*
Y14019D01*
X347790D01*
Y13959D01*
X348148D01*
Y13899D01*
X349042D01*
Y13840D01*
X349161D01*
Y13899D01*
X350055D01*
Y13959D01*
X350413D01*
Y14019D01*
X350711D01*
Y14078D01*
X350950D01*
Y14138D01*
X351188D01*
Y14197D01*
X351307D01*
Y14257D01*
X351486D01*
Y14317D01*
X351665D01*
Y14376D01*
X351784D01*
Y14436D01*
X351904D01*
Y14495D01*
X352023D01*
Y14555D01*
X352321D01*
Y14495D01*
X352440D01*
Y14436D01*
X352619D01*
Y14376D01*
X352738D01*
Y14317D01*
X352857D01*
Y14257D01*
X353036D01*
Y14197D01*
X353155D01*
Y14138D01*
X353334D01*
Y14078D01*
X353453D01*
Y14019D01*
X353632D01*
Y13959D01*
X353752D01*
Y13899D01*
X353930D01*
Y13840D01*
X354109D01*
Y13780D01*
X354228D01*
Y13721D01*
X354407D01*
Y13661D01*
X354586D01*
Y13601D01*
X354825D01*
Y13542D01*
X355063D01*
Y13482D01*
X355361D01*
Y13422D01*
X356494D01*
Y13482D01*
X356733D01*
Y13542D01*
X356911D01*
Y13601D01*
X357090D01*
Y13661D01*
X357209D01*
Y13721D01*
X357329D01*
Y13780D01*
X357388D01*
Y13840D01*
X357507D01*
Y13899D01*
X357567D01*
Y13959D01*
X357686D01*
Y14019D01*
X357746D01*
Y14078D01*
X357806D01*
Y14138D01*
X357865D01*
Y14197D01*
X357984D01*
Y14257D01*
X358044D01*
Y14317D01*
X358104D01*
Y14376D01*
X358163D01*
Y14436D01*
X358282D01*
Y14376D01*
X358461D01*
Y14317D01*
X358640D01*
Y14257D01*
X358759D01*
Y14197D01*
X358938D01*
Y14138D01*
X359057D01*
Y14078D01*
X359177D01*
Y14019D01*
X359356D01*
Y13959D01*
X359475D01*
Y13899D01*
X359654D01*
Y13840D01*
X359773D01*
Y13780D01*
X359892D01*
Y13721D01*
X360071D01*
Y13661D01*
X360190D01*
Y13601D01*
X360310D01*
Y13542D01*
X360488D01*
Y13482D01*
X360608D01*
Y13422D01*
X360787D01*
Y13363D01*
X360906D01*
Y13303D01*
X361025D01*
Y13243D01*
X361144D01*
Y13184D01*
X361323D01*
Y13124D01*
X361502D01*
Y13065D01*
X361621D01*
Y13005D01*
X361860D01*
Y12946D01*
X361979D01*
Y12886D01*
X362277D01*
Y12826D01*
X363231D01*
Y12886D01*
X363410D01*
Y12946D01*
X363529D01*
Y13005D01*
X363589D01*
Y13065D01*
X363708D01*
Y13124D01*
X363767D01*
Y13184D01*
X363827D01*
Y13243D01*
Y13303D01*
X363887D01*
Y13363D01*
X363946D01*
Y13422D01*
Y13482D01*
X364006D01*
Y13542D01*
Y13601D01*
Y13661D01*
X364065D01*
Y13721D01*
Y13780D01*
Y13840D01*
X364125D01*
Y13899D01*
Y13959D01*
Y14019D01*
Y14078D01*
X364185D01*
Y14138D01*
Y14197D01*
Y14257D01*
Y14317D01*
Y14376D01*
X364244D01*
Y14436D01*
Y14495D01*
Y14555D01*
Y14615D01*
Y14674D01*
Y14734D01*
Y14794D01*
Y14853D01*
Y14913D01*
Y14973D01*
Y15032D01*
Y15092D01*
Y15151D01*
Y15211D01*
Y15270D01*
Y15330D01*
Y15390D01*
Y15449D01*
Y15509D01*
Y15569D01*
Y15628D01*
Y15688D01*
Y15747D01*
Y15807D01*
Y15867D01*
Y15926D01*
Y15986D01*
Y16046D01*
X364185D01*
Y16105D01*
Y16165D01*
Y16224D01*
Y16284D01*
Y16344D01*
Y16403D01*
X364125D01*
Y16463D01*
Y16522D01*
Y16582D01*
Y16642D01*
Y16701D01*
X364065D01*
Y16761D01*
Y16821D01*
Y16880D01*
Y16940D01*
X364006D01*
Y16999D01*
Y17059D01*
Y17119D01*
X363946D01*
Y17178D01*
Y17238D01*
Y17298D01*
X363887D01*
Y17357D01*
Y17417D01*
Y17476D01*
X363827D01*
Y17536D01*
Y17596D01*
Y17655D01*
X363767D01*
Y17715D01*
Y17774D01*
X363708D01*
Y17834D01*
Y17894D01*
X363648D01*
Y17953D01*
Y18013D01*
Y18073D01*
X363589D01*
Y18132D01*
X363529D01*
Y18192D01*
Y18251D01*
X363469D01*
Y18311D01*
Y18371D01*
X363410D01*
Y18430D01*
Y18490D01*
X363350D01*
Y18550D01*
Y18609D01*
X363290D01*
Y18669D01*
X363231D01*
Y18728D01*
Y18788D01*
X363171D01*
Y18848D01*
X363111D01*
Y18907D01*
Y18967D01*
X363052D01*
Y19026D01*
X362992D01*
Y19086D01*
X362933D01*
Y19146D01*
Y19205D01*
X362873D01*
Y19265D01*
X362813D01*
Y19324D01*
X362754D01*
Y19384D01*
X362694D01*
Y19444D01*
X362635D01*
Y19503D01*
X362575D01*
Y19563D01*
Y19623D01*
X362515D01*
Y19682D01*
X362456D01*
Y19742D01*
X362396D01*
Y19802D01*
X362336D01*
Y19861D01*
X362217D01*
Y19921D01*
X362158D01*
Y19980D01*
X362098D01*
Y20040D01*
X362038D01*
Y20099D01*
X361979D01*
Y20159D01*
X361919D01*
Y20219D01*
X361800D01*
Y20278D01*
X361740D01*
Y20338D01*
Y20398D01*
X361800D01*
Y20457D01*
Y20517D01*
X361860D01*
Y20576D01*
Y20636D01*
Y20696D01*
X361919D01*
Y20755D01*
Y20815D01*
Y20875D01*
X361979D01*
Y20934D01*
Y20994D01*
Y21053D01*
X362038D01*
Y21113D01*
Y21173D01*
Y21232D01*
Y21292D01*
Y21351D01*
Y21411D01*
X362098D01*
Y21471D01*
Y21530D01*
Y21590D01*
Y21650D01*
Y21709D01*
Y21769D01*
X362038D01*
Y21828D01*
Y21888D01*
Y21948D01*
Y22007D01*
Y22067D01*
X361979D01*
Y22127D01*
Y22186D01*
Y22246D01*
X361919D01*
Y22305D01*
Y22365D01*
X361860D01*
Y22425D01*
Y22484D01*
X361800D01*
Y22544D01*
Y22603D01*
X361740D01*
Y22663D01*
X361681D01*
Y22723D01*
Y22782D01*
X361621D01*
Y22842D01*
X361561D01*
Y22902D01*
X361502D01*
Y22961D01*
X361442D01*
Y23021D01*
X361383D01*
Y23080D01*
X361323D01*
Y23140D01*
X361263D01*
Y23200D01*
X361204D01*
Y23259D01*
X361085D01*
Y23319D01*
X361025D01*
Y23379D01*
X360965D01*
Y23438D01*
X360846D01*
Y23498D01*
X360787D01*
Y23557D01*
X360667D01*
Y23617D01*
X360608D01*
Y23677D01*
X360488D01*
Y23736D01*
X360429D01*
Y23796D01*
X360310D01*
Y23855D01*
X360190D01*
Y23915D01*
X360071D01*
Y23975D01*
X359952D01*
Y24034D01*
X359833D01*
Y24094D01*
X359713D01*
Y24153D01*
X359594D01*
Y24213D01*
X359475D01*
Y24273D01*
X359356D01*
Y24332D01*
X359236D01*
Y24392D01*
X359117D01*
Y24452D01*
X358998D01*
Y24511D01*
X358879D01*
Y24571D01*
X358700D01*
Y24631D01*
X358581D01*
Y24690D01*
X358461D01*
Y24750D01*
X358282D01*
Y24809D01*
X358163D01*
Y24869D01*
X357984D01*
Y24929D01*
X357865D01*
Y24988D01*
X357686D01*
Y25048D01*
X357567D01*
Y25107D01*
X357388D01*
Y25167D01*
X357269D01*
Y25227D01*
X357150D01*
Y25286D01*
X357031D01*
Y25346D01*
Y25405D01*
Y25465D01*
X356971D01*
Y25525D01*
Y25584D01*
Y25644D01*
X356911D01*
Y25704D01*
Y25763D01*
X356852D01*
Y25823D01*
Y25882D01*
X356792D01*
Y25942D01*
Y26002D01*
X356733D01*
Y26061D01*
X356673D01*
Y26121D01*
Y26180D01*
X356613D01*
Y26240D01*
X356554D01*
Y26300D01*
Y26359D01*
X356494D01*
Y26419D01*
X356434D01*
Y26479D01*
X356375D01*
Y26538D01*
X356315D01*
Y26598D01*
X356256D01*
Y26658D01*
X356196D01*
Y26717D01*
X356136D01*
Y26777D01*
X356077D01*
Y26836D01*
X356017D01*
Y26896D01*
X355958D01*
Y26956D01*
X355898D01*
Y27015D01*
X355838D01*
Y27075D01*
X355719D01*
Y27134D01*
X355659D01*
Y27194D01*
X355600D01*
Y27254D01*
X355481D01*
Y27313D01*
X355421D01*
Y27373D01*
X355361D01*
Y27433D01*
X355242D01*
Y27492D01*
X355182D01*
Y27552D01*
X355063D01*
Y27611D01*
X355004D01*
Y27671D01*
X354884D01*
Y27731D01*
X354765D01*
Y27790D01*
X354646D01*
Y27850D01*
X354586D01*
Y27909D01*
X354467D01*
Y27969D01*
X354348D01*
Y28029D01*
X354228D01*
Y28088D01*
X354109D01*
Y28148D01*
X353990D01*
Y28207D01*
X353871D01*
Y28267D01*
X353752D01*
Y28327D01*
X353632D01*
Y28386D01*
X353453D01*
Y28446D01*
X353334D01*
Y28506D01*
X353155D01*
Y28565D01*
X353036D01*
Y28625D01*
X352857D01*
Y28684D01*
X352678D01*
Y28744D01*
X352559D01*
Y28804D01*
X352321D01*
Y28863D01*
X352142D01*
Y28923D01*
X351904D01*
Y28982D01*
X351665D01*
Y29042D01*
X351427D01*
Y29102D01*
X351128D01*
Y29161D01*
X350830D01*
Y29221D01*
X350353D01*
Y29281D01*
D02*
G37*
G36*
X97087Y101504D02*
X96476Y101504D01*
Y100820D01*
X96513Y100764D01*
X96560Y100718D01*
X96587Y100681D01*
X96606Y100663D01*
X96661Y100607D01*
X96726Y100570D01*
X96772Y100533D01*
X96781Y100524D01*
X96791D01*
X96874Y100487D01*
X96948Y100459D01*
X97004Y100441D01*
X97022Y100431D01*
X97031D01*
X97133Y100413D01*
X97225Y100404D01*
X97263Y100394D01*
X97318D01*
X97420Y100404D01*
X97512Y100413D01*
X97586Y100441D01*
X97651Y100468D01*
X97697Y100487D01*
X97734Y100515D01*
X97753Y100524D01*
X97762Y100533D01*
X97808Y100589D01*
X97845Y100644D01*
X97864Y100700D01*
X97882Y100755D01*
X97891Y100801D01*
X97901Y100838D01*
Y100866D01*
Y100875D01*
X97891Y100977D01*
X97873Y101051D01*
X97864Y101107D01*
X97855Y101116D01*
Y101125D01*
X97808Y101208D01*
X97753Y101273D01*
X97716Y101310D01*
X97697Y101329D01*
X97605Y101384D01*
X97512Y101421D01*
X97475Y101440D01*
X97448Y101449D01*
X97429Y101458D01*
X97420D01*
X97281Y101486D01*
X97142Y101495D01*
X97087Y101504D01*
D02*
G37*
G36*
X69836Y101504D02*
X69226D01*
Y100820D01*
X69263Y100764D01*
X69309Y100718D01*
X69337Y100681D01*
X69355Y100663D01*
X69411Y100607D01*
X69476Y100570D01*
X69522Y100533D01*
X69531Y100524D01*
X69540D01*
X69624Y100487D01*
X69697Y100459D01*
X69753Y100441D01*
X69771Y100431D01*
X69781D01*
X69883Y100413D01*
X69975Y100404D01*
X70012Y100394D01*
X70068D01*
X70169Y100404D01*
X70262Y100413D01*
X70336Y100441D01*
X70401Y100468D01*
X70447Y100487D01*
X70484Y100515D01*
X70502Y100524D01*
X70512Y100533D01*
X70558Y100589D01*
X70595Y100644D01*
X70613Y100700D01*
X70632Y100755D01*
X70641Y100801D01*
X70650Y100838D01*
Y100866D01*
Y100875D01*
X70641Y100977D01*
X70622Y101051D01*
X70613Y101107D01*
X70604Y101116D01*
Y101125D01*
X70558Y101208D01*
X70502Y101273D01*
X70465Y101310D01*
X70447Y101329D01*
X70354Y101384D01*
X70262Y101421D01*
X70225Y101440D01*
X70197Y101449D01*
X70179Y101458D01*
X70169D01*
X70030Y101486D01*
X69892Y101495D01*
X69836Y101504D01*
D02*
G37*
G36*
X106161Y102920D02*
X106096D01*
X105957Y102910D01*
X105856Y102892D01*
X105809Y102874D01*
X105782Y102864D01*
X105763Y102855D01*
X105754D01*
X105652Y102809D01*
X105569Y102753D01*
X105523Y102707D01*
X105504Y102698D01*
Y102688D01*
X105430Y102605D01*
X105375Y102522D01*
X105356Y102494D01*
X105347Y102466D01*
X105338Y102448D01*
Y102439D01*
X105301Y102337D01*
X105291Y102235D01*
X105282Y102198D01*
Y102161D01*
Y102143D01*
Y102134D01*
Y102059D01*
X106966D01*
X106929Y102198D01*
X106892Y102309D01*
X106883Y102355D01*
X106864Y102383D01*
X106855Y102402D01*
Y102411D01*
X106790Y102522D01*
X106735Y102605D01*
X106688Y102661D01*
X106670Y102670D01*
Y102679D01*
X106587Y102753D01*
X106503Y102809D01*
X106439Y102846D01*
X106429Y102855D01*
X106420D01*
X106309Y102892D01*
X106198Y102910D01*
X106161Y102920D01*
D02*
G37*
G36*
X78910Y102920D02*
X78846D01*
X78707Y102910D01*
X78605Y102892D01*
X78559Y102873D01*
X78531Y102864D01*
X78513Y102855D01*
X78504D01*
X78402Y102809D01*
X78319Y102753D01*
X78272Y102707D01*
X78254Y102698D01*
Y102688D01*
X78180Y102605D01*
X78124Y102522D01*
X78106Y102494D01*
X78096Y102466D01*
X78087Y102448D01*
Y102439D01*
X78050Y102337D01*
X78041Y102235D01*
X78032Y102198D01*
Y102161D01*
Y102143D01*
Y102133D01*
Y102059D01*
X79715D01*
X79678Y102198D01*
X79641Y102309D01*
X79632Y102355D01*
X79614Y102383D01*
X79604Y102402D01*
Y102411D01*
X79540Y102522D01*
X79484Y102605D01*
X79438Y102661D01*
X79419Y102670D01*
Y102679D01*
X79336Y102753D01*
X79253Y102809D01*
X79188Y102846D01*
X79179Y102855D01*
X79169D01*
X79058Y102892D01*
X78948Y102910D01*
X78910Y102920D01*
D02*
G37*
G36*
X84220Y104224D02*
X83878D01*
X83758Y104215D01*
X83656Y104205D01*
X83554Y104187D01*
X83471Y104168D01*
X83406Y104141D01*
X83360Y104122D01*
X83323Y104113D01*
X83314Y104104D01*
X83147Y104002D01*
X83082Y103946D01*
X83017Y103891D01*
X82971Y103845D01*
X82934Y103808D01*
X82916Y103780D01*
X82907Y103771D01*
X82796Y103604D01*
X82758Y103512D01*
X82722Y103428D01*
X82694Y103364D01*
X82675Y103308D01*
X82657Y103262D01*
Y103253D01*
X82610Y103021D01*
X82592Y102920D01*
X82583Y102818D01*
X82573Y102725D01*
Y102661D01*
Y102614D01*
Y102596D01*
Y102143D01*
Y102004D01*
X82592Y101874D01*
X82601Y101763D01*
X82620Y101662D01*
X82638Y101578D01*
X82648Y101514D01*
X82666Y101477D01*
Y101458D01*
X82703Y101347D01*
X82740Y101245D01*
X82777Y101162D01*
X82823Y101088D01*
X82860Y101023D01*
X82888Y100977D01*
X82907Y100949D01*
X82916Y100940D01*
X83045Y100801D01*
X83110Y100755D01*
X83166Y100709D01*
X83221Y100672D01*
X83267Y100644D01*
X83295Y100635D01*
X83304Y100626D01*
X83397Y100589D01*
X83480Y100561D01*
X83573Y100542D01*
X83647Y100533D01*
X83720Y100524D01*
X83776Y100515D01*
X84220D01*
Y104224D01*
D02*
G37*
G36*
X74397Y97699D02*
X74341D01*
X74221Y97690D01*
X74110Y97662D01*
X74017Y97616D01*
X73943Y97570D01*
X73888Y97514D01*
X73851Y97477D01*
X73823Y97440D01*
X73814Y97431D01*
X73749Y97320D01*
X73703Y97199D01*
X73675Y97070D01*
X73647Y96940D01*
X73629Y96820D01*
X73620Y96728D01*
Y96691D01*
Y96663D01*
Y96645D01*
Y96635D01*
X75053Y95562D01*
Y96570D01*
X75044Y96774D01*
X75025Y96950D01*
X74998Y97088D01*
X74961Y97209D01*
X74933Y97301D01*
X74905Y97366D01*
X74887Y97412D01*
X74878Y97421D01*
X74804Y97514D01*
X74720Y97579D01*
X74628Y97634D01*
X74545Y97662D01*
X74461Y97680D01*
X74397Y97699D01*
D02*
G37*
G36*
X73620Y95932D02*
Y94961D01*
X73629Y94757D01*
X73647Y94582D01*
X73675Y94434D01*
X73703Y94314D01*
X73740Y94221D01*
X73768Y94156D01*
X73786Y94110D01*
X73795Y94101D01*
X73869Y94008D01*
X73953Y93944D01*
X74045Y93888D01*
X74128Y93860D01*
X74212Y93842D01*
X74276Y93832D01*
X74313Y93823D01*
X74332D01*
X74452Y93832D01*
X74563Y93860D01*
X74655Y93906D01*
X74730Y93953D01*
X74785Y93990D01*
X74822Y94036D01*
X74850Y94064D01*
X74859Y94073D01*
X74914Y94184D01*
X74961Y94304D01*
X74998Y94443D01*
X75025Y94573D01*
X75035Y94683D01*
X75044Y94785D01*
X75053Y94813D01*
Y94841D01*
Y94859D01*
Y94868D01*
X73620Y95932D01*
D02*
G37*
G36*
X65313Y97699D02*
X65258D01*
X65137Y97690D01*
X65026Y97662D01*
X64934Y97616D01*
X64860Y97570D01*
X64804Y97514D01*
X64767Y97477D01*
X64740Y97440D01*
X64730Y97431D01*
X64666Y97320D01*
X64619Y97199D01*
X64591Y97070D01*
X64564Y96940D01*
X64545Y96820D01*
X64536Y96728D01*
Y96691D01*
Y96663D01*
Y96645D01*
Y96635D01*
X65970Y95562D01*
Y96570D01*
X65961Y96774D01*
X65942Y96950D01*
X65914Y97088D01*
X65877Y97209D01*
X65850Y97301D01*
X65822Y97366D01*
X65803Y97412D01*
X65794Y97421D01*
X65720Y97514D01*
X65637Y97579D01*
X65544Y97634D01*
X65461Y97662D01*
X65378Y97680D01*
X65313Y97699D01*
D02*
G37*
G36*
X64536Y95932D02*
Y94961D01*
X64545Y94757D01*
X64564Y94582D01*
X64591Y94434D01*
X64619Y94314D01*
X64656Y94221D01*
X64684Y94156D01*
X64702Y94110D01*
X64712Y94101D01*
X64786Y94008D01*
X64869Y93944D01*
X64961Y93888D01*
X65045Y93860D01*
X65128Y93842D01*
X65193Y93832D01*
X65230Y93823D01*
X65248D01*
X65368Y93832D01*
X65479Y93860D01*
X65572Y93906D01*
X65646Y93953D01*
X65702Y93990D01*
X65738Y94036D01*
X65766Y94064D01*
X65776Y94073D01*
X65831Y94184D01*
X65877Y94304D01*
X65914Y94443D01*
X65942Y94573D01*
X65951Y94683D01*
X65961Y94785D01*
X65970Y94813D01*
Y94841D01*
Y94859D01*
Y94868D01*
X64536Y95932D01*
D02*
G37*
G36*
X312854Y19615D02*
X312244Y19615D01*
Y18930D01*
X312281Y18875D01*
X312327Y18828D01*
X312355Y18791D01*
X312373Y18773D01*
X312429Y18717D01*
X312494Y18680D01*
X312540Y18643D01*
X312549Y18634D01*
X312558D01*
X312642Y18597D01*
X312716Y18569D01*
X312771Y18551D01*
X312790Y18542D01*
X312799D01*
X312901Y18523D01*
X312993Y18514D01*
X313030Y18505D01*
X313086D01*
X313187Y18514D01*
X313280Y18523D01*
X313354Y18551D01*
X313419Y18579D01*
X313465Y18597D01*
X313502Y18625D01*
X313520Y18634D01*
X313530Y18643D01*
X313576Y18699D01*
X313613Y18754D01*
X313631Y18810D01*
X313650Y18865D01*
X313659Y18912D01*
X313668Y18949D01*
Y18976D01*
Y18986D01*
X313659Y19087D01*
X313641Y19161D01*
X313631Y19217D01*
X313622Y19226D01*
Y19235D01*
X313576Y19319D01*
X313520Y19383D01*
X313483Y19420D01*
X313465Y19439D01*
X313372Y19494D01*
X313280Y19531D01*
X313243Y19550D01*
X313215Y19559D01*
X313197Y19568D01*
X313187D01*
X313049Y19596D01*
X312910Y19605D01*
X312854Y19615D01*
D02*
G37*
G36*
X285604Y19615D02*
X284993D01*
Y18930D01*
X285031Y18875D01*
X285077Y18828D01*
X285104Y18791D01*
X285123Y18773D01*
X285178Y18717D01*
X285243Y18680D01*
X285289Y18643D01*
X285299Y18634D01*
X285308D01*
X285391Y18597D01*
X285465Y18569D01*
X285521Y18551D01*
X285539Y18542D01*
X285548D01*
X285650Y18523D01*
X285743Y18514D01*
X285780Y18505D01*
X285835D01*
X285937Y18514D01*
X286029Y18523D01*
X286104Y18551D01*
X286168Y18579D01*
X286214Y18597D01*
X286251Y18625D01*
X286270Y18634D01*
X286279Y18643D01*
X286326Y18699D01*
X286362Y18754D01*
X286381Y18810D01*
X286399Y18865D01*
X286409Y18912D01*
X286418Y18949D01*
Y18976D01*
Y18986D01*
X286409Y19087D01*
X286390Y19161D01*
X286381Y19217D01*
X286372Y19226D01*
Y19235D01*
X286326Y19319D01*
X286270Y19383D01*
X286233Y19420D01*
X286214Y19439D01*
X286122Y19494D01*
X286029Y19531D01*
X285993Y19550D01*
X285965Y19559D01*
X285946Y19568D01*
X285937D01*
X285798Y19596D01*
X285660Y19605D01*
X285604Y19615D01*
D02*
G37*
G36*
X321929Y21030D02*
X321864D01*
X321725Y21021D01*
X321623Y21002D01*
X321577Y20984D01*
X321549Y20974D01*
X321531Y20965D01*
X321522D01*
X321420Y20919D01*
X321337Y20863D01*
X321290Y20817D01*
X321272Y20808D01*
Y20799D01*
X321198Y20715D01*
X321143Y20632D01*
X321124Y20604D01*
X321115Y20577D01*
X321106Y20558D01*
Y20549D01*
X321068Y20447D01*
X321059Y20345D01*
X321050Y20308D01*
Y20271D01*
Y20253D01*
Y20244D01*
Y20170D01*
X322733D01*
X322696Y20308D01*
X322659Y20419D01*
X322650Y20466D01*
X322632Y20493D01*
X322622Y20512D01*
Y20521D01*
X322558Y20632D01*
X322502Y20715D01*
X322456Y20771D01*
X322437Y20780D01*
Y20789D01*
X322354Y20863D01*
X322271Y20919D01*
X322206Y20956D01*
X322197Y20965D01*
X322188D01*
X322077Y21002D01*
X321966Y21021D01*
X321929Y21030D01*
D02*
G37*
G36*
X294678Y21030D02*
X294614D01*
X294475Y21021D01*
X294373Y21002D01*
X294327Y20984D01*
X294299Y20974D01*
X294281Y20965D01*
X294271D01*
X294169Y20919D01*
X294086Y20863D01*
X294040Y20817D01*
X294022Y20808D01*
Y20799D01*
X293947Y20715D01*
X293892Y20632D01*
X293874Y20604D01*
X293864Y20577D01*
X293855Y20558D01*
Y20549D01*
X293818Y20447D01*
X293809Y20345D01*
X293799Y20308D01*
Y20271D01*
Y20253D01*
Y20244D01*
Y20170D01*
X295483D01*
X295446Y20308D01*
X295409Y20419D01*
X295400Y20466D01*
X295381Y20493D01*
X295372Y20512D01*
Y20521D01*
X295307Y20632D01*
X295252Y20715D01*
X295205Y20771D01*
X295187Y20780D01*
Y20789D01*
X295104Y20863D01*
X295020Y20919D01*
X294956Y20956D01*
X294947Y20965D01*
X294937D01*
X294826Y21002D01*
X294715Y21021D01*
X294678Y21030D01*
D02*
G37*
G36*
X299988Y22334D02*
X299645D01*
X299525Y22325D01*
X299424Y22316D01*
X299322Y22297D01*
X299238Y22279D01*
X299174Y22251D01*
X299127Y22232D01*
X299091Y22223D01*
X299081Y22214D01*
X298915Y22112D01*
X298850Y22057D01*
X298785Y22001D01*
X298739Y21955D01*
X298702Y21918D01*
X298683Y21890D01*
X298674Y21881D01*
X298563Y21714D01*
X298526Y21622D01*
X298489Y21539D01*
X298462Y21474D01*
X298443Y21418D01*
X298424Y21372D01*
Y21363D01*
X298378Y21132D01*
X298360Y21030D01*
X298351Y20928D01*
X298341Y20836D01*
Y20771D01*
Y20725D01*
Y20706D01*
Y20253D01*
Y20114D01*
X298360Y19985D01*
X298369Y19874D01*
X298387Y19772D01*
X298406Y19689D01*
X298415Y19624D01*
X298434Y19587D01*
Y19568D01*
X298471Y19457D01*
X298508Y19356D01*
X298545Y19272D01*
X298591Y19198D01*
X298628Y19134D01*
X298656Y19087D01*
X298674Y19060D01*
X298683Y19050D01*
X298813Y18912D01*
X298878Y18865D01*
X298933Y18819D01*
X298989Y18782D01*
X299035Y18754D01*
X299063Y18745D01*
X299072Y18736D01*
X299164Y18699D01*
X299248Y18671D01*
X299340Y18653D01*
X299414Y18643D01*
X299488Y18634D01*
X299544Y18625D01*
X299988D01*
Y22334D01*
D02*
G37*
G36*
X290164Y15809D02*
X290109D01*
X289988Y15800D01*
X289877Y15772D01*
X289785Y15726D01*
X289711Y15680D01*
X289655Y15624D01*
X289618Y15587D01*
X289591Y15550D01*
X289581Y15541D01*
X289517Y15430D01*
X289470Y15310D01*
X289443Y15180D01*
X289415Y15051D01*
X289397Y14931D01*
X289387Y14838D01*
Y14801D01*
Y14773D01*
Y14755D01*
Y14746D01*
X290821Y13672D01*
Y14681D01*
X290812Y14884D01*
X290793Y15060D01*
X290766Y15199D01*
X290728Y15319D01*
X290701Y15412D01*
X290673Y15476D01*
X290654Y15522D01*
X290645Y15532D01*
X290571Y15624D01*
X290488Y15689D01*
X290395Y15744D01*
X290312Y15772D01*
X290229Y15791D01*
X290164Y15809D01*
D02*
G37*
G36*
X289387Y14042D02*
Y13071D01*
X289397Y12868D01*
X289415Y12692D01*
X289443Y12544D01*
X289470Y12424D01*
X289508Y12331D01*
X289535Y12267D01*
X289554Y12220D01*
X289563Y12211D01*
X289637Y12118D01*
X289720Y12054D01*
X289813Y11998D01*
X289896Y11970D01*
X289979Y11952D01*
X290044Y11943D01*
X290081Y11934D01*
X290099D01*
X290220Y11943D01*
X290331Y11970D01*
X290423Y12017D01*
X290497Y12063D01*
X290553Y12100D01*
X290590Y12146D01*
X290617Y12174D01*
X290627Y12183D01*
X290682Y12294D01*
X290728Y12415D01*
X290766Y12553D01*
X290793Y12683D01*
X290802Y12794D01*
X290812Y12896D01*
X290821Y12923D01*
Y12951D01*
Y12969D01*
Y12979D01*
X289387Y14042D01*
D02*
G37*
G36*
X281081Y15809D02*
X281025D01*
X280905Y15800D01*
X280794Y15772D01*
X280701Y15726D01*
X280627Y15680D01*
X280572Y15624D01*
X280535Y15587D01*
X280507Y15550D01*
X280498Y15541D01*
X280433Y15430D01*
X280387Y15310D01*
X280359Y15180D01*
X280331Y15051D01*
X280313Y14931D01*
X280304Y14838D01*
Y14801D01*
Y14773D01*
Y14755D01*
Y14746D01*
X281737Y13672D01*
Y14681D01*
X281728Y14884D01*
X281710Y15060D01*
X281682Y15199D01*
X281645Y15319D01*
X281617Y15412D01*
X281589Y15476D01*
X281571Y15522D01*
X281562Y15532D01*
X281488Y15624D01*
X281404Y15689D01*
X281312Y15744D01*
X281229Y15772D01*
X281145Y15791D01*
X281081Y15809D01*
D02*
G37*
G36*
X280304Y14042D02*
Y13071D01*
X280313Y12868D01*
X280331Y12692D01*
X280359Y12544D01*
X280387Y12424D01*
X280424Y12331D01*
X280452Y12267D01*
X280470Y12220D01*
X280479Y12211D01*
X280554Y12118D01*
X280637Y12054D01*
X280729Y11998D01*
X280812Y11970D01*
X280896Y11952D01*
X280960Y11943D01*
X280997Y11934D01*
X281016D01*
X281136Y11943D01*
X281247Y11970D01*
X281340Y12017D01*
X281414Y12063D01*
X281469Y12100D01*
X281506Y12146D01*
X281534Y12174D01*
X281543Y12183D01*
X281599Y12294D01*
X281645Y12415D01*
X281682Y12553D01*
X281710Y12683D01*
X281719Y12794D01*
X281728Y12896D01*
X281737Y12923D01*
Y12951D01*
Y12969D01*
Y12979D01*
X280304Y14042D01*
D02*
G37*
%LPD*%
M02*
