G04*
G04 #@! TF.GenerationSoftware,Altium Limited,Altium Designer,20.1.12 (249)*
G04*
G04 Layer_Color=32768*
%FSLAX25Y25*%
%MOIN*%
G70*
G04*
G04 #@! TF.SameCoordinates,B43397F4-0A5E-4D4A-B50E-CAD48B1EF134*
G04*
G04*
G04 #@! TF.FilePolarity,Positive*
G04*
G01*
G75*
%ADD11C,0.00787*%
%ADD12C,0.00394*%
D11*
X-36075Y72438D02*
X22035D01*
Y98619D01*
X-36075D02*
X22035D01*
X-36075Y72438D02*
Y98619D01*
X431745Y15547D02*
Y41728D01*
X373634Y15547D02*
X431745D01*
X373634D02*
Y41728D01*
X431745D01*
D12*
X53022Y68363D02*
Y72694D01*
Y68363D02*
X63258D01*
Y72694D01*
X53022D02*
X63258D01*
X58140Y70036D02*
Y71020D01*
X57648Y70528D02*
X58632D01*
X53022Y74363D02*
Y78694D01*
Y74363D02*
X63258D01*
Y78694D01*
X53022D02*
X63258D01*
X58140Y76036D02*
Y77020D01*
X57648Y76528D02*
X58632D01*
X99376Y83363D02*
Y87694D01*
X89140D02*
X99376D01*
X89140Y83363D02*
Y87694D01*
Y83363D02*
X99376D01*
X94258Y85036D02*
Y86020D01*
X93766Y85528D02*
X94751D01*
X55818Y83363D02*
Y87694D01*
X45581D02*
X55818D01*
X45581Y83363D02*
Y87694D01*
Y83363D02*
X55818D01*
X50699Y85036D02*
Y86020D01*
X50207Y85528D02*
X51192D01*
X344478Y28637D02*
X345462D01*
X344970Y28145D02*
Y29129D01*
X339852Y30802D02*
X350088D01*
Y26472D02*
Y30802D01*
X339852Y26472D02*
X350088D01*
X339852D02*
Y30802D01*
X296293Y26472D02*
Y30802D01*
Y26472D02*
X306529D01*
Y30802D01*
X296293D02*
X306529D01*
X301411Y28145D02*
Y29129D01*
X300919Y28637D02*
X301903D01*
X342647Y34972D02*
Y39302D01*
X332411D02*
X342647D01*
X332411Y34972D02*
Y39302D01*
Y34972D02*
X342647D01*
X337529Y36645D02*
Y37629D01*
X337037Y37137D02*
X338021D01*
X342647Y40972D02*
Y45302D01*
X332411D02*
X342647D01*
X332411Y40972D02*
Y45302D01*
Y40972D02*
X342647D01*
X337529Y42645D02*
Y43629D01*
X337037Y43137D02*
X338021D01*
M02*
