G04*
G04 #@! TF.GenerationSoftware,Altium Limited,Altium Designer,20.1.12 (249)*
G04*
G04 Layer_Color=32896*
%FSLAX25Y25*%
%MOIN*%
G70*
G04*
G04 #@! TF.SameCoordinates,6E9518FA-7893-4EC2-9B17-AA6BB5186BD6*
G04*
G04*
G04 #@! TF.FilePolarity,Positive*
G04*
G01*
G75*
G36*
X365854Y32083D02*
Y32023D01*
Y31963D01*
Y31904D01*
Y31844D01*
Y31785D01*
Y31725D01*
Y31665D01*
Y31606D01*
Y31546D01*
Y31486D01*
Y31427D01*
Y31367D01*
Y31308D01*
Y31248D01*
Y31188D01*
Y31129D01*
Y31069D01*
Y31010D01*
Y30950D01*
Y30890D01*
Y30831D01*
Y30771D01*
Y30711D01*
Y30652D01*
Y30592D01*
Y30533D01*
Y30473D01*
Y30413D01*
Y30354D01*
Y30294D01*
Y30235D01*
Y30175D01*
Y30115D01*
Y30056D01*
Y29996D01*
Y29936D01*
Y29877D01*
Y29817D01*
Y29758D01*
Y29698D01*
Y29638D01*
Y29579D01*
Y29519D01*
Y29460D01*
Y29400D01*
Y29340D01*
Y29281D01*
Y29221D01*
Y29161D01*
Y29102D01*
Y29042D01*
Y28982D01*
Y28923D01*
Y28863D01*
Y28804D01*
Y28744D01*
Y28684D01*
Y28625D01*
Y28565D01*
Y28506D01*
Y28446D01*
Y28386D01*
Y28327D01*
Y28267D01*
Y28207D01*
Y28148D01*
Y28088D01*
Y28029D01*
Y27969D01*
Y27909D01*
Y27850D01*
Y27790D01*
Y27731D01*
Y27671D01*
Y27611D01*
Y27552D01*
Y27492D01*
Y27433D01*
Y27373D01*
Y27313D01*
Y27254D01*
Y27194D01*
Y27134D01*
Y27075D01*
Y27015D01*
Y26956D01*
Y26896D01*
Y26836D01*
Y26777D01*
Y26717D01*
Y26658D01*
Y26598D01*
Y26538D01*
Y26479D01*
Y26419D01*
Y26359D01*
Y26300D01*
Y26240D01*
Y26180D01*
Y26121D01*
Y26061D01*
Y26002D01*
Y25942D01*
Y25882D01*
Y25823D01*
Y25763D01*
Y25704D01*
Y25644D01*
Y25584D01*
Y25525D01*
Y25465D01*
Y25405D01*
Y25346D01*
Y25286D01*
Y25227D01*
Y25167D01*
Y25107D01*
Y25048D01*
Y24988D01*
Y24929D01*
Y24869D01*
Y24809D01*
Y24750D01*
Y24690D01*
Y24631D01*
Y24571D01*
Y24511D01*
Y24452D01*
Y24392D01*
Y24332D01*
Y24273D01*
Y24213D01*
Y24153D01*
Y24094D01*
Y24034D01*
Y23975D01*
Y23915D01*
Y23855D01*
Y23796D01*
Y23736D01*
Y23677D01*
Y23617D01*
Y23557D01*
Y23498D01*
Y23438D01*
Y23379D01*
Y23319D01*
Y23259D01*
Y23200D01*
Y23140D01*
Y23080D01*
Y23021D01*
Y22961D01*
Y22902D01*
Y22842D01*
Y22782D01*
Y22723D01*
Y22663D01*
Y22603D01*
Y22544D01*
Y22484D01*
Y22425D01*
Y22365D01*
Y22305D01*
Y22246D01*
Y22186D01*
Y22127D01*
Y22067D01*
Y22007D01*
Y21948D01*
Y21888D01*
Y21828D01*
Y21769D01*
Y21709D01*
Y21650D01*
Y21590D01*
Y21530D01*
Y21471D01*
Y21411D01*
Y21351D01*
Y21292D01*
Y21232D01*
Y21173D01*
Y21113D01*
Y21053D01*
Y20994D01*
Y20934D01*
Y20875D01*
Y20815D01*
Y20755D01*
Y20696D01*
Y20636D01*
Y20576D01*
Y20517D01*
Y20457D01*
Y20398D01*
Y20338D01*
Y20278D01*
Y20219D01*
Y20159D01*
Y20099D01*
Y20040D01*
Y19980D01*
Y19921D01*
Y19861D01*
Y19802D01*
Y19742D01*
Y19682D01*
Y19623D01*
Y19563D01*
Y19503D01*
Y19444D01*
Y19384D01*
Y19324D01*
Y19265D01*
Y19205D01*
Y19146D01*
Y19086D01*
Y19026D01*
Y18967D01*
Y18907D01*
Y18848D01*
Y18788D01*
Y18728D01*
Y18669D01*
Y18609D01*
Y18550D01*
Y18490D01*
Y18430D01*
Y18371D01*
Y18311D01*
Y18251D01*
Y18192D01*
Y18132D01*
Y18073D01*
Y18013D01*
Y17953D01*
Y17894D01*
Y17834D01*
Y17774D01*
Y17715D01*
Y17655D01*
Y17596D01*
Y17536D01*
Y17476D01*
Y17417D01*
Y17357D01*
Y17298D01*
Y17238D01*
Y17178D01*
Y17119D01*
Y17059D01*
Y16999D01*
Y16940D01*
Y16880D01*
Y16821D01*
Y16761D01*
Y16701D01*
Y16642D01*
Y16582D01*
Y16522D01*
Y16463D01*
Y16403D01*
Y16344D01*
Y16284D01*
Y16224D01*
Y16165D01*
Y16105D01*
Y16046D01*
Y15986D01*
Y15926D01*
Y15867D01*
Y15807D01*
Y15747D01*
Y15688D01*
Y15628D01*
Y15569D01*
Y15509D01*
Y15449D01*
Y15390D01*
Y15330D01*
Y15270D01*
Y15211D01*
Y15151D01*
Y15092D01*
Y15032D01*
Y14973D01*
Y14913D01*
Y14853D01*
Y14794D01*
Y14734D01*
Y14674D01*
Y14615D01*
Y14555D01*
Y14495D01*
Y14436D01*
Y14376D01*
Y14317D01*
Y14257D01*
Y14197D01*
Y14138D01*
Y14078D01*
Y14019D01*
Y13959D01*
Y13899D01*
Y13840D01*
Y13780D01*
Y13721D01*
Y13661D01*
Y13601D01*
Y13542D01*
Y13482D01*
Y13422D01*
Y13363D01*
Y13303D01*
Y13243D01*
Y13184D01*
Y13124D01*
Y13065D01*
Y13005D01*
Y12946D01*
Y12886D01*
Y12826D01*
Y12767D01*
Y12707D01*
Y12647D01*
Y12588D01*
Y12528D01*
Y12468D01*
Y12409D01*
Y12349D01*
Y12290D01*
Y12230D01*
Y12170D01*
Y12111D01*
Y12051D01*
Y11992D01*
Y11932D01*
Y11872D01*
Y11813D01*
Y11753D01*
Y11693D01*
Y11634D01*
Y11574D01*
Y11515D01*
Y11455D01*
Y11395D01*
Y11336D01*
Y11276D01*
Y11216D01*
Y11157D01*
Y11097D01*
Y11038D01*
Y10978D01*
Y10919D01*
Y10859D01*
Y10799D01*
Y10740D01*
Y10680D01*
Y10620D01*
Y10561D01*
Y10501D01*
Y10441D01*
Y10382D01*
Y10322D01*
Y10263D01*
Y10203D01*
Y10143D01*
Y10084D01*
Y10024D01*
Y9965D01*
Y9905D01*
Y9845D01*
Y9786D01*
Y9726D01*
Y9667D01*
Y9607D01*
X331693D01*
Y9667D01*
Y9726D01*
Y9786D01*
Y9845D01*
Y9905D01*
Y9965D01*
Y10024D01*
Y10084D01*
Y10143D01*
Y10203D01*
Y10263D01*
Y10322D01*
Y10382D01*
Y10441D01*
Y10501D01*
Y10561D01*
Y10620D01*
Y10680D01*
Y10740D01*
Y10799D01*
Y10859D01*
Y10919D01*
Y10978D01*
Y11038D01*
Y11097D01*
Y11157D01*
Y11216D01*
Y11276D01*
Y11336D01*
Y11395D01*
Y11455D01*
Y11515D01*
Y11574D01*
Y11634D01*
Y11693D01*
Y11753D01*
Y11813D01*
Y11872D01*
Y11932D01*
Y11992D01*
Y12051D01*
Y12111D01*
Y12170D01*
Y12230D01*
Y12290D01*
Y12349D01*
Y12409D01*
Y12468D01*
Y12528D01*
Y12588D01*
Y12647D01*
Y12707D01*
Y12767D01*
Y12826D01*
Y12886D01*
Y12946D01*
Y13005D01*
Y13065D01*
Y13124D01*
Y13184D01*
Y13243D01*
Y13303D01*
Y13363D01*
Y13422D01*
Y13482D01*
Y13542D01*
Y13601D01*
Y13661D01*
Y13721D01*
Y13780D01*
Y13840D01*
Y13899D01*
Y13959D01*
Y14019D01*
Y14078D01*
Y14138D01*
Y14197D01*
Y14257D01*
Y14317D01*
Y14376D01*
Y14436D01*
Y14495D01*
Y14555D01*
Y14615D01*
Y14674D01*
Y14734D01*
Y14794D01*
Y14853D01*
Y14913D01*
Y14973D01*
Y15032D01*
Y15092D01*
Y15151D01*
Y15211D01*
Y15270D01*
Y15330D01*
Y15390D01*
Y15449D01*
Y15509D01*
Y15569D01*
Y15628D01*
Y15688D01*
Y15747D01*
Y15807D01*
Y15867D01*
Y15926D01*
Y15986D01*
Y16046D01*
Y16105D01*
Y16165D01*
Y16224D01*
Y16284D01*
Y16344D01*
Y16403D01*
Y16463D01*
Y16522D01*
Y16582D01*
Y16642D01*
Y16701D01*
Y16761D01*
Y16821D01*
Y16880D01*
Y16940D01*
Y16999D01*
Y17059D01*
Y17119D01*
Y17178D01*
Y17238D01*
Y17298D01*
Y17357D01*
Y17417D01*
Y17476D01*
Y17536D01*
Y17596D01*
Y17655D01*
Y17715D01*
Y17774D01*
Y17834D01*
Y17894D01*
Y17953D01*
Y18013D01*
Y18073D01*
Y18132D01*
Y18192D01*
Y18251D01*
Y18311D01*
Y18371D01*
Y18430D01*
Y18490D01*
Y18550D01*
Y18609D01*
Y18669D01*
Y18728D01*
Y18788D01*
Y18848D01*
Y18907D01*
Y18967D01*
Y19026D01*
Y19086D01*
Y19146D01*
Y19205D01*
Y19265D01*
Y19324D01*
Y19384D01*
Y19444D01*
Y19503D01*
Y19563D01*
Y19623D01*
Y19682D01*
Y19742D01*
Y19802D01*
Y19861D01*
Y19921D01*
Y19980D01*
Y20040D01*
Y20099D01*
Y20159D01*
Y20219D01*
Y20278D01*
Y20338D01*
Y20398D01*
Y20457D01*
Y20517D01*
Y20576D01*
Y20636D01*
Y20696D01*
Y20755D01*
Y20815D01*
Y20875D01*
Y20934D01*
Y20994D01*
Y21053D01*
Y21113D01*
Y21173D01*
Y21232D01*
Y21292D01*
Y21351D01*
Y21411D01*
Y21471D01*
Y21530D01*
Y21590D01*
Y21650D01*
Y21709D01*
Y21769D01*
Y21828D01*
Y21888D01*
Y21948D01*
Y22007D01*
Y22067D01*
Y22127D01*
Y22186D01*
Y22246D01*
Y22305D01*
Y22365D01*
Y22425D01*
Y22484D01*
Y22544D01*
Y22603D01*
Y22663D01*
Y22723D01*
Y22782D01*
Y22842D01*
Y22902D01*
Y22961D01*
Y23021D01*
Y23080D01*
Y23140D01*
Y23200D01*
Y23259D01*
Y23319D01*
Y23379D01*
Y23438D01*
Y23498D01*
Y23557D01*
Y23617D01*
Y23677D01*
Y23736D01*
Y23796D01*
Y23855D01*
Y23915D01*
Y23975D01*
Y24034D01*
Y24094D01*
Y24153D01*
Y24213D01*
Y24273D01*
Y24332D01*
Y24392D01*
Y24452D01*
Y24511D01*
Y24571D01*
Y24631D01*
Y24690D01*
Y24750D01*
Y24809D01*
Y24869D01*
Y24929D01*
Y24988D01*
Y25048D01*
Y25107D01*
Y25167D01*
Y25227D01*
Y25286D01*
Y25346D01*
Y25405D01*
Y25465D01*
Y25525D01*
Y25584D01*
Y25644D01*
Y25704D01*
Y25763D01*
Y25823D01*
Y25882D01*
Y25942D01*
Y26002D01*
Y26061D01*
Y26121D01*
Y26180D01*
Y26240D01*
Y26300D01*
Y26359D01*
Y26419D01*
Y26479D01*
Y26538D01*
Y26598D01*
Y26658D01*
Y26717D01*
Y26777D01*
Y26836D01*
Y26896D01*
Y26956D01*
Y27015D01*
Y27075D01*
Y27134D01*
Y27194D01*
Y27254D01*
Y27313D01*
Y27373D01*
Y27433D01*
Y27492D01*
Y27552D01*
Y27611D01*
Y27671D01*
Y27731D01*
Y27790D01*
Y27850D01*
Y27909D01*
Y27969D01*
Y28029D01*
Y28088D01*
Y28148D01*
Y28207D01*
Y28267D01*
Y28327D01*
Y28386D01*
Y28446D01*
Y28506D01*
Y28565D01*
Y28625D01*
Y28684D01*
Y28744D01*
Y28804D01*
Y28863D01*
Y28923D01*
Y28982D01*
Y29042D01*
Y29102D01*
Y29161D01*
Y29221D01*
Y29281D01*
Y29340D01*
Y29400D01*
Y29460D01*
Y29519D01*
Y29579D01*
Y29638D01*
Y29698D01*
Y29758D01*
Y29817D01*
Y29877D01*
Y29936D01*
Y29996D01*
Y30056D01*
Y30115D01*
Y30175D01*
Y30235D01*
Y30294D01*
Y30354D01*
Y30413D01*
Y30473D01*
Y30533D01*
Y30592D01*
Y30652D01*
Y30711D01*
Y30771D01*
Y30831D01*
Y30890D01*
Y30950D01*
Y31010D01*
Y31069D01*
Y31129D01*
Y31188D01*
Y31248D01*
Y31308D01*
Y31367D01*
Y31427D01*
Y31486D01*
Y31546D01*
Y31606D01*
Y31665D01*
Y31725D01*
Y31785D01*
Y31844D01*
Y31904D01*
Y31963D01*
Y32023D01*
Y32083D01*
Y32142D01*
X365854D01*
Y32083D01*
D02*
G37*
G36*
X280979Y23352D02*
X281053Y23342D01*
X281108Y23324D01*
X281118Y23315D01*
X281127D01*
X281201Y23278D01*
X281256Y23250D01*
X281293Y23213D01*
X281312Y23204D01*
X281358Y23148D01*
X281395Y23093D01*
X281423Y23056D01*
X281432Y23046D01*
Y23037D01*
X281451Y22963D01*
X281460Y22889D01*
X281469Y22834D01*
Y22824D01*
Y22815D01*
X281460Y22732D01*
X281451Y22658D01*
X281441Y22612D01*
X281432Y22602D01*
Y22593D01*
X281395Y22519D01*
X281358Y22464D01*
X281321Y22427D01*
X281312Y22417D01*
X281247Y22371D01*
X281192Y22334D01*
X281145Y22316D01*
X281127Y22306D01*
X281044Y22288D01*
X280960Y22279D01*
X280896Y22269D01*
X280877D01*
X280785Y22279D01*
X280701Y22297D01*
X280627Y22316D01*
X280563Y22343D01*
X280516Y22371D01*
X280479Y22399D01*
X280461Y22408D01*
X280452Y22417D01*
X280396Y22482D01*
X280359Y22547D01*
X280322Y22612D01*
X280304Y22676D01*
X280294Y22732D01*
X280285Y22778D01*
Y22806D01*
Y22815D01*
X280294Y22898D01*
X280313Y22982D01*
X280341Y23046D01*
X280368Y23102D01*
X280396Y23148D01*
X280424Y23176D01*
X280443Y23194D01*
X280452Y23204D01*
X280516Y23259D01*
X280581Y23296D01*
X280655Y23324D01*
X280720Y23342D01*
X280785Y23352D01*
X280831Y23361D01*
X280877D01*
X280979Y23352D01*
D02*
G37*
G36*
X328274Y17792D02*
X327229D01*
Y19374D01*
X326665Y20003D01*
X325333Y17792D01*
X324093D01*
X325971Y20789D01*
X324158Y23176D01*
X325434D01*
X326739Y21363D01*
X327229Y20706D01*
Y23176D01*
X328274D01*
Y17792D01*
D02*
G37*
G36*
X313206Y21844D02*
X313326Y21835D01*
X313437Y21816D01*
X313520Y21798D01*
X313585Y21779D01*
X313622Y21770D01*
X313641Y21761D01*
X313752Y21724D01*
X313854Y21677D01*
X313946Y21631D01*
X314029Y21585D01*
X314094Y21548D01*
X314140Y21511D01*
X314168Y21492D01*
X314177Y21483D01*
X314251Y21418D01*
X314316Y21354D01*
X314371Y21289D01*
X314418Y21224D01*
X314455Y21169D01*
X314482Y21122D01*
X314492Y21095D01*
X314501Y21085D01*
X314538Y21002D01*
X314566Y20910D01*
X314584Y20826D01*
X314593Y20752D01*
X314603Y20688D01*
X314612Y20641D01*
Y20604D01*
Y20595D01*
X313585D01*
X313576Y20678D01*
X313567Y20752D01*
X313539Y20808D01*
X313511Y20863D01*
X313493Y20900D01*
X313465Y20928D01*
X313456Y20947D01*
X313446Y20956D01*
X313382Y21002D01*
X313308Y21039D01*
X313234Y21058D01*
X313160Y21076D01*
X313095Y21085D01*
X313039Y21095D01*
X312984D01*
X312854Y21085D01*
X312743Y21067D01*
X312651Y21039D01*
X312577Y21011D01*
X312512Y20984D01*
X312475Y20956D01*
X312447Y20937D01*
X312438Y20928D01*
X312373Y20863D01*
X312327Y20789D01*
X312290Y20706D01*
X312272Y20632D01*
X312253Y20567D01*
X312244Y20512D01*
Y20475D01*
Y20466D01*
Y20234D01*
X312984Y20234D01*
X313151Y20216D01*
X313299Y20207D01*
X313437Y20179D01*
X313567Y20151D01*
X313678Y20123D01*
X313789Y20096D01*
X313881Y20059D01*
X313964Y20022D01*
X314029Y19994D01*
X314094Y19966D01*
X314140Y19938D01*
X314187Y19920D01*
X314214Y19901D01*
X314224Y19883D01*
X314233D01*
X314316Y19818D01*
X314390Y19744D01*
X314455Y19670D01*
X314501Y19587D01*
X314593Y19430D01*
X314649Y19272D01*
X314677Y19124D01*
X314686Y19069D01*
X314695Y19013D01*
X314704Y18976D01*
Y18939D01*
Y18921D01*
Y18912D01*
X314695Y18819D01*
X314686Y18727D01*
X314668Y18643D01*
X314649Y18579D01*
X314631Y18514D01*
X314621Y18468D01*
X314603Y18440D01*
Y18431D01*
X314510Y18283D01*
X314464Y18218D01*
X314408Y18162D01*
X314371Y18116D01*
X314335Y18079D01*
X314316Y18061D01*
X314307Y18051D01*
X314159Y17950D01*
X314020Y17866D01*
X313964Y17839D01*
X313909Y17820D01*
X313881Y17802D01*
X313872D01*
X313668Y17755D01*
X313576Y17737D01*
X313483Y17728D01*
X313409D01*
X313354Y17718D01*
X313299D01*
X313169Y17728D01*
X313058Y17737D01*
X313012Y17746D01*
X312984D01*
X312965Y17755D01*
X312956D01*
X312836Y17783D01*
X312743Y17820D01*
X312706Y17829D01*
X312679Y17839D01*
X312669Y17848D01*
X312660D01*
X312558Y17894D01*
X312485Y17940D01*
X312429Y17977D01*
X312420Y17987D01*
X312410D01*
X312327Y18051D01*
X312262Y18107D01*
X312226Y18144D01*
X312207Y18162D01*
X312189Y18088D01*
X312179Y18024D01*
X312170Y17977D01*
Y17959D01*
X312152Y17894D01*
X312124Y17839D01*
X312114Y17802D01*
X312105Y17792D01*
X311060D01*
Y17848D01*
X311106Y17968D01*
X311143Y18088D01*
X311162Y18135D01*
X311171Y18172D01*
X311180Y18199D01*
Y18209D01*
X311189Y18292D01*
X311199Y18384D01*
X311208Y18468D01*
Y18560D01*
X311217Y18634D01*
Y18690D01*
Y18727D01*
Y18745D01*
Y20466D01*
X311227Y20586D01*
X311236Y20706D01*
X311254Y20808D01*
X311282Y20891D01*
X311310Y20965D01*
X311328Y21021D01*
X311337Y21058D01*
X311347Y21067D01*
X311402Y21159D01*
X311458Y21252D01*
X311513Y21326D01*
X311578Y21391D01*
X311624Y21437D01*
X311670Y21483D01*
X311698Y21502D01*
X311707Y21511D01*
X311893Y21622D01*
X311985Y21668D01*
X312068Y21705D01*
X312142Y21733D01*
X312198Y21751D01*
X312235Y21770D01*
X312253D01*
X312485Y21825D01*
X312605Y21844D01*
X312706Y21853D01*
X312799Y21862D01*
X313076D01*
X313206Y21844D01*
D02*
G37*
G36*
X285956Y21844D02*
X286076Y21835D01*
X286187Y21816D01*
X286270Y21798D01*
X286335Y21779D01*
X286372Y21770D01*
X286390Y21761D01*
X286501Y21724D01*
X286603Y21677D01*
X286695Y21631D01*
X286779Y21585D01*
X286843Y21548D01*
X286890Y21511D01*
X286917Y21492D01*
X286927Y21483D01*
X287001Y21418D01*
X287066Y21354D01*
X287121Y21289D01*
X287167Y21224D01*
X287204Y21169D01*
X287232Y21122D01*
X287241Y21095D01*
X287250Y21085D01*
X287287Y21002D01*
X287315Y20910D01*
X287334Y20826D01*
X287343Y20752D01*
X287352Y20688D01*
X287362Y20641D01*
Y20604D01*
Y20595D01*
X286335D01*
X286326Y20678D01*
X286316Y20752D01*
X286288Y20808D01*
X286261Y20863D01*
X286242Y20900D01*
X286214Y20928D01*
X286205Y20947D01*
X286196Y20956D01*
X286131Y21002D01*
X286057Y21039D01*
X285983Y21058D01*
X285909Y21076D01*
X285844Y21085D01*
X285789Y21095D01*
X285733D01*
X285604Y21085D01*
X285493Y21067D01*
X285401Y21039D01*
X285327Y21011D01*
X285262Y20984D01*
X285225Y20956D01*
X285197Y20937D01*
X285188Y20928D01*
X285123Y20863D01*
X285077Y20789D01*
X285040Y20706D01*
X285021Y20632D01*
X285003Y20567D01*
X284993Y20512D01*
Y20475D01*
Y20466D01*
Y20234D01*
X285733D01*
X285900Y20216D01*
X286048Y20207D01*
X286187Y20179D01*
X286316Y20151D01*
X286427Y20123D01*
X286538Y20096D01*
X286631Y20059D01*
X286714Y20022D01*
X286779Y19994D01*
X286843Y19966D01*
X286890Y19938D01*
X286936Y19920D01*
X286964Y19901D01*
X286973Y19883D01*
X286982D01*
X287066Y19818D01*
X287139Y19744D01*
X287204Y19670D01*
X287250Y19587D01*
X287343Y19430D01*
X287399Y19272D01*
X287426Y19124D01*
X287435Y19069D01*
X287445Y19013D01*
X287454Y18976D01*
Y18939D01*
Y18921D01*
Y18912D01*
X287445Y18819D01*
X287435Y18727D01*
X287417Y18643D01*
X287399Y18579D01*
X287380Y18514D01*
X287371Y18468D01*
X287352Y18440D01*
Y18431D01*
X287260Y18283D01*
X287213Y18218D01*
X287158Y18162D01*
X287121Y18116D01*
X287084Y18079D01*
X287066Y18061D01*
X287056Y18051D01*
X286908Y17950D01*
X286770Y17866D01*
X286714Y17839D01*
X286658Y17820D01*
X286631Y17802D01*
X286621D01*
X286418Y17755D01*
X286326Y17737D01*
X286233Y17728D01*
X286159D01*
X286104Y17718D01*
X286048D01*
X285918Y17728D01*
X285807Y17737D01*
X285761Y17746D01*
X285733D01*
X285715Y17755D01*
X285706D01*
X285585Y17783D01*
X285493Y17820D01*
X285456Y17829D01*
X285428Y17839D01*
X285419Y17848D01*
X285410D01*
X285308Y17894D01*
X285234Y17940D01*
X285178Y17977D01*
X285169Y17987D01*
X285160D01*
X285077Y18051D01*
X285012Y18107D01*
X284975Y18144D01*
X284956Y18162D01*
X284938Y18088D01*
X284929Y18024D01*
X284920Y17977D01*
Y17959D01*
X284901Y17894D01*
X284873Y17839D01*
X284864Y17802D01*
X284855Y17792D01*
X283809D01*
Y17848D01*
X283856Y17968D01*
X283893Y18088D01*
X283911Y18135D01*
X283920Y18172D01*
X283930Y18199D01*
Y18209D01*
X283939Y18292D01*
X283948Y18384D01*
X283958Y18468D01*
Y18560D01*
X283967Y18634D01*
Y18690D01*
Y18727D01*
Y18745D01*
Y20466D01*
X283976Y20586D01*
X283985Y20706D01*
X284004Y20808D01*
X284031Y20891D01*
X284059Y20965D01*
X284078Y21021D01*
X284087Y21058D01*
X284096Y21067D01*
X284152Y21159D01*
X284207Y21252D01*
X284263Y21326D01*
X284327Y21391D01*
X284374Y21437D01*
X284420Y21483D01*
X284448Y21502D01*
X284457Y21511D01*
X284642Y21622D01*
X284735Y21668D01*
X284818Y21705D01*
X284892Y21733D01*
X284947Y21751D01*
X284984Y21770D01*
X285003D01*
X285234Y21825D01*
X285354Y21844D01*
X285456Y21853D01*
X285548Y21862D01*
X285826D01*
X285956Y21844D01*
D02*
G37*
G36*
X318284Y21788D02*
X319200D01*
Y21030D01*
X318284D01*
Y19208D01*
X318275Y19069D01*
X318266Y18939D01*
X318247Y18819D01*
X318229Y18727D01*
X318210Y18643D01*
X318201Y18588D01*
X318182Y18542D01*
Y18532D01*
X318136Y18431D01*
X318090Y18338D01*
X318044Y18255D01*
X317997Y18190D01*
X317960Y18135D01*
X317923Y18098D01*
X317905Y18070D01*
X317896Y18061D01*
X317739Y17950D01*
X317590Y17866D01*
X317526Y17839D01*
X317479Y17820D01*
X317442Y17802D01*
X317433D01*
X317230Y17755D01*
X317128Y17737D01*
X317035Y17728D01*
X316952D01*
X316887Y17718D01*
X316712D01*
X316601Y17728D01*
X316554D01*
X316517Y17737D01*
X316490D01*
X316360Y17755D01*
X316258Y17765D01*
X316212Y17774D01*
X316184Y17783D01*
X316157D01*
X316037Y17802D01*
X315935Y17820D01*
X315898Y17829D01*
X315870Y17839D01*
X315851Y17848D01*
X315842D01*
X315740Y17885D01*
X315657Y17922D01*
X315611Y17950D01*
X315593Y17959D01*
X315694Y18662D01*
X315750Y18653D01*
X315805Y18634D01*
X315842Y18625D01*
X315861D01*
X315935Y18616D01*
X315999Y18597D01*
X316055Y18588D01*
X316073D01*
X316157Y18579D01*
X316231Y18569D01*
X316295Y18560D01*
X316314D01*
X316397Y18551D01*
X316545D01*
X316666Y18560D01*
X316758Y18569D01*
X316795Y18579D01*
X316813D01*
X316832Y18588D01*
X316841D01*
X316934Y18625D01*
X316999Y18662D01*
X317045Y18699D01*
X317063Y18708D01*
X317128Y18782D01*
X317174Y18865D01*
X317202Y18921D01*
X317211Y18939D01*
Y18949D01*
X317239Y19069D01*
X317248Y19189D01*
X317257Y19235D01*
Y19272D01*
Y19300D01*
Y19309D01*
Y21030D01*
X315768D01*
Y21788D01*
X317257D01*
Y22769D01*
X318284D01*
Y21788D01*
D02*
G37*
G36*
X322012Y21853D02*
X322160Y21835D01*
X322289Y21816D01*
X322410Y21788D01*
X322502Y21751D01*
X322576Y21733D01*
X322622Y21714D01*
X322641Y21705D01*
X322770Y21640D01*
X322881Y21576D01*
X322992Y21502D01*
X323076Y21437D01*
X323150Y21372D01*
X323205Y21326D01*
X323242Y21289D01*
X323252Y21280D01*
X323344Y21178D01*
X323427Y21067D01*
X323492Y20956D01*
X323547Y20854D01*
X323594Y20771D01*
X323631Y20697D01*
X323649Y20651D01*
X323658Y20632D01*
X323705Y20484D01*
X323742Y20345D01*
X323760Y20207D01*
X323779Y20077D01*
X323788Y19966D01*
X323797Y19874D01*
Y19818D01*
Y19809D01*
Y19800D01*
Y19652D01*
X323788Y19504D01*
X323769Y19365D01*
X323751Y19235D01*
X323723Y19124D01*
X323695Y19023D01*
X323668Y18958D01*
X323658Y18912D01*
X323649Y18893D01*
X323585Y18764D01*
X323520Y18653D01*
X323455Y18542D01*
X323381Y18449D01*
X323325Y18375D01*
X323279Y18320D01*
X323242Y18283D01*
X323233Y18273D01*
X323131Y18181D01*
X323020Y18098D01*
X322909Y18033D01*
X322808Y17977D01*
X322715Y17931D01*
X322650Y17894D01*
X322604Y17876D01*
X322585Y17866D01*
X322437Y17820D01*
X322289Y17783D01*
X322151Y17755D01*
X322021Y17737D01*
X321910Y17728D01*
X321818Y17718D01*
X321744D01*
X321531Y17728D01*
X321439Y17737D01*
X321355Y17755D01*
X321290Y17765D01*
X321244Y17774D01*
X321207Y17783D01*
X321198D01*
X321013Y17829D01*
X320939Y17857D01*
X320865Y17885D01*
X320810Y17903D01*
X320772Y17922D01*
X320745Y17940D01*
X320735D01*
X320587Y18024D01*
X320532Y18061D01*
X320477Y18098D01*
X320430Y18125D01*
X320402Y18153D01*
X320384Y18162D01*
X320375Y18172D01*
X320264Y18264D01*
X320190Y18357D01*
X320153Y18394D01*
X320134Y18412D01*
X320116Y18431D01*
Y18440D01*
X320634Y18995D01*
X320698Y18921D01*
X320763Y18856D01*
X320819Y18810D01*
X320828Y18791D01*
X320837D01*
X320930Y18736D01*
X321013Y18690D01*
X321050Y18671D01*
X321068Y18662D01*
X321087Y18653D01*
X321096D01*
X321198Y18616D01*
X321290Y18588D01*
X321327Y18579D01*
X321355D01*
X321374Y18569D01*
X321383D01*
X321494Y18551D01*
X321586Y18542D01*
X321679D01*
X321836Y18551D01*
X321901Y18560D01*
X321966Y18579D01*
X322012Y18588D01*
X322049Y18597D01*
X322077Y18606D01*
X322086D01*
X322206Y18662D01*
X322308Y18727D01*
X322345Y18754D01*
X322373Y18773D01*
X322391Y18782D01*
X322400Y18791D01*
X322493Y18884D01*
X322567Y18976D01*
X322595Y19023D01*
X322613Y19050D01*
X322632Y19069D01*
Y19078D01*
X322687Y19208D01*
X322724Y19337D01*
X322733Y19383D01*
X322743Y19420D01*
X322752Y19448D01*
Y19457D01*
X320033D01*
Y19892D01*
X320042Y20059D01*
X320051Y20207D01*
X320070Y20345D01*
X320097Y20466D01*
X320125Y20558D01*
X320143Y20632D01*
X320153Y20678D01*
X320162Y20697D01*
X320208Y20826D01*
X320273Y20947D01*
X320328Y21048D01*
X320384Y21141D01*
X320439Y21215D01*
X320486Y21270D01*
X320514Y21307D01*
X320523Y21317D01*
X320615Y21409D01*
X320708Y21492D01*
X320810Y21557D01*
X320893Y21613D01*
X320976Y21659D01*
X321041Y21687D01*
X321078Y21705D01*
X321096Y21714D01*
X321226Y21761D01*
X321355Y21798D01*
X321485Y21825D01*
X321605Y21844D01*
X321707Y21853D01*
X321790Y21862D01*
X321864D01*
X322012Y21853D01*
D02*
G37*
G36*
X294761Y21853D02*
X294910Y21835D01*
X295039Y21816D01*
X295159Y21788D01*
X295252Y21751D01*
X295326Y21733D01*
X295372Y21714D01*
X295391Y21705D01*
X295520Y21640D01*
X295631Y21576D01*
X295742Y21502D01*
X295825Y21437D01*
X295899Y21372D01*
X295955Y21326D01*
X295992Y21289D01*
X296001Y21280D01*
X296093Y21178D01*
X296177Y21067D01*
X296241Y20956D01*
X296297Y20854D01*
X296343Y20771D01*
X296380Y20697D01*
X296399Y20651D01*
X296408Y20632D01*
X296454Y20484D01*
X296491Y20345D01*
X296510Y20207D01*
X296528Y20077D01*
X296537Y19966D01*
X296547Y19874D01*
Y19818D01*
Y19809D01*
Y19800D01*
Y19652D01*
X296537Y19504D01*
X296519Y19365D01*
X296500Y19235D01*
X296473Y19124D01*
X296445Y19023D01*
X296417Y18958D01*
X296408Y18912D01*
X296399Y18893D01*
X296334Y18764D01*
X296269Y18653D01*
X296204Y18542D01*
X296130Y18449D01*
X296075Y18375D01*
X296029Y18320D01*
X295992Y18283D01*
X295983Y18273D01*
X295881Y18181D01*
X295770Y18098D01*
X295659Y18033D01*
X295557Y17977D01*
X295464Y17931D01*
X295400Y17894D01*
X295354Y17876D01*
X295335Y17866D01*
X295187Y17820D01*
X295039Y17783D01*
X294900Y17755D01*
X294771Y17737D01*
X294660Y17728D01*
X294567Y17718D01*
X294493D01*
X294281Y17728D01*
X294188Y17737D01*
X294105Y17755D01*
X294040Y17765D01*
X293994Y17774D01*
X293957Y17783D01*
X293947D01*
X293762Y17829D01*
X293689Y17857D01*
X293614Y17885D01*
X293559Y17903D01*
X293522Y17922D01*
X293494Y17940D01*
X293485D01*
X293337Y18024D01*
X293281Y18061D01*
X293226Y18098D01*
X293180Y18125D01*
X293152Y18153D01*
X293133Y18162D01*
X293124Y18172D01*
X293013Y18264D01*
X292939Y18357D01*
X292902Y18394D01*
X292884Y18412D01*
X292865Y18431D01*
Y18440D01*
X293383Y18995D01*
X293448Y18921D01*
X293513Y18856D01*
X293568Y18810D01*
X293577Y18791D01*
X293587D01*
X293679Y18736D01*
X293762Y18690D01*
X293799Y18671D01*
X293818Y18662D01*
X293836Y18653D01*
X293846D01*
X293947Y18616D01*
X294040Y18588D01*
X294077Y18579D01*
X294105D01*
X294123Y18569D01*
X294132D01*
X294243Y18551D01*
X294336Y18542D01*
X294428D01*
X294586Y18551D01*
X294651Y18560D01*
X294715Y18579D01*
X294761Y18588D01*
X294798Y18597D01*
X294826Y18606D01*
X294835D01*
X294956Y18662D01*
X295058Y18727D01*
X295094Y18754D01*
X295122Y18773D01*
X295141Y18782D01*
X295150Y18791D01*
X295243Y18884D01*
X295316Y18976D01*
X295344Y19023D01*
X295363Y19050D01*
X295381Y19069D01*
Y19078D01*
X295437Y19208D01*
X295474Y19337D01*
X295483Y19383D01*
X295492Y19420D01*
X295501Y19448D01*
Y19457D01*
X292782D01*
Y19892D01*
X292791Y20059D01*
X292800Y20207D01*
X292819Y20345D01*
X292847Y20466D01*
X292874Y20558D01*
X292893Y20632D01*
X292902Y20678D01*
X292912Y20697D01*
X292958Y20826D01*
X293022Y20947D01*
X293078Y21048D01*
X293133Y21141D01*
X293189Y21215D01*
X293235Y21270D01*
X293263Y21307D01*
X293272Y21317D01*
X293365Y21409D01*
X293457Y21492D01*
X293559Y21557D01*
X293642Y21613D01*
X293725Y21659D01*
X293790Y21687D01*
X293827Y21705D01*
X293846Y21714D01*
X293975Y21761D01*
X294105Y21798D01*
X294234Y21825D01*
X294354Y21844D01*
X294456Y21853D01*
X294539Y21862D01*
X294614D01*
X294761Y21853D01*
D02*
G37*
G36*
X308008D02*
X308128Y21835D01*
X308248Y21807D01*
X308341Y21779D01*
X308424Y21751D01*
X308488Y21724D01*
X308525Y21705D01*
X308544Y21696D01*
X308655Y21631D01*
X308757Y21557D01*
X308849Y21483D01*
X308923Y21409D01*
X308988Y21335D01*
X309034Y21280D01*
X309062Y21243D01*
X309071Y21233D01*
X309127Y21788D01*
X310061D01*
Y17792D01*
X309034D01*
Y20632D01*
X308932Y20752D01*
X308840Y20845D01*
X308794Y20873D01*
X308757Y20900D01*
X308738Y20919D01*
X308729D01*
X308655Y20956D01*
X308581Y20984D01*
X308433Y21021D01*
X308377D01*
X308331Y21030D01*
X308285D01*
X308165Y21021D01*
X308063Y21011D01*
X308026Y21002D01*
X307998D01*
X307980Y20993D01*
X307970D01*
X307869Y20956D01*
X307795Y20919D01*
X307749Y20882D01*
X307730Y20863D01*
X307665Y20789D01*
X307610Y20715D01*
X307591Y20678D01*
X307582Y20651D01*
X307573Y20632D01*
Y20623D01*
X307536Y20503D01*
X307526Y20373D01*
X307517Y20318D01*
Y20271D01*
Y20244D01*
Y20234D01*
Y17792D01*
X306490D01*
Y20253D01*
Y20410D01*
X306509Y20549D01*
X306518Y20678D01*
X306537Y20789D01*
X306555Y20873D01*
X306574Y20937D01*
X306583Y20984D01*
X306592Y20993D01*
X306629Y21104D01*
X306676Y21196D01*
X306731Y21289D01*
X306777Y21354D01*
X306814Y21418D01*
X306851Y21455D01*
X306870Y21483D01*
X306879Y21492D01*
X306944Y21557D01*
X307018Y21622D01*
X307092Y21668D01*
X307166Y21705D01*
X307221Y21733D01*
X307267Y21751D01*
X307304Y21770D01*
X307314D01*
X307508Y21825D01*
X307600Y21844D01*
X307684Y21853D01*
X307758Y21862D01*
X307869D01*
X308008Y21853D01*
D02*
G37*
G36*
X301042Y17792D02*
X299590D01*
X299405Y17802D01*
X299229Y17820D01*
X299072Y17848D01*
X298933Y17885D01*
X298813Y17913D01*
X298730Y17940D01*
X298674Y17959D01*
X298656Y17968D01*
X298499Y18042D01*
X298360Y18125D01*
X298239Y18209D01*
X298129Y18292D01*
X298045Y18366D01*
X297980Y18421D01*
X297934Y18458D01*
X297925Y18477D01*
X297814Y18606D01*
X297722Y18736D01*
X297638Y18865D01*
X297573Y18986D01*
X297518Y19097D01*
X297481Y19180D01*
X297462Y19235D01*
X297453Y19245D01*
Y19254D01*
X297398Y19430D01*
X297361Y19605D01*
X297324Y19772D01*
X297305Y19920D01*
X297296Y20059D01*
X297287Y20160D01*
Y20197D01*
Y20225D01*
Y20244D01*
Y20253D01*
Y20697D01*
X297296Y20900D01*
X297314Y21085D01*
X297342Y21252D01*
X297370Y21400D01*
X297398Y21520D01*
X297426Y21613D01*
X297435Y21650D01*
X297444Y21677D01*
X297453Y21687D01*
Y21696D01*
X297518Y21862D01*
X297601Y22010D01*
X297675Y22140D01*
X297758Y22251D01*
X297823Y22343D01*
X297879Y22417D01*
X297916Y22454D01*
X297934Y22473D01*
X298054Y22593D01*
X298175Y22695D01*
X298304Y22787D01*
X298415Y22861D01*
X298517Y22917D01*
X298600Y22954D01*
X298656Y22982D01*
X298665Y22991D01*
X298674D01*
X298841Y23056D01*
X299007Y23102D01*
X299174Y23130D01*
X299322Y23157D01*
X299451Y23167D01*
X299553Y23176D01*
X301042D01*
Y17792D01*
D02*
G37*
G36*
X282542Y20947D02*
X281395D01*
Y18625D01*
X282542D01*
Y17792D01*
X279277D01*
Y18625D01*
X280359D01*
Y21788D01*
X282542D01*
Y20947D01*
D02*
G37*
G36*
X290395Y21844D02*
X290525Y21835D01*
X290627Y21816D01*
X290719Y21798D01*
X290784Y21779D01*
X290821Y21770D01*
X290839Y21761D01*
X290950Y21724D01*
X291052Y21677D01*
X291145Y21631D01*
X291228Y21594D01*
X291293Y21557D01*
X291339Y21520D01*
X291367Y21502D01*
X291376Y21492D01*
X291450Y21428D01*
X291524Y21363D01*
X291579Y21298D01*
X291626Y21233D01*
X291672Y21178D01*
X291700Y21132D01*
X291709Y21104D01*
X291718Y21095D01*
X291755Y21011D01*
X291783Y20928D01*
X291811Y20845D01*
X291820Y20780D01*
X291829Y20715D01*
X291839Y20669D01*
Y20632D01*
Y20623D01*
X291829Y20530D01*
X291820Y20447D01*
X291802Y20373D01*
X291783Y20299D01*
X291764Y20244D01*
X291746Y20207D01*
X291727Y20179D01*
Y20170D01*
X291626Y20031D01*
X291524Y19929D01*
X291478Y19883D01*
X291441Y19855D01*
X291413Y19837D01*
X291404Y19827D01*
X291237Y19726D01*
X291154Y19679D01*
X291071Y19642D01*
X291006Y19615D01*
X290950Y19587D01*
X290914Y19578D01*
X290904Y19568D01*
X290682Y19494D01*
X290571Y19467D01*
X290470Y19439D01*
X290386Y19420D01*
X290312Y19402D01*
X290275Y19393D01*
X290257D01*
X290155Y19374D01*
X290072Y19356D01*
X289988Y19337D01*
X289924Y19328D01*
X289877Y19309D01*
X289831Y19300D01*
X289813Y19291D01*
X289804D01*
X289683Y19254D01*
X289581Y19217D01*
X289554Y19208D01*
X289526Y19189D01*
X289517Y19180D01*
X289508D01*
X289433Y19134D01*
X289387Y19087D01*
X289369Y19050D01*
X289359Y19041D01*
X289332Y18986D01*
X289322Y18939D01*
X289313Y18902D01*
Y18884D01*
X289322Y18819D01*
X289341Y18754D01*
X289378Y18699D01*
X289415Y18653D01*
X289452Y18616D01*
X289489Y18588D01*
X289508Y18579D01*
X289517Y18569D01*
X289600Y18532D01*
X289692Y18505D01*
X289877Y18468D01*
X289961Y18458D01*
X290025Y18449D01*
X290090D01*
X290210Y18458D01*
X290312Y18468D01*
X290358D01*
X290386Y18477D01*
X290414D01*
X290525Y18514D01*
X290617Y18551D01*
X290654Y18560D01*
X290682Y18579D01*
X290691Y18588D01*
X290701D01*
X290784Y18653D01*
X290849Y18708D01*
X290886Y18754D01*
X290904Y18773D01*
X290950Y18865D01*
X290969Y18958D01*
X290978Y19004D01*
X290987Y19032D01*
Y19050D01*
Y19060D01*
X291968D01*
X291959Y18967D01*
X291949Y18875D01*
X291931Y18791D01*
X291903Y18717D01*
X291885Y18662D01*
X291866Y18616D01*
X291857Y18579D01*
X291848Y18569D01*
X291802Y18486D01*
X291746Y18403D01*
X291681Y18329D01*
X291626Y18264D01*
X291579Y18209D01*
X291533Y18172D01*
X291506Y18144D01*
X291496Y18135D01*
X291404Y18070D01*
X291302Y18005D01*
X291210Y17959D01*
X291117Y17913D01*
X291034Y17876D01*
X290969Y17848D01*
X290932Y17839D01*
X290914Y17829D01*
X290784Y17792D01*
X290645Y17765D01*
X290506Y17746D01*
X290386Y17737D01*
X290275Y17728D01*
X290192Y17718D01*
X289970D01*
X289822Y17728D01*
X289702Y17746D01*
X289591Y17765D01*
X289498Y17774D01*
X289424Y17792D01*
X289387Y17802D01*
X289369D01*
X289248Y17839D01*
X289137Y17876D01*
X289045Y17922D01*
X288962Y17959D01*
X288897Y17996D01*
X288841Y18024D01*
X288814Y18042D01*
X288804Y18051D01*
X288721Y18116D01*
X288647Y18181D01*
X288592Y18246D01*
X288536Y18310D01*
X288499Y18357D01*
X288472Y18403D01*
X288453Y18431D01*
X288444Y18440D01*
X288397Y18523D01*
X288370Y18606D01*
X288342Y18690D01*
X288333Y18773D01*
X288323Y18838D01*
X288314Y18884D01*
Y18921D01*
Y18930D01*
X288323Y19032D01*
X288333Y19124D01*
X288351Y19208D01*
X288379Y19282D01*
X288407Y19337D01*
X288425Y19383D01*
X288435Y19411D01*
X288444Y19420D01*
X288555Y19568D01*
X288610Y19624D01*
X288666Y19679D01*
X288721Y19726D01*
X288758Y19753D01*
X288786Y19772D01*
X288795Y19781D01*
X288971Y19883D01*
X289064Y19920D01*
X289147Y19957D01*
X289221Y19985D01*
X289276Y20003D01*
X289313Y20022D01*
X289332D01*
X289572Y20086D01*
X289683Y20105D01*
X289785Y20133D01*
X289877Y20151D01*
X289942Y20160D01*
X289988Y20170D01*
X290007D01*
X290099Y20188D01*
X290174Y20197D01*
X290247Y20216D01*
X290312Y20225D01*
X290358Y20234D01*
X290395Y20244D01*
X290414Y20253D01*
X290423D01*
X290534Y20290D01*
X290608Y20327D01*
X290664Y20355D01*
X290673Y20364D01*
X290682D01*
X290738Y20410D01*
X290784Y20456D01*
X290802Y20493D01*
X290812Y20503D01*
X290830Y20567D01*
X290839Y20614D01*
X290849Y20651D01*
Y20669D01*
X290839Y20743D01*
X290821Y20799D01*
X290756Y20900D01*
X290719Y20937D01*
X290691Y20974D01*
X290673Y20984D01*
X290664Y20993D01*
X290590Y21039D01*
X290497Y21067D01*
X290321Y21104D01*
X290238Y21113D01*
X290174Y21122D01*
X290118D01*
X289988Y21113D01*
X289868Y21095D01*
X289776Y21076D01*
X289692Y21048D01*
X289628Y21011D01*
X289591Y20993D01*
X289563Y20974D01*
X289554Y20965D01*
X289489Y20900D01*
X289443Y20836D01*
X289406Y20771D01*
X289387Y20715D01*
X289369Y20660D01*
X289359Y20614D01*
Y20586D01*
Y20577D01*
X288333D01*
X288342Y20678D01*
X288351Y20771D01*
X288370Y20863D01*
X288388Y20937D01*
X288416Y21002D01*
X288435Y21048D01*
X288444Y21076D01*
X288453Y21085D01*
X288499Y21169D01*
X288555Y21252D01*
X288619Y21317D01*
X288675Y21381D01*
X288721Y21428D01*
X288768Y21465D01*
X288795Y21483D01*
X288804Y21492D01*
X288897Y21557D01*
X288989Y21613D01*
X289082Y21659D01*
X289174Y21696D01*
X289248Y21724D01*
X289313Y21742D01*
X289350Y21761D01*
X289369D01*
X289498Y21798D01*
X289628Y21816D01*
X289748Y21835D01*
X289868Y21853D01*
X289970D01*
X290044Y21862D01*
X290266D01*
X290395Y21844D01*
D02*
G37*
G36*
X294910Y16633D02*
X295058Y16623D01*
X295196Y16596D01*
X295307Y16577D01*
X295400Y16549D01*
X295474Y16522D01*
X295520Y16512D01*
X295538Y16503D01*
X295668Y16447D01*
X295779Y16383D01*
X295881Y16318D01*
X295973Y16262D01*
X296038Y16207D01*
X296093Y16161D01*
X296130Y16133D01*
X296140Y16124D01*
X296232Y16031D01*
X296306Y15939D01*
X296371Y15837D01*
X296427Y15754D01*
X296473Y15671D01*
X296500Y15615D01*
X296519Y15578D01*
X296528Y15560D01*
X296574Y15439D01*
X296602Y15319D01*
X296630Y15208D01*
X296639Y15106D01*
X296649Y15014D01*
X296658Y14949D01*
Y14903D01*
Y14884D01*
X295631D01*
X295622Y15032D01*
X295603Y15171D01*
X295566Y15282D01*
X295529Y15374D01*
X295492Y15449D01*
X295455Y15495D01*
X295437Y15532D01*
X295427Y15541D01*
X295335Y15624D01*
X295233Y15680D01*
X295131Y15726D01*
X295030Y15754D01*
X294937Y15772D01*
X294863Y15781D01*
X294789D01*
X294678Y15772D01*
X294586Y15754D01*
X294549Y15744D01*
X294521Y15735D01*
X294512Y15726D01*
X294502D01*
X294410Y15680D01*
X294336Y15633D01*
X294290Y15597D01*
X294271Y15587D01*
Y15578D01*
X294206Y15504D01*
X294169Y15421D01*
X294142Y15365D01*
X294132Y15347D01*
Y15337D01*
X294095Y15226D01*
X294086Y15125D01*
X294077Y15088D01*
Y15051D01*
Y15032D01*
Y15023D01*
X294086Y14931D01*
X294095Y14847D01*
X294105Y14783D01*
X294114Y14773D01*
Y14764D01*
X294151Y14662D01*
X294188Y14579D01*
X294216Y14542D01*
X294225Y14514D01*
X294243Y14496D01*
Y14487D01*
X294318Y14376D01*
X294382Y14265D01*
X294419Y14218D01*
X294438Y14181D01*
X294456Y14163D01*
X294465Y14153D01*
X294577Y14015D01*
X294687Y13885D01*
X294734Y13839D01*
X294771Y13793D01*
X294798Y13765D01*
X294808Y13756D01*
X296556Y11878D01*
Y11184D01*
X292874D01*
Y12008D01*
X295243D01*
X294225Y13081D01*
X294040Y13275D01*
X293966Y13358D01*
X293892Y13432D01*
X293836Y13497D01*
X293790Y13552D01*
X293762Y13580D01*
X293753Y13589D01*
X293605Y13774D01*
X293541Y13848D01*
X293485Y13922D01*
X293448Y13987D01*
X293411Y14033D01*
X293392Y14061D01*
X293383Y14070D01*
X293281Y14246D01*
X293235Y14329D01*
X293208Y14403D01*
X293180Y14459D01*
X293161Y14514D01*
X293143Y14542D01*
Y14551D01*
X293096Y14736D01*
X293078Y14819D01*
X293069Y14903D01*
X293059Y14967D01*
Y15014D01*
Y15051D01*
Y15060D01*
Y15190D01*
X293078Y15310D01*
X293096Y15421D01*
X293115Y15513D01*
X293133Y15587D01*
X293152Y15652D01*
X293161Y15689D01*
X293170Y15698D01*
X293217Y15809D01*
X293263Y15902D01*
X293318Y15985D01*
X293374Y16059D01*
X293420Y16115D01*
X293457Y16161D01*
X293485Y16188D01*
X293494Y16198D01*
X293577Y16272D01*
X293670Y16337D01*
X293753Y16392D01*
X293846Y16438D01*
X293920Y16475D01*
X293975Y16503D01*
X294012Y16512D01*
X294031Y16522D01*
X294151Y16558D01*
X294271Y16596D01*
X294401Y16614D01*
X294512Y16623D01*
X294604Y16633D01*
X294687Y16642D01*
X294752D01*
X294910Y16633D01*
D02*
G37*
G36*
X285826D02*
X285974Y16623D01*
X286113Y16596D01*
X286224Y16577D01*
X286316Y16549D01*
X286390Y16522D01*
X286437Y16512D01*
X286455Y16503D01*
X286584Y16447D01*
X286695Y16383D01*
X286797Y16318D01*
X286890Y16262D01*
X286954Y16207D01*
X287010Y16161D01*
X287047Y16133D01*
X287056Y16124D01*
X287149Y16031D01*
X287223Y15939D01*
X287287Y15837D01*
X287343Y15754D01*
X287389Y15671D01*
X287417Y15615D01*
X287435Y15578D01*
X287445Y15560D01*
X287491Y15439D01*
X287519Y15319D01*
X287546Y15208D01*
X287556Y15106D01*
X287565Y15014D01*
X287574Y14949D01*
Y14903D01*
Y14884D01*
X286547D01*
X286538Y15032D01*
X286520Y15171D01*
X286483Y15282D01*
X286446Y15374D01*
X286409Y15449D01*
X286372Y15495D01*
X286353Y15532D01*
X286344Y15541D01*
X286251Y15624D01*
X286150Y15680D01*
X286048Y15726D01*
X285946Y15754D01*
X285854Y15772D01*
X285780Y15781D01*
X285706D01*
X285595Y15772D01*
X285502Y15754D01*
X285465Y15744D01*
X285437Y15735D01*
X285428Y15726D01*
X285419D01*
X285327Y15680D01*
X285252Y15633D01*
X285206Y15597D01*
X285188Y15587D01*
Y15578D01*
X285123Y15504D01*
X285086Y15421D01*
X285058Y15365D01*
X285049Y15347D01*
Y15337D01*
X285012Y15226D01*
X285003Y15125D01*
X284993Y15088D01*
Y15051D01*
Y15032D01*
Y15023D01*
X285003Y14931D01*
X285012Y14847D01*
X285021Y14783D01*
X285031Y14773D01*
Y14764D01*
X285068Y14662D01*
X285104Y14579D01*
X285132Y14542D01*
X285141Y14514D01*
X285160Y14496D01*
Y14487D01*
X285234Y14376D01*
X285299Y14265D01*
X285336Y14218D01*
X285354Y14181D01*
X285373Y14163D01*
X285382Y14153D01*
X285493Y14015D01*
X285604Y13885D01*
X285650Y13839D01*
X285687Y13793D01*
X285715Y13765D01*
X285724Y13756D01*
X287472Y11878D01*
Y11184D01*
X283791D01*
Y12008D01*
X286159D01*
X285141Y13081D01*
X284956Y13275D01*
X284882Y13358D01*
X284808Y13432D01*
X284753Y13497D01*
X284707Y13552D01*
X284679Y13580D01*
X284670Y13589D01*
X284522Y13774D01*
X284457Y13848D01*
X284401Y13922D01*
X284364Y13987D01*
X284327Y14033D01*
X284309Y14061D01*
X284300Y14070D01*
X284198Y14246D01*
X284152Y14329D01*
X284124Y14403D01*
X284096Y14459D01*
X284078Y14514D01*
X284059Y14542D01*
Y14551D01*
X284013Y14736D01*
X283995Y14819D01*
X283985Y14903D01*
X283976Y14967D01*
Y15014D01*
Y15051D01*
Y15060D01*
Y15190D01*
X283995Y15310D01*
X284013Y15421D01*
X284031Y15513D01*
X284050Y15587D01*
X284068Y15652D01*
X284078Y15689D01*
X284087Y15698D01*
X284133Y15809D01*
X284179Y15902D01*
X284235Y15985D01*
X284291Y16059D01*
X284337Y16115D01*
X284374Y16161D01*
X284401Y16188D01*
X284411Y16198D01*
X284494Y16272D01*
X284587Y16337D01*
X284670Y16392D01*
X284762Y16438D01*
X284836Y16475D01*
X284892Y16503D01*
X284929Y16512D01*
X284947Y16522D01*
X285068Y16558D01*
X285188Y16596D01*
X285317Y16614D01*
X285428Y16623D01*
X285521Y16633D01*
X285604Y16642D01*
X285669D01*
X285826Y16633D01*
D02*
G37*
G36*
X290257D02*
X290395Y16623D01*
X290516Y16596D01*
X290627Y16577D01*
X290719Y16549D01*
X290784Y16522D01*
X290821Y16512D01*
X290839Y16503D01*
X290960Y16447D01*
X291061Y16383D01*
X291154Y16318D01*
X291237Y16253D01*
X291302Y16198D01*
X291357Y16151D01*
X291385Y16115D01*
X291394Y16105D01*
X291468Y16003D01*
X291543Y15892D01*
X291598Y15781D01*
X291644Y15671D01*
X291690Y15578D01*
X291718Y15504D01*
X291727Y15458D01*
X291737Y15449D01*
Y15439D01*
X291774Y15282D01*
X291802Y15125D01*
X291829Y14967D01*
X291839Y14829D01*
X291848Y14699D01*
X291857Y14607D01*
Y14570D01*
Y14542D01*
Y14524D01*
Y14514D01*
Y13228D01*
X291848Y13044D01*
X291839Y12868D01*
X291820Y12710D01*
X291792Y12581D01*
X291774Y12470D01*
X291755Y12387D01*
X291746Y12331D01*
X291737Y12322D01*
Y12313D01*
X291681Y12174D01*
X291626Y12044D01*
X291570Y11924D01*
X291515Y11832D01*
X291459Y11749D01*
X291422Y11693D01*
X291394Y11656D01*
X291385Y11647D01*
X291293Y11554D01*
X291200Y11471D01*
X291108Y11397D01*
X291024Y11342D01*
X290941Y11295D01*
X290886Y11268D01*
X290849Y11249D01*
X290830Y11240D01*
X290710Y11193D01*
X290581Y11166D01*
X290460Y11138D01*
X290340Y11129D01*
X290247Y11119D01*
X290164Y11110D01*
X290099D01*
X289951Y11119D01*
X289813Y11129D01*
X289692Y11147D01*
X289581Y11175D01*
X289489Y11203D01*
X289424Y11221D01*
X289387Y11231D01*
X289369Y11240D01*
X289248Y11295D01*
X289147Y11360D01*
X289054Y11434D01*
X288971Y11499D01*
X288906Y11554D01*
X288860Y11601D01*
X288832Y11637D01*
X288823Y11647D01*
X288740Y11749D01*
X288666Y11869D01*
X288610Y11980D01*
X288564Y12082D01*
X288518Y12174D01*
X288490Y12248D01*
X288481Y12294D01*
X288472Y12313D01*
X288435Y12470D01*
X288397Y12627D01*
X288379Y12775D01*
X288370Y12923D01*
X288360Y13044D01*
X288351Y13145D01*
Y13182D01*
Y13210D01*
Y13219D01*
Y13228D01*
Y14514D01*
X288360Y14708D01*
X288370Y14884D01*
X288388Y15042D01*
X288407Y15171D01*
X288435Y15282D01*
X288453Y15365D01*
X288462Y15421D01*
X288472Y15439D01*
X288518Y15578D01*
X288573Y15708D01*
X288638Y15828D01*
X288693Y15920D01*
X288740Y16003D01*
X288786Y16059D01*
X288814Y16096D01*
X288823Y16105D01*
X288915Y16198D01*
X289008Y16281D01*
X289101Y16346D01*
X289184Y16401D01*
X289267Y16447D01*
X289322Y16475D01*
X289359Y16494D01*
X289378Y16503D01*
X289498Y16549D01*
X289628Y16586D01*
X289748Y16605D01*
X289868Y16623D01*
X289961Y16633D01*
X290044Y16642D01*
X290109D01*
X290257Y16633D01*
D02*
G37*
G36*
X281173D02*
X281312Y16623D01*
X281432Y16596D01*
X281543Y16577D01*
X281636Y16549D01*
X281700Y16522D01*
X281737Y16512D01*
X281756Y16503D01*
X281876Y16447D01*
X281978Y16383D01*
X282070Y16318D01*
X282154Y16253D01*
X282218Y16198D01*
X282274Y16151D01*
X282302Y16115D01*
X282311Y16105D01*
X282385Y16003D01*
X282459Y15892D01*
X282514Y15781D01*
X282561Y15671D01*
X282607Y15578D01*
X282635Y15504D01*
X282644Y15458D01*
X282653Y15449D01*
Y15439D01*
X282690Y15282D01*
X282718Y15125D01*
X282746Y14967D01*
X282755Y14829D01*
X282764Y14699D01*
X282773Y14607D01*
Y14570D01*
Y14542D01*
Y14524D01*
Y14514D01*
Y13228D01*
X282764Y13044D01*
X282755Y12868D01*
X282736Y12710D01*
X282709Y12581D01*
X282690Y12470D01*
X282672Y12387D01*
X282662Y12331D01*
X282653Y12322D01*
Y12313D01*
X282598Y12174D01*
X282542Y12044D01*
X282487Y11924D01*
X282431Y11832D01*
X282376Y11749D01*
X282339Y11693D01*
X282311Y11656D01*
X282302Y11647D01*
X282209Y11554D01*
X282117Y11471D01*
X282024Y11397D01*
X281941Y11342D01*
X281858Y11295D01*
X281802Y11268D01*
X281765Y11249D01*
X281747Y11240D01*
X281627Y11193D01*
X281497Y11166D01*
X281377Y11138D01*
X281256Y11129D01*
X281164Y11119D01*
X281081Y11110D01*
X281016D01*
X280868Y11119D01*
X280729Y11129D01*
X280609Y11147D01*
X280498Y11175D01*
X280405Y11203D01*
X280341Y11221D01*
X280304Y11231D01*
X280285Y11240D01*
X280165Y11295D01*
X280063Y11360D01*
X279971Y11434D01*
X279887Y11499D01*
X279823Y11554D01*
X279777Y11601D01*
X279749Y11637D01*
X279739Y11647D01*
X279656Y11749D01*
X279582Y11869D01*
X279527Y11980D01*
X279481Y12082D01*
X279434Y12174D01*
X279406Y12248D01*
X279397Y12294D01*
X279388Y12313D01*
X279351Y12470D01*
X279314Y12627D01*
X279295Y12775D01*
X279286Y12923D01*
X279277Y13044D01*
X279268Y13145D01*
Y13182D01*
Y13210D01*
Y13219D01*
Y13228D01*
Y14514D01*
X279277Y14708D01*
X279286Y14884D01*
X279305Y15042D01*
X279323Y15171D01*
X279351Y15282D01*
X279369Y15365D01*
X279379Y15421D01*
X279388Y15439D01*
X279434Y15578D01*
X279490Y15708D01*
X279554Y15828D01*
X279610Y15920D01*
X279656Y16003D01*
X279702Y16059D01*
X279730Y16096D01*
X279739Y16105D01*
X279832Y16198D01*
X279924Y16281D01*
X280017Y16346D01*
X280100Y16401D01*
X280183Y16447D01*
X280239Y16475D01*
X280276Y16494D01*
X280294Y16503D01*
X280415Y16549D01*
X280544Y16586D01*
X280664Y16605D01*
X280785Y16623D01*
X280877Y16633D01*
X280960Y16642D01*
X281025D01*
X281173Y16633D01*
D02*
G37*
%LPC*%
G36*
X350353Y29281D02*
X348267D01*
Y29221D01*
X347790D01*
Y29161D01*
X347492D01*
Y29102D01*
X347194D01*
Y29042D01*
X347015D01*
Y28982D01*
X346776D01*
Y28923D01*
X346538D01*
Y28863D01*
X346359D01*
Y28804D01*
X346180D01*
Y28744D01*
X346061D01*
Y28684D01*
X345882D01*
Y28625D01*
X345703D01*
Y28565D01*
X345584D01*
Y28506D01*
X345405D01*
Y28446D01*
X345286D01*
Y28386D01*
X345167D01*
Y28327D01*
X345047D01*
Y28267D01*
X344928D01*
Y28207D01*
X344749D01*
Y28148D01*
X344690D01*
Y28088D01*
X344570D01*
Y28029D01*
X344451D01*
Y27969D01*
X344332D01*
Y27909D01*
X344272D01*
Y27850D01*
X344153D01*
Y27790D01*
X344034D01*
Y27731D01*
X343915D01*
Y27671D01*
X343855D01*
Y27611D01*
X343736D01*
Y27552D01*
X343676D01*
Y27492D01*
X343557D01*
Y27433D01*
X343497D01*
Y27373D01*
X343378D01*
Y27313D01*
X343319D01*
Y27254D01*
X343259D01*
Y27194D01*
X343199D01*
Y27134D01*
X343080D01*
Y27075D01*
X343021D01*
Y27015D01*
X342961D01*
Y26956D01*
X342842D01*
Y26896D01*
X342782D01*
Y26836D01*
X342722D01*
Y26777D01*
X342663D01*
Y26717D01*
X342603D01*
Y26658D01*
X342544D01*
Y26598D01*
X342484D01*
Y26538D01*
X342424D01*
Y26479D01*
X342365D01*
Y26419D01*
X342305D01*
Y26359D01*
X342245D01*
Y26300D01*
X342186D01*
Y26240D01*
Y26180D01*
X342126D01*
Y26121D01*
X342067D01*
Y26061D01*
X342007D01*
Y26002D01*
Y25942D01*
X341947D01*
Y25882D01*
X341888D01*
Y25823D01*
Y25763D01*
X341828D01*
Y25704D01*
Y25644D01*
X341769D01*
Y25584D01*
X341709D01*
Y25525D01*
X341530D01*
Y25465D01*
X341411D01*
Y25405D01*
X341172D01*
Y25346D01*
X341053D01*
Y25286D01*
X340874D01*
Y25227D01*
X340695D01*
Y25167D01*
X340576D01*
Y25107D01*
X340397D01*
Y25048D01*
X340278D01*
Y24988D01*
X340099D01*
Y24929D01*
X339980D01*
Y24869D01*
X339801D01*
Y24809D01*
X339682D01*
Y24750D01*
X339563D01*
Y24690D01*
X339443D01*
Y24631D01*
X339324D01*
Y24571D01*
X339145D01*
Y24511D01*
X339026D01*
Y24452D01*
X338907D01*
Y24392D01*
X338788D01*
Y24332D01*
X338728D01*
Y24273D01*
X338609D01*
Y24213D01*
X338490D01*
Y24153D01*
X338370D01*
Y24094D01*
X338251D01*
Y24034D01*
X338191D01*
Y23975D01*
X338072D01*
Y23915D01*
X338013D01*
Y23855D01*
X337893D01*
Y23796D01*
X337834D01*
Y23736D01*
X337774D01*
Y23677D01*
X337655D01*
Y23617D01*
X337595D01*
Y23557D01*
X337536D01*
Y23498D01*
X337476D01*
Y23438D01*
X337416D01*
Y23379D01*
X337357D01*
Y23319D01*
X337297D01*
Y23259D01*
X337238D01*
Y23200D01*
X337178D01*
Y23140D01*
X337118D01*
Y23080D01*
X337059D01*
Y23021D01*
X336999D01*
Y22961D01*
Y22902D01*
X336940D01*
Y22842D01*
X336880D01*
Y22782D01*
Y22723D01*
X336820D01*
Y22663D01*
Y22603D01*
X336761D01*
Y22544D01*
Y22484D01*
X336701D01*
Y22425D01*
Y22365D01*
X336641D01*
Y22305D01*
Y22246D01*
Y22186D01*
Y22127D01*
X336582D01*
Y22067D01*
Y22007D01*
Y21948D01*
Y21888D01*
Y21828D01*
Y21769D01*
X336522D01*
Y21709D01*
Y21650D01*
Y21590D01*
Y21530D01*
Y21471D01*
Y21411D01*
Y21351D01*
X336582D01*
Y21292D01*
Y21232D01*
Y21173D01*
Y21113D01*
Y21053D01*
Y20994D01*
Y20934D01*
X336641D01*
Y20875D01*
Y20815D01*
Y20755D01*
Y20696D01*
Y20636D01*
X336701D01*
Y20576D01*
Y20517D01*
Y20457D01*
X336641D01*
Y20398D01*
X336522D01*
Y20338D01*
X336463D01*
Y20278D01*
X336403D01*
Y20219D01*
X336343D01*
Y20159D01*
X336224D01*
Y20099D01*
X336164D01*
Y20040D01*
X336105D01*
Y19980D01*
X336045D01*
Y19921D01*
X335986D01*
Y19861D01*
X335926D01*
Y19802D01*
X335866D01*
Y19742D01*
X335807D01*
Y19682D01*
X335747D01*
Y19623D01*
X335687D01*
Y19563D01*
X335628D01*
Y19503D01*
X335568D01*
Y19444D01*
Y19384D01*
X335509D01*
Y19324D01*
X335449D01*
Y19265D01*
X335389D01*
Y19205D01*
X335330D01*
Y19146D01*
Y19086D01*
X335270D01*
Y19026D01*
X335211D01*
Y18967D01*
X335151D01*
Y18907D01*
Y18848D01*
X335091D01*
Y18788D01*
X335032D01*
Y18728D01*
Y18669D01*
X334972D01*
Y18609D01*
X334912D01*
Y18550D01*
Y18490D01*
X334853D01*
Y18430D01*
Y18371D01*
X334793D01*
Y18311D01*
Y18251D01*
X334734D01*
Y18192D01*
Y18132D01*
X334674D01*
Y18073D01*
X334614D01*
Y18013D01*
Y17953D01*
Y17894D01*
X334555D01*
Y17834D01*
Y17774D01*
X334495D01*
Y17715D01*
Y17655D01*
Y17596D01*
X334436D01*
Y17536D01*
Y17476D01*
X334376D01*
Y17417D01*
Y17357D01*
Y17298D01*
X334316D01*
Y17238D01*
Y17178D01*
Y17119D01*
X334257D01*
Y17059D01*
Y16999D01*
Y16940D01*
X334197D01*
Y16880D01*
Y16821D01*
Y16761D01*
Y16701D01*
X334138D01*
Y16642D01*
Y16582D01*
Y16522D01*
Y16463D01*
X334078D01*
Y16403D01*
Y16344D01*
Y16284D01*
Y16224D01*
Y16165D01*
Y16105D01*
X334018D01*
Y16046D01*
Y15986D01*
Y15926D01*
Y15867D01*
Y15807D01*
Y15747D01*
Y15688D01*
Y15628D01*
Y15569D01*
Y15509D01*
Y15449D01*
Y15390D01*
Y15330D01*
Y15270D01*
Y15211D01*
Y15151D01*
Y15092D01*
Y15032D01*
Y14973D01*
Y14913D01*
Y14853D01*
Y14794D01*
Y14734D01*
Y14674D01*
Y14615D01*
Y14555D01*
Y14495D01*
Y14436D01*
Y14376D01*
Y14317D01*
Y14257D01*
X334078D01*
Y14197D01*
Y14138D01*
Y14078D01*
Y14019D01*
Y13959D01*
X334138D01*
Y13899D01*
Y13840D01*
Y13780D01*
X334197D01*
Y13721D01*
Y13661D01*
Y13601D01*
X334257D01*
Y13542D01*
Y13482D01*
X334316D01*
Y13422D01*
Y13363D01*
X334376D01*
Y13303D01*
X334436D01*
Y13243D01*
X334495D01*
Y13184D01*
X334555D01*
Y13124D01*
X334674D01*
Y13065D01*
X334793D01*
Y13005D01*
X334972D01*
Y12946D01*
X335270D01*
Y12886D01*
X335330D01*
Y12946D01*
X335747D01*
Y13005D01*
X336045D01*
Y13065D01*
X336224D01*
Y13124D01*
X336463D01*
Y13184D01*
X336641D01*
Y13243D01*
X336761D01*
Y13303D01*
X336940D01*
Y13363D01*
X337059D01*
Y13422D01*
X337238D01*
Y13482D01*
X337357D01*
Y13542D01*
X337476D01*
Y13601D01*
X337655D01*
Y13661D01*
X337774D01*
Y13721D01*
X337953D01*
Y13780D01*
X338072D01*
Y13840D01*
X338191D01*
Y13899D01*
X338370D01*
Y13959D01*
X338490D01*
Y14019D01*
X338668D01*
Y14078D01*
X338788D01*
Y14138D01*
X338907D01*
Y14197D01*
X339086D01*
Y14257D01*
X339205D01*
Y14317D01*
X339384D01*
Y14376D01*
X339503D01*
Y14436D01*
X339682D01*
Y14495D01*
X339801D01*
Y14555D01*
X339980D01*
Y14615D01*
X340218D01*
Y14555D01*
X340278D01*
Y14495D01*
X340338D01*
Y14436D01*
X340397D01*
Y14376D01*
X340457D01*
Y14317D01*
Y14257D01*
X340576D01*
Y14197D01*
X340636D01*
Y14138D01*
X340695D01*
Y14078D01*
X340755D01*
Y14019D01*
X340815D01*
Y13959D01*
X340874D01*
Y13899D01*
X340993D01*
Y13840D01*
X341053D01*
Y13780D01*
X341172D01*
Y13721D01*
X341292D01*
Y13661D01*
X341411D01*
Y13601D01*
X341590D01*
Y13542D01*
X341769D01*
Y13482D01*
X342842D01*
Y13542D01*
X343080D01*
Y13601D01*
X343319D01*
Y13661D01*
X343438D01*
Y13721D01*
X343676D01*
Y13780D01*
X343795D01*
Y13840D01*
X343974D01*
Y13899D01*
X344094D01*
Y13959D01*
X344272D01*
Y14019D01*
X344392D01*
Y14078D01*
X344511D01*
Y14138D01*
X344690D01*
Y14197D01*
X344809D01*
Y14257D01*
X344988D01*
Y14317D01*
X345107D01*
Y14376D01*
X345226D01*
Y14436D01*
X345405D01*
Y14495D01*
X345524D01*
Y14555D01*
X345703D01*
Y14615D01*
X345823D01*
Y14555D01*
X345942D01*
Y14495D01*
X346061D01*
Y14436D01*
X346240D01*
Y14376D01*
X346359D01*
Y14317D01*
X346538D01*
Y14257D01*
X346776D01*
Y14197D01*
X346955D01*
Y14138D01*
X347194D01*
Y14078D01*
X347432D01*
Y14019D01*
X347790D01*
Y13959D01*
X348148D01*
Y13899D01*
X349042D01*
Y13840D01*
X349161D01*
Y13899D01*
X350055D01*
Y13959D01*
X350413D01*
Y14019D01*
X350711D01*
Y14078D01*
X350950D01*
Y14138D01*
X351188D01*
Y14197D01*
X351307D01*
Y14257D01*
X351486D01*
Y14317D01*
X351665D01*
Y14376D01*
X351784D01*
Y14436D01*
X351904D01*
Y14495D01*
X352023D01*
Y14555D01*
X352321D01*
Y14495D01*
X352440D01*
Y14436D01*
X352619D01*
Y14376D01*
X352738D01*
Y14317D01*
X352857D01*
Y14257D01*
X353036D01*
Y14197D01*
X353155D01*
Y14138D01*
X353334D01*
Y14078D01*
X353453D01*
Y14019D01*
X353632D01*
Y13959D01*
X353752D01*
Y13899D01*
X353930D01*
Y13840D01*
X354109D01*
Y13780D01*
X354228D01*
Y13721D01*
X354407D01*
Y13661D01*
X354586D01*
Y13601D01*
X354825D01*
Y13542D01*
X355063D01*
Y13482D01*
X355361D01*
Y13422D01*
X356494D01*
Y13482D01*
X356733D01*
Y13542D01*
X356911D01*
Y13601D01*
X357090D01*
Y13661D01*
X357209D01*
Y13721D01*
X357329D01*
Y13780D01*
X357388D01*
Y13840D01*
X357507D01*
Y13899D01*
X357567D01*
Y13959D01*
X357686D01*
Y14019D01*
X357746D01*
Y14078D01*
X357806D01*
Y14138D01*
X357865D01*
Y14197D01*
X357984D01*
Y14257D01*
X358044D01*
Y14317D01*
X358104D01*
Y14376D01*
X358163D01*
Y14436D01*
X358282D01*
Y14376D01*
X358461D01*
Y14317D01*
X358640D01*
Y14257D01*
X358759D01*
Y14197D01*
X358938D01*
Y14138D01*
X359057D01*
Y14078D01*
X359177D01*
Y14019D01*
X359356D01*
Y13959D01*
X359475D01*
Y13899D01*
X359654D01*
Y13840D01*
X359773D01*
Y13780D01*
X359892D01*
Y13721D01*
X360071D01*
Y13661D01*
X360190D01*
Y13601D01*
X360310D01*
Y13542D01*
X360488D01*
Y13482D01*
X360608D01*
Y13422D01*
X360787D01*
Y13363D01*
X360906D01*
Y13303D01*
X361025D01*
Y13243D01*
X361144D01*
Y13184D01*
X361323D01*
Y13124D01*
X361502D01*
Y13065D01*
X361621D01*
Y13005D01*
X361860D01*
Y12946D01*
X361979D01*
Y12886D01*
X362277D01*
Y12826D01*
X363231D01*
Y12886D01*
X363410D01*
Y12946D01*
X363529D01*
Y13005D01*
X363589D01*
Y13065D01*
X363708D01*
Y13124D01*
X363767D01*
Y13184D01*
X363827D01*
Y13243D01*
Y13303D01*
X363887D01*
Y13363D01*
X363946D01*
Y13422D01*
Y13482D01*
X364006D01*
Y13542D01*
Y13601D01*
Y13661D01*
X364065D01*
Y13721D01*
Y13780D01*
Y13840D01*
X364125D01*
Y13899D01*
Y13959D01*
Y14019D01*
Y14078D01*
X364185D01*
Y14138D01*
Y14197D01*
Y14257D01*
Y14317D01*
Y14376D01*
X364244D01*
Y14436D01*
Y14495D01*
Y14555D01*
Y14615D01*
Y14674D01*
Y14734D01*
Y14794D01*
Y14853D01*
Y14913D01*
Y14973D01*
Y15032D01*
Y15092D01*
Y15151D01*
Y15211D01*
Y15270D01*
Y15330D01*
Y15390D01*
Y15449D01*
Y15509D01*
Y15569D01*
Y15628D01*
Y15688D01*
Y15747D01*
Y15807D01*
Y15867D01*
Y15926D01*
Y15986D01*
Y16046D01*
X364185D01*
Y16105D01*
Y16165D01*
Y16224D01*
Y16284D01*
Y16344D01*
Y16403D01*
X364125D01*
Y16463D01*
Y16522D01*
Y16582D01*
Y16642D01*
Y16701D01*
X364065D01*
Y16761D01*
Y16821D01*
Y16880D01*
Y16940D01*
X364006D01*
Y16999D01*
Y17059D01*
Y17119D01*
X363946D01*
Y17178D01*
Y17238D01*
Y17298D01*
X363887D01*
Y17357D01*
Y17417D01*
Y17476D01*
X363827D01*
Y17536D01*
Y17596D01*
Y17655D01*
X363767D01*
Y17715D01*
Y17774D01*
X363708D01*
Y17834D01*
Y17894D01*
X363648D01*
Y17953D01*
Y18013D01*
Y18073D01*
X363589D01*
Y18132D01*
X363529D01*
Y18192D01*
Y18251D01*
X363469D01*
Y18311D01*
Y18371D01*
X363410D01*
Y18430D01*
Y18490D01*
X363350D01*
Y18550D01*
Y18609D01*
X363290D01*
Y18669D01*
X363231D01*
Y18728D01*
Y18788D01*
X363171D01*
Y18848D01*
X363111D01*
Y18907D01*
Y18967D01*
X363052D01*
Y19026D01*
X362992D01*
Y19086D01*
X362933D01*
Y19146D01*
Y19205D01*
X362873D01*
Y19265D01*
X362813D01*
Y19324D01*
X362754D01*
Y19384D01*
X362694D01*
Y19444D01*
X362635D01*
Y19503D01*
X362575D01*
Y19563D01*
Y19623D01*
X362515D01*
Y19682D01*
X362456D01*
Y19742D01*
X362396D01*
Y19802D01*
X362336D01*
Y19861D01*
X362217D01*
Y19921D01*
X362158D01*
Y19980D01*
X362098D01*
Y20040D01*
X362038D01*
Y20099D01*
X361979D01*
Y20159D01*
X361919D01*
Y20219D01*
X361800D01*
Y20278D01*
X361740D01*
Y20338D01*
Y20398D01*
X361800D01*
Y20457D01*
Y20517D01*
X361860D01*
Y20576D01*
Y20636D01*
Y20696D01*
X361919D01*
Y20755D01*
Y20815D01*
Y20875D01*
X361979D01*
Y20934D01*
Y20994D01*
Y21053D01*
X362038D01*
Y21113D01*
Y21173D01*
Y21232D01*
Y21292D01*
Y21351D01*
Y21411D01*
X362098D01*
Y21471D01*
Y21530D01*
Y21590D01*
Y21650D01*
Y21709D01*
Y21769D01*
X362038D01*
Y21828D01*
Y21888D01*
Y21948D01*
Y22007D01*
Y22067D01*
X361979D01*
Y22127D01*
Y22186D01*
Y22246D01*
X361919D01*
Y22305D01*
Y22365D01*
X361860D01*
Y22425D01*
Y22484D01*
X361800D01*
Y22544D01*
Y22603D01*
X361740D01*
Y22663D01*
X361681D01*
Y22723D01*
Y22782D01*
X361621D01*
Y22842D01*
X361561D01*
Y22902D01*
X361502D01*
Y22961D01*
X361442D01*
Y23021D01*
X361383D01*
Y23080D01*
X361323D01*
Y23140D01*
X361263D01*
Y23200D01*
X361204D01*
Y23259D01*
X361085D01*
Y23319D01*
X361025D01*
Y23379D01*
X360965D01*
Y23438D01*
X360846D01*
Y23498D01*
X360787D01*
Y23557D01*
X360667D01*
Y23617D01*
X360608D01*
Y23677D01*
X360488D01*
Y23736D01*
X360429D01*
Y23796D01*
X360310D01*
Y23855D01*
X360190D01*
Y23915D01*
X360071D01*
Y23975D01*
X359952D01*
Y24034D01*
X359833D01*
Y24094D01*
X359713D01*
Y24153D01*
X359594D01*
Y24213D01*
X359475D01*
Y24273D01*
X359356D01*
Y24332D01*
X359236D01*
Y24392D01*
X359117D01*
Y24452D01*
X358998D01*
Y24511D01*
X358879D01*
Y24571D01*
X358700D01*
Y24631D01*
X358581D01*
Y24690D01*
X358461D01*
Y24750D01*
X358282D01*
Y24809D01*
X358163D01*
Y24869D01*
X357984D01*
Y24929D01*
X357865D01*
Y24988D01*
X357686D01*
Y25048D01*
X357567D01*
Y25107D01*
X357388D01*
Y25167D01*
X357269D01*
Y25227D01*
X357150D01*
Y25286D01*
X357031D01*
Y25346D01*
Y25405D01*
Y25465D01*
X356971D01*
Y25525D01*
Y25584D01*
Y25644D01*
X356911D01*
Y25704D01*
Y25763D01*
X356852D01*
Y25823D01*
Y25882D01*
X356792D01*
Y25942D01*
Y26002D01*
X356733D01*
Y26061D01*
X356673D01*
Y26121D01*
Y26180D01*
X356613D01*
Y26240D01*
X356554D01*
Y26300D01*
Y26359D01*
X356494D01*
Y26419D01*
X356434D01*
Y26479D01*
X356375D01*
Y26538D01*
X356315D01*
Y26598D01*
X356256D01*
Y26658D01*
X356196D01*
Y26717D01*
X356136D01*
Y26777D01*
X356077D01*
Y26836D01*
X356017D01*
Y26896D01*
X355958D01*
Y26956D01*
X355898D01*
Y27015D01*
X355838D01*
Y27075D01*
X355719D01*
Y27134D01*
X355659D01*
Y27194D01*
X355600D01*
Y27254D01*
X355481D01*
Y27313D01*
X355421D01*
Y27373D01*
X355361D01*
Y27433D01*
X355242D01*
Y27492D01*
X355182D01*
Y27552D01*
X355063D01*
Y27611D01*
X355004D01*
Y27671D01*
X354884D01*
Y27731D01*
X354765D01*
Y27790D01*
X354646D01*
Y27850D01*
X354586D01*
Y27909D01*
X354467D01*
Y27969D01*
X354348D01*
Y28029D01*
X354228D01*
Y28088D01*
X354109D01*
Y28148D01*
X353990D01*
Y28207D01*
X353871D01*
Y28267D01*
X353752D01*
Y28327D01*
X353632D01*
Y28386D01*
X353453D01*
Y28446D01*
X353334D01*
Y28506D01*
X353155D01*
Y28565D01*
X353036D01*
Y28625D01*
X352857D01*
Y28684D01*
X352678D01*
Y28744D01*
X352559D01*
Y28804D01*
X352321D01*
Y28863D01*
X352142D01*
Y28923D01*
X351904D01*
Y28982D01*
X351665D01*
Y29042D01*
X351427D01*
Y29102D01*
X351128D01*
Y29161D01*
X350830D01*
Y29221D01*
X350353D01*
Y29281D01*
D02*
G37*
G36*
X312854Y19615D02*
X312244Y19615D01*
Y18930D01*
X312281Y18875D01*
X312327Y18828D01*
X312355Y18791D01*
X312373Y18773D01*
X312429Y18717D01*
X312494Y18680D01*
X312540Y18643D01*
X312549Y18634D01*
X312558D01*
X312642Y18597D01*
X312716Y18569D01*
X312771Y18551D01*
X312790Y18542D01*
X312799D01*
X312901Y18523D01*
X312993Y18514D01*
X313030Y18505D01*
X313086D01*
X313187Y18514D01*
X313280Y18523D01*
X313354Y18551D01*
X313419Y18579D01*
X313465Y18597D01*
X313502Y18625D01*
X313520Y18634D01*
X313530Y18643D01*
X313576Y18699D01*
X313613Y18754D01*
X313631Y18810D01*
X313650Y18865D01*
X313659Y18912D01*
X313668Y18949D01*
Y18976D01*
Y18986D01*
X313659Y19087D01*
X313641Y19161D01*
X313631Y19217D01*
X313622Y19226D01*
Y19235D01*
X313576Y19319D01*
X313520Y19383D01*
X313483Y19420D01*
X313465Y19439D01*
X313372Y19494D01*
X313280Y19531D01*
X313243Y19550D01*
X313215Y19559D01*
X313197Y19568D01*
X313187D01*
X313049Y19596D01*
X312910Y19605D01*
X312854Y19615D01*
D02*
G37*
G36*
X285604Y19615D02*
X284993D01*
Y18930D01*
X285031Y18875D01*
X285077Y18828D01*
X285104Y18791D01*
X285123Y18773D01*
X285178Y18717D01*
X285243Y18680D01*
X285289Y18643D01*
X285299Y18634D01*
X285308D01*
X285391Y18597D01*
X285465Y18569D01*
X285521Y18551D01*
X285539Y18542D01*
X285548D01*
X285650Y18523D01*
X285743Y18514D01*
X285780Y18505D01*
X285835D01*
X285937Y18514D01*
X286029Y18523D01*
X286104Y18551D01*
X286168Y18579D01*
X286214Y18597D01*
X286251Y18625D01*
X286270Y18634D01*
X286279Y18643D01*
X286326Y18699D01*
X286362Y18754D01*
X286381Y18810D01*
X286399Y18865D01*
X286409Y18912D01*
X286418Y18949D01*
Y18976D01*
Y18986D01*
X286409Y19087D01*
X286390Y19161D01*
X286381Y19217D01*
X286372Y19226D01*
Y19235D01*
X286326Y19319D01*
X286270Y19383D01*
X286233Y19420D01*
X286214Y19439D01*
X286122Y19494D01*
X286029Y19531D01*
X285993Y19550D01*
X285965Y19559D01*
X285946Y19568D01*
X285937D01*
X285798Y19596D01*
X285660Y19605D01*
X285604Y19615D01*
D02*
G37*
G36*
X321929Y21030D02*
X321864D01*
X321725Y21021D01*
X321623Y21002D01*
X321577Y20984D01*
X321549Y20974D01*
X321531Y20965D01*
X321522D01*
X321420Y20919D01*
X321337Y20863D01*
X321290Y20817D01*
X321272Y20808D01*
Y20799D01*
X321198Y20715D01*
X321143Y20632D01*
X321124Y20604D01*
X321115Y20577D01*
X321106Y20558D01*
Y20549D01*
X321068Y20447D01*
X321059Y20345D01*
X321050Y20308D01*
Y20271D01*
Y20253D01*
Y20244D01*
Y20170D01*
X322733D01*
X322696Y20308D01*
X322659Y20419D01*
X322650Y20466D01*
X322632Y20493D01*
X322622Y20512D01*
Y20521D01*
X322558Y20632D01*
X322502Y20715D01*
X322456Y20771D01*
X322437Y20780D01*
Y20789D01*
X322354Y20863D01*
X322271Y20919D01*
X322206Y20956D01*
X322197Y20965D01*
X322188D01*
X322077Y21002D01*
X321966Y21021D01*
X321929Y21030D01*
D02*
G37*
G36*
X294678Y21030D02*
X294614D01*
X294475Y21021D01*
X294373Y21002D01*
X294327Y20984D01*
X294299Y20974D01*
X294281Y20965D01*
X294271D01*
X294169Y20919D01*
X294086Y20863D01*
X294040Y20817D01*
X294022Y20808D01*
Y20799D01*
X293947Y20715D01*
X293892Y20632D01*
X293874Y20604D01*
X293864Y20577D01*
X293855Y20558D01*
Y20549D01*
X293818Y20447D01*
X293809Y20345D01*
X293799Y20308D01*
Y20271D01*
Y20253D01*
Y20244D01*
Y20170D01*
X295483D01*
X295446Y20308D01*
X295409Y20419D01*
X295400Y20466D01*
X295381Y20493D01*
X295372Y20512D01*
Y20521D01*
X295307Y20632D01*
X295252Y20715D01*
X295205Y20771D01*
X295187Y20780D01*
Y20789D01*
X295104Y20863D01*
X295020Y20919D01*
X294956Y20956D01*
X294947Y20965D01*
X294937D01*
X294826Y21002D01*
X294715Y21021D01*
X294678Y21030D01*
D02*
G37*
G36*
X299988Y22334D02*
X299645D01*
X299525Y22325D01*
X299424Y22316D01*
X299322Y22297D01*
X299238Y22279D01*
X299174Y22251D01*
X299127Y22232D01*
X299091Y22223D01*
X299081Y22214D01*
X298915Y22112D01*
X298850Y22057D01*
X298785Y22001D01*
X298739Y21955D01*
X298702Y21918D01*
X298683Y21890D01*
X298674Y21881D01*
X298563Y21714D01*
X298526Y21622D01*
X298489Y21539D01*
X298462Y21474D01*
X298443Y21418D01*
X298424Y21372D01*
Y21363D01*
X298378Y21132D01*
X298360Y21030D01*
X298351Y20928D01*
X298341Y20836D01*
Y20771D01*
Y20725D01*
Y20706D01*
Y20253D01*
Y20114D01*
X298360Y19985D01*
X298369Y19874D01*
X298387Y19772D01*
X298406Y19689D01*
X298415Y19624D01*
X298434Y19587D01*
Y19568D01*
X298471Y19457D01*
X298508Y19356D01*
X298545Y19272D01*
X298591Y19198D01*
X298628Y19134D01*
X298656Y19087D01*
X298674Y19060D01*
X298683Y19050D01*
X298813Y18912D01*
X298878Y18865D01*
X298933Y18819D01*
X298989Y18782D01*
X299035Y18754D01*
X299063Y18745D01*
X299072Y18736D01*
X299164Y18699D01*
X299248Y18671D01*
X299340Y18653D01*
X299414Y18643D01*
X299488Y18634D01*
X299544Y18625D01*
X299988D01*
Y22334D01*
D02*
G37*
G36*
X290164Y15809D02*
X290109D01*
X289988Y15800D01*
X289877Y15772D01*
X289785Y15726D01*
X289711Y15680D01*
X289655Y15624D01*
X289618Y15587D01*
X289591Y15550D01*
X289581Y15541D01*
X289517Y15430D01*
X289470Y15310D01*
X289443Y15180D01*
X289415Y15051D01*
X289397Y14931D01*
X289387Y14838D01*
Y14801D01*
Y14773D01*
Y14755D01*
Y14746D01*
X290821Y13672D01*
Y14681D01*
X290812Y14884D01*
X290793Y15060D01*
X290766Y15199D01*
X290728Y15319D01*
X290701Y15412D01*
X290673Y15476D01*
X290654Y15522D01*
X290645Y15532D01*
X290571Y15624D01*
X290488Y15689D01*
X290395Y15744D01*
X290312Y15772D01*
X290229Y15791D01*
X290164Y15809D01*
D02*
G37*
G36*
X289387Y14042D02*
Y13071D01*
X289397Y12868D01*
X289415Y12692D01*
X289443Y12544D01*
X289470Y12424D01*
X289508Y12331D01*
X289535Y12267D01*
X289554Y12220D01*
X289563Y12211D01*
X289637Y12118D01*
X289720Y12054D01*
X289813Y11998D01*
X289896Y11970D01*
X289979Y11952D01*
X290044Y11943D01*
X290081Y11934D01*
X290099D01*
X290220Y11943D01*
X290331Y11970D01*
X290423Y12017D01*
X290497Y12063D01*
X290553Y12100D01*
X290590Y12146D01*
X290617Y12174D01*
X290627Y12183D01*
X290682Y12294D01*
X290728Y12415D01*
X290766Y12553D01*
X290793Y12683D01*
X290802Y12794D01*
X290812Y12896D01*
X290821Y12923D01*
Y12951D01*
Y12969D01*
Y12979D01*
X289387Y14042D01*
D02*
G37*
G36*
X281081Y15809D02*
X281025D01*
X280905Y15800D01*
X280794Y15772D01*
X280701Y15726D01*
X280627Y15680D01*
X280572Y15624D01*
X280535Y15587D01*
X280507Y15550D01*
X280498Y15541D01*
X280433Y15430D01*
X280387Y15310D01*
X280359Y15180D01*
X280331Y15051D01*
X280313Y14931D01*
X280304Y14838D01*
Y14801D01*
Y14773D01*
Y14755D01*
Y14746D01*
X281737Y13672D01*
Y14681D01*
X281728Y14884D01*
X281710Y15060D01*
X281682Y15199D01*
X281645Y15319D01*
X281617Y15412D01*
X281589Y15476D01*
X281571Y15522D01*
X281562Y15532D01*
X281488Y15624D01*
X281404Y15689D01*
X281312Y15744D01*
X281229Y15772D01*
X281145Y15791D01*
X281081Y15809D01*
D02*
G37*
G36*
X280304Y14042D02*
Y13071D01*
X280313Y12868D01*
X280331Y12692D01*
X280359Y12544D01*
X280387Y12424D01*
X280424Y12331D01*
X280452Y12267D01*
X280470Y12220D01*
X280479Y12211D01*
X280554Y12118D01*
X280637Y12054D01*
X280729Y11998D01*
X280812Y11970D01*
X280896Y11952D01*
X280960Y11943D01*
X280997Y11934D01*
X281016D01*
X281136Y11943D01*
X281247Y11970D01*
X281340Y12017D01*
X281414Y12063D01*
X281469Y12100D01*
X281506Y12146D01*
X281534Y12174D01*
X281543Y12183D01*
X281599Y12294D01*
X281645Y12415D01*
X281682Y12553D01*
X281710Y12683D01*
X281719Y12794D01*
X281728Y12896D01*
X281737Y12923D01*
Y12951D01*
Y12969D01*
Y12979D01*
X280304Y14042D01*
D02*
G37*
%LPD*%
M02*
