G04*
G04 #@! TF.GenerationSoftware,Altium Limited,Altium Designer,20.1.12 (249)*
G04*
G04 Layer_Color=16711935*
%FSLAX25Y25*%
%MOIN*%
G70*
G04*
G04 #@! TF.SameCoordinates,6E9518FA-7893-4EC2-9B17-AA6BB5186BD6*
G04*
G04*
G04 #@! TF.FilePolarity,Positive*
G04*
G01*
G75*
%ADD13C,0.00787*%
%ADD36C,0.00100*%
G36*
X402746Y28335D02*
X402742D01*
X402735D01*
X402720D01*
X402698Y28331D01*
X402676Y28328D01*
X402651D01*
X402589Y28317D01*
X402524Y28306D01*
X402458Y28284D01*
X402400Y28262D01*
X402374Y28248D01*
X402353Y28229D01*
X402349Y28226D01*
X402338Y28211D01*
X402320Y28189D01*
X402302Y28160D01*
X402280Y28120D01*
X402265Y28076D01*
X402251Y28022D01*
X402247Y27964D01*
Y27942D01*
X402251Y27920D01*
X402254Y27887D01*
X402261Y27854D01*
X402269Y27818D01*
X402283Y27782D01*
X402302Y27745D01*
X402305Y27742D01*
X402312Y27731D01*
X402327Y27716D01*
X402342Y27694D01*
X402367Y27676D01*
X402392Y27654D01*
X402422Y27636D01*
X402458Y27621D01*
X402462D01*
X402476Y27614D01*
X402502Y27611D01*
X402534Y27603D01*
X402578Y27596D01*
X402633Y27592D01*
X402698Y27585D01*
X402775D01*
X404511D01*
Y27250D01*
X402793D01*
X402789D01*
X402778D01*
X402764D01*
X402742D01*
X402713Y27254D01*
X402684D01*
X402615Y27261D01*
X402534Y27268D01*
X402451Y27283D01*
X402374Y27305D01*
X402302Y27330D01*
X402298D01*
X402294Y27334D01*
X402272Y27345D01*
X402243Y27363D01*
X402203Y27389D01*
X402163Y27425D01*
X402119Y27465D01*
X402076Y27516D01*
X402039Y27574D01*
X402036Y27582D01*
X402025Y27603D01*
X402010Y27636D01*
X401996Y27683D01*
X401978Y27742D01*
X401963Y27807D01*
X401952Y27880D01*
X401948Y27960D01*
Y27993D01*
X401952Y28015D01*
X401956Y28044D01*
X401959Y28073D01*
X401974Y28149D01*
X401996Y28229D01*
X402029Y28313D01*
X402050Y28357D01*
X402076Y28397D01*
X402105Y28433D01*
X402138Y28470D01*
X402141Y28473D01*
X402145Y28477D01*
X402160Y28484D01*
X402174Y28495D01*
X402192Y28510D01*
X402218Y28524D01*
X402247Y28539D01*
X402280Y28557D01*
X402316Y28572D01*
X402360Y28586D01*
X402403Y28601D01*
X402454Y28615D01*
X402509Y28622D01*
X402571Y28633D01*
X402633Y28637D01*
X402702D01*
X402746Y28335D01*
D02*
G37*
G36*
X403889Y26591D02*
X403896Y26584D01*
X403899Y26570D01*
X403910Y26551D01*
X403921Y26529D01*
X403936Y26504D01*
X403972Y26442D01*
X404012Y26369D01*
X404063Y26297D01*
X404121Y26220D01*
X404183Y26144D01*
X404187Y26140D01*
X404191Y26136D01*
X404202Y26125D01*
X404213Y26111D01*
X404249Y26078D01*
X404293Y26035D01*
X404344Y25991D01*
X404402Y25943D01*
X404460Y25903D01*
X404522Y25867D01*
Y25667D01*
X401992D01*
Y25976D01*
X403961D01*
X403958Y25980D01*
X403943Y25998D01*
X403921Y26020D01*
X403896Y26056D01*
X403863Y26096D01*
X403827Y26147D01*
X403787Y26206D01*
X403747Y26271D01*
Y26275D01*
X403743Y26278D01*
X403728Y26300D01*
X403710Y26337D01*
X403688Y26380D01*
X403663Y26431D01*
X403637Y26486D01*
X403612Y26540D01*
X403590Y26595D01*
X403889D01*
Y26591D01*
D02*
G37*
D13*
X431745Y15547D02*
Y41728D01*
X373634Y15547D02*
X431745D01*
X373634D02*
Y41728D01*
X431745D01*
D36*
X342970Y29837D02*
X346970D01*
Y27437D02*
Y29837D01*
X342970Y27437D02*
X346970D01*
X342970D02*
Y29837D01*
X299411Y27437D02*
Y29837D01*
Y27437D02*
X303411D01*
Y29837D01*
X299411D02*
X303411D01*
X339529Y35937D02*
Y38337D01*
X335529D02*
X339529D01*
X335529Y35937D02*
Y38337D01*
Y35937D02*
X339529D01*
Y41937D02*
Y44337D01*
X335529D02*
X339529D01*
X335529Y41937D02*
Y44337D01*
Y41937D02*
X339529D01*
M02*
