M48
;Layer_Color=9474304
;FILE_FORMAT=2:5
INCH,LZ
;TYPE=PLATED
T1F00S00C0.01575
T2F00S00C0.01968
T3F00S00C0.03937
T4F00S00C0.27559
%
T01
X0012552Y0011637
X0014852Y0009937
X0017452Y0008437
X0020252Y0007437
X0023152Y0006737
X0026252Y0006437
X0029293Y0006523
X0032169Y0007203
X0034952Y0008037
X0037652Y0009137
X0040155Y0010643
X0042852Y0012337
Y0012337
X0045785Y0011137
X0048852
X0051918
X0054985
X0044852Y0014637
X0046552Y0017137
X0047952Y0019837
X0048952Y0022537
X0049652Y0025437
X0052718
X0055785
Y0031837
X0052718
X0049652
X0048952Y0034737
X0047952Y0037437
X0046552Y0040137
X0044852Y0042637
X0042852Y0044937
X0045785Y0046137
X0048852
X0051918
X0054985
X0040155Y0046632
X0037652Y0048137
X0034952Y0049237
X0032169Y0050071
X0029293Y0050751
X0026252Y0050837
X0023152Y0050537
X0020252Y0049837
X0017452Y0048837
X0014852Y0047337
X0012552Y0045637
X0010452Y0043537
X0008452Y0041337
X0006952Y0038637
X0005852Y0035837
X0012752Y0035737
X0014352Y0038137
X0016352Y0040337
X0018652Y0042137
X0021352Y0043437
X0024352Y0044137
X0027352Y0044437
X0030352Y0044237
X0033152Y0043337
X0035752Y0041837
X0038052Y0040037
X0039952Y0037737
X0041352Y0035237
X0042252Y0032437
X0042652Y0029537
Y0026637
X0042252Y0023637
X0041252Y0020837
X0039682Y0018337
X0037571Y0016226
X0035216Y0014427
X0032552Y0013237
X0029652Y0012537
X0026652Y0012337
X0023752Y0012737
X0020952Y0013737
X0018352Y0015137
X0015952Y0016937
X0014052Y0019137
X0012552Y0021637
X0005852Y0021437
X0006952Y0018637
X0008452Y0015937
X0010452Y0013737
X0046296Y0025219
X0058852Y0025437
X0061918
X0064985
X0068052
X0071118
X0074185
X0077252
X0080318
X0083385
X0086452
X0089518
X0092585
X0095652
X0098718
X0101785
X0104852
X0107918
X0110985
X0114052
X0117118
X0120185
X0123252
X0126318
X0129385
X0132452
X0135518
X0138585
X0141651
X0144718
X0147785
X0150852
X0153918
X0156985
X0160052
X0163118
X0166185
X0169252
X0172318
X0175385
X0178452
X0181518
X0184585
X0187651
X0190718
X0193785
X0196851
X0199918
X0202985
X0206051
X0209118
X0212185
Y0031837
X0209118
X0206051
X0202985
X0199918
X0196851
X0193785
X0190718
X0187651
X0184585
X0181518
X0178452
X0175385
X0172318
X0169252
X0166185
X0163118
X0160052
X0156985
X0153918
X0150852
X0147785
X0144718
X0141651
X0138585
X0135518
X0132452
X0129385
X0126318
X0123252
X0120185
X0117118
X0114052
X0110985
X0107918
X0104852
X0101785
X0098718
X0095652
X0092585
X0089518
X0086452
X0083385
X0080318
X0077252
X0074185
X0071118
X0068052
X0064985
X0061918
X0058852
X0058052Y0046137
X0061118
X0064185
X0067252
X0070318
X0073385
X0076452
X0079518
X0082585
X0085652
X0088718
X0091785
X0094852
X0097918
X0100985
X0104052
X0107118
X0110185
X0113252
X0116318
X0119385
X0122452
X0125518
X0128585
X0131652
X0134718
X0137785
X0140851
X0143918
X0146985
X0150051
X0153118
X0156185
X0159251
X0162318
X0165385
X0168451
X0171518
X0174585
X0177652
X0180718
X0183785
X0186851
X0189918
X0192985
X0196051
X0199118
X0202185
X0205251
X0208318
X0211385
Y0011137
X0208318
X0205251
X0202185
X0199118
X0196051
X0192985
X0189918
X0186851
X0183785
X0180718
X0177652
X0174585
X0171518
X0168451
X0165385
X0162318
X0159251
X0156185
X0153118
X0150051
X0146985
X0143918
X0140851
X0137785
X0134718
X0131652
X0128585
X0125518
X0122452
X0119385
X0116318
X0113252
X0110185
X0107118
X0104052
X0100985
X0097918
X0094852
X0091785
X0088718
X0085652
X0082585
X0079518
X0076452
X0073385
X0070318
X0067252
X0064185
X0061118
X0058052
X0214451
X0217518
X0220585
X0223651
X0226718
X0229785
X0232851
X0235918
X0238985
X0242051
X0245118
X0248185
X0251251
X0254318
X0257385
X0260451
X0263518
X0266585
X0269651
X0272718
X0275785
X0278352Y0009737
X0280352Y0007837
X0282751Y0006437
X0285818
X0288885
X0291951
X0295018
X0298084
X0301151
X0304218
X0307284
X0310351
X0313418
X0316484
X0319551
X0322618
X0325684
X0328751
X0331818
X0334885
X0337951
X0341018
X0344085
X0347151
X0350218
X0353284
X0356351
X0359418
X0362484
X0365551
X0368618
Y0050837
X0365551
X0362484
X0359418
X0356351
X0353284
X0350218
X0347151
X0344085
X0341018
X0337951
X0334885
X0331818
X0328751
X0325684
X0322618
X0319551
X0316484
X0313418
X0310351
X0307284
X0304218
X0301151
X0298084
X0295018
X0291951
X0288885
X0285818
X0282751
X0280352Y0049637
X0278452Y0047537
X0275785Y0046137
X0272718
X0269651
X0266585
X0263518
X0260451
X0257385
X0254318
X0251251
X0248185
X0245118
X0242051
X0238985
X0235918
X0232851
X0229785
X0226718
X0223651
X0220585
X0217518
X0214451
X0215251Y0031837
X0218318
X0221385
X0224451
X0227518
X0230585
X0233651
X0236718
X0239785
X0242851
X0245918
X0248985
X0252051
X0255118
X0258185
X0261251
X0264318
X0267385
X0270451
X0273518
X0276585
X0279651
X0282718
X0285785
X0288851
X0291918
X0294985
Y0025437
X0291918
X0288851
X0285785
X0282718
X0279651
X0276585
X0273518
X0270451
X0267385
X0264318
X0261251
X0258185
X0255118
X0252051
X0248985
X0245918
X0242851
X0239785
X0236718
X0233651
X0230585
X0227518
X0224451
X0221385
X0218318
X0215251
X0371684Y0006437
X0374751
X0377818
X0380884
X0383951
X0387018
X0390084
X0391152Y000947
Y0012537
Y0015604
Y0021737
Y0024804
Y0032471
Y0035537
Y004167
Y0044737
Y0047804
X0390084Y0050837
X0387018
X0383951
X0380884
X0377818
X0374751
X0371684
T02
X0312962Y0037417
X0317741
X0322529
X0327135
Y0042417
X0322529
X0317741
X0312962
Y0047417
X0327135
X031997Y0034149
T03
X0354252Y0042337
X0364252
T04
X002691Y0028637
M30
