G04*
G04 #@! TF.GenerationSoftware,Altium Limited,Altium Designer,20.1.12 (249)*
G04*
G04 Layer_Physical_Order=4*
G04 Layer_Color=16711680*
%FSLAX25Y25*%
%MOIN*%
G70*
G04*
G04 #@! TF.SameCoordinates,6E9518FA-7893-4EC2-9B17-AA6BB5186BD6*
G04*
G04*
G04 #@! TF.FilePolarity,Positive*
G04*
G01*
G75*
%ADD16R,0.17953X0.03937*%
%ADD27R,0.17638X0.15079*%
%ADD28R,0.02165X0.11299*%
%ADD29R,0.02165X0.05512*%
%ADD30C,0.07087*%
G04:AMPARAMS|DCode=31|XSize=70.87mil|YSize=70.87mil|CornerRadius=8.86mil|HoleSize=0mil|Usage=FLASHONLY|Rotation=0.000|XOffset=0mil|YOffset=0mil|HoleType=Round|Shape=RoundedRectangle|*
%AMROUNDEDRECTD31*
21,1,0.07087,0.05315,0,0,0.0*
21,1,0.05315,0.07087,0,0,0.0*
1,1,0.01772,0.02657,-0.02657*
1,1,0.01772,-0.02657,-0.02657*
1,1,0.01772,-0.02657,0.02657*
1,1,0.01772,0.02657,0.02657*
%
%ADD31ROUNDEDRECTD31*%
%ADD32C,0.01968*%
%ADD33C,0.05000*%
%ADD34C,0.02756*%
G36*
X29095Y53094D02*
X31811Y52633D01*
X34458Y51871D01*
X37002Y50816D01*
X39413Y49484D01*
X40931Y48407D01*
X40956Y48442D01*
X41261Y48239D01*
X41840Y48124D01*
X45498Y48124D01*
X183494Y47987D01*
X275418Y47310D01*
X275437Y47314D01*
X275457Y47311D01*
X275727Y47370D01*
X275998Y47421D01*
X276014Y47432D01*
X276034Y47436D01*
X276261Y47594D01*
X276491Y47746D01*
X276502Y47762D01*
X276519Y47773D01*
X281042Y52465D01*
X331436Y52500D01*
X331504Y52487D01*
X388756Y52618D01*
X388795Y52626D01*
X389788Y52495D01*
X390753Y52095D01*
X391582Y51459D01*
X392218Y50631D01*
X392618Y49666D01*
X392691Y49109D01*
X392741Y48630D01*
X392741Y48630D01*
X392741Y48136D01*
Y9133D01*
X392741Y9132D01*
X392741Y8637D01*
X392691Y8158D01*
X392618Y7601D01*
X392218Y6636D01*
X391582Y5808D01*
X390753Y5172D01*
X389788Y4772D01*
X389232Y4699D01*
X388753Y4649D01*
X388753Y4649D01*
X281562D01*
X276490Y9540D01*
X276252Y9693D01*
X276015Y9850D01*
X276003Y9853D01*
X275993Y9859D01*
X275713Y9909D01*
X275435Y9964D01*
X41835Y9250D01*
X41547Y9192D01*
X41261Y9135D01*
X41259Y9134D01*
X41257Y9133D01*
X41012Y8969D01*
X40956Y8932D01*
X40931Y8967D01*
X39413Y7890D01*
X37002Y6558D01*
X34458Y5504D01*
X31811Y4741D01*
X29095Y4280D01*
X26345Y4125D01*
X23595Y4280D01*
X20880Y4741D01*
X18233Y5504D01*
X15688Y6558D01*
X13278Y7890D01*
X11031Y9484D01*
X8978Y11319D01*
X7142Y13373D01*
X5548Y15619D01*
X4216Y18030D01*
X3162Y20575D01*
X2514Y22822D01*
X2891Y23322D01*
X15732Y23322D01*
X14904Y33952D01*
X2830Y33952D01*
X2486Y34452D01*
X3162Y36799D01*
X4216Y39344D01*
X5548Y41755D01*
X7142Y44001D01*
X8978Y46055D01*
X11031Y47890D01*
X13278Y49484D01*
X15688Y50816D01*
X18233Y51871D01*
X20880Y52633D01*
X23595Y53094D01*
X26345Y53249D01*
X29095Y53094D01*
D02*
G37*
%LPC*%
G36*
X356909Y46407D02*
X351594D01*
X351054Y46300D01*
X350595Y45994D01*
X350289Y45535D01*
X350181Y44995D01*
Y39680D01*
X350289Y39139D01*
X350595Y38680D01*
X351054Y38374D01*
X351594Y38267D01*
X356909D01*
X357450Y38374D01*
X357908Y38680D01*
X358215Y39139D01*
X358322Y39680D01*
Y44995D01*
X358215Y45535D01*
X357908Y45994D01*
X357450Y46300D01*
X356909Y46407D01*
D02*
G37*
G36*
X327458Y31893D02*
X324293D01*
Y25381D01*
X327458D01*
Y31893D01*
D02*
G37*
G36*
X315647D02*
X312482D01*
Y25381D01*
X315647D01*
Y31893D01*
D02*
G37*
%LPD*%
D16*
X383004Y38952D02*
D03*
Y18322D02*
D03*
D27*
X319970Y41826D02*
D03*
D28*
Y28637D02*
D03*
D29*
X325875D02*
D03*
X314064D02*
D03*
D30*
X364252Y42337D02*
D03*
D31*
X354252D02*
D03*
D32*
X327135Y47417D02*
D03*
X312962D02*
D03*
X327135Y37417D02*
D03*
X322529D02*
D03*
X317741D02*
D03*
X312962D02*
D03*
X327135Y42417D02*
D03*
X322529D02*
D03*
X317741D02*
D03*
X312962D02*
D03*
D33*
X319970Y34149D02*
D03*
D34*
X391152Y41670D02*
D03*
Y47804D02*
D03*
Y44737D02*
D03*
Y35537D02*
D03*
Y32471D02*
D03*
Y24804D02*
D03*
Y21737D02*
D03*
Y12537D02*
D03*
X390084Y6437D02*
D03*
X391152Y9470D02*
D03*
Y15604D02*
D03*
X280352Y7837D02*
D03*
X278352Y9737D02*
D03*
X280352Y49637D02*
D03*
X278452Y47537D02*
D03*
X304218Y50837D02*
D03*
X285818D02*
D03*
X288885D02*
D03*
X301151D02*
D03*
X295018D02*
D03*
X298084D02*
D03*
X291951D02*
D03*
X282751D02*
D03*
X307284D02*
D03*
X310351D02*
D03*
X341018D02*
D03*
X337951D02*
D03*
X313418D02*
D03*
X322618D02*
D03*
X328751D02*
D03*
X325684D02*
D03*
X331818D02*
D03*
X319551D02*
D03*
X316484D02*
D03*
X334885D02*
D03*
X371684D02*
D03*
X368618D02*
D03*
X344085D02*
D03*
X353284D02*
D03*
X359418D02*
D03*
X356351D02*
D03*
X362484D02*
D03*
X350218D02*
D03*
X347151D02*
D03*
X365551D02*
D03*
X374751D02*
D03*
X383951D02*
D03*
X390084D02*
D03*
X387018D02*
D03*
X380884D02*
D03*
X377818D02*
D03*
Y6437D02*
D03*
X380884D02*
D03*
X387018D02*
D03*
X383951D02*
D03*
X365551D02*
D03*
X347151D02*
D03*
X350218D02*
D03*
X362484D02*
D03*
X356351D02*
D03*
X359418D02*
D03*
X353284D02*
D03*
X344085D02*
D03*
X374751D02*
D03*
X368618D02*
D03*
X371684D02*
D03*
X334885D02*
D03*
X316484D02*
D03*
X319551D02*
D03*
X331818D02*
D03*
X325684D02*
D03*
X328751D02*
D03*
X322618D02*
D03*
X337951D02*
D03*
X341018D02*
D03*
X310351D02*
D03*
X307284D02*
D03*
X313418D02*
D03*
X269651Y11137D02*
D03*
X282751Y6437D02*
D03*
X291951D02*
D03*
X298084D02*
D03*
X272718Y11137D02*
D03*
X266585D02*
D03*
X295018Y6437D02*
D03*
X301151D02*
D03*
X275785Y11137D02*
D03*
X288885Y6437D02*
D03*
X285818D02*
D03*
X304218D02*
D03*
X232851Y11137D02*
D03*
X242051D02*
D03*
X251251D02*
D03*
X257385D02*
D03*
X235918D02*
D03*
X229785D02*
D03*
X254318D02*
D03*
X260451D02*
D03*
X238985D02*
D03*
X248185D02*
D03*
X245118D02*
D03*
X263518D02*
D03*
X196051D02*
D03*
X205251D02*
D03*
X214451D02*
D03*
X220585D02*
D03*
X199118D02*
D03*
X192985D02*
D03*
X217518D02*
D03*
X223651D02*
D03*
X202185D02*
D03*
X211385D02*
D03*
X208318D02*
D03*
X226718D02*
D03*
X159251D02*
D03*
X168451D02*
D03*
X177652D02*
D03*
X183785D02*
D03*
X162318D02*
D03*
X156185D02*
D03*
X180718D02*
D03*
X186851D02*
D03*
X165385D02*
D03*
X174585D02*
D03*
X171518D02*
D03*
X189918D02*
D03*
X122452D02*
D03*
X131652D02*
D03*
X140851D02*
D03*
X146985D02*
D03*
X125518D02*
D03*
X119385D02*
D03*
X143918D02*
D03*
X150051D02*
D03*
X128585D02*
D03*
X137785D02*
D03*
X134718D02*
D03*
X153118D02*
D03*
X85652D02*
D03*
X94852D02*
D03*
X104052D02*
D03*
X110185D02*
D03*
X88718D02*
D03*
X82585D02*
D03*
X107118D02*
D03*
X113252D02*
D03*
X91785D02*
D03*
X100985D02*
D03*
X97918D02*
D03*
X116318D02*
D03*
X79518D02*
D03*
X61118D02*
D03*
X64185D02*
D03*
X54985D02*
D03*
X76452D02*
D03*
X70318D02*
D03*
X45785D02*
D03*
X51918D02*
D03*
X73385D02*
D03*
X67252D02*
D03*
X58052D02*
D03*
X48852D02*
D03*
Y46137D02*
D03*
X58052D02*
D03*
X67252D02*
D03*
X73385D02*
D03*
X51918D02*
D03*
X45785D02*
D03*
X70318D02*
D03*
X76452D02*
D03*
X54985D02*
D03*
X64185D02*
D03*
X61118D02*
D03*
X79518D02*
D03*
X116318D02*
D03*
X97918D02*
D03*
X100985D02*
D03*
X91785D02*
D03*
X113252D02*
D03*
X107118D02*
D03*
X82585D02*
D03*
X88718D02*
D03*
X110185D02*
D03*
X104052D02*
D03*
X94852D02*
D03*
X85652D02*
D03*
X153118D02*
D03*
X134718D02*
D03*
X137785D02*
D03*
X128585D02*
D03*
X150051D02*
D03*
X143918D02*
D03*
X119385D02*
D03*
X125518D02*
D03*
X146985D02*
D03*
X140851D02*
D03*
X131652D02*
D03*
X122452D02*
D03*
X171518D02*
D03*
X174585D02*
D03*
X165385D02*
D03*
X186851D02*
D03*
X180718D02*
D03*
X156185D02*
D03*
X162318D02*
D03*
X183785D02*
D03*
X177652D02*
D03*
X168451D02*
D03*
X159251D02*
D03*
X189918D02*
D03*
X226718D02*
D03*
X208318D02*
D03*
X211385D02*
D03*
X202185D02*
D03*
X223651D02*
D03*
X217518D02*
D03*
X192985D02*
D03*
X199118D02*
D03*
X220585D02*
D03*
X214451D02*
D03*
X205251D02*
D03*
X196051D02*
D03*
X245118D02*
D03*
X248185D02*
D03*
X238985D02*
D03*
X260451D02*
D03*
X254318D02*
D03*
X229785D02*
D03*
X235918D02*
D03*
X257385D02*
D03*
X251251D02*
D03*
X242051D02*
D03*
X232851D02*
D03*
X263518D02*
D03*
X275785D02*
D03*
X266585D02*
D03*
X272718D02*
D03*
X269651D02*
D03*
X40155Y10643D02*
D03*
X37652Y9137D02*
D03*
X34952Y8037D02*
D03*
X32169Y7203D02*
D03*
X29293Y6523D02*
D03*
X26252Y6437D02*
D03*
X23152Y6737D02*
D03*
X20252Y7437D02*
D03*
X17452Y8437D02*
D03*
X14852Y9937D02*
D03*
X12552Y11637D02*
D03*
X10452Y13737D02*
D03*
X8452Y15937D02*
D03*
X6952Y18637D02*
D03*
X5852Y21437D02*
D03*
X40155Y46632D02*
D03*
X37652Y48137D02*
D03*
X34952Y49237D02*
D03*
X32169Y50071D02*
D03*
X29293Y50751D02*
D03*
X26252Y50837D02*
D03*
X23152Y50537D02*
D03*
X20252Y49837D02*
D03*
X17452Y48837D02*
D03*
X14852Y47337D02*
D03*
X12552Y45637D02*
D03*
X10452Y43537D02*
D03*
X8452Y41337D02*
D03*
X6952Y38637D02*
D03*
X5852Y35837D02*
D03*
X42852Y44937D02*
D03*
Y12337D02*
D03*
X48952Y22537D02*
D03*
X47952Y19837D02*
D03*
X46552Y17137D02*
D03*
X44852Y14637D02*
D03*
X42852Y12337D02*
D03*
X44852Y42637D02*
D03*
X46552Y40137D02*
D03*
X47952Y37437D02*
D03*
X48952Y34737D02*
D03*
X55785Y25437D02*
D03*
X64985D02*
D03*
X74185D02*
D03*
X80318D02*
D03*
X58852D02*
D03*
X52718D02*
D03*
X77252D02*
D03*
X83385D02*
D03*
X61918D02*
D03*
X71118D02*
D03*
X68052D02*
D03*
X49652D02*
D03*
X86452D02*
D03*
X123252D02*
D03*
X104852D02*
D03*
X107918D02*
D03*
X98718D02*
D03*
X120185D02*
D03*
X114052D02*
D03*
X89518D02*
D03*
X95652D02*
D03*
X117118D02*
D03*
X110985D02*
D03*
X101785D02*
D03*
X92585D02*
D03*
X141651D02*
D03*
X144718D02*
D03*
X135518D02*
D03*
X156985D02*
D03*
X150852D02*
D03*
X126318D02*
D03*
X132452D02*
D03*
X153918D02*
D03*
X147785D02*
D03*
X138585D02*
D03*
X129385D02*
D03*
X160052D02*
D03*
X196851D02*
D03*
X178452D02*
D03*
X181518D02*
D03*
X172318D02*
D03*
X193785D02*
D03*
X187651D02*
D03*
X163118D02*
D03*
X169252D02*
D03*
X190718D02*
D03*
X184585D02*
D03*
X175385D02*
D03*
X166185D02*
D03*
X215251D02*
D03*
X218318D02*
D03*
X209118D02*
D03*
X230585D02*
D03*
X224451D02*
D03*
X199918D02*
D03*
X206051D02*
D03*
X227518D02*
D03*
X221385D02*
D03*
X212185D02*
D03*
X202985D02*
D03*
X233651D02*
D03*
X252051D02*
D03*
X255118D02*
D03*
X245918D02*
D03*
X267385D02*
D03*
X261251D02*
D03*
X236718D02*
D03*
X242851D02*
D03*
X264318D02*
D03*
X258185D02*
D03*
X248985D02*
D03*
X239785D02*
D03*
X270451D02*
D03*
X288851D02*
D03*
X291918D02*
D03*
X282718D02*
D03*
X273518D02*
D03*
X279651D02*
D03*
X294985D02*
D03*
X285785D02*
D03*
X276585D02*
D03*
Y31837D02*
D03*
X285785D02*
D03*
X294985D02*
D03*
X279651D02*
D03*
X273518D02*
D03*
X282718D02*
D03*
X291918D02*
D03*
X288851D02*
D03*
X239785D02*
D03*
X248985D02*
D03*
X258185D02*
D03*
X264318D02*
D03*
X242851D02*
D03*
X236718D02*
D03*
X261251D02*
D03*
X267385D02*
D03*
X245918D02*
D03*
X255118D02*
D03*
X252051D02*
D03*
X270451D02*
D03*
X233651D02*
D03*
X202985D02*
D03*
X212185D02*
D03*
X221385D02*
D03*
X227518D02*
D03*
X206051D02*
D03*
X199918D02*
D03*
X224451D02*
D03*
X230585D02*
D03*
X209118D02*
D03*
X218318D02*
D03*
X215251D02*
D03*
X196851D02*
D03*
X166185D02*
D03*
X175385D02*
D03*
X184585D02*
D03*
X190718D02*
D03*
X169252D02*
D03*
X163118D02*
D03*
X187651D02*
D03*
X193785D02*
D03*
X172318D02*
D03*
X181518D02*
D03*
X178452D02*
D03*
X129385D02*
D03*
X138585D02*
D03*
X147785D02*
D03*
X153918D02*
D03*
X132452D02*
D03*
X126318D02*
D03*
X150852D02*
D03*
X156985D02*
D03*
X135518D02*
D03*
X144718D02*
D03*
X141651D02*
D03*
X160052D02*
D03*
X92585D02*
D03*
X101785D02*
D03*
X110985D02*
D03*
X117118D02*
D03*
X95652D02*
D03*
X89518D02*
D03*
X114052D02*
D03*
X120185D02*
D03*
X98718D02*
D03*
X107918D02*
D03*
X104852D02*
D03*
X123252D02*
D03*
X49652D02*
D03*
X86452D02*
D03*
X68052D02*
D03*
X71118D02*
D03*
X61918D02*
D03*
X83385D02*
D03*
X77252D02*
D03*
X52718D02*
D03*
X58852D02*
D03*
X80318D02*
D03*
X74185D02*
D03*
X64985D02*
D03*
X55785D02*
D03*
X12752Y35737D02*
D03*
X14352Y38137D02*
D03*
X16352Y40337D02*
D03*
X37571Y16226D02*
D03*
X35216Y14427D02*
D03*
X41252Y20837D02*
D03*
X39682Y18337D02*
D03*
X32552Y13237D02*
D03*
X29652Y12537D02*
D03*
X26652Y12337D02*
D03*
X23752Y12737D02*
D03*
X20952Y13737D02*
D03*
X18352Y15137D02*
D03*
X15952Y16937D02*
D03*
X14052Y19137D02*
D03*
X12552Y21637D02*
D03*
X18652Y42137D02*
D03*
X21352Y43437D02*
D03*
X24352Y44137D02*
D03*
X27352Y44437D02*
D03*
X30352Y44237D02*
D03*
X33152Y43337D02*
D03*
X35752Y41837D02*
D03*
X38052Y40037D02*
D03*
X39952Y37737D02*
D03*
X41352Y35237D02*
D03*
X42252Y32437D02*
D03*
X42652Y29537D02*
D03*
Y26637D02*
D03*
X46296Y25219D02*
D03*
X42252Y23637D02*
D03*
M02*
