G04*
G04 #@! TF.GenerationSoftware,Altium Limited,Altium Designer,20.1.12 (249)*
G04*
G04 Layer_Color=65535*
%FSLAX25Y25*%
%MOIN*%
G70*
G04*
G04 #@! TF.SameCoordinates,6E9518FA-7893-4EC2-9B17-AA6BB5186BD6*
G04*
G04*
G04 #@! TF.FilePolarity,Positive*
G04*
G01*
G75*
%ADD10C,0.00984*%
%ADD11C,0.00394*%
%ADD12C,0.01000*%
%ADD13C,0.00787*%
G36*
X58885Y15173D02*
X57858D01*
Y17504D01*
X56332D01*
Y15173D01*
X55305D01*
Y20557D01*
X56332D01*
Y18346D01*
X57858D01*
Y20557D01*
X58885D01*
Y15173D01*
D02*
G37*
G36*
X63510Y17125D02*
X60430D01*
Y17957D01*
X63510D01*
Y17125D01*
D02*
G37*
G36*
X84146Y20548D02*
X84276Y20538D01*
X84424Y20511D01*
X84591Y20483D01*
X84757Y20437D01*
X84923Y20372D01*
X84933D01*
X84942Y20362D01*
X84997Y20335D01*
X85081Y20298D01*
X85182Y20242D01*
X85294Y20168D01*
X85423Y20076D01*
X85543Y19974D01*
X85663Y19854D01*
X85682Y19835D01*
X85719Y19798D01*
X85774Y19724D01*
X85839Y19632D01*
X85922Y19521D01*
X85997Y19391D01*
X86080Y19243D01*
X86145Y19077D01*
Y19068D01*
X86154Y19058D01*
X86163Y19030D01*
X86172Y18993D01*
X86200Y18901D01*
X86228Y18781D01*
X86256Y18633D01*
X86283Y18466D01*
X86302Y18281D01*
X86311Y18078D01*
Y17634D01*
Y17625D01*
Y17606D01*
Y17578D01*
Y17541D01*
X86302Y17439D01*
X86292Y17301D01*
X86274Y17153D01*
X86237Y16986D01*
X86200Y16811D01*
X86145Y16635D01*
Y16625D01*
X86135Y16616D01*
X86117Y16561D01*
X86080Y16477D01*
X86024Y16366D01*
X85960Y16246D01*
X85876Y16117D01*
X85784Y15987D01*
X85673Y15858D01*
X85663Y15839D01*
X85617Y15802D01*
X85553Y15747D01*
X85469Y15673D01*
X85358Y15589D01*
X85238Y15506D01*
X85099Y15423D01*
X84942Y15349D01*
X84923Y15340D01*
X84868Y15321D01*
X84785Y15293D01*
X84664Y15266D01*
X84526Y15229D01*
X84368Y15201D01*
X84193Y15182D01*
X84008Y15173D01*
X82556D01*
Y20557D01*
X84045D01*
X84146Y20548D01*
D02*
G37*
G36*
X79151Y16006D02*
X81677Y16006D01*
Y15173D01*
X78106Y15173D01*
Y20557D01*
X79151D01*
Y16006D01*
D02*
G37*
G36*
X77172Y19706D02*
X74600D01*
Y18346D01*
X76811D01*
Y17532D01*
X74600D01*
Y16006D01*
X77191D01*
Y15173D01*
X73555D01*
Y20557D01*
X77172D01*
Y19706D01*
D02*
G37*
G36*
X72297Y19715D02*
X71252D01*
Y16006D01*
X72297D01*
Y15173D01*
X69189D01*
Y16006D01*
X70207D01*
Y19715D01*
X69189D01*
Y20557D01*
X72297D01*
Y19715D01*
D02*
G37*
G36*
X68125Y19706D02*
X65526D01*
Y18244D01*
X67830D01*
Y17402D01*
X65526D01*
Y15173D01*
X64481D01*
Y20557D01*
X68125D01*
Y19706D01*
D02*
G37*
G36*
X364507Y35756D02*
X364590Y35751D01*
X364679Y35740D01*
X364779Y35718D01*
X364884Y35695D01*
X364990Y35662D01*
X364995D01*
X365001Y35656D01*
X365034Y35645D01*
X365084Y35623D01*
X365151Y35590D01*
X365223Y35551D01*
X365301Y35501D01*
X365378Y35446D01*
X365456Y35379D01*
X365467Y35373D01*
X365489Y35346D01*
X365523Y35307D01*
X365567Y35257D01*
X365617Y35190D01*
X365667Y35118D01*
X365717Y35035D01*
X365761Y34941D01*
X365767Y34929D01*
X365778Y34896D01*
X365795Y34846D01*
X365811Y34774D01*
X365833Y34691D01*
X365850Y34596D01*
X365861Y34491D01*
X365867Y34380D01*
Y33509D01*
X362637D01*
Y34402D01*
X362642Y34463D01*
X362648Y34541D01*
X362664Y34630D01*
X362681Y34730D01*
X362709Y34830D01*
X362748Y34929D01*
Y34935D01*
X362753Y34941D01*
X362770Y34974D01*
X362792Y35024D01*
X362825Y35085D01*
X362870Y35151D01*
X362925Y35229D01*
X362986Y35301D01*
X363058Y35373D01*
X363070Y35385D01*
X363092Y35407D01*
X363136Y35440D01*
X363192Y35479D01*
X363258Y35529D01*
X363336Y35573D01*
X363425Y35623D01*
X363525Y35662D01*
X363530D01*
X363536Y35668D01*
X363552Y35673D01*
X363575Y35679D01*
X363630Y35695D01*
X363702Y35712D01*
X363791Y35729D01*
X363891Y35745D01*
X364002Y35756D01*
X364124Y35762D01*
X364390D01*
X364396D01*
X364407D01*
X364424D01*
X364446D01*
X364507Y35756D01*
D02*
G37*
G36*
X365867Y32310D02*
X363786Y31411D01*
X365867D01*
Y30784D01*
X362637D01*
Y31411D01*
X364712Y32304D01*
X362637D01*
Y32932D01*
X365867D01*
Y32310D01*
D02*
G37*
G36*
X365506Y30284D02*
X365539Y30251D01*
X365589Y30201D01*
X365645Y30129D01*
X365650Y30123D01*
X365656Y30112D01*
X365673Y30090D01*
X365689Y30062D01*
X365711Y30023D01*
X365734Y29984D01*
X365778Y29884D01*
Y29879D01*
X365789Y29857D01*
X365800Y29829D01*
X365811Y29790D01*
X365828Y29740D01*
X365845Y29690D01*
X365861Y29629D01*
X365872Y29563D01*
Y29557D01*
X365878Y29529D01*
X365883Y29496D01*
X365889Y29446D01*
X365900Y29391D01*
X365906Y29324D01*
X365911Y29257D01*
Y29135D01*
X365906Y29080D01*
X365900Y29019D01*
X365889Y28941D01*
X365872Y28858D01*
X365850Y28769D01*
X365817Y28686D01*
X365811Y28675D01*
X365800Y28647D01*
X365778Y28608D01*
X365745Y28552D01*
X365706Y28497D01*
X365656Y28430D01*
X365600Y28364D01*
X365534Y28303D01*
X365523Y28297D01*
X365500Y28275D01*
X365462Y28247D01*
X365406Y28214D01*
X365345Y28175D01*
X365267Y28136D01*
X365179Y28097D01*
X365084Y28059D01*
X365079D01*
X365073Y28053D01*
X365056D01*
X365034Y28047D01*
X364984Y28031D01*
X364907Y28020D01*
X364818Y28003D01*
X364712Y27986D01*
X364596Y27981D01*
X364474Y27975D01*
X364035D01*
X364030D01*
X364019D01*
X364002D01*
X363980D01*
X363913Y27981D01*
X363830Y27986D01*
X363741Y27997D01*
X363636Y28014D01*
X363530Y28036D01*
X363430Y28064D01*
X363425D01*
X363419Y28070D01*
X363386Y28081D01*
X363336Y28103D01*
X363275Y28131D01*
X363203Y28164D01*
X363125Y28208D01*
X363047Y28258D01*
X362975Y28314D01*
X362964Y28319D01*
X362942Y28342D01*
X362909Y28375D01*
X362870Y28419D01*
X362825Y28475D01*
X362775Y28541D01*
X362731Y28608D01*
X362692Y28686D01*
X362687Y28697D01*
X362676Y28725D01*
X362659Y28769D01*
X362642Y28824D01*
X362626Y28897D01*
X362609Y28974D01*
X362598Y29063D01*
X362592Y29152D01*
Y29196D01*
X362598Y29246D01*
X362603Y29313D01*
X362609Y29391D01*
X362620Y29468D01*
X362642Y29552D01*
X362664Y29629D01*
X362670Y29640D01*
X362676Y29662D01*
X362692Y29701D01*
X362714Y29751D01*
X362742Y29801D01*
X362775Y29862D01*
X362820Y29918D01*
X362864Y29973D01*
X362870Y29979D01*
X362887Y29996D01*
X362914Y30023D01*
X362953Y30051D01*
X362997Y30090D01*
X363053Y30123D01*
X363114Y30156D01*
X363181Y30190D01*
X363186Y30195D01*
X363214Y30201D01*
X363253Y30217D01*
X363303Y30234D01*
X363364Y30251D01*
X363436Y30268D01*
X363514Y30284D01*
X363597Y30295D01*
Y29685D01*
X363591D01*
X363586D01*
X363558Y29679D01*
X363514Y29668D01*
X363458Y29657D01*
X363397Y29635D01*
X363336Y29613D01*
X363275Y29579D01*
X363225Y29535D01*
X363219Y29529D01*
X363203Y29513D01*
X363186Y29485D01*
X363158Y29446D01*
X363136Y29396D01*
X363120Y29329D01*
X363103Y29257D01*
X363097Y29169D01*
Y29146D01*
X363103Y29124D01*
Y29096D01*
X363125Y29024D01*
X363136Y28985D01*
X363158Y28947D01*
Y28941D01*
X363170Y28930D01*
X363186Y28913D01*
X363203Y28885D01*
X363258Y28830D01*
X363336Y28769D01*
X363342Y28763D01*
X363358Y28758D01*
X363380Y28741D01*
X363414Y28725D01*
X363458Y28708D01*
X363508Y28686D01*
X363569Y28664D01*
X363630Y28647D01*
X363636D01*
X363658Y28641D01*
X363697Y28636D01*
X363747Y28625D01*
X363802Y28619D01*
X363869Y28608D01*
X363947Y28602D01*
X364030D01*
X364474D01*
X364479D01*
X364496D01*
X364518D01*
X364546Y28608D01*
X364585D01*
X364629Y28614D01*
X364729Y28625D01*
X364846Y28641D01*
X364962Y28669D01*
X365073Y28702D01*
X365173Y28752D01*
X365184Y28758D01*
X365212Y28780D01*
X365251Y28819D01*
X365290Y28869D01*
X365334Y28930D01*
X365373Y29008D01*
X365401Y29102D01*
X365406Y29158D01*
X365412Y29213D01*
Y29257D01*
X365406Y29302D01*
X365401Y29352D01*
Y29363D01*
X365395Y29396D01*
X365384Y29441D01*
X365373Y29485D01*
Y29491D01*
X365367Y29496D01*
X365356Y29524D01*
X365345Y29563D01*
X365329Y29596D01*
X365323Y29607D01*
X365312Y29624D01*
X365295Y29646D01*
X365273Y29668D01*
X364685Y29674D01*
Y29135D01*
X364218D01*
Y30295D01*
X365495D01*
X365500D01*
X365506Y30284D01*
D02*
G37*
G36*
X353680Y35235D02*
X353675D01*
X353658D01*
X353630Y35230D01*
X353597Y35224D01*
X353514Y35213D01*
X353430Y35191D01*
X353425D01*
X353414Y35185D01*
X353392Y35180D01*
X353364Y35169D01*
X353308Y35135D01*
X353247Y35091D01*
X353242Y35085D01*
X353236Y35080D01*
X353208Y35047D01*
X353169Y34991D01*
X353136Y34925D01*
Y34919D01*
X353131Y34908D01*
X353125Y34886D01*
X353114Y34858D01*
X353108Y34825D01*
X353103Y34786D01*
X353097Y34691D01*
Y34669D01*
X353103Y34642D01*
Y34608D01*
X353125Y34525D01*
X353142Y34481D01*
X353164Y34436D01*
Y34431D01*
X353175Y34420D01*
X353192Y34397D01*
X353208Y34375D01*
X353236Y34347D01*
X353269Y34320D01*
X353303Y34286D01*
X353347Y34259D01*
X353353D01*
X353369Y34247D01*
X353392Y34236D01*
X353425Y34220D01*
X353469Y34203D01*
X353519Y34186D01*
X353580Y34175D01*
X353641Y34159D01*
X353647D01*
X353669Y34153D01*
X353708Y34148D01*
X353752Y34142D01*
X353813Y34137D01*
X353880Y34131D01*
X353952Y34125D01*
X354035D01*
X354474D01*
X354479D01*
X354496D01*
X354518D01*
X354552D01*
X354590Y34131D01*
X354635D01*
X354740Y34142D01*
X354857Y34159D01*
X354973Y34181D01*
X355084Y34214D01*
X355134Y34236D01*
X355179Y34259D01*
X355190Y34264D01*
X355212Y34286D01*
X355251Y34314D01*
X355290Y34364D01*
X355334Y34420D01*
X355373Y34497D01*
X355395Y34586D01*
X355406Y34686D01*
Y34725D01*
X355401Y34769D01*
X355389Y34825D01*
X355373Y34886D01*
X355351Y34952D01*
X355323Y35013D01*
X355278Y35069D01*
X355273Y35074D01*
X355256Y35091D01*
X355223Y35113D01*
X355179Y35141D01*
X355118Y35174D01*
X355045Y35197D01*
X354957Y35219D01*
X354857Y35230D01*
Y35851D01*
X354868D01*
X354896Y35846D01*
X354945Y35840D01*
X355001Y35835D01*
X355073Y35818D01*
X355145Y35801D01*
X355223Y35774D01*
X355301Y35746D01*
X355312Y35740D01*
X355334Y35729D01*
X355367Y35713D01*
X355417Y35685D01*
X355467Y35652D01*
X355523Y35607D01*
X355578Y35563D01*
X355634Y35507D01*
X355639Y35502D01*
X355656Y35480D01*
X355678Y35446D01*
X355711Y35407D01*
X355745Y35352D01*
X355778Y35291D01*
X355811Y35224D01*
X355839Y35147D01*
X355845Y35135D01*
X355850Y35108D01*
X355861Y35069D01*
X355872Y35008D01*
X355889Y34941D01*
X355900Y34863D01*
X355906Y34780D01*
X355911Y34686D01*
Y34636D01*
X355906Y34580D01*
X355900Y34514D01*
X355889Y34436D01*
X355867Y34347D01*
X355845Y34259D01*
X355811Y34175D01*
X355806Y34164D01*
X355789Y34137D01*
X355767Y34098D01*
X355734Y34048D01*
X355695Y33987D01*
X355645Y33926D01*
X355584Y33865D01*
X355517Y33803D01*
X355506Y33798D01*
X355484Y33781D01*
X355445Y33753D01*
X355389Y33720D01*
X355323Y33681D01*
X355245Y33643D01*
X355156Y33604D01*
X355062Y33570D01*
X355057D01*
X355051Y33565D01*
X355034D01*
X355018Y33559D01*
X354962Y33548D01*
X354890Y33531D01*
X354801Y33515D01*
X354701Y33504D01*
X354590Y33498D01*
X354474Y33493D01*
X354041D01*
X354035D01*
X354024D01*
X354008D01*
X353985D01*
X353924Y33498D01*
X353847Y33504D01*
X353758Y33515D01*
X353658Y33526D01*
X353552Y33548D01*
X353453Y33576D01*
X353447D01*
X353441Y33582D01*
X353408Y33593D01*
X353358Y33609D01*
X353297Y33637D01*
X353225Y33670D01*
X353147Y33715D01*
X353070Y33759D01*
X352997Y33815D01*
X352986Y33820D01*
X352964Y33842D01*
X352931Y33876D01*
X352887Y33920D01*
X352836Y33975D01*
X352786Y34042D01*
X352742Y34114D01*
X352698Y34192D01*
X352692Y34203D01*
X352681Y34231D01*
X352664Y34275D01*
X352642Y34336D01*
X352626Y34414D01*
X352609Y34497D01*
X352598Y34592D01*
X352592Y34691D01*
Y34736D01*
X352598Y34786D01*
X352603Y34852D01*
X352609Y34925D01*
X352626Y35002D01*
X352642Y35085D01*
X352670Y35163D01*
X352676Y35174D01*
X352681Y35197D01*
X352698Y35235D01*
X352726Y35285D01*
X352753Y35341D01*
X352786Y35396D01*
X352831Y35457D01*
X352881Y35513D01*
X352887Y35518D01*
X352903Y35535D01*
X352936Y35563D01*
X352975Y35596D01*
X353025Y35635D01*
X353086Y35674D01*
X353153Y35713D01*
X353225Y35746D01*
X353236Y35752D01*
X353258Y35763D01*
X353303Y35774D01*
X353358Y35796D01*
X353425Y35813D01*
X353502Y35829D01*
X353586Y35846D01*
X353680Y35857D01*
Y35235D01*
D02*
G37*
G36*
Y32510D02*
X353675D01*
X353658D01*
X353630Y32505D01*
X353597Y32499D01*
X353514Y32488D01*
X353430Y32466D01*
X353425D01*
X353414Y32460D01*
X353392Y32455D01*
X353364Y32444D01*
X353308Y32410D01*
X353247Y32366D01*
X353242Y32360D01*
X353236Y32355D01*
X353208Y32322D01*
X353169Y32266D01*
X353136Y32199D01*
Y32194D01*
X353131Y32183D01*
X353125Y32161D01*
X353114Y32133D01*
X353108Y32100D01*
X353103Y32061D01*
X353097Y31966D01*
Y31944D01*
X353103Y31916D01*
Y31883D01*
X353125Y31800D01*
X353142Y31756D01*
X353164Y31711D01*
Y31705D01*
X353175Y31694D01*
X353192Y31672D01*
X353208Y31650D01*
X353236Y31622D01*
X353269Y31594D01*
X353303Y31561D01*
X353347Y31534D01*
X353353D01*
X353369Y31522D01*
X353392Y31511D01*
X353425Y31495D01*
X353469Y31478D01*
X353519Y31461D01*
X353580Y31450D01*
X353641Y31434D01*
X353647D01*
X353669Y31428D01*
X353708Y31422D01*
X353752Y31417D01*
X353813Y31411D01*
X353880Y31406D01*
X353952Y31400D01*
X354035D01*
X354474D01*
X354479D01*
X354496D01*
X354518D01*
X354552D01*
X354590Y31406D01*
X354635D01*
X354740Y31417D01*
X354857Y31434D01*
X354973Y31456D01*
X355084Y31489D01*
X355134Y31511D01*
X355179Y31534D01*
X355190Y31539D01*
X355212Y31561D01*
X355251Y31589D01*
X355290Y31639D01*
X355334Y31694D01*
X355373Y31772D01*
X355395Y31861D01*
X355406Y31961D01*
Y32000D01*
X355401Y32044D01*
X355389Y32100D01*
X355373Y32161D01*
X355351Y32227D01*
X355323Y32288D01*
X355278Y32344D01*
X355273Y32349D01*
X355256Y32366D01*
X355223Y32388D01*
X355179Y32416D01*
X355118Y32449D01*
X355045Y32471D01*
X354957Y32494D01*
X354857Y32505D01*
Y33126D01*
X354868D01*
X354896Y33121D01*
X354945Y33115D01*
X355001Y33110D01*
X355073Y33093D01*
X355145Y33076D01*
X355223Y33049D01*
X355301Y33021D01*
X355312Y33015D01*
X355334Y33004D01*
X355367Y32988D01*
X355417Y32960D01*
X355467Y32926D01*
X355523Y32882D01*
X355578Y32838D01*
X355634Y32782D01*
X355639Y32777D01*
X355656Y32754D01*
X355678Y32721D01*
X355711Y32682D01*
X355745Y32627D01*
X355778Y32566D01*
X355811Y32499D01*
X355839Y32421D01*
X355845Y32410D01*
X355850Y32383D01*
X355861Y32344D01*
X355872Y32283D01*
X355889Y32216D01*
X355900Y32138D01*
X355906Y32055D01*
X355911Y31961D01*
Y31911D01*
X355906Y31855D01*
X355900Y31789D01*
X355889Y31711D01*
X355867Y31622D01*
X355845Y31534D01*
X355811Y31450D01*
X355806Y31439D01*
X355789Y31411D01*
X355767Y31373D01*
X355734Y31323D01*
X355695Y31262D01*
X355645Y31201D01*
X355584Y31139D01*
X355517Y31078D01*
X355506Y31073D01*
X355484Y31056D01*
X355445Y31028D01*
X355389Y30995D01*
X355323Y30956D01*
X355245Y30918D01*
X355156Y30879D01*
X355062Y30845D01*
X355057D01*
X355051Y30840D01*
X355034D01*
X355018Y30834D01*
X354962Y30823D01*
X354890Y30806D01*
X354801Y30790D01*
X354701Y30779D01*
X354590Y30773D01*
X354474Y30768D01*
X354041D01*
X354035D01*
X354024D01*
X354008D01*
X353985D01*
X353924Y30773D01*
X353847Y30779D01*
X353758Y30790D01*
X353658Y30801D01*
X353552Y30823D01*
X353453Y30851D01*
X353447D01*
X353441Y30856D01*
X353408Y30867D01*
X353358Y30884D01*
X353297Y30912D01*
X353225Y30945D01*
X353147Y30990D01*
X353070Y31034D01*
X352997Y31089D01*
X352986Y31095D01*
X352964Y31117D01*
X352931Y31150D01*
X352887Y31195D01*
X352836Y31251D01*
X352786Y31317D01*
X352742Y31389D01*
X352698Y31467D01*
X352692Y31478D01*
X352681Y31506D01*
X352664Y31550D01*
X352642Y31611D01*
X352626Y31689D01*
X352609Y31772D01*
X352598Y31866D01*
X352592Y31966D01*
Y32011D01*
X352598Y32061D01*
X352603Y32127D01*
X352609Y32199D01*
X352626Y32277D01*
X352642Y32360D01*
X352670Y32438D01*
X352676Y32449D01*
X352681Y32471D01*
X352698Y32510D01*
X352726Y32560D01*
X352753Y32616D01*
X352786Y32671D01*
X352831Y32732D01*
X352881Y32788D01*
X352887Y32793D01*
X352903Y32810D01*
X352936Y32838D01*
X352975Y32871D01*
X353025Y32910D01*
X353086Y32949D01*
X353153Y32988D01*
X353225Y33021D01*
X353236Y33026D01*
X353258Y33037D01*
X353303Y33049D01*
X353358Y33071D01*
X353425Y33088D01*
X353502Y33104D01*
X353586Y33121D01*
X353680Y33132D01*
Y32510D01*
D02*
G37*
G36*
X355867Y29547D02*
Y28914D01*
X352637Y27937D01*
Y28625D01*
X354968Y29230D01*
X352637Y29841D01*
Y30529D01*
X355867Y29547D01*
D02*
G37*
G36*
X321745Y21550D02*
X319269D01*
X319563Y20734D01*
X319025D01*
X318514Y22138D01*
Y22171D01*
X321745D01*
Y21550D01*
D02*
G37*
G36*
X320751Y20062D02*
X320818Y20056D01*
X320895Y20051D01*
X320973Y20034D01*
X321056Y20018D01*
X321140Y19990D01*
X321151Y19984D01*
X321173Y19979D01*
X321212Y19962D01*
X321262Y19934D01*
X321317Y19907D01*
X321378Y19873D01*
X321439Y19829D01*
X321495Y19779D01*
X321500Y19773D01*
X321517Y19757D01*
X321545Y19724D01*
X321578Y19685D01*
X321611Y19635D01*
X321650Y19574D01*
X321684Y19507D01*
X321717Y19435D01*
X321722Y19424D01*
X321728Y19402D01*
X321739Y19357D01*
X321750Y19302D01*
X321767Y19235D01*
X321778Y19152D01*
X321783Y19069D01*
X321789Y18974D01*
Y18935D01*
X321783Y18886D01*
X321778Y18830D01*
X321772Y18758D01*
X321756Y18686D01*
X321739Y18608D01*
X321717Y18530D01*
X321711Y18519D01*
X321700Y18497D01*
X321684Y18464D01*
X321661Y18414D01*
X321628Y18364D01*
X321589Y18308D01*
X321545Y18247D01*
X321495Y18192D01*
X321489Y18186D01*
X321467Y18169D01*
X321439Y18142D01*
X321395Y18114D01*
X321345Y18081D01*
X321284Y18042D01*
X321217Y18009D01*
X321140Y17975D01*
X321129Y17970D01*
X321101Y17964D01*
X321056Y17953D01*
X321001Y17942D01*
X320929Y17925D01*
X320846Y17914D01*
X320757Y17909D01*
X320657Y17903D01*
X318514D01*
Y18530D01*
X320657D01*
X320662D01*
X320668D01*
X320685D01*
X320707D01*
X320768Y18536D01*
X320834Y18547D01*
X320912Y18558D01*
X320990Y18575D01*
X321068Y18602D01*
X321134Y18641D01*
X321140Y18647D01*
X321156Y18664D01*
X321184Y18691D01*
X321212Y18724D01*
X321239Y18775D01*
X321267Y18830D01*
X321284Y18897D01*
X321289Y18974D01*
Y19013D01*
X321278Y19052D01*
X321267Y19102D01*
X321251Y19157D01*
X321223Y19213D01*
X321184Y19268D01*
X321134Y19318D01*
X321129Y19324D01*
X321106Y19335D01*
X321068Y19357D01*
X321012Y19379D01*
X320945Y19402D01*
X320862Y19424D01*
X320768Y19441D01*
X320657Y19446D01*
X318514D01*
Y20068D01*
X320657D01*
X320662D01*
X320668D01*
X320701D01*
X320751Y20062D01*
D02*
G37*
G36*
X335585Y21524D02*
X333110D01*
X333404Y20709D01*
X332865D01*
X332355Y22113D01*
Y22146D01*
X335585D01*
Y21524D01*
D02*
G37*
G36*
Y17928D02*
X332355D01*
Y18555D01*
X335085D01*
Y20070D01*
X335585D01*
Y17928D01*
D02*
G37*
G36*
X382145Y12266D02*
X379669D01*
X379963Y11450D01*
X379425D01*
X378914Y12854D01*
Y12888D01*
X382145D01*
Y12266D01*
D02*
G37*
G36*
X381240Y10773D02*
X381295Y10768D01*
X381362Y10757D01*
X381429Y10740D01*
X381506Y10718D01*
X381578Y10690D01*
X381584Y10684D01*
X381612Y10673D01*
X381645Y10657D01*
X381690Y10629D01*
X381739Y10596D01*
X381795Y10557D01*
X381851Y10512D01*
X381906Y10457D01*
X381911Y10451D01*
X381928Y10429D01*
X381950Y10401D01*
X381984Y10357D01*
X382017Y10307D01*
X382050Y10246D01*
X382084Y10179D01*
X382117Y10107D01*
X382122Y10096D01*
X382128Y10074D01*
X382139Y10029D01*
X382150Y9979D01*
X382167Y9913D01*
X382178Y9841D01*
X382183Y9763D01*
X382189Y9680D01*
Y9641D01*
X382183Y9591D01*
Y9535D01*
X382172Y9463D01*
X382161Y9391D01*
X382150Y9313D01*
X382128Y9236D01*
X382122Y9225D01*
X382117Y9202D01*
X382100Y9164D01*
X382084Y9119D01*
X382056Y9064D01*
X382023Y9008D01*
X381989Y8947D01*
X381945Y8892D01*
X381939Y8886D01*
X381923Y8869D01*
X381895Y8842D01*
X381861Y8809D01*
X381817Y8775D01*
X381762Y8736D01*
X381706Y8698D01*
X381640Y8664D01*
X381628Y8659D01*
X381606Y8653D01*
X381567Y8642D01*
X381512Y8625D01*
X381445Y8609D01*
X381373Y8598D01*
X381290Y8592D01*
X381196Y8586D01*
Y9214D01*
X381201D01*
X381207D01*
X381240D01*
X381284Y9219D01*
X381340Y9230D01*
X381401Y9241D01*
X381462Y9258D01*
X381523Y9286D01*
X381573Y9325D01*
X381578Y9330D01*
X381590Y9347D01*
X381612Y9375D01*
X381628Y9413D01*
X381651Y9463D01*
X381673Y9524D01*
X381684Y9597D01*
X381690Y9680D01*
Y9719D01*
X381684Y9746D01*
X381673Y9808D01*
X381651Y9874D01*
Y9880D01*
X381645Y9891D01*
X381634Y9907D01*
X381617Y9924D01*
X381584Y9974D01*
X381540Y10024D01*
X381534Y10029D01*
X381528Y10035D01*
X381512Y10046D01*
X381490Y10057D01*
X381434Y10091D01*
X381368Y10118D01*
X381362D01*
X381351Y10124D01*
X381329Y10129D01*
X381301Y10141D01*
X381234Y10152D01*
X381157Y10157D01*
X378914D01*
Y10779D01*
X381157D01*
X381168D01*
X381196D01*
X381240Y10773D01*
D02*
G37*
G36*
X345886Y22185D02*
X346585D01*
Y21563D01*
X345886D01*
Y20226D01*
X345503Y20198D01*
X343355Y21558D01*
Y22185D01*
X345386D01*
Y22557D01*
X345886D01*
Y22185D01*
D02*
G37*
G36*
X344398Y19260D02*
X344393D01*
X344376D01*
X344348Y19255D01*
X344315Y19249D01*
X344232Y19238D01*
X344148Y19216D01*
X344143D01*
X344132Y19210D01*
X344110Y19205D01*
X344082Y19194D01*
X344026Y19160D01*
X343965Y19116D01*
X343960Y19110D01*
X343954Y19105D01*
X343927Y19071D01*
X343888Y19016D01*
X343854Y18949D01*
Y18944D01*
X343849Y18933D01*
X343843Y18911D01*
X343832Y18883D01*
X343827Y18849D01*
X343821Y18811D01*
X343815Y18716D01*
Y18694D01*
X343821Y18666D01*
Y18633D01*
X343843Y18550D01*
X343860Y18505D01*
X343882Y18461D01*
Y18455D01*
X343893Y18444D01*
X343910Y18422D01*
X343927Y18400D01*
X343954Y18372D01*
X343987Y18344D01*
X344021Y18311D01*
X344065Y18283D01*
X344071D01*
X344087Y18272D01*
X344110Y18261D01*
X344143Y18245D01*
X344187Y18228D01*
X344237Y18211D01*
X344298Y18200D01*
X344359Y18183D01*
X344365D01*
X344387Y18178D01*
X344426Y18172D01*
X344470Y18167D01*
X344531Y18161D01*
X344598Y18156D01*
X344670Y18150D01*
X344753D01*
X345192D01*
X345197D01*
X345214D01*
X345236D01*
X345270D01*
X345308Y18156D01*
X345353D01*
X345458Y18167D01*
X345575Y18183D01*
X345691Y18206D01*
X345802Y18239D01*
X345852Y18261D01*
X345897Y18283D01*
X345908Y18289D01*
X345930Y18311D01*
X345969Y18339D01*
X346008Y18389D01*
X346052Y18444D01*
X346091Y18522D01*
X346113Y18611D01*
X346124Y18711D01*
Y18749D01*
X346119Y18794D01*
X346108Y18849D01*
X346091Y18911D01*
X346069Y18977D01*
X346041Y19038D01*
X345997Y19094D01*
X345991Y19099D01*
X345974Y19116D01*
X345941Y19138D01*
X345897Y19166D01*
X345836Y19199D01*
X345763Y19221D01*
X345675Y19243D01*
X345575Y19255D01*
Y19876D01*
X345586D01*
X345614Y19871D01*
X345664Y19865D01*
X345719Y19860D01*
X345791Y19843D01*
X345863Y19826D01*
X345941Y19798D01*
X346019Y19771D01*
X346030Y19765D01*
X346052Y19754D01*
X346085Y19737D01*
X346135Y19710D01*
X346185Y19676D01*
X346241Y19632D01*
X346296Y19588D01*
X346352Y19532D01*
X346357Y19526D01*
X346374Y19504D01*
X346396Y19471D01*
X346429Y19432D01*
X346463Y19377D01*
X346496Y19316D01*
X346529Y19249D01*
X346557Y19171D01*
X346563Y19160D01*
X346568Y19132D01*
X346579Y19094D01*
X346590Y19033D01*
X346607Y18966D01*
X346618Y18888D01*
X346624Y18805D01*
X346629Y18711D01*
Y18661D01*
X346624Y18605D01*
X346618Y18539D01*
X346607Y18461D01*
X346585Y18372D01*
X346563Y18283D01*
X346529Y18200D01*
X346524Y18189D01*
X346507Y18161D01*
X346485Y18122D01*
X346452Y18072D01*
X346413Y18011D01*
X346363Y17950D01*
X346302Y17889D01*
X346235Y17828D01*
X346224Y17823D01*
X346202Y17806D01*
X346163Y17778D01*
X346108Y17745D01*
X346041Y17706D01*
X345963Y17667D01*
X345875Y17628D01*
X345780Y17595D01*
X345775D01*
X345769Y17590D01*
X345752D01*
X345736Y17584D01*
X345680Y17573D01*
X345608Y17556D01*
X345519Y17540D01*
X345419Y17528D01*
X345308Y17523D01*
X345192Y17517D01*
X344759D01*
X344753D01*
X344742D01*
X344726D01*
X344704D01*
X344642Y17523D01*
X344565Y17528D01*
X344476Y17540D01*
X344376Y17551D01*
X344271Y17573D01*
X344171Y17601D01*
X344165D01*
X344160Y17606D01*
X344126Y17617D01*
X344076Y17634D01*
X344015Y17662D01*
X343943Y17695D01*
X343865Y17739D01*
X343788Y17784D01*
X343716Y17839D01*
X343705Y17845D01*
X343682Y17867D01*
X343649Y17900D01*
X343605Y17945D01*
X343555Y18000D01*
X343505Y18067D01*
X343460Y18139D01*
X343416Y18217D01*
X343410Y18228D01*
X343399Y18256D01*
X343383Y18300D01*
X343360Y18361D01*
X343344Y18439D01*
X343327Y18522D01*
X343316Y18616D01*
X343310Y18716D01*
Y18761D01*
X343316Y18811D01*
X343321Y18877D01*
X343327Y18949D01*
X343344Y19027D01*
X343360Y19110D01*
X343388Y19188D01*
X343394Y19199D01*
X343399Y19221D01*
X343416Y19260D01*
X343444Y19310D01*
X343471Y19366D01*
X343505Y19421D01*
X343549Y19482D01*
X343599Y19538D01*
X343605Y19543D01*
X343621Y19560D01*
X343654Y19588D01*
X343693Y19621D01*
X343743Y19660D01*
X343804Y19699D01*
X343871Y19737D01*
X343943Y19771D01*
X343954Y19776D01*
X343976Y19787D01*
X344021Y19798D01*
X344076Y19821D01*
X344143Y19837D01*
X344221Y19854D01*
X344304Y19871D01*
X344398Y19882D01*
Y19260D01*
D02*
G37*
G36*
X302345Y22524D02*
X302395Y22518D01*
X302462Y22507D01*
X302529Y22490D01*
X302601Y22468D01*
X302667Y22440D01*
X302673Y22435D01*
X302695Y22424D01*
X302728Y22407D01*
X302773Y22379D01*
X302817Y22346D01*
X302867Y22307D01*
X302917Y22257D01*
X302967Y22202D01*
X302973Y22196D01*
X302989Y22174D01*
X303011Y22140D01*
X303034Y22102D01*
X303067Y22046D01*
X303095Y21985D01*
X303122Y21918D01*
X303150Y21841D01*
Y21830D01*
X303161Y21808D01*
X303167Y21763D01*
X303178Y21708D01*
X303189Y21641D01*
X303200Y21569D01*
X303206Y21486D01*
X303211Y21397D01*
Y21364D01*
X303206Y21319D01*
Y21269D01*
X303200Y21208D01*
X303189Y21142D01*
X303156Y20992D01*
X303150Y20981D01*
X303145Y20958D01*
X303134Y20920D01*
X303111Y20875D01*
X303089Y20820D01*
X303061Y20764D01*
X302989Y20642D01*
X302984Y20637D01*
X302967Y20620D01*
X302945Y20592D01*
X302911Y20553D01*
X302867Y20514D01*
X302817Y20476D01*
X302762Y20437D01*
X302701Y20398D01*
X302695Y20392D01*
X302667Y20387D01*
X302634Y20370D01*
X302584Y20354D01*
X302523Y20337D01*
X302456Y20326D01*
X302373Y20315D01*
X302290Y20309D01*
Y20925D01*
X302295D01*
X302307D01*
X302323D01*
X302345Y20931D01*
X302401Y20942D01*
X302462Y20958D01*
X302467D01*
X302473Y20964D01*
X302506Y20986D01*
X302551Y21020D01*
X302601Y21058D01*
Y21064D01*
X302612Y21069D01*
X302634Y21103D01*
X302662Y21153D01*
X302690Y21214D01*
Y21219D01*
X302695Y21230D01*
X302701Y21247D01*
Y21275D01*
X302712Y21336D01*
X302717Y21414D01*
Y21452D01*
X302712Y21497D01*
X302701Y21547D01*
X302690Y21608D01*
X302667Y21669D01*
X302634Y21724D01*
X302595Y21780D01*
X302590Y21785D01*
X302573Y21802D01*
X302545Y21824D01*
X302506Y21846D01*
X302456Y21869D01*
X302401Y21891D01*
X302334Y21907D01*
X302257Y21913D01*
X302251D01*
X302234D01*
X302212D01*
X302179Y21907D01*
X302107Y21896D01*
X302035Y21874D01*
X302029D01*
X302018Y21869D01*
X302001Y21858D01*
X301979Y21846D01*
X301929Y21813D01*
X301879Y21763D01*
X301874Y21758D01*
X301868Y21752D01*
X301857Y21735D01*
X301846Y21713D01*
X301818Y21658D01*
X301790Y21591D01*
Y21586D01*
X301785Y21574D01*
X301779Y21552D01*
X301774Y21524D01*
Y21491D01*
X301768Y21452D01*
X301763Y21364D01*
Y21031D01*
X301285D01*
Y21408D01*
X301280Y21452D01*
X301269Y21508D01*
X301252Y21569D01*
X301230Y21630D01*
X301202Y21691D01*
X301158Y21741D01*
X301152Y21746D01*
X301135Y21758D01*
X301108Y21780D01*
X301069Y21802D01*
X301019Y21824D01*
X300963Y21846D01*
X300891Y21858D01*
X300819Y21863D01*
X300814D01*
X300802D01*
X300786D01*
X300764Y21858D01*
X300708Y21852D01*
X300647Y21835D01*
X300642D01*
X300636Y21830D01*
X300603Y21813D01*
X300558Y21791D01*
X300514Y21752D01*
X300508D01*
X300503Y21741D01*
X300481Y21713D01*
X300453Y21669D01*
X300425Y21608D01*
Y21602D01*
X300419Y21591D01*
X300414Y21574D01*
X300408Y21552D01*
X300397Y21491D01*
X300392Y21414D01*
Y21380D01*
X300397Y21358D01*
X300403Y21297D01*
X300419Y21236D01*
Y21230D01*
X300425Y21225D01*
X300442Y21192D01*
X300464Y21147D01*
X300497Y21097D01*
X300508Y21086D01*
X300531Y21064D01*
X300569Y21031D01*
X300619Y20997D01*
X300625D01*
X300630Y20992D01*
X300664Y20981D01*
X300714Y20969D01*
X300775Y20964D01*
Y20348D01*
X300764D01*
X300741D01*
X300703Y20354D01*
X300658Y20359D01*
X300603Y20365D01*
X300542Y20381D01*
X300481Y20398D01*
X300419Y20426D01*
X300414Y20431D01*
X300392Y20442D01*
X300359Y20459D01*
X300320Y20487D01*
X300275Y20514D01*
X300231Y20553D01*
X300181Y20598D01*
X300136Y20648D01*
X300131Y20653D01*
X300120Y20675D01*
X300098Y20703D01*
X300070Y20742D01*
X300042Y20792D01*
X300014Y20847D01*
X299987Y20914D01*
X299959Y20981D01*
X299953Y20992D01*
X299948Y21014D01*
X299937Y21053D01*
X299926Y21108D01*
X299915Y21169D01*
X299903Y21236D01*
X299892Y21314D01*
Y21436D01*
X299898Y21486D01*
Y21541D01*
X299909Y21608D01*
X299920Y21686D01*
X299931Y21758D01*
X299953Y21835D01*
Y21846D01*
X299964Y21869D01*
X299976Y21907D01*
X299998Y21952D01*
X300020Y22007D01*
X300048Y22063D01*
X300086Y22124D01*
X300125Y22179D01*
X300131Y22185D01*
X300148Y22202D01*
X300170Y22229D01*
X300203Y22263D01*
X300248Y22296D01*
X300297Y22335D01*
X300353Y22368D01*
X300414Y22401D01*
X300419Y22407D01*
X300442Y22412D01*
X300481Y22424D01*
X300531Y22440D01*
X300586Y22457D01*
X300653Y22468D01*
X300730Y22474D01*
X300814Y22479D01*
X300819D01*
X300830D01*
X300852D01*
X300880Y22474D01*
X300947Y22468D01*
X301019Y22446D01*
X301025D01*
X301036Y22440D01*
X301058Y22435D01*
X301080Y22424D01*
X301141Y22396D01*
X301213Y22357D01*
X301219D01*
X301230Y22346D01*
X301247Y22335D01*
X301269Y22318D01*
X301319Y22268D01*
X301380Y22207D01*
X301385Y22202D01*
X301391Y22190D01*
X301408Y22174D01*
X301424Y22146D01*
X301468Y22085D01*
X301513Y22002D01*
Y22007D01*
X301524Y22024D01*
X301535Y22052D01*
X301546Y22085D01*
X301585Y22157D01*
X301641Y22235D01*
X301646Y22241D01*
X301652Y22252D01*
X301668Y22268D01*
X301691Y22296D01*
X301746Y22346D01*
X301813Y22401D01*
X301818Y22407D01*
X301829Y22412D01*
X301846Y22424D01*
X301874Y22440D01*
X301940Y22468D01*
X302024Y22496D01*
X302029D01*
X302040Y22501D01*
X302068Y22507D01*
X302096Y22512D01*
X302129Y22518D01*
X302173Y22524D01*
X302262Y22529D01*
X302273D01*
X302301D01*
X302345Y22524D01*
D02*
G37*
G36*
X300980Y19288D02*
X300974D01*
X300958D01*
X300930Y19282D01*
X300897Y19277D01*
X300814Y19266D01*
X300730Y19243D01*
X300725D01*
X300714Y19238D01*
X300692Y19232D01*
X300664Y19221D01*
X300608Y19188D01*
X300547Y19143D01*
X300542Y19138D01*
X300536Y19132D01*
X300508Y19099D01*
X300469Y19044D01*
X300436Y18977D01*
Y18971D01*
X300431Y18960D01*
X300425Y18938D01*
X300414Y18911D01*
X300408Y18877D01*
X300403Y18838D01*
X300397Y18744D01*
Y18722D01*
X300403Y18694D01*
Y18661D01*
X300425Y18577D01*
X300442Y18533D01*
X300464Y18489D01*
Y18483D01*
X300475Y18472D01*
X300492Y18450D01*
X300508Y18428D01*
X300536Y18400D01*
X300569Y18372D01*
X300603Y18339D01*
X300647Y18311D01*
X300653D01*
X300669Y18300D01*
X300692Y18289D01*
X300725Y18272D01*
X300769Y18256D01*
X300819Y18239D01*
X300880Y18228D01*
X300941Y18211D01*
X300947D01*
X300969Y18206D01*
X301008Y18200D01*
X301052Y18194D01*
X301113Y18189D01*
X301180Y18183D01*
X301252Y18178D01*
X301335D01*
X301774D01*
X301779D01*
X301796D01*
X301818D01*
X301852D01*
X301890Y18183D01*
X301935D01*
X302040Y18194D01*
X302157Y18211D01*
X302273Y18233D01*
X302384Y18267D01*
X302434Y18289D01*
X302479Y18311D01*
X302490Y18317D01*
X302512Y18339D01*
X302551Y18367D01*
X302590Y18417D01*
X302634Y18472D01*
X302673Y18550D01*
X302695Y18639D01*
X302706Y18738D01*
Y18777D01*
X302701Y18822D01*
X302690Y18877D01*
X302673Y18938D01*
X302651Y19005D01*
X302623Y19066D01*
X302578Y19121D01*
X302573Y19127D01*
X302556Y19143D01*
X302523Y19166D01*
X302479Y19194D01*
X302417Y19227D01*
X302345Y19249D01*
X302257Y19271D01*
X302157Y19282D01*
Y19904D01*
X302168D01*
X302196Y19898D01*
X302245Y19893D01*
X302301Y19887D01*
X302373Y19871D01*
X302445Y19854D01*
X302523Y19826D01*
X302601Y19798D01*
X302612Y19793D01*
X302634Y19782D01*
X302667Y19765D01*
X302717Y19737D01*
X302767Y19704D01*
X302823Y19660D01*
X302878Y19615D01*
X302934Y19560D01*
X302939Y19554D01*
X302956Y19532D01*
X302978Y19499D01*
X303011Y19460D01*
X303045Y19404D01*
X303078Y19343D01*
X303111Y19277D01*
X303139Y19199D01*
X303145Y19188D01*
X303150Y19160D01*
X303161Y19121D01*
X303172Y19060D01*
X303189Y18994D01*
X303200Y18916D01*
X303206Y18833D01*
X303211Y18738D01*
Y18688D01*
X303206Y18633D01*
X303200Y18566D01*
X303189Y18489D01*
X303167Y18400D01*
X303145Y18311D01*
X303111Y18228D01*
X303106Y18217D01*
X303089Y18189D01*
X303067Y18150D01*
X303034Y18100D01*
X302995Y18039D01*
X302945Y17978D01*
X302884Y17917D01*
X302817Y17856D01*
X302806Y17850D01*
X302784Y17834D01*
X302745Y17806D01*
X302690Y17773D01*
X302623Y17734D01*
X302545Y17695D01*
X302456Y17656D01*
X302362Y17623D01*
X302357D01*
X302351Y17617D01*
X302334D01*
X302318Y17612D01*
X302262Y17601D01*
X302190Y17584D01*
X302101Y17567D01*
X302001Y17556D01*
X301890Y17551D01*
X301774Y17545D01*
X301341D01*
X301335D01*
X301324D01*
X301308D01*
X301285D01*
X301224Y17551D01*
X301147Y17556D01*
X301058Y17567D01*
X300958Y17579D01*
X300852Y17601D01*
X300753Y17628D01*
X300747D01*
X300741Y17634D01*
X300708Y17645D01*
X300658Y17662D01*
X300597Y17689D01*
X300525Y17723D01*
X300447Y17767D01*
X300370Y17811D01*
X300297Y17867D01*
X300286Y17873D01*
X300264Y17895D01*
X300231Y17928D01*
X300186Y17973D01*
X300136Y18028D01*
X300086Y18095D01*
X300042Y18167D01*
X299998Y18245D01*
X299992Y18256D01*
X299981Y18283D01*
X299964Y18328D01*
X299942Y18389D01*
X299926Y18466D01*
X299909Y18550D01*
X299898Y18644D01*
X299892Y18744D01*
Y18788D01*
X299898Y18838D01*
X299903Y18905D01*
X299909Y18977D01*
X299926Y19055D01*
X299942Y19138D01*
X299970Y19216D01*
X299976Y19227D01*
X299981Y19249D01*
X299998Y19288D01*
X300026Y19338D01*
X300053Y19393D01*
X300086Y19449D01*
X300131Y19510D01*
X300181Y19565D01*
X300186Y19571D01*
X300203Y19588D01*
X300236Y19615D01*
X300275Y19649D01*
X300325Y19688D01*
X300386Y19726D01*
X300453Y19765D01*
X300525Y19798D01*
X300536Y19804D01*
X300558Y19815D01*
X300603Y19826D01*
X300658Y19848D01*
X300725Y19865D01*
X300802Y19882D01*
X300886Y19898D01*
X300980Y19909D01*
Y19288D01*
D02*
G37*
G36*
X346667Y37217D02*
X346251D01*
X345124Y38266D01*
X345118Y38272D01*
X345102Y38289D01*
X345074Y38311D01*
X345046Y38339D01*
X344969Y38405D01*
X344885Y38472D01*
X344880Y38477D01*
X344869Y38488D01*
X344846Y38499D01*
X344819Y38522D01*
X344752Y38561D01*
X344685Y38605D01*
X344680D01*
X344669Y38616D01*
X344652Y38622D01*
X344630Y38638D01*
X344580Y38660D01*
X344519Y38683D01*
X344513D01*
X344508Y38688D01*
X344469Y38694D01*
X344419Y38699D01*
X344363Y38705D01*
X344358D01*
X344347D01*
X344325D01*
X344303Y38699D01*
X344241Y38694D01*
X344175Y38671D01*
X344169D01*
X344158Y38666D01*
X344125Y38649D01*
X344075Y38627D01*
X344030Y38588D01*
X344025D01*
X344020Y38577D01*
X343997Y38549D01*
X343969Y38505D01*
X343942Y38449D01*
Y38444D01*
X343936Y38438D01*
X343931Y38422D01*
X343925Y38399D01*
X343914Y38344D01*
X343908Y38277D01*
Y38233D01*
X343914Y38189D01*
X343925Y38133D01*
X343942Y38072D01*
X343969Y38011D01*
X344003Y37950D01*
X344053Y37894D01*
X344058Y37889D01*
X344080Y37878D01*
X344108Y37856D01*
X344153Y37833D01*
X344208Y37811D01*
X344275Y37789D01*
X344358Y37778D01*
X344447Y37772D01*
Y37156D01*
X344436D01*
X344408D01*
X344369Y37162D01*
X344314Y37167D01*
X344253Y37173D01*
X344186Y37190D01*
X344114Y37206D01*
X344042Y37234D01*
X344030Y37240D01*
X344008Y37251D01*
X343975Y37267D01*
X343925Y37295D01*
X343875Y37328D01*
X343814Y37367D01*
X343759Y37412D01*
X343703Y37467D01*
X343698Y37473D01*
X343681Y37495D01*
X343653Y37528D01*
X343620Y37567D01*
X343586Y37622D01*
X343548Y37684D01*
X343509Y37750D01*
X343476Y37828D01*
X343470Y37839D01*
X343464Y37867D01*
X343448Y37911D01*
X343431Y37967D01*
X343420Y38033D01*
X343403Y38116D01*
X343398Y38205D01*
X343392Y38300D01*
Y38339D01*
X343398Y38388D01*
X343403Y38444D01*
X343409Y38511D01*
X343420Y38588D01*
X343442Y38660D01*
X343464Y38732D01*
X343470Y38744D01*
X343476Y38766D01*
X343492Y38799D01*
X343514Y38844D01*
X343542Y38899D01*
X343576Y38949D01*
X343614Y39004D01*
X343659Y39054D01*
X343664Y39060D01*
X343681Y39077D01*
X343709Y39099D01*
X343742Y39127D01*
X343786Y39160D01*
X343836Y39193D01*
X343892Y39221D01*
X343958Y39249D01*
X343964Y39254D01*
X343986Y39260D01*
X344025Y39271D01*
X344069Y39282D01*
X344125Y39293D01*
X344192Y39304D01*
X344264Y39315D01*
X344341D01*
X344347D01*
X344369D01*
X344397D01*
X344436Y39310D01*
X344486Y39304D01*
X344536Y39293D01*
X344647Y39265D01*
X344652D01*
X344669Y39254D01*
X344702Y39243D01*
X344735Y39226D01*
X344780Y39210D01*
X344830Y39182D01*
X344935Y39121D01*
X344941Y39116D01*
X344957Y39104D01*
X344985Y39082D01*
X345024Y39060D01*
X345068Y39027D01*
X345113Y38988D01*
X345224Y38899D01*
X345229Y38893D01*
X345246Y38877D01*
X345279Y38849D01*
X345318Y38816D01*
X345363Y38771D01*
X345412Y38727D01*
X345529Y38616D01*
X346173Y38006D01*
Y39426D01*
X346667D01*
Y37217D01*
D02*
G37*
G36*
X344480Y36191D02*
X344475D01*
X344458D01*
X344430Y36185D01*
X344397Y36180D01*
X344314Y36168D01*
X344230Y36146D01*
X344225D01*
X344214Y36141D01*
X344192Y36135D01*
X344164Y36124D01*
X344108Y36091D01*
X344047Y36046D01*
X344042Y36041D01*
X344036Y36035D01*
X344008Y36002D01*
X343969Y35946D01*
X343936Y35880D01*
Y35874D01*
X343931Y35863D01*
X343925Y35841D01*
X343914Y35813D01*
X343908Y35780D01*
X343903Y35741D01*
X343897Y35647D01*
Y35625D01*
X343903Y35597D01*
Y35563D01*
X343925Y35480D01*
X343942Y35436D01*
X343964Y35391D01*
Y35386D01*
X343975Y35375D01*
X343992Y35353D01*
X344008Y35330D01*
X344036Y35303D01*
X344069Y35275D01*
X344103Y35242D01*
X344147Y35214D01*
X344153D01*
X344169Y35203D01*
X344192Y35192D01*
X344225Y35175D01*
X344269Y35158D01*
X344319Y35142D01*
X344380Y35131D01*
X344441Y35114D01*
X344447D01*
X344469Y35108D01*
X344508Y35103D01*
X344552Y35097D01*
X344613Y35092D01*
X344680Y35086D01*
X344752Y35081D01*
X344835D01*
X345274D01*
X345279D01*
X345296D01*
X345318D01*
X345352D01*
X345390Y35086D01*
X345435D01*
X345540Y35097D01*
X345657Y35114D01*
X345773Y35136D01*
X345884Y35169D01*
X345934Y35192D01*
X345979Y35214D01*
X345990Y35219D01*
X346012Y35242D01*
X346051Y35269D01*
X346090Y35319D01*
X346134Y35375D01*
X346173Y35452D01*
X346195Y35541D01*
X346206Y35641D01*
Y35680D01*
X346201Y35724D01*
X346189Y35780D01*
X346173Y35841D01*
X346151Y35908D01*
X346123Y35969D01*
X346078Y36024D01*
X346073Y36030D01*
X346056Y36046D01*
X346023Y36068D01*
X345979Y36096D01*
X345918Y36130D01*
X345845Y36152D01*
X345757Y36174D01*
X345657Y36185D01*
Y36807D01*
X345668D01*
X345696Y36801D01*
X345745Y36796D01*
X345801Y36790D01*
X345873Y36773D01*
X345945Y36757D01*
X346023Y36729D01*
X346101Y36701D01*
X346112Y36696D01*
X346134Y36685D01*
X346167Y36668D01*
X346217Y36640D01*
X346267Y36607D01*
X346323Y36562D01*
X346378Y36518D01*
X346434Y36463D01*
X346439Y36457D01*
X346456Y36435D01*
X346478Y36402D01*
X346511Y36363D01*
X346545Y36307D01*
X346578Y36246D01*
X346611Y36180D01*
X346639Y36102D01*
X346645Y36091D01*
X346650Y36063D01*
X346661Y36024D01*
X346672Y35963D01*
X346689Y35897D01*
X346700Y35819D01*
X346706Y35735D01*
X346711Y35641D01*
Y35591D01*
X346706Y35536D01*
X346700Y35469D01*
X346689Y35391D01*
X346667Y35303D01*
X346645Y35214D01*
X346611Y35131D01*
X346606Y35120D01*
X346589Y35092D01*
X346567Y35053D01*
X346534Y35003D01*
X346495Y34942D01*
X346445Y34881D01*
X346384Y34820D01*
X346317Y34759D01*
X346306Y34753D01*
X346284Y34736D01*
X346245Y34709D01*
X346189Y34675D01*
X346123Y34637D01*
X346045Y34598D01*
X345956Y34559D01*
X345862Y34526D01*
X345856D01*
X345851Y34520D01*
X345834D01*
X345818Y34514D01*
X345762Y34503D01*
X345690Y34487D01*
X345601Y34470D01*
X345501Y34459D01*
X345390Y34453D01*
X345274Y34448D01*
X344841D01*
X344835D01*
X344824D01*
X344808D01*
X344785D01*
X344724Y34453D01*
X344647Y34459D01*
X344558Y34470D01*
X344458Y34481D01*
X344352Y34503D01*
X344253Y34531D01*
X344247D01*
X344241Y34537D01*
X344208Y34548D01*
X344158Y34565D01*
X344097Y34592D01*
X344025Y34626D01*
X343947Y34670D01*
X343870Y34714D01*
X343797Y34770D01*
X343786Y34775D01*
X343764Y34798D01*
X343731Y34831D01*
X343687Y34875D01*
X343636Y34931D01*
X343586Y34997D01*
X343542Y35070D01*
X343498Y35147D01*
X343492Y35158D01*
X343481Y35186D01*
X343464Y35230D01*
X343442Y35291D01*
X343426Y35369D01*
X343409Y35452D01*
X343398Y35547D01*
X343392Y35647D01*
Y35691D01*
X343398Y35741D01*
X343403Y35808D01*
X343409Y35880D01*
X343426Y35958D01*
X343442Y36041D01*
X343470Y36119D01*
X343476Y36130D01*
X343481Y36152D01*
X343498Y36191D01*
X343526Y36241D01*
X343553Y36296D01*
X343586Y36352D01*
X343631Y36413D01*
X343681Y36468D01*
X343687Y36474D01*
X343703Y36490D01*
X343736Y36518D01*
X343775Y36551D01*
X343825Y36590D01*
X343886Y36629D01*
X343953Y36668D01*
X344025Y36701D01*
X344036Y36707D01*
X344058Y36718D01*
X344103Y36729D01*
X344158Y36751D01*
X344225Y36768D01*
X344303Y36784D01*
X344386Y36801D01*
X344480Y36812D01*
Y36191D01*
D02*
G37*
G36*
X346667Y45002D02*
X344192D01*
X344486Y44186D01*
X343947D01*
X343437Y45590D01*
Y45624D01*
X346667D01*
Y45002D01*
D02*
G37*
G36*
X344480Y42993D02*
X344475D01*
X344458D01*
X344430Y42988D01*
X344397Y42982D01*
X344314Y42971D01*
X344230Y42949D01*
X344225D01*
X344214Y42943D01*
X344192Y42938D01*
X344164Y42926D01*
X344108Y42893D01*
X344047Y42849D01*
X344042Y42843D01*
X344036Y42838D01*
X344008Y42804D01*
X343969Y42749D01*
X343936Y42682D01*
Y42677D01*
X343931Y42666D01*
X343925Y42643D01*
X343914Y42616D01*
X343908Y42582D01*
X343903Y42544D01*
X343897Y42449D01*
Y42427D01*
X343903Y42399D01*
Y42366D01*
X343925Y42283D01*
X343942Y42238D01*
X343964Y42194D01*
Y42188D01*
X343975Y42177D01*
X343992Y42155D01*
X344008Y42133D01*
X344036Y42105D01*
X344069Y42077D01*
X344103Y42044D01*
X344147Y42016D01*
X344153D01*
X344169Y42005D01*
X344192Y41994D01*
X344225Y41978D01*
X344269Y41961D01*
X344319Y41944D01*
X344380Y41933D01*
X344441Y41916D01*
X344447D01*
X344469Y41911D01*
X344508Y41905D01*
X344552Y41900D01*
X344613Y41894D01*
X344680Y41889D01*
X344752Y41883D01*
X344835D01*
X345274D01*
X345279D01*
X345296D01*
X345318D01*
X345351D01*
X345390Y41889D01*
X345435D01*
X345540Y41900D01*
X345657Y41916D01*
X345773Y41939D01*
X345884Y41972D01*
X345934Y41994D01*
X345979Y42016D01*
X345990Y42022D01*
X346012Y42044D01*
X346051Y42072D01*
X346090Y42122D01*
X346134Y42177D01*
X346173Y42255D01*
X346195Y42344D01*
X346206Y42444D01*
Y42483D01*
X346201Y42527D01*
X346189Y42582D01*
X346173Y42643D01*
X346151Y42710D01*
X346123Y42771D01*
X346078Y42827D01*
X346073Y42832D01*
X346056Y42849D01*
X346023Y42871D01*
X345979Y42899D01*
X345918Y42932D01*
X345845Y42954D01*
X345757Y42976D01*
X345657Y42988D01*
Y43609D01*
X345668D01*
X345695Y43604D01*
X345745Y43598D01*
X345801Y43593D01*
X345873Y43576D01*
X345945Y43559D01*
X346023Y43532D01*
X346101Y43504D01*
X346112Y43498D01*
X346134Y43487D01*
X346167Y43470D01*
X346217Y43443D01*
X346267Y43409D01*
X346323Y43365D01*
X346378Y43321D01*
X346434Y43265D01*
X346439Y43260D01*
X346456Y43237D01*
X346478Y43204D01*
X346511Y43165D01*
X346545Y43110D01*
X346578Y43049D01*
X346611Y42982D01*
X346639Y42904D01*
X346645Y42893D01*
X346650Y42865D01*
X346661Y42827D01*
X346672Y42766D01*
X346689Y42699D01*
X346700Y42621D01*
X346706Y42538D01*
X346711Y42444D01*
Y42394D01*
X346706Y42338D01*
X346700Y42272D01*
X346689Y42194D01*
X346667Y42105D01*
X346645Y42016D01*
X346611Y41933D01*
X346606Y41922D01*
X346589Y41894D01*
X346567Y41855D01*
X346534Y41805D01*
X346495Y41744D01*
X346445Y41683D01*
X346384Y41622D01*
X346317Y41561D01*
X346306Y41556D01*
X346284Y41539D01*
X346245Y41511D01*
X346189Y41478D01*
X346123Y41439D01*
X346045Y41400D01*
X345956Y41361D01*
X345862Y41328D01*
X345856D01*
X345851Y41323D01*
X345834D01*
X345818Y41317D01*
X345762Y41306D01*
X345690Y41289D01*
X345601Y41273D01*
X345501Y41262D01*
X345390Y41256D01*
X345274Y41250D01*
X344841D01*
X344835D01*
X344824D01*
X344808D01*
X344785D01*
X344724Y41256D01*
X344647Y41262D01*
X344558Y41273D01*
X344458Y41284D01*
X344352Y41306D01*
X344252Y41334D01*
X344247D01*
X344241Y41339D01*
X344208Y41350D01*
X344158Y41367D01*
X344097Y41395D01*
X344025Y41428D01*
X343947Y41472D01*
X343870Y41517D01*
X343797Y41572D01*
X343786Y41578D01*
X343764Y41600D01*
X343731Y41633D01*
X343686Y41678D01*
X343636Y41733D01*
X343586Y41800D01*
X343542Y41872D01*
X343498Y41950D01*
X343492Y41961D01*
X343481Y41989D01*
X343464Y42033D01*
X343442Y42094D01*
X343426Y42172D01*
X343409Y42255D01*
X343398Y42349D01*
X343392Y42449D01*
Y42494D01*
X343398Y42544D01*
X343403Y42610D01*
X343409Y42682D01*
X343426Y42760D01*
X343442Y42843D01*
X343470Y42921D01*
X343476Y42932D01*
X343481Y42954D01*
X343498Y42993D01*
X343526Y43043D01*
X343553Y43099D01*
X343586Y43154D01*
X343631Y43215D01*
X343681Y43271D01*
X343686Y43276D01*
X343703Y43293D01*
X343736Y43321D01*
X343775Y43354D01*
X343825Y43393D01*
X343886Y43432D01*
X343953Y43470D01*
X344025Y43504D01*
X344036Y43509D01*
X344058Y43520D01*
X344103Y43532D01*
X344158Y43554D01*
X344225Y43570D01*
X344303Y43587D01*
X344386Y43604D01*
X344480Y43615D01*
Y42993D01*
D02*
G37*
%LPC*%
G36*
X83952Y19715D02*
X83610D01*
Y16006D01*
X84054D01*
X84109Y16015D01*
X84184Y16024D01*
X84258Y16034D01*
X84350Y16052D01*
X84433Y16080D01*
X84526Y16117D01*
X84535Y16126D01*
X84563Y16135D01*
X84609Y16163D01*
X84664Y16200D01*
X84720Y16246D01*
X84785Y16293D01*
X84914Y16431D01*
X84923Y16441D01*
X84942Y16468D01*
X84970Y16514D01*
X85007Y16579D01*
X85053Y16653D01*
X85090Y16736D01*
X85127Y16838D01*
X85164Y16949D01*
Y16968D01*
X85182Y17005D01*
X85192Y17070D01*
X85210Y17153D01*
X85229Y17255D01*
X85238Y17366D01*
X85256Y17495D01*
Y17634D01*
Y18087D01*
Y18105D01*
Y18152D01*
Y18216D01*
X85247Y18309D01*
X85238Y18411D01*
X85220Y18512D01*
X85173Y18744D01*
Y18753D01*
X85155Y18799D01*
X85136Y18855D01*
X85109Y18920D01*
X85071Y19003D01*
X85035Y19095D01*
X84923Y19262D01*
X84914Y19271D01*
X84896Y19299D01*
X84859Y19336D01*
X84812Y19382D01*
X84748Y19437D01*
X84683Y19493D01*
X84517Y19595D01*
X84507Y19604D01*
X84470Y19613D01*
X84424Y19632D01*
X84359Y19659D01*
X84276Y19678D01*
X84174Y19696D01*
X84073Y19706D01*
X83952Y19715D01*
D02*
G37*
G36*
X364474Y35129D02*
X364390D01*
X364119D01*
X364107D01*
X364080D01*
X364041D01*
X363985Y35124D01*
X363924Y35118D01*
X363863Y35107D01*
X363724Y35079D01*
X363719D01*
X363691Y35068D01*
X363658Y35057D01*
X363619Y35041D01*
X363569Y35018D01*
X363514Y34996D01*
X363414Y34929D01*
X363408Y34924D01*
X363391Y34913D01*
X363369Y34891D01*
X363342Y34863D01*
X363308Y34824D01*
X363275Y34785D01*
X363214Y34685D01*
X363208Y34680D01*
X363203Y34657D01*
X363192Y34630D01*
X363175Y34591D01*
X363164Y34541D01*
X363153Y34480D01*
X363147Y34419D01*
X363142Y34347D01*
Y34141D01*
X365367D01*
Y34408D01*
X365362Y34441D01*
X365356Y34486D01*
X365351Y34530D01*
X365340Y34585D01*
X365323Y34635D01*
X365301Y34691D01*
X365295Y34696D01*
X365290Y34713D01*
X365273Y34741D01*
X365251Y34774D01*
X365223Y34807D01*
X365195Y34846D01*
X365112Y34924D01*
X365106Y34929D01*
X365090Y34941D01*
X365062Y34957D01*
X365023Y34979D01*
X364979Y35007D01*
X364929Y35029D01*
X364868Y35052D01*
X364801Y35074D01*
X364790D01*
X364768Y35085D01*
X364729Y35090D01*
X364679Y35102D01*
X364618Y35113D01*
X364551Y35118D01*
X364474Y35129D01*
D02*
G37*
G36*
X345386Y21563D02*
X344187D01*
X344293Y21508D01*
X345386Y20803D01*
Y21563D01*
D02*
G37*
%LPD*%
D10*
X371627Y28440D02*
G03*
X371627Y28440I-492J0D01*
G01*
D11*
X344182Y26472D02*
X345757D01*
X344182Y30802D02*
X345757D01*
X300623D02*
X302198D01*
X300623Y26472D02*
X302198D01*
X336741Y34972D02*
X338316D01*
X336741Y39302D02*
X338316D01*
X336741Y40972D02*
X338316D01*
X336741Y45302D02*
X338316D01*
D12*
X349252Y47337D02*
X359252D01*
X349252Y37337D02*
Y47337D01*
X369252D01*
X349252Y37337D02*
X369252D01*
Y47337D01*
D13*
X391981Y31787D02*
Y35507D01*
Y21767D02*
Y25488D01*
M02*
